<svg xmlns="http://www.w3.org/2000/svg" width="486.886" height="430" viewBox="0 0 486.886 430">
  <g id="kata-logo-white" transform="translate(-1030.4 -545.894)">
    <path id="Path_6" data-name="Path 6" d="M35-15.8l9.983-13,.807-1.02q2.506-3.271,5.522-3.271a4.219,4.219,0,0,1,3.144,1.253,4.329,4.329,0,0,1,1.232,3.165q0,2-2.591,5.268L37.17-3.356Q34.027.6,30.671.6A6.1,6.1,0,0,1,26-1.487a7.26,7.26,0,0,1-1.912-5.1,10.073,10.073,0,0,1,.127-1.572l1.4-7.646L16.95-3.356Q14.231.6,10.917.6A5.8,5.8,0,0,1,6.245-1.614,8.637,8.637,0,0,1,4.418-7.307a7.044,7.044,0,0,1,.042-.85l1.189-17.8a9.107,9.107,0,0,1,1.805-5.289,5.226,5.226,0,0,1,4.227-1.848q3.993,0,3.993,4.375,0,.722-.085,1.614L14.4-15.208l9.473-13.551q3.016-4.333,7.009-4.333a5.372,5.372,0,0,1,3.908,1.4,5.025,5.025,0,0,1,1.444,3.781q0,.977-.042,1.444ZM60.526-3.313,49.439,23.959q-2.294,5.65-6.712,5.65a4.123,4.123,0,0,1-2.91-1.126,3.556,3.556,0,0,1-1.211-2.7,12.237,12.237,0,0,1,1.062-3.993L60.144-28.674A5.521,5.521,0,0,1,65.581-32.5a4.8,4.8,0,0,1,4.248,2.549A9.618,9.618,0,0,1,77.093-33.1a8.822,8.822,0,0,1,7.2,3.377,13.691,13.691,0,0,1,2.74,8.9q0,10.45-6.5,17.035A11.806,11.806,0,0,1,76.159-.807,19.342,19.342,0,0,1,69.872,0,20.05,20.05,0,0,1,63.9-.6a8.381,8.381,0,0,1-3.374-2.718Zm3.483-8.666a6.433,6.433,0,0,0,2.018,2.421,6.326,6.326,0,0,0,3.037.552,5.575,5.575,0,0,0,4.715-2.251A15.333,15.333,0,0,0,77.221-20.6q0-4.121-3.908-4.121-4.291,0-6.16,4.97-.212.552-.34.935ZM127.926-32.5h1.317q5.4,0,5.4,3.781a4.769,4.769,0,0,1-1.912,4.036,8.558,8.558,0,0,1-5.268,1.444h-3.1l-5.7,13.978h4.758q5.4,0,5.4,3.781a4.789,4.789,0,0,1-1.89,4.036A8.541,8.541,0,0,1,121.639,0h-7.6a8.064,8.064,0,0,1-5.119-1.487,4.861,4.861,0,0,1-1.89-4.036,9.475,9.475,0,0,1,.765-3.483l.807-1.869,5.013-12.362h-.637q-4.758,0-4.758-3.7a4.891,4.891,0,0,1,1.89-4.1A8.45,8.45,0,0,1,115.4-32.5h1.954l2.251-5.565.467-1.147q2-4.715,6.287-4.715a4.24,4.24,0,0,1,2.995,1.168,3.722,3.722,0,0,1,1.253,2.825,10.5,10.5,0,0,1-1.1,4.078Zm23.186,1.827q4.46-2.421,7.349-2.421a9.825,9.825,0,0,1,6.691,2.273,7.344,7.344,0,0,1,2.613,5.8,12.372,12.372,0,0,1-1.02,4.63l-4.46,11.13h4.885q5.353,0,5.353,3.781a4.789,4.789,0,0,1-1.89,4.036A8.541,8.541,0,0,1,165.342,0H156.8a6.864,6.864,0,0,1-4.567-1.551,4.783,4.783,0,0,1-1.848-3.8,10.845,10.845,0,0,1,.977-3.908l3.908-9.6a8.386,8.386,0,0,0,.73-2.764q0-2.421-3.229-2.421-4.333,0-7.307,7.392L140.7-4.97Q138.452.595,134.034.6A4.3,4.3,0,0,1,131.06-.5a3.465,3.465,0,0,1-1.232-2.676,7.834,7.834,0,0,1,.637-2.8l.467-1.147L149.411-52.71q2.421-5.862,6.627-5.862a4.24,4.24,0,0,1,2.995,1.168,3.722,3.722,0,0,1,1.253,2.825,11.868,11.868,0,0,1-1.1,4.036Zm31.045,18.224q0,3.186,4.8,3.186h12.617q5.353,0,5.353,3.781a4.789,4.789,0,0,1-1.89,4.036A8.541,8.541,0,0,1,197.747,0H185.725q-6.712,0-10.217-3.313T172-13a20.039,20.039,0,0,1,5.544-14.146,17.433,17.433,0,0,1,13.19-5.947,13.221,13.221,0,0,1,8.942,2.91,9.627,9.627,0,0,1,3.377,7.668,9.193,9.193,0,0,1-4.673,8.5q-2.591,1.572-7.731,1.572ZM184.2-20.18h4.673q4.545,0,4.418-2-.127-2.251-2.931-2.251-3.909,0-6.156,4.253ZM255.469-9.261h5.055q5.352,0,5.353,3.781a4.789,4.789,0,0,1-1.89,4.036A8.463,8.463,0,0,1,258.74,0h-8.624a6.758,6.758,0,0,1-4.545-1.487A4.889,4.889,0,0,1,243.829-5.4a12.992,12.992,0,0,1,1.147-4.5l3.993-9.728a4.259,4.259,0,0,0,.34-1.572q0-2.761-2.8-2.761A6.374,6.374,0,0,0,242.215-22a13.772,13.772,0,0,0-3.4,5.183L234.059-5.1q-2.336,5.692-6.8,5.692a4.208,4.208,0,0,1-2.974-1.147,3.594,3.594,0,0,1-1.232-2.719,8.239,8.239,0,0,1,.637-2.889l.467-1.147,4.8-11.852a7.121,7.121,0,0,0,.637-2.464,2.074,2.074,0,0,0-.85-1.635,3.041,3.041,0,0,0-2-.7q-4.588,0-7.264,6.627L214.518-5.14Q212.181.6,207.763.6a4.329,4.329,0,0,1-2.995-1.126,3.548,3.548,0,0,1-1.253-2.74,7.988,7.988,0,0,1,.637-2.889l.467-1.147,8.454-20.815q1.784-4.375,5.353-4.375a4.27,4.27,0,0,1,4.588,3.483,21.648,21.648,0,0,1,4.694-3.271,10.862,10.862,0,0,1,4.439-.807,9.237,9.237,0,0,1,8.539,4.97q4.758-4.97,10.705-4.97a10.085,10.085,0,0,1,6.818,2.358,7.361,7.361,0,0,1,2.74,5.8,11.785,11.785,0,0,1-.935,4.46Zm20.042-3.186q0,3.186,4.8,3.186h12.617q5.353,0,5.353,3.781a4.789,4.789,0,0,1-1.89,4.036A8.541,8.541,0,0,1,291.1,0H279.08q-6.712,0-10.217-3.313T265.358-13A20.039,20.039,0,0,1,270.9-27.145a17.433,17.433,0,0,1,13.19-5.947,13.221,13.221,0,0,1,8.942,2.91,9.627,9.627,0,0,1,3.377,7.668,9.193,9.193,0,0,1-4.673,8.5q-2.591,1.572-7.731,1.572Zm2.039-7.731h4.673q4.545,0,4.418-2-.127-2.251-2.931-2.251Q279.8-24.426,277.55-20.178Z" transform="translate(1219 901.894)" fill="#d8dbdf"/>
    <text id="ata" transform="translate(1206 827.894)" fill="#fff" font-size="173" font-family="BellaFashionPersonalUse, Bella Fashion Personal Use"><tspan x="0" y="0">ata</tspan></text>
    <path id="Path_10" data-name="Path 10" d="M84.989,203.275a39.918,39.918,0,1,1,39.918-39.918,39.918,39.918,0,0,1-39.918,39.918Zm0-57.836a17.918,17.918,0,1,0,17.918,17.918,17.918,17.918,0,0,0-17.918-17.918Z" transform="translate(995.929 475.455)" fill="#fff"/>
    <path id="Path_9" data-name="Path 9" d="M389.037,25.3c-1.6,0-3.2.1-4.9.2-74.2,7.3-140.7,38.3-212,91.3-3.8,2.8-8.4-2.2-5.3-5.7,33.1-38.4,47.2-56.8,43.8-75.4,0-.1-.1-.3-.1-.4-5.5-19.7-21.7-25.3-37.5-25.3a85.3,85.3,0,0,0-30.3,6c-19.5,8.3-22.2,31.3-13.8,31.3a7.2,7.2,0,0,0,3.8-1.3c10.3-6.4,19.6-13.2,30.1-13.2a24.833,24.833,0,0,1,6.5.9c12.4,3.4,15,13,6.3,22.3-94,115.9-88,107.4-134,173-32,47.5-36.1,75-27.7,80.9,1.5,1.3,6,3.4,10.9,3.4s10.1-2.2,12.8-9.6c9.7-24.4,35.9-86.4,108.4-140.3a3,3,0,0,1,4.7,3.1c-8.8,36.4-35.3,142.2,1.8,175.4,3.6,3.3,8.8,4.6,14,4.6,10.9,0,22.2-5.5,21.8-10.5-.7-7.3-7-13-13.7-35.3-6.6-22.2-8.4-78.4,6.3-154.3a2.652,2.652,0,0,1,1.1-1.8c24.4-18.8,122.3-86.8,240-94.9h.3C439.837,47,416.337,25.3,389.037,25.3Z" transform="translate(1020.243 550.894)" fill="#fff"/>
  </g>
</svg>
