<svg xmlns="http://www.w3.org/2000/svg" xmlns:xlink="http://www.w3.org/1999/xlink" width="1324.648" height="450.001" viewBox="0 0 1324.648 450.001">
  <defs>
    <linearGradient id="linear-gradient" x1="0.228" y1="0.237" x2="0.689" y2="0.71" gradientUnits="objectBoundingBox">
      <stop offset="0" stop-color="#908efc"/>
      <stop offset="1" stop-color="#403cf2"/>
    </linearGradient>
  </defs>
  <g id="kata-logo-n" transform="translate(-159.987 -315.228)">
    <g id="kata-icon" transform="translate(-199.984 -1.982)">
      <circle id="Ellipse_4" data-name="Ellipse 4" cx="225" cy="225" r="225" transform="translate(359.971 317.209)" fill="url(#linear-gradient)"/>
      <circle id="Ellipse_3" data-name="Ellipse 3" cx="28.918" cy="28.918" r="28.918" transform="translate(552.347 394.225) rotate(-8)" fill="none" stroke="#fff" stroke-width="22"/>
      <path id="Path_1" data-name="Path 1" d="M177.847-71.455Q199.6-57.217,207.642-45.747q10.942,15.293,10.942,40.21V31.245H202.5a19.272,19.272,0,0,1-13.975-5.669,19.333,19.333,0,0,1-5.8-13.975V-5.537q0-27.686-17.139-39.551-14.634-10.283-44.824-10.283H52.6a4.927,4.927,0,0,0-3.428,1.318,4.918,4.918,0,0,0-1.582,3.56V1.318H28.081A16.283,16.283,0,0,1,16.348-3.56,15.719,15.719,0,0,1,11.47-15.293v-184.57l9.1-.132a26.262,26.262,0,0,1,19.248,8.042,25.986,25.986,0,0,1,7.778,19.116v82.661a4.642,4.642,0,0,0,1.582,3.56,4.687,4.687,0,0,0,3.428,1.45h77.124A43.667,43.667,0,0,0,159.39-96.5a59.848,59.848,0,0,0,15.688-18.721,19.7,19.7,0,0,1,7.91-8.174,21.212,21.212,0,0,1,10.811-2.9h17.139a22.419,22.419,0,0,1,.527,4.878q0,10.679-8.965,24.653Q189.448-79.233,177.847-71.455Z" transform="translate(512.092 468.977) rotate(90)" fill="#fff"/>
    </g>
    <g id="kata-typeface" transform="translate(-3.137 -0.896)">
      <path id="Path_2" data-name="Path 2" d="M2.859-66.234h8.578L26.859-11.953,43.313-62.578h6.563L66.281-11.953,81.7-66.234h8.578L70.922,0H62.766L46.594-49.547,30.422,0h-8.2ZM117.257.8A22.2,22.2,0,0,1,105.3-2.461a22.559,22.559,0,0,1-8.18-8.812,25.866,25.866,0,0,1-2.93-12.258A25.493,25.493,0,0,1,97.124-35.7a22.3,22.3,0,0,1,8.18-8.719,22.446,22.446,0,0,1,11.953-3.211,22.567,22.567,0,0,1,11.977,3.211,22.377,22.377,0,0,1,8.227,8.742,25.37,25.37,0,0,1,2.953,12.141,25.7,25.7,0,0,1-2.953,12.258,22.675,22.675,0,0,1-8.227,8.813A22.32,22.32,0,0,1,117.257.8Zm0-6.891a13.78,13.78,0,0,0,8.063-2.344,14.645,14.645,0,0,0,5.109-6.3,21.681,21.681,0,0,0,1.734-8.789,21.232,21.232,0,0,0-1.734-8.7,14.38,14.38,0,0,0-5.109-6.211,13.983,13.983,0,0,0-8.062-2.3,13.894,13.894,0,0,0-7.992,2.273,14.284,14.284,0,0,0-5.086,6.188,21.351,21.351,0,0,0-1.734,8.742,21.848,21.848,0,0,0,1.734,8.813,14.526,14.526,0,0,0,5.086,6.3A13.69,13.69,0,0,0,117.257-6.094Zm35.694-40.734h7.734v9.188a14.063,14.063,0,0,1,3.281-5.484,14.686,14.686,0,0,1,4.945-3.375,14.634,14.634,0,0,1,5.6-1.125,13.846,13.846,0,0,1,4.172.633,10.133,10.133,0,0,1,3.563,1.945l-3.656,6.563a10.671,10.671,0,0,0-5.25-1.406,11.273,11.273,0,0,0-6.094,1.828,13.194,13.194,0,0,0-4.758,5.742,22.816,22.816,0,0,0-1.852,9.773V0h-7.687ZM205.38.8a18.659,18.659,0,0,1-10.922-3.258,21.185,21.185,0,0,1-7.219-8.789,28.94,28.94,0,0,1-2.531-12.187,29.057,29.057,0,0,1,2.508-12.141,21.085,21.085,0,0,1,7.172-8.789,18.474,18.474,0,0,1,10.852-3.258,18.007,18.007,0,0,1,9.211,2.438,16.388,16.388,0,0,1,6.445,6.8V-66.234h8.063V0h-7.406l-.328-8.859a16.59,16.59,0,0,1-6.492,7.125A17.91,17.91,0,0,1,205.38.8Zm1.875-7.219a13.323,13.323,0,0,0,7.688-2.2,13.85,13.85,0,0,0,4.922-6.07,21.651,21.651,0,0,0,1.688-8.742,21.528,21.528,0,0,0-1.687-8.7,13.85,13.85,0,0,0-4.922-6.07,13.323,13.323,0,0,0-7.687-2.2,13.441,13.441,0,0,0-7.734,2.227,14.2,14.2,0,0,0-5.016,6.094,20.9,20.9,0,0,0-1.734,8.648,21.023,21.023,0,0,0,1.734,8.7,14.2,14.2,0,0,0,5.016,6.094A13.441,13.441,0,0,0,207.255-6.422Zm40.476-59.812h19.031a29.239,29.239,0,0,1,11.836,2.25,17.98,17.98,0,0,1,7.992,6.563A18.063,18.063,0,0,1,289.449-47.2a17.83,17.83,0,0,1-2.812,10.125,17.467,17.467,0,0,1-7.945,6.4,30.324,30.324,0,0,1-11.93,2.18H255.934V0h-8.2Zm19.031,30q7.266,0,10.875-2.789t3.609-8.18a10.087,10.087,0,0,0-3.68-8.344q-3.68-2.953-10.8-2.953H255.934v22.266Zm33.866-10.594h7.734v9.188a14.063,14.063,0,0,1,3.281-5.484,14.686,14.686,0,0,1,4.945-3.375,14.634,14.634,0,0,1,5.6-1.125,13.846,13.846,0,0,1,4.172.633,10.133,10.133,0,0,1,3.563,1.945l-3.656,6.563a10.671,10.671,0,0,0-5.25-1.406,11.273,11.273,0,0,0-6.094,1.828,13.194,13.194,0,0,0-4.758,5.742,22.816,22.816,0,0,0-1.852,9.773V0h-7.687ZM354.791.8a22.5,22.5,0,0,1-12.234-3.187,20.2,20.2,0,0,1-7.641-8.648A28.138,28.138,0,0,1,332.338-23.2a29.615,29.615,0,0,1,2.484-12.187,20.721,20.721,0,0,1,7.383-8.906,20.474,20.474,0,0,1,11.789-3.328q7.359,0,12.023,3.375a19.222,19.222,0,0,1,6.727,8.461,27.517,27.517,0,0,1,2.063,10.43q0,1.266-.117,2.508a13.472,13.472,0,0,1-.258,1.8h-33.7q.469,6.891,4.055,10.758t10.055,3.867a17.789,17.789,0,0,0,6.984-1.289,17.7,17.7,0,0,0,5.906-4.336l5.531,4.828a25.145,25.145,0,0,1-8.32,6.094A25.283,25.283,0,0,1,354.791.8Zm12.141-27.656a16.619,16.619,0,0,0-.187-2.953,13.942,13.942,0,0,0-1.992-5.555A11.655,11.655,0,0,0,360.44-39.4a13.163,13.163,0,0,0-6.492-1.523,11.578,11.578,0,0,0-9.141,3.82,18,18,0,0,0-4.078,10.242ZM401.407.8a22.082,22.082,0,0,1-8.578-1.641,19.608,19.608,0,0,1-6.7-4.523,16.847,16.847,0,0,1-3.937-6.445l6.422-2.812a13.952,13.952,0,0,0,4.5,6.258,12.3,12.3,0,0,0,7.922,2.508,12.79,12.79,0,0,0,5.344-1.008,7.447,7.447,0,0,0,3.3-2.742,7.023,7.023,0,0,0,1.1-3.844,5.1,5.1,0,0,0-1.43-3.773,9.778,9.778,0,0,0-3.586-2.227,58.391,58.391,0,0,0-5.953-1.734,62.91,62.91,0,0,1-7.8-2.414,12.61,12.61,0,0,1-5.086-3.75,10.453,10.453,0,0,1-2.109-6.867,12.04,12.04,0,0,1,2.2-7.289,13.586,13.586,0,0,1,5.953-4.57,21.686,21.686,0,0,1,8.344-1.547,19.115,19.115,0,0,1,9.961,2.578,18.7,18.7,0,0,1,6.914,7.313l-6.141,3.328a14.271,14.271,0,0,0-4.43-4.992,11.282,11.282,0,0,0-6.586-1.9,10.537,10.537,0,0,0-6.281,1.688,5.154,5.154,0,0,0-2.344,4.359,4.409,4.409,0,0,0,1.359,3.352,10,10,0,0,0,3.422,2.063q2.063.773,5.625,1.711a64.544,64.544,0,0,1,8.156,2.7,13.8,13.8,0,0,1,5.391,4.125,11.56,11.56,0,0,1,2.25,7.477,13.537,13.537,0,0,1-2.344,8.039,14.238,14.238,0,0,1-6.258,4.945A22.033,22.033,0,0,1,401.407.8Zm44.179,0a22.082,22.082,0,0,1-8.578-1.641,19.608,19.608,0,0,1-6.7-4.523,16.847,16.847,0,0,1-3.937-6.445l6.422-2.812a13.952,13.952,0,0,0,4.5,6.258,12.3,12.3,0,0,0,7.922,2.508,12.79,12.79,0,0,0,5.344-1.008,7.447,7.447,0,0,0,3.3-2.742,7.023,7.023,0,0,0,1.1-3.844,5.1,5.1,0,0,0-1.43-3.773,9.778,9.778,0,0,0-3.586-2.227,58.391,58.391,0,0,0-5.953-1.734,62.91,62.91,0,0,1-7.8-2.414,12.61,12.61,0,0,1-5.086-3.75,10.453,10.453,0,0,1-2.109-6.867,12.04,12.04,0,0,1,2.2-7.289,13.586,13.586,0,0,1,5.953-4.57,21.686,21.686,0,0,1,8.344-1.547,19.115,19.115,0,0,1,9.961,2.578,18.7,18.7,0,0,1,6.914,7.313l-6.141,3.328A14.271,14.271,0,0,0,451.8-39.4a11.282,11.282,0,0,0-6.586-1.9,10.537,10.537,0,0,0-6.281,1.688,5.154,5.154,0,0,0-2.344,4.359,4.409,4.409,0,0,0,1.359,3.352,10,10,0,0,0,3.422,2.063q2.063.773,5.625,1.711a64.544,64.544,0,0,1,8.156,2.7,13.8,13.8,0,0,1,5.391,4.125,11.56,11.56,0,0,1,2.25,7.477,13.537,13.537,0,0,1-2.344,8.039,14.238,14.238,0,0,1-6.258,4.945A22.033,22.033,0,0,1,445.586.8Zm72-59.625H495.272v-7.406h52.875v7.406H525.834V0h-8.25Zm42.022-7.406h8.063V-39.7a15.822,15.822,0,0,1,6.07-5.906,16.822,16.822,0,0,1,8.133-2.016,16.359,16.359,0,0,1,9.211,2.461,14.972,14.972,0,0,1,5.555,6.633,24.234,24.234,0,0,1,1.922,9.375V0H590.5V-27.7q0-12.7-10.453-12.7a11.774,11.774,0,0,0-6.727,1.875,11.643,11.643,0,0,0-4.219,5.18,19.034,19.034,0,0,0-1.43,7.617V0h-8.062ZM632.567.8a22.5,22.5,0,0,1-12.234-3.187,20.2,20.2,0,0,1-7.641-8.648A28.138,28.138,0,0,1,610.114-23.2,29.615,29.615,0,0,1,612.6-35.391a20.721,20.721,0,0,1,7.383-8.906,20.474,20.474,0,0,1,11.789-3.328q7.359,0,12.023,3.375a19.222,19.222,0,0,1,6.727,8.461,27.517,27.517,0,0,1,2.063,10.43q0,1.266-.117,2.508a13.472,13.472,0,0,1-.258,1.8H618.5q.469,6.891,4.055,10.758t10.055,3.867A17.789,17.789,0,0,0,639.6-7.711a17.7,17.7,0,0,0,5.906-4.336l5.531,4.828a25.145,25.145,0,0,1-8.32,6.094A25.283,25.283,0,0,1,632.567.8Zm12.141-27.656a16.619,16.619,0,0,0-.187-2.953,13.942,13.942,0,0,0-1.992-5.555,11.655,11.655,0,0,0-4.312-4.031,13.163,13.163,0,0,0-6.492-1.523,11.578,11.578,0,0,0-9.141,3.82A18,18,0,0,0,618.5-26.859Zm20.507-19.969H672.9v7.359a13.469,13.469,0,0,1,5.531-6.141,16.178,16.178,0,0,1,8.109-2.016,16.159,16.159,0,0,1,8.813,2.367,13.161,13.161,0,0,1,5.391,7.289A16.094,16.094,0,0,1,707-45.211a17.233,17.233,0,0,1,9.07-2.414,15.558,15.558,0,0,1,9.188,2.578,15.169,15.169,0,0,1,5.414,7.078,28.335,28.335,0,0,1,1.758,10.359V0h-7.969V-26.672q0-6.609-2.32-10.078t-7.617-3.469a11.222,11.222,0,0,0-6.187,1.711,11.19,11.19,0,0,0-4.1,4.688,15.343,15.343,0,0,0-1.43,6.727V0h-7.922V-27.844q0-5.859-2.391-9.117T685-40.219a11.308,11.308,0,0,0-6.234,1.711,11.19,11.19,0,0,0-4.1,4.688,15.343,15.343,0,0,0-1.43,6.727V0h-7.969ZM766.393.8a22.5,22.5,0,0,1-12.234-3.187,20.2,20.2,0,0,1-7.641-8.648A28.138,28.138,0,0,1,743.94-23.2a29.615,29.615,0,0,1,2.484-12.187,20.721,20.721,0,0,1,7.383-8.906A20.474,20.474,0,0,1,765.6-47.625q7.359,0,12.023,3.375a19.222,19.222,0,0,1,6.727,8.461,27.517,27.517,0,0,1,2.063,10.43q0,1.266-.117,2.508a13.472,13.472,0,0,1-.258,1.8h-33.7q.469,6.891,4.055,10.758T766.44-6.422a17.789,17.789,0,0,0,6.984-1.289,17.7,17.7,0,0,0,5.906-4.336l5.531,4.828a25.145,25.145,0,0,1-8.32,6.094A25.283,25.283,0,0,1,766.393.8Zm12.141-27.656a16.619,16.619,0,0,0-.187-2.953,13.942,13.942,0,0,0-1.992-5.555,11.655,11.655,0,0,0-4.312-4.031,13.163,13.163,0,0,0-6.492-1.523,11.578,11.578,0,0,0-9.141,3.82,18,18,0,0,0-4.078,10.242Z" transform="translate(701 708)" fill="#82889b"/>
      <path id="Path_3" data-name="Path 3" d="M177.847-71.455Q199.6-57.217,207.642-45.747q10.942,15.293,10.942,40.21V31.245H202.5a19.272,19.272,0,0,1-13.975-5.669,19.333,19.333,0,0,1-5.8-13.975V-5.537q0-27.686-17.139-39.551-14.634-10.283-44.824-10.283H52.6a4.927,4.927,0,0,0-3.428,1.318,4.918,4.918,0,0,0-1.582,3.56V1.318H28.081A16.283,16.283,0,0,1,16.348-3.56,15.719,15.719,0,0,1,11.47-15.293v-184.57l9.1-.132a26.262,26.262,0,0,1,19.248,8.042,25.986,25.986,0,0,1,7.778,19.116v82.661a4.642,4.642,0,0,0,1.582,3.56,4.687,4.687,0,0,0,3.428,1.45h77.124A43.667,43.667,0,0,0,159.39-96.5a59.848,59.848,0,0,0,15.688-18.721,19.7,19.7,0,0,1,7.91-8.174,21.212,21.212,0,0,1,10.811-2.9h17.139a22.419,22.419,0,0,1,.527,4.878q0,10.679-8.965,24.653Q189.448-79.233,177.847-71.455Zm280.02,55.371A16.222,16.222,0,0,1,453.12-4.351,16.515,16.515,0,0,1,441.387.4H424.38V-71.323l-.132-2.241-.132-1.055v-.264a2.488,2.488,0,0,1-.132-.791l-.4-1.187a20.9,20.9,0,0,0-5.01-8.965,20.519,20.519,0,0,0-9.624-5.273l-2.9-.527H404.6l-.264-.132H301.9l-.659.132-3.032.132a4.685,4.685,0,0,1-1.318.4,4.977,4.977,0,0,0-1.582.264,16.754,16.754,0,0,0-3.428,1.055,24.987,24.987,0,0,0-6.46,3.823,25.588,25.588,0,0,0-8.569,11.865,24.3,24.3,0,0,0-1.318,7.383v7.383l.132,2.9q1.318,5.405,1.714,6.328a25.106,25.106,0,0,0,3.56,6.2,26.092,26.092,0,0,0,5.142,4.878,22.137,22.137,0,0,0,6.2,3.428A28.687,28.687,0,0,0,299-33.882l1.582.132H387.07q8.438,0,14.766-.264,11.733-.4,17.4-3.032a23.561,23.561,0,0,1,.4,4.351,27.931,27.931,0,0,1-4.219,14.37Q405-.4,372.041-.4h-2.769q-5.537,0-73.7-.132a60.927,60.927,0,0,1-15.293-3.691A53.65,53.65,0,0,1,266.177-12a55.739,55.739,0,0,1-11.6-11.206,63.985,63.985,0,0,1-8.306-14.238,62.722,62.722,0,0,1-4.087-17.139l-.132-3.032-.132-2.373v-1.45q0-5.669.132-6.855A57.646,57.646,0,0,1,245.215-84.9a58.517,58.517,0,0,1,19.248-27.29,62.94,62.94,0,0,1,14.766-8.7,73.141,73.141,0,0,1,8.174-2.5,46.647,46.647,0,0,1,9.1-1.45l3.032-.264H405.264l3.823.264a59.51,59.51,0,0,1,7.778,1.187,52.511,52.511,0,0,1,25.444,14.37A52.575,52.575,0,0,1,456.021-85.3q.659,2.5.791,3.164.527,3.955.527,3.823l.4,1.846v1.187l.132,2.241ZM565.181-126.035v9.1a21.33,21.33,0,0,1-4.219,13.315q-4.219,5.405-10.283,5.405H537.891v73.3A25.374,25.374,0,0,1,530.376-6.46a25.369,25.369,0,0,1-18.589,7.778h-8.042V-98.218h-27.29v-6.592a23.349,23.349,0,0,1,4.878-14.9q4.878-6.328,11.865-6.328h10.547v-52.207a21.821,21.821,0,0,1,6.724-16.216,21.821,21.821,0,0,1,16.216-6.724h11.206v75.146ZM800.771-16.084a16.222,16.222,0,0,1-4.746,11.733A16.514,16.514,0,0,1,784.292.4H767.285V-71.323l-.132-2.241-.132-1.055v-.264a2.488,2.488,0,0,1-.132-.791l-.4-1.187a20.9,20.9,0,0,0-5.01-8.965A20.519,20.519,0,0,0,751.86-91.1l-2.9-.527h-1.45l-.264-.132H644.81l-.659.132-3.032.132a4.685,4.685,0,0,1-1.318.4,4.977,4.977,0,0,0-1.582.264,16.754,16.754,0,0,0-3.428,1.055,24.987,24.987,0,0,0-6.46,3.823,25.588,25.588,0,0,0-8.569,11.865,24.3,24.3,0,0,0-1.318,7.383v7.383l.132,2.9q1.318,5.405,1.714,6.328a25.106,25.106,0,0,0,3.56,6.2,26.092,26.092,0,0,0,5.142,4.878,22.137,22.137,0,0,0,6.2,3.428,28.687,28.687,0,0,0,6.724,1.714l1.582.132h86.484q8.438,0,14.766-.264,11.733-.4,17.4-3.032a23.561,23.561,0,0,1,.4,4.351,27.931,27.931,0,0,1-4.219,14.37Q747.905-.4,714.946-.4h-2.769q-5.537,0-73.7-.132a60.927,60.927,0,0,1-15.293-3.691A53.65,53.65,0,0,1,609.082-12,55.739,55.739,0,0,1,597.48-23.2a63.985,63.985,0,0,1-8.306-14.238,62.722,62.722,0,0,1-4.087-17.139l-.132-3.032-.132-2.373v-1.45q0-5.669.132-6.855A57.646,57.646,0,0,1,588.12-84.9a58.517,58.517,0,0,1,19.248-27.29,62.94,62.94,0,0,1,14.766-8.7,73.141,73.141,0,0,1,8.174-2.5,46.647,46.647,0,0,1,9.1-1.45l3.032-.264H748.169l3.823.264a59.51,59.51,0,0,1,7.778,1.187,52.511,52.511,0,0,1,25.444,14.37A52.575,52.575,0,0,1,798.926-85.3q.659,2.5.791,3.164.527,3.955.527,3.823l.4,1.846v1.187l.132,2.241Z" transform="translate(687 584)" fill="#2c3a55"/>
    </g>
  </g>
</svg>
