<svg xmlns="http://www.w3.org/2000/svg" width="15.674" height="28.246" viewBox="0 0 15.674 28.246">
  <defs>
    <style>
      .cls-1 {
        fill: #e0e5eb;
      }
    </style>
  </defs>
  <path id="Path_7" data-name="Path 7" class="cls-1" d="M1.172-11.645a9.515,9.515,0,0,1,2.776-7.021,7.061,7.061,0,0,1,5.225-1.959,7.508,7.508,0,0,1,5.551,1.959,7.3,7.3,0,0,1,2.123,5.388,6.451,6.451,0,0,1-1.959,4.735l-3.1,3.1a5.987,5.987,0,0,0-1.469,4.408H7.376A10.175,10.175,0,0,1,8.519-6.42a23.168,23.168,0,0,1,3.1-3.592,4.238,4.238,0,0,0,1.306-3.1,4.657,4.657,0,0,0-1.143-3.429,3.754,3.754,0,0,0-2.776-.98,3.323,3.323,0,0,0-2.449.98,6.653,6.653,0,0,0-1.633,4.9ZM7.05,3.7h3.592V7.621H7.05Z" transform="translate(-1.172 20.625)"/>
</svg>
