<svg id="Component_1_1" data-name="Component 1 – 1" xmlns="http://www.w3.org/2000/svg" width="150" height="191" viewBox="0 0 150 191">
  <rect id="Rectangle_199" data-name="Rectangle 199" width="150" height="150" rx="2" fill="#e4e9ee"/>
  <path id="Path_17" data-name="Path 17" d="M15.08.65A5.467,5.467,0,0,1,11.245-.715,4.931,4.931,0,0,1,9.75-4.55V-59.41a4.931,4.931,0,0,1,1.5-3.835A5.467,5.467,0,0,1,15.08-64.61a5.233,5.233,0,0,1,3.77,1.365,5.05,5.05,0,0,1,1.43,3.835V-4.55a5.01,5.01,0,0,1-1.43,3.9A5.388,5.388,0,0,1,15.08.65Zm0-78.91a7.132,7.132,0,0,1-5.07-1.82,6.27,6.27,0,0,1-1.95-4.81,6.115,6.115,0,0,1,1.95-4.68,7.132,7.132,0,0,1,5.07-1.82,7.132,7.132,0,0,1,5.07,1.82,6.115,6.115,0,0,1,1.95,4.68,6.27,6.27,0,0,1-1.95,4.81A7.132,7.132,0,0,1,15.08-78.26Z" transform="translate(60 120.39)" fill="#c8d1dc"/>
  <g id="Change_Button" data-name="Change Button" transform="translate(-549 -171)">
    <rect id="Rectangle_200" data-name="Rectangle 200" width="150" height="36" rx="2" transform="translate(549 326)" fill="#ccf8ff"/>
    <text id="Change" transform="translate(602 350)" fill="#00d6f9" font-size="14" font-family="SegoeUI, Segoe UI"><tspan x="0" y="0">Change</tspan></text>
  </g>
</svg>
