
<!-- Generator: Adobe Illustrator 19.1.1, SVG Export Plug-In . SVG Version: 6.00 Build 0)  -->
<svg version="1.1" id="Icon_-_OUTLINE" xmlns="http://www.w3.org/2000/svg" xmlns:xlink="http://www.w3.org/1999/xlink" x="0px"
	 y="0px" viewBox="-426 228 106 106" style="enable-background:new -426 228 106 106;" xml:space="preserve">
<style type="text/css">
	.st0{fill:#FFFFFF;}
	.st1{fill:#403CF2;}
	.st2{fill:#FFFFFF;stroke:#403CF2;stroke-width:4.7772;stroke-linecap:round;stroke-linejoin:round;stroke-miterlimit:10;}
	.st3{fill:#FFFFFF;stroke:#403CF2;stroke-width:5.3251;stroke-linecap:round;stroke-linejoin:round;stroke-miterlimit:10;}
	.st4{fill:none;stroke:#403CF2;stroke-width:4.5649;stroke-linecap:round;stroke-linejoin:round;stroke-miterlimit:10;}
</style>
<title>icon_dsn</title>
<g>
	<g>
		<path class="st0" d="M-355,258.8c12.9,12.9,12.9,33.8,0,46.8c-12.9,12.9-33.8,12.9-46.8,0c-12.9-12.9-12.9-33.8,0-46.8
			c3.4-3.4,7.8-4.9,12.2-4.6c4.8,0.3,9.1,3.1,11.8,7.1l6.8,10.1c1.1,1.6,4.7,1.5,6.4-0.9c0.6-0.6,0.4-2.6,0-4.1
			c-1.3-3.7,0.2-6.3,1.5-7.6C-360.8,256.6-357.2,256.6-355,258.8z"/>
		<path class="st1" d="M-352.8,256.7c-3.3-3.3-9-3.3-12.3,0c-2.7,2.7-3.6,6.7-2.3,10.6c0.2,0.7,0.2,1.3,0.3,1.7
			c-0.5,0.5-1.1,0.5-1.5,0.5l-6.6-9.8c-3.3-4.9-8.6-8.1-14.1-8.4c-5.5-0.4-10.6,1.6-14.5,5.5c-14,14.1-14,37,0,51
			c7.1,7,16.3,10.5,25.5,10.5c7.1,0,14.1-2.1,20.2-6.2c1.1-6.9,6.6-12,13-15.9C-339.6,283.1-342.2,267.3-352.8,256.7z M-357.1,303.5
			c-11.7,11.7-30.8,11.7-42.6,0c-11.7-11.7-11.7-30.8,0-42.6c2.4-2.4,5.6-3.8,9-3.8c0.3,0,0.6,0,0.9,0c3.7,0.2,7.2,2.4,9.5,5.8
			l6.8,10.1c1,1.5,2.8,2.4,4.9,2.4c0,0,0,0,0.1,0c2.5,0,4.8-1.1,6.2-3.1c1.5-1.8,1.1-4.6,0.6-6.8c0-0.1,0-0.1-0.1-0.2
			c-0.8-2.3,0-3.7,0.8-4.5c1-1,2.9-1,3.9,0v0C-345.4,272.6-345.4,291.7-357.1,303.5z"/>
	</g>
	<path class="st1" d="M-393.5,294.5c1.4-1.4,3.6-1.4,4.9,0s1.4,3.6,0,4.9c-1.4,1.4-3.6,1.4-4.9,0
		C-394.8,298-394.8,295.9-393.5,294.5z"/>
	<circle class="st1" cx="-398.5" cy="284.2" r="4"/>
	<path class="st1" d="M-387.7,266c2.1,2.1,2.1,5.7,0,7.8s-5.7,2.1-7.8,0s-2.1-5.7,0-7.8S-389.8,263.9-387.7,266z"/>
</g>
<g>
	<path class="st2" d="M-371.8,319c7.3-2.7,3.7-8.8,4.6-12.5c0.9-3.9,4.9-6.3,8.9-5.4C-345.7,304.1-356.8,325.2-371.8,319z"/>
	<path class="st3" d="M-356.2,300.4c16.6,3.3,22.9-56.5,22.9-56.5l-0.3-0.1C-333.5,243.9-370.5,291.4-356.2,300.4L-356.2,300.4z"/>
	<line class="st4" x1="-346.3" y1="292.5" x2="-357.5" y2="288"/>
</g>
</svg>
