
<svg version="1.1" xmlns="http://www.w3.org/2000/svg" width="32" height="32" viewBox="0 0 32 32">

<path fill="#222" d="M16 3.5c-6.904 0-12.5 5.596-12.5 12.5 0 6.903 5.596 12.5 12.5 12.5 6.903 0 12.5-5.597 12.5-12.5 0-6.904-5.597-12.5-12.5-12.5zM14.166 13c-0.828 0-1.5-0.672-1.5-1.5 0-0.829 0.672-1.5 1.5-1.5 0.829 0 1.5 0.671 1.5 1.5 0 0.828-0.671 1.5-1.5 1.5zM16.666 8.167c0-0.829 0.672-1.5 1.5-1.5 0.829 0 1.5 0.671 1.5 1.5s-0.671 1.5-1.5 1.5c-0.828 0-1.5-0.672-1.5-1.5zM19.5 15.5c-1.104 0-2-0.896-2-2s0.896-2 2-2 2 0.896 2 2-0.896 2-2 2z"></path>
</svg>
