<svg xmlns="http://www.w3.org/2000/svg" width="17.438" height="17.438" viewBox="0 0 17.438 17.438">
  <path d="M9-15.469a8.452,8.452,0,0,1,4.359,1.178,8.81,8.81,0,0,1,3.182,3.182A8.452,8.452,0,0,1,17.719-6.75a8.452,8.452,0,0,1-1.178,4.359A8.81,8.81,0,0,1,13.359.791,8.452,8.452,0,0,1,9,1.969,8.452,8.452,0,0,1,4.641.791,8.81,8.81,0,0,1,1.459-2.391,8.452,8.452,0,0,1,.281-6.75a8.452,8.452,0,0,1,1.178-4.359,8.81,8.81,0,0,1,3.182-3.182A8.452,8.452,0,0,1,9-15.469Zm2,12.3a.381.381,0,0,0,.316.07A.45.45,0,0,0,11.6-3.27l.984-1.336a.437.437,0,0,0,.088-.316.385.385,0,0,0-.158-.281L10.266-6.82v-4.852a.407.407,0,0,0-.123-.3.407.407,0,0,0-.3-.123H8.156a.407.407,0,0,0-.3.123.407.407,0,0,0-.123.3v5.906a.433.433,0,0,0,.176.352Z" transform="translate(-0.281 15.469)"/>
</svg>
