<svg xmlns="http://www.w3.org/2000/svg" width="15.772" height="17.438" viewBox="0 0 15.772 17.438">
  <path d="M14.59-10.09a9.269,9.269,0,0,1,1.072,3.146,7.831,7.831,0,0,1-.158,3.27A6.723,6.723,0,0,1,13.746-.738a8,8,0,0,1-3.48,2.145,6.533,6.533,0,0,0,1.16-3.023,5.741,5.741,0,0,0-.316-2.953A2.519,2.519,0,0,0,9.316-6.187a3.367,3.367,0,0,1,.492,2.355,2.666,2.666,0,0,1-.949,1.688,2.073,2.073,0,0,1-1.687.492,2.452,2.452,0,0,1-1.723-1.23A6.278,6.278,0,0,0,5.1-1.23,4.923,4.923,0,0,0,5.59,1.688q-3.9-.563-5.1-3.27A4.754,4.754,0,0,1,.334-5.467,7.617,7.617,0,0,1,3.27-8.789a6.194,6.194,0,0,0,1.863-1.9,4.054,4.054,0,0,0,.457-1.9A4.772,4.772,0,0,0,5.2-14.2a8.72,8.72,0,0,0-.6-1.125l-.352-.422a18.451,18.451,0,0,1,2.109.422,20.2,20.2,0,0,1,4.395,1.723A9.548,9.548,0,0,1,14.59-10.09Z" transform="translate(0.008 15.75)"/>
</svg>
