<svg xmlns="http://www.w3.org/2000/svg" width="17.766" height="17" viewBox="0 0 17.766 17">
  <path d="M8.6-14.277a1.01,1.01,0,0,1,.581-.531,1.131,1.131,0,0,1,.764,0,1.01,1.01,0,0,1,.581.531l2.158,4.383,4.848.7a1.007,1.007,0,0,1,.681.4,1.109,1.109,0,0,1,.232.73,1.019,1.019,0,0,1-.315.7l-3.52,3.42L15.439.9a1.049,1.049,0,0,1-.149.747.975.975,0,0,1-.614.448,1.024,1.024,0,0,1-.764-.1L9.563-.266,5.213,1.992a1.024,1.024,0,0,1-.764.1.975.975,0,0,1-.614-.448A1.049,1.049,0,0,1,3.686.9l.83-4.848L1-7.371a1.019,1.019,0,0,1-.315-.7A1.109,1.109,0,0,1,.913-8.8a1.007,1.007,0,0,1,.681-.4l4.848-.7Z" transform="translate(-0.68 14.875)"/>
</svg>
