<?xml version="1.0" standalone="no"?>
<!DOCTYPE svg PUBLIC "-//W3C//DTD SVG 20010904//EN"
 "http://www.w3.org/TR/2001/REC-SVG-20010904/DTD/svg10.dtd">
<svg version="1.0" xmlns="http://www.w3.org/2000/svg"
 width="397.000000pt" height="354.000000pt" viewBox="0 0 397.000000 354.000000"
 preserveAspectRatio="xMidYMid meet">

<g transform="translate(0.000000,354.000000) scale(0.100000,-0.100000)"
fill="#82878c" stroke="none">
<path d="M1660 3530 c-548 -67 -1036 -347 -1337 -768 -146 -204 -244 -433
-295 -687 -32 -160 -32 -451 0 -614 157 -784 810 -1360 1644 -1450 136 -15
2208 -15 2241 0 53 24 57 47 57 304 0 257 -4 280 -57 304 -16 7 -128 11 -319
11 l-295 0 67 83 c226 277 344 569 376 929 19 224 -6 432 -82 659 -206 622
-766 1089 -1450 1210 -131 24 -428 33 -550 19z m400 -635 c135 -21 230 -49
346 -104 139 -67 244 -140 344 -240 451 -454 449 -1114 -5 -1566 -467 -465
-1243 -473 -1726 -18 -148 140 -275 352 -326 548 -22 87 -26 120 -26 255 0
136 4 168 27 255 46 174 144 355 268 490 272 297 692 443 1098 380z"/>
<path d="M1255 2341 c-11 -5 -31 -21 -45 -36 -22 -23 -25 -36 -25 -96 0 -64 2
-71 33 -101 l32 -33 660 0 660 0 32 33 c31 30 33 37 33 102 0 65 -2 72 -33
102 l-32 33 -648 2 c-356 1 -656 -2 -667 -6z"/>
<path d="M1255 1901 c-11 -5 -31 -21 -45 -36 -22 -23 -25 -36 -25 -96 0 -64 2
-71 33 -101 l32 -33 405 0 405 0 32 33 c31 30 33 37 33 102 0 65 -2 72 -33
102 l-32 33 -393 2 c-215 1 -401 -2 -412 -6z"/>
<path d="M1255 1461 c-11 -5 -31 -21 -45 -36 -22 -23 -25 -36 -25 -96 0 -64 2
-71 33 -101 l32 -33 165 0 165 0 32 33 c31 30 33 37 33 102 0 65 -2 72 -33
102 l-32 33 -153 2 c-83 1 -161 -1 -172 -6z"/>
</g>
</svg>
