 <svg version="1.1" xmlns="http://www.w3.org/2000/svg" width="32" height="32" viewBox="0 0 32 32"><path d="M16.5 32v-3.5c3.5-0.125 6.688-1.75 8.875-4.188l3.813 3.063 0.625-0.75-3.813-3.125c1.563-2.063 2.5-4.688 2.5-7.5 0-2.75-0.875-5.25-2.375-7.313l3.688-2.813-0.625-0.75-3.688 2.813c-2.188-2.625-5.375-4.313-9-4.438v-3.5h-1v3.5c-3.5 0.125-6.688 1.75-8.875 4.188l-3.813-3.063-0.625 0.75 3.813 3.125c-1.563 2.063-2.5 4.688-2.5 7.5 0 2.75 0.875 5.25 2.375 7.313l-3.688 2.813 0.625 0.75 3.688-2.813c2.188 2.625 5.375 4.313 9 4.438v3.5zM12.5 16c0-1.938 1.563-3.5 3.5-3.5s3.5 1.563 3.5 3.5c0 1.938-1.563 3.5-3.5 3.5s-3.5-1.563-3.5-3.5zM16.5 27.5v-7c1-0.125 1.938-0.563 2.625-1.25l5.438 4.375c-2 2.25-4.875 3.75-8.063 3.875zM27.5 16c0 2.563-0.875 4.938-2.313 6.875l-5.438-4.375c0.5-0.75 0.75-1.563 0.75-2.5 0-0.875-0.25-1.75-0.75-2.438l5.563-4.25c1.375 1.875 2.188 4.188 2.188 6.688zM24.75 8.5l-5.625 4.25c-0.688-0.625-1.625-1.125-2.625-1.25v-7c3.313 0.125 6.188 1.688 8.25 4zM15.5 4.5v7c-1 0.125-1.938 0.563-2.625 1.25l-5.438-4.375c2-2.25 4.875-3.75 8.063-3.875zM4.5 16c0-2.563 0.875-4.938 2.313-6.875l5.438 4.375c-0.5 0.75-0.75 1.563-0.75 2.5 0 0.875 0.25 1.75 0.75 2.438l-5.563 4.25c-1.375-1.875-2.188-4.188-2.188-6.688zM7.25 23.5l5.625-4.25c0.688 0.625 1.625 1.125 2.625 1.25v7c-3.313-0.125-6.188-1.688-8.25-4z"></path> </svg> 