 <svg version="1.1" xmlns="http://www.w3.org/2000/svg" width="32" height="32" viewBox="0 0 32 32"><path d="M4.375 12.875l-0.813-0.75-3.563 3.5v0.75l3.563 3.5 0.75-0.75-2.625-2.625h11.813v-1h-11.813zM18.5 16.5h11.813l-2.688 2.625 0.813 0.75 3.563-3.5v-0.75l-3.563-3.5-0.75 0.75 2.625 2.625h-11.813zM15.625 0l-3.5 3.563 0.75 0.75 2.625-2.625v11.813h1v-11.813l2.625 2.688 0.75-0.813-3.5-3.563zM15.5 18.5v11.813l-2.625-2.688-0.75 0.813 3.5 3.563h0.75l3.5-3.563-0.75-0.75-2.625 2.625v-11.813z"></path> </svg> 