 <svg version="1.1" xmlns="http://www.w3.org/2000/svg" width="32" height="32" viewBox="0 0 32 32"><path d="M30-0.625l-10.125 9.063-18.25-3.063 8.625 18.625c-1.875 0.125-3.25 1.188-3.25 2.5 0 1.375 1.563 2.5 3.5 2.5 0.75 0 1.375-0.125 1.938-0.438 0.25 0.25 0.563 0.625 0.563 1.438 0 0.938-0.438 1-0.5 1v1c0.5 0 1.5-0.438 1.5-2 0-1-0.375-1.625-0.688-2 0.438-0.375 0.688-0.938 0.688-1.5 0-0.25-0.063-0.5-0.125-0.75l16.125-4.875zM8 26.5c0-0.813 1.125-1.5 2.5-1.5s2.5 0.688 2.5 1.5c0 0.813-1.125 1.5-2.5 1.5s-2.5-0.688-2.5-1.5zM29 20.125l-15.75 4.813c-0.5-0.438-1.125-0.75-1.875-0.875l-8-17.438 16.75 2.938 8.875-7.938z"></path> </svg> 