 <svg version="1.1" xmlns="http://www.w3.org/2000/svg" width="32" height="32" viewBox="0 0 32 32"><path d="M26.625 15l2.375 6.688 1-0.375-7.625-21.313h-1.25l-7.625 21.313 1 0.375 2.375-6.688zM21.75 1.313l4.563 12.688h-9.125zM9.438 18.5l1.063 3.188 1-0.375-4.125-11.813h-1.25l-4.125 11.813 1 0.375 1.063-3.188zM6.75 10.813l2.313 6.688h-4.625zM28.438 31.875l3.563-3.5v-0.75l-3.563-3.5-0.75 0.75 2.625 2.625h-28.625l2.688-2.625-0.813-0.75-3.563 3.5v0.75l3.563 3.5 0.75-0.75-2.625-2.625h28.625l-2.625 2.625z"></path> </svg> 