 <svg version="1.1" xmlns="http://www.w3.org/2000/svg" width="32" height="32" viewBox="0 0 32 32"><path d="M28 18.5c0-1.188-0.875-3-3.25-3-2.25 0-3.125 1.125-3.125 1.188l0.75 0.625c0.063-0.063 0.688-0.813 2.375-0.813 1.625 0 2.25 1.188 2.25 2v1h-2c-1.188 0-3.188 0.438-3.813 2h-3.063l-6.25-17.5h-1.25l-6.25 17.5h-1.375v1h1.063l-1.063 2.813 1 0.375 1.125-3.188h12.25l1.125 3.188 1-0.375-1.063-2.813h2.563c0 1.938 1.063 3 3 3 1.375 0 2.313-0.438 3-1.25 0.188 0.625 1 1.25 1.5 1.25v-1c-0.5 0-0.5-0.813-0.5-1v-1h1v-1h-1zM11.25 5.313l4.188 11.688h-8.375zM5.438 21.5l1.25-3.5h9.125l1.25 3.5zM24 24.5c-0.875 0-2-0.188-2-2h4.875c-0.375 1.625-1.688 2-2.875 2zM22.313 21.5c0.813-1 2.563-1 2.688-1h2v1zM0 32h32v-32h-32zM1 1h30v30h-30z"></path> </svg> 