 <svg version="1.1" xmlns="http://www.w3.org/2000/svg" width="32" height="32" viewBox="0 0 32 32"><path d="M10.625 4l-7.625 21.313 1 0.375 2.375-6.688h9.75l2.375 6.688 1-0.375-7.625-21.313zM6.688 18l4.563-12.688 4.563 12.688zM28 23.5v-5c0-1.188-0.875-3-3.25-3-2.25 0-3.125 1.125-3.125 1.188l0.75 0.625c0.063-0.063 0.688-0.813 2.375-0.813 1.625 0 2.25 1.188 2.25 2v1h-2c-1.375 0-4 0.625-4 3 0 1.938 1.063 3 3 3 1.375 0 2.313-0.438 3-1.25 0.188 0.625 1 1.25 1.5 1.25v-1c-0.5 0-0.5-0.813-0.5-1zM24 24.5c-0.875 0-2-0.188-2-2 0-1.938 2.875-2 3-2h2v1c0 2.5-1.625 3-3 3zM0 32h32v-32h-32zM1 1h30v30h-30z"></path> </svg> 