 <svg version="1.1" xmlns="http://www.w3.org/2000/svg" width="32" height="32" viewBox="0 0 32 32"><path d="M6.125 5.5l-4.125 11.813 1 0.375 1.063-3.188h5.375l1.063 3.188 1-0.375-4.125-11.813zM4.438 13.5l2.313-6.688 2.313 6.688zM20.5 17.313l1 0.375 1.063-3.188h5.375l1.063 3.188 1-0.375-4.125-11.813h-1.25zM27.563 13.5h-4.625l2.313-6.688zM15.5 3h1v1h-1zM15.5 17h1v2h-1zM15.5 11h1v2h-1zM15.5 8h1v2h-1zM15.5 14h1v2h-1zM15.5 5h1v2h-1zM15.5 20h1v1h-1zM27.938 31.875l3.563-3.5v-0.75l-3.563-3.5-0.75 0.75 2.625 2.625h-27.625l2.688-2.625-0.813-0.75-3.563 3.5v0.75l3.563 3.5 0.75-0.75-2.625-2.625h27.625l-2.625 2.625z"></path> </svg> 