 <svg version="1.1" xmlns="http://www.w3.org/2000/svg" width="32" height="32" viewBox="0 0 32 32"><path d="M21.625 0l-4.125 11.813 1 0.375 1.063-3.188h5.375l1.063 3.188 1-0.375-4.125-11.813zM19.938 8l2.313-6.688 2.313 6.688zM13.5 13.5h17v1h-17zM24.938 25.5l1.063 3.188 1-0.375-4.125-11.813h-1.25l-4.125 11.813 1 0.375 1.063-3.188zM22.25 17.813l2.313 6.688h-4.625zM13.5 30h17v1h-17zM9.125 17.375l0.75-0.813-3.5-3.563h-0.75l-3.5 3.563 0.75 0.75 2.625-2.625v15.125l-2.625-2.688-0.75 0.813 3.5 3.563h0.75l3.5-3.563-0.75-0.75-2.625 2.625v-15.125z"></path> </svg> 