 <svg version="1.1" xmlns="http://www.w3.org/2000/svg" width="32" height="32" viewBox="0 0 32 32"><path d="M11 2.5h21v1h-21zM11 7.5h17v1h-17zM11 12.5h21v1h-21zM11 17.5h18v1h-18zM28.5 23.5h0.5v0.5h1v-1.5h-1.5zM19.5 22.5h2v1h-2zM13.5 22.5h2v1h-2zM22.5 22.5h2v1h-2zM16.5 22.5h2v1h-2zM25.5 22.5h2v1h-2zM12 23.5h0.5v-1h-1.5v1.5h1zM11 25h1v1.5h-1zM11 28.5h1.5v-1h-0.5v-0.5h-1zM25.5 27.5h2v1h-2zM22.5 27.5h2v1h-2zM19.5 27.5h2v1h-2zM16.5 27.5h2v1h-2zM13.5 27.5h2v1h-2zM29 27.5h-0.5v1h1.5v-1.5h-1zM29 25h1v1.5h-1zM4.625 28.625l0.813 0.75 3.563-3.5v-0.75l-3.563-3.5-0.75 0.75 2.625 2.625h-7.313v1h7.313z"></path> </svg> 