 <svg version="1.1" xmlns="http://www.w3.org/2000/svg" width="32" height="32" viewBox="0 0 32 32"><path d="M11 14h21v1h-21zM11 19h17v1h-17zM11 24h21v1h-21zM11 29h18v1h-18zM30 4h-1.5v1h0.5v0.5h1zM22.5 4h2v1h-2zM19.5 4h2v1h-2zM25.5 4h2v1h-2zM16.5 4h2v1h-2zM13.5 4h2v1h-2zM12 5h0.5v-1h-1.5v1.5h1zM11 6.5h1v1.5h-1zM11 10h1.5v-1h-0.5v-0.5h-1zM13.5 9h2v1h-2zM16.5 9h2v1h-2zM19.5 9h2v1h-2zM25.5 9h2v1h-2zM22.5 9h2v1h-2zM28.5 10h1.5v-1.5h-1v0.5h-0.5zM29 6.5h1v1.5h-1zM4.625 10.125l0.813 0.75 3.563-3.5v-0.75l-3.563-3.5-0.75 0.75 2.625 2.625h-7.313v1h7.313z"></path> </svg> 