 <svg version="1.1" xmlns="http://www.w3.org/2000/svg" width="32" height="32" viewBox="0 0 32 32"><path d="M9.625 24.5l-5-1.5-0.625 0.375-1.5 5 1 0.25 1.125-3.813c2 4.375 6.438 7.188 11.375 7.188 5 0 9.438-2.875 11.438-7.313l1.625 4 0.875-0.375-2-5-0.563-0.313-5 1.5 0.25 1 3.875-1.188c-1.75 3.875-5.625 6.5-10 6.688v-22h4v-1h-4v-1.063c1.688-0.25 3-1.688 3-3.438 0-1.938-1.563-3.5-3.5-3.5s-3.5 1.563-3.5 3.5c0 1.75 1.313 3.188 3 3.438v1.063h-4v1h4v22c-4.375-0.188-8.25-2.813-10-6.688l3.875 1.188zM13.5 3.5c0-1.375 1.125-2.5 2.5-2.5s2.5 1.125 2.5 2.5c0 1.375-1.125 2.5-2.5 2.5s-2.5-1.125-2.5-2.5z"></path> </svg> 