 <svg version="1.1" xmlns="http://www.w3.org/2000/svg" width="32" height="32" viewBox="0 0 32 32"><path d="M23.875 12.875l-0.813-0.75-3.563 3.5v0.75l3.563 3.5 0.75-0.75-2.625-2.625h10.813v-1h-10.813zM8.125 19.125l0.813 0.75 3.563-3.5v-0.75l-3.563-3.5-0.75 0.75 2.625 2.625h-10.813v1h10.813zM15.625 19.5l-3.5 3.563 0.75 0.75 2.625-2.625v10.813h1v-10.813l2.625 2.688 0.75-0.813-3.5-3.563zM15.5 0v10.813l-2.625-2.688-0.75 0.813 3.5 3.563h0.75l3.5-3.563-0.75-0.75-2.625 2.625v-10.813z"></path> </svg> 