 <svg version="1.1" xmlns="http://www.w3.org/2000/svg" width="32" height="32" viewBox="0 0 32 32"><path d="M26.5 0c0 0 0 0 0 0-1.188 0-2.375 0.375-3.313 1.125l-6.563 6.5c-1.063 1.125-1.625 2.5-1.625 3.875 0 0.75 0.125 1.5 0.438 2.188 0.063 0.063 0.063 0.125 0.125 0.188l0.875-0.438c0 0-0.063-0.063-0.063-0.125v0c-0.25-0.563-0.375-1.188-0.375-1.813 0-1.125 0.5-2.25 1.375-3.125l6.438-6.5c0.813-0.563 1.688-0.875 2.688-0.875 0 0 0 0 0 0 1.188 0 2.313 0.438 3.188 1.313 0.813 0.875 1.313 2 1.313 3.188 0 0.938-0.313 1.875-0.875 2.688l-6 5.938v0.063c-0.875 1.125-2.188 1.813-3.625 1.813 0 0 0 0 0 0-0.625 0-1.25-0.125-1.813-0.375l-0.375 0.938c0.688 0.313 1.438 0.438 2.188 0.438 0 0 0 0 0 0 1.75 0 3.313-0.813 4.375-2.188l6-5.938v-0.063c0.75-1 1.125-2.125 1.125-3.313 0-1.5-0.563-2.875-1.625-3.875-1.063-1.063-2.438-1.625-3.875-1.625zM15.625 18.688c0.25 0.563 0.375 1.188 0.375 1.813 0 1-0.313 1.875-0.875 2.688l-6 5.938v0.063c-0.875 1.188-2.188 1.813-3.625 1.813 0 0 0 0 0 0-1.188 0-2.313-0.438-3.188-1.313-0.813-0.875-1.313-2-1.313-3.188 0-1.125 0.5-2.25 1.375-3.125l6.438-6.5c0.813-0.563 1.688-0.875 2.688-0.875 0 0 0 0 0 0 0.625 0 1.25 0.125 1.813 0.375l0.375-0.938c-0.688-0.313-1.438-0.438-2.188-0.438 0 0 0 0 0 0-1.188 0-2.313 0.375-3.313 1.125l-6.563 6.563c-1.063 1.063-1.625 2.438-1.625 3.813 0 1.5 0.563 2.875 1.625 3.875 1.063 1.063 2.438 1.625 3.875 1.625 0 0 0 0 0 0 1.75 0 3.313-0.813 4.375-2.188l6-5.938v-0.063c0.75-1 1.125-2.125 1.125-3.313 0-0.75-0.125-1.5-0.438-2.188zM20.875 11.875l-9 9-0.75-0.75 9-9z"></path> </svg> 