 <svg version="1.1" xmlns="http://www.w3.org/2000/svg" width="32" height="32" viewBox="0 0 32 32"><path d="M26.375 30h-20.75l-5.813-18h32.375zM6.375 29h19.25l5.188-16h-29.625zM10.563 2.313l0.875 0.375-4 10-0.875-0.375zM21.438 2.313l4 10-0.875 0.375-4-10zM19.5 24.5h-7c-1.25 0-2-0.75-2-2 0-0.625 0.563-1.75 1.625-1.938 0.438-1.563 2-3.063 3.875-3.063 2.125 0 3.75 1.313 4 3.063 1 0.25 1.5 1.313 1.5 1.938 0 1.25-0.75 2-2 2zM12.5 21.5c-0.688 0-1 0.75-1 1 0 0.75 0.25 1 1 1h7c0.688 0 1-0.313 1-1 0-0.25-0.313-1-1-1h-0.5v-0.5c0-1.625-1.563-2.5-3-2.5s-2.75 1.375-3 2.625l-0.063 0.375z"></path> </svg> 