 <svg version="1.1" xmlns="http://www.w3.org/2000/svg" width="32" height="32" viewBox="0 0 32 32"><path d="M26.375 30h-20.75l-5.813-18h32.375zM6.375 29h19.25l5.188-16h-29.625zM10.563 2.313l0.875 0.375-4 10-0.875-0.375zM21.438 2.313l4 10-0.875 0.375-4-10zM17.5 26h-2c-2.563 0-4.5-2.625-4.5-5h1c0 1.875 1.5 4 3.5 4h2zM16.375 27.813l-0.75-0.625 1.25-1.688-1.25-1.688 0.75-0.625 1.5 2v0.625zM21 21h-1c0-1.875-1.5-4-3.5-4h-2v-1h2c2.563 0 4.5 2.625 4.5 5zM15.625 18.813l-1.5-2v-0.625l1.5-2 0.75 0.625-1.25 1.688 1.25 1.688z"></path> </svg> 