 <svg version="1.1" xmlns="http://www.w3.org/2000/svg" width="32" height="32" viewBox="0 0 32 32"><path d="M26.375 30h-20.75l-5.813-18h32.375zM6.375 29h19.25l5.188-16h-29.625zM10.563 2.313l0.875 0.375-4 10-0.875-0.375zM21.438 2.313l4 10-0.875 0.375-4-10zM14.5 23.5c-1.938 0-3.5-1.563-3.5-3.5s1.563-3.5 3.5-3.5c1.938 0 3.5 1.563 3.5 3.5s-1.563 3.5-3.5 3.5zM14.5 17.5c-1.375 0-2.5 1.125-2.5 2.5s1.125 2.5 2.5 2.5c1.375 0 2.5-1.125 2.5-2.5s-1.125-2.5-2.5-2.5zM16.875 21.625l4 4-0.75 0.75-4-4z"></path> </svg> 