 <svg version="1.1" xmlns="http://www.w3.org/2000/svg" width="32" height="32" viewBox="0 0 32 32"><path d="M22 29c-5.5 0-10-4.5-10-10s4.5-10 10-10c5.5 0 10 4.5 10 10s-4.5 10-10 10zM22 10c-4.938 0-9 4.063-9 9s4.063 9 9 9c4.938 0 9-4.063 9-9s-4.063-9-9-9zM22 26c-3.875 0-7-3.125-7-7s3.125-7 7-7c3.875 0 7 3.125 7 7s-3.125 7-7 7zM22 13c-3.313 0-6 2.688-6 6s2.688 6 6 6c3.313 0 6-2.688 6-6s-2.688-6-6-6zM19.5 29h-19.5v-4h15v1h-14v2h18.5zM15 26h-14v-4h12.5v1h-11.5v2h13zM13.5 23h-11.5v-4h11v1h-10v2h10.5zM13 20h-13v-4h13v1h-12v2h12zM13 17h-12v-4h13.5v1h-12.5v2h11zM14.5 14h-14.5v-4h17.5v1h-16.5v2h13.5zM17.5 11h-16.5v-4h19.5v3h-1v-2h-17.5v2h15.5zM19.5 8h-19.5v-4h19.5zM1 7h17.5v-2h-17.5z"></path> </svg> 