 <svg version="1.1" xmlns="http://www.w3.org/2000/svg" width="32" height="32" viewBox="0 0 32 32"><path d="M10 32c-1.938 0-3.5-1.563-3.5-3.5s1.563-3.5 3.5-3.5c1.938 0 3.5 1.563 3.5 3.5s-1.563 3.5-3.5 3.5zM10 26c-1.375 0-2.5 1.125-2.5 2.5s1.125 2.5 2.5 2.5c1.375 0 2.5-1.125 2.5-2.5s-1.125-2.5-2.5-2.5zM22 32c-1.938 0-3.5-1.563-3.5-3.5s1.563-3.5 3.5-3.5c1.938 0 3.5 1.563 3.5 3.5s-1.563 3.5-3.5 3.5zM22 26c-1.375 0-2.5 1.125-2.5 2.5s1.125 2.5 2.5 2.5c1.375 0 2.5-1.125 2.5-2.5s-1.125-2.5-2.5-2.5zM13 28h6v1h-6zM6.5 28.563l-1.938-27.063h-4.563v-1h5.438l2.063 27.938zM6.563 22l-0.125-1 21.188-1.5 3.25-14h-25.375v-1h26.625l-3.75 16zM21.5 16h-7c-1.25 0-2-0.75-2-2 0-0.625 0.563-1.75 1.625-1.938 0.438-1.563 2-3.063 3.875-3.063 2.125 0 3.75 1.313 4 3.063 1 0.25 1.5 1.313 1.5 1.938 0 1.25-0.75 2-2 2zM14.5 13c-0.688 0-1 0.75-1 1 0 0.75 0.25 1 1 1h7c0.688 0 1-0.313 1-1 0-0.25-0.313-1-1-1h-0.5v-0.5c0-1.625-1.563-2.5-3-2.5s-2.75 1.375-3 2.625l-0.063 0.375z"></path> </svg> 