 <svg version="1.1" xmlns="http://www.w3.org/2000/svg" width="32" height="32" viewBox="0 0 32 32"><path d="M16 32c-4.25 0-8.313-1.688-11.313-4.688s-4.688-7.063-4.688-11.313c0-4.25 1.688-8.313 4.688-11.313s7.063-4.688 11.313-4.688c4.25 0 8.313 1.688 11.313 4.688s4.688 7.063 4.688 11.313c0 4.25-1.688 8.313-4.688 11.313s-7.063 4.688-11.313 4.688zM16 1c-4 0-7.75 1.563-10.625 4.375-2.813 2.875-4.375 6.625-4.375 10.625s1.563 7.75 4.375 10.625c2.875 2.813 6.625 4.375 10.625 4.375s7.75-1.563 10.625-4.375c2.813-2.875 4.375-6.625 4.375-10.625s-1.563-7.75-4.375-10.625c-2.875-2.813-6.625-4.375-10.625-4.375zM11.5 8h1v16h-1zM15.063 16c-0.25 0-0.375 0-0.375 0h-2.688v-1h2.75c0.063 0 1.875 0.125 2.938-0.813 0.563-0.5 0.813-1.25 0.813-2.188s-0.25-1.688-0.813-2.188c-1.063-0.938-2.875-0.813-2.938-0.813h-2.75v-1h2.75c0 0 2.188-0.188 3.625 1.125 0.75 0.688 1.125 1.625 1.125 2.875s-0.375 2.188-1.125 2.875c-1.125 1-2.625 1.125-3.313 1.125zM15.5 24c-0.25 0-0.438 0-0.438 0h-3.063v-1h3.125c0.063 0 2.125 0.188 3.438-1 0.625-0.563 0.938-1.438 0.938-2.5s-0.313-1.938-0.938-2.5c-1.313-1.188-3.375-1-3.438-1h-3.125v-1h3.125c0.063 0 2.5-0.188 4.063 1.25 0.875 0.75 1.313 1.875 1.313 3.25s-0.438 2.5-1.313 3.25c-1.188 1.125-2.938 1.25-3.688 1.25zM14.5 6.5h1v19.5h-1z"></path> </svg> 