 <svg version="1.1" xmlns="http://www.w3.org/2000/svg" width="32" height="32" viewBox="0 0 32 32"><path d="M30 11c1.125 0 2-0.875 2-2s-0.875-2-2-2c-0.938 0-1.688 0.625-1.938 1.5h-9.063v-2.5h-6v2.5h-9.063c-0.25-0.875-1-1.5-1.938-1.5-1.125 0-2 0.875-2 2s0.875 2 2 2c0.938 0 1.688-0.625 1.938-1.5h4.688c-5.188 2.438-6 8.688-6.125 10.5h-2.5v6h6v-6h-2.5c0.063-0.938 0.313-3 1.25-5.063 1.625-3.438 4.375-5.25 8.25-5.438v2.5h6v-2.5c3.875 0.188 6.625 2 8.25 5.438 0.938 2.063 1.188 4.125 1.25 5.063h-2.5v6h6v-6h-2.5c-0.125-1.813-0.938-8.063-6.125-10.5h4.688c0.25 0.875 1 1.5 1.938 1.5zM30 8c0.563 0 1 0.438 1 1s-0.438 1-1 1c-0.563 0-1-0.438-1-1s0.438-1 1-1zM2 10c-0.563 0-1-0.438-1-1s0.438-1 1-1c0.563 0 1 0.438 1 1s-0.438 1-1 1zM5 25h-4v-4h4zM18 11h-4v-4h4zM31 25h-4v-4h4z"></path> </svg> 