 <svg version="1.1" xmlns="http://www.w3.org/2000/svg" width="32" height="32" viewBox="0 0 32 32"><path d="M26.938 0h-21.875l-3 20h-0.063v12h28v-12h-0.063zM5.938 1h20.125l2.875 19h-25.875zM29 31h-26v-10h26zM24 28c1.125 0 2-0.875 2-2s-0.875-2-2-2c-1.125 0-2 0.875-2 2s0.875 2 2 2zM24 25c0.563 0 1 0.438 1 1s-0.438 1-1 1c-0.563 0-1-0.438-1-1s0.438-1 1-1zM20 10.063c-0.25-1.75-1.875-3.063-4-3.063-1.875 0-3.438 1.5-3.875 3.063-1.063 0.188-1.625 1.313-1.625 1.938 0 1.25 0.75 2 2 2h7c1.25 0 2-0.75 2-2 0-0.625-0.5-1.688-1.5-1.938zM19.5 13h-7c-0.75 0-1-0.25-1-1 0-0.25 0.313-1 1-1h0.438l0.063-0.375c0.25-1.25 1.563-2.625 3-2.625s3 0.875 3 2.5v0.5h0.5c0.688 0 1 0.75 1 1 0 0.688-0.313 1-1 1z"></path> </svg> 