 <svg version="1.1" xmlns="http://www.w3.org/2000/svg" width="32" height="32" viewBox="0 0 32 32"><path d="M10.625 16.625l-1.875 1.938c-0.5 0.125-2.25 0.688-4.063 2.063-3.25 2.438-4.625 10.438-4.688 10.813l-0.063 0.563h0.563c8.25 0 12.5-7.813 12.938-8.688l1.938-2 16.813-20.375-1.125-1.125zM11 17.688l3.313 3.313-1.313 1.313-3.313-3.313zM1.125 31c0.375-1.938 1.75-7.75 4.188-9.625 1.438-1.063 2.938-1.625 3.563-1.813l3.5 3.563c-0.75 1.438-4.5 7.5-11.25 7.875zM14.938 20.25l-3.188-3.188 18.375-15.188z"></path> </svg> 