 <svg version="1.1" xmlns="http://www.w3.org/2000/svg" width="32" height="32" viewBox="0 0 32 32"><path d="M7.5 32h17v-32h-17zM8.5 31v-12.5h15v12.5zM8.5 17.5v-14.5h15v14.5zM23.5 1v1h-15v-1zM15.75 19.5c-2.875 0-5.25 2.375-5.25 5.25s2.375 5.25 5.25 5.25c2.875 0 5.25-2.375 5.25-5.25s-2.375-5.25-5.25-5.25zM15.75 29c-2.313 0-4.25-1.938-4.25-4.25s1.938-4.25 4.25-4.25c2.313 0 4.25 1.938 4.25 4.25s-1.938 4.25-4.25 4.25zM15.75 23c-0.938 0-1.75 0.813-1.75 1.75s0.813 1.75 1.75 1.75c0.938 0 1.75-0.813 1.75-1.75s-0.813-1.75-1.75-1.75zM15.75 25.5c-0.438 0-0.75-0.313-0.75-0.75s0.313-0.75 0.75-0.75c0.438 0 0.75 0.313 0.75 0.75s-0.313 0.75-0.75 0.75z"></path> </svg> 