 <svg version="1.1" xmlns="http://www.w3.org/2000/svg" width="32" height="32" viewBox="0 0 32 32"><path d="M15.875 5.688l-1.625-3.375-14.375 7.438 9.375 20.438 6.75-3.125 6.25 3.125 9.938-20.938-14.438-7.438zM9.75 28.813l-8.625-18.563 12.625-6.563 1.563 3.125-8 15.938 7.5 3.75zM30.813 9.75l-9.063 19.063-13.063-6.563 9.563-19.063zM17.063 21.25l6.438-2.938-0.563-7.063-6.438 2.938zM22.063 12.75l0.438 4.938-4.563 2.063-0.438-4.938zM18.563 4.25l0.875 0.5-0.5 1-0.875-0.5zM3.063 11.75l-0.5-1 0.875-0.5 0.5 1zM21.438 27.75l-0.875-0.5 0.5-1 0.875 0.5z"></path> </svg> 