 <svg version="1.1" xmlns="http://www.w3.org/2000/svg" width="32" height="32" viewBox="0 0 32 32"><path d="M16 27.063l6.25 3.125 9.938-20.938-14.438-7.438-1.875 3.875-1.625-3.375-14.375 7.438 9.375 20.438zM18.25 3.188l12.563 6.563-9.063 19.063-13.063-6.563zM13.75 3.688l1.563 3.125-8 15.938 7.5 3.75-5.063 2.313-8.625-18.563zM18.563 4.25l0.875 0.5-0.5 1-0.875-0.5zM3.063 11.75l-0.5-1 0.875-0.5 0.5 1zM21.438 27.75l-0.875-0.5 0.5-1 0.875 0.5zM17.563 20.25l0.125 0.25h0.438c1.375 0 5.938-0.188 7.313-2.75 0.75-1.438 0.688-3.438-0.688-4.188-0.875-0.5-2.125-0.563-3-0.25 0-0.25-0.063-0.438-0.125-0.688-0.25-0.625-0.75-1.188-1.375-1.563-0.438-0.25-0.875-0.313-1.375-0.313-1.188 0-2.313 0.625-2.813 1.5-1.563 2.875 1.375 7.813 1.5 8zM16.938 12.75c0.313-0.625 1.125-1 1.938-1 0.313 0 0.625 0.063 0.875 0.188 0.438 0.25 0.75 0.625 0.938 1.063 0.125 0.438 0.063 0.875-0.125 1.25l0.875 0.5c0.313-0.563 1.125-0.625 1.438-0.625 0.5 0 1 0.125 1.375 0.313 0.938 0.5 0.75 2 0.313 2.813-1.125 2.063-5.313 2.25-6.25 2.25-0.875-1.438-2.375-4.938-1.375-6.75z"></path> </svg> 