 <svg version="1.1" xmlns="http://www.w3.org/2000/svg" width="32" height="32" viewBox="0 0 32 32"><path d="M14 32c-3.75 0-7.25-1.438-9.875-4.125-2.688-2.625-4.125-6.125-4.125-9.875s1.438-7.25 4.063-9.875c2.688-2.688 6.188-4.125 9.938-4.125h0.5v13.5h13.5v0.5c0 3.75-1.438 7.25-4.125 9.875-2.625 2.688-6.125 4.125-9.875 4.125 0 0 0 0 0 0zM13.5 5c-3.313 0.125-6.375 1.5-8.688 3.813-2.438 2.438-3.813 5.688-3.813 9.188s1.375 6.75 3.813 9.188c2.438 2.438 5.688 3.813 9.188 3.813 0 0 0 0 0 0v0c3.5 0 6.75-1.375 9.188-3.813 2.313-2.313 3.688-5.375 3.813-8.688h-13.5zM32 14.5h-14.5v-14.5h0.5c3.75 0 7.25 1.438 9.938 4.125 2.625 2.625 4.063 6.125 4.063 9.875zM18.5 13.5h12.5c-0.125-3.313-1.438-6.375-3.813-8.688-2.313-2.313-5.375-3.688-8.688-3.813z"></path> </svg> 