 <svg version="1.1" xmlns="http://www.w3.org/2000/svg" width="32" height="32" viewBox="0 0 32 32"><path d="M16 32c4.25 0 8.313-1.688 11.313-4.688s4.688-7.063 4.688-11.313c0-4.25-1.688-8.313-4.688-11.313s-7.063-4.688-11.313-4.688c-4.25 0-8.313 1.688-11.313 4.688s-4.688 7.063-4.688 11.313c0 4.25 1.688 8.313 4.688 11.313s7.063 4.688 11.313 4.688zM26.625 5.375c2.813 2.875 4.375 6.625 4.375 10.625 0 3.813-1.438 7.438-4.063 10.25l-21.188-21.188c2.813-2.625 6.438-4.063 10.25-4.063 4 0 7.75 1.563 10.625 4.375zM5.063 5.75l21.188 21.188c-2.813 2.625-6.438 4.063-10.25 4.063-4 0-7.75-1.563-10.625-4.375-2.813-2.875-4.375-6.625-4.375-10.625 0-3.813 1.438-7.438 4.063-10.25z"></path> </svg> 