 <svg version="1.1" xmlns="http://www.w3.org/2000/svg" width="32" height="32" viewBox="0 0 32 32"><path d="M16 0c-4.25 0-8.313 1.688-11.313 4.688s-4.688 7.063-4.688 11.313c0 4.25 1.688 8.313 4.688 11.313s7.063 4.688 11.313 4.688c4.25 0 8.313-1.688 11.313-4.688s4.688-7.063 4.688-11.313c0-4.25-1.688-8.313-4.688-11.313s-7.063-4.688-11.313-4.688zM26.625 26.625c-2.875 2.813-6.625 4.375-10.625 4.375s-7.75-1.563-10.625-4.375c-2.813-2.875-4.375-6.625-4.375-10.625s1.563-7.75 4.375-10.625c2.875-2.813 6.625-4.375 10.625-4.375s7.75 1.563 10.625 4.375c2.813 2.875 4.375 6.625 4.375 10.625s-1.563 7.75-4.375 10.625zM16.5 6h-1v10.188l4.625 4.688 0.75-0.75-4.375-4.313zM2 15.5h2v1h-2zM28 15.5h2v1h-2zM15.5 28h1v2h-1zM15.5 2h1v2h-1z"></path> </svg> 