 <svg version="1.1" xmlns="http://www.w3.org/2000/svg" width="32" height="32" viewBox="0 0 32 32"><path d="M24.75 11.063c-0.75 0-1.5 0.125-2.25 0.375 0.438-1 0.688-2.063 0.688-3.125 0-4-3.188-7.25-7.188-7.25s-7.25 3.25-7.25 7.188c0 1.125 0.313 2.188 0.75 3.188-0.75-0.25-1.5-0.375-2.25-0.375-4 0-7.25 3.25-7.25 7.25s3.25 7.25 7.25 7.25c2.813 0 5.75-1.25 7.25-3.438 0 2.5-0.625 8.875-3 8.875v1h9v-1c-2.375 0-3-6.375-3-8.875 1.5 2.188 4.438 3.438 7.25 3.438 4 0 7.25-3.25 7.25-7.25s-3.25-7.25-7.25-7.25zM24.75 24.563c-3.5 0-7.25-2.125-7.25-5.563h-1v3c0 0.813 0.063 6.625 2.063 9h-5.125c2-2.375 2.063-8.188 2.063-9v-3h-1c0 3.438-3.75 5.563-7.25 5.563-3.438 0-6.25-2.813-6.25-6.25s2.813-6.25 6.25-6.25c1.188 0 2.375 0.313 3.375 1l0.625-0.75c-0.938-1.125-1.5-2.563-1.5-4 0-3.438 2.813-6.25 6.25-6.25s6.25 2.813 6.25 6.25c0 1.438-0.563 2.875-1.5 4l0.625 0.75c1-0.688 2.188-1 3.375-1 3.438 0 6.25 2.813 6.25 6.25s-2.813 6.25-6.25 6.25z"></path> </svg> 