 <svg version="1.1" xmlns="http://www.w3.org/2000/svg" width="32" height="32" viewBox="0 0 32 32"><path d="M16 32c-4.25 0-8.313-1.688-11.313-4.688s-4.688-7.063-4.688-11.313c0-4.25 1.688-8.313 4.688-11.313s7.063-4.688 11.313-4.688c4.25 0 8.313 1.688 11.313 4.688s4.688 7.063 4.688 11.313c0 4.25-1.688 8.313-4.688 11.313s-7.063 4.688-11.313 4.688zM16 1c-4 0-7.75 1.563-10.625 4.375-2.813 2.875-4.375 6.625-4.375 10.625s1.563 7.75 4.375 10.625c2.875 2.813 6.625 4.375 10.625 4.375s7.75-1.563 10.625-4.375c2.813-2.875 4.375-6.625 4.375-10.625s-1.563-7.75-4.375-10.625c-2.875-2.813-6.625-4.375-10.625-4.375zM16.5 24h-1v-7.313l-5.938-8.375 0.875-0.625 6.063 8.625zM21.563 7.688l0.875 0.625-6 8.5-0.875-0.625zM10.5 17.5h11v1h-11zM17 14.5h4.5v1h-4.5zM10.5 14.5h4.5v1h-4.5z"></path> </svg> 