 <svg version="1.1" xmlns="http://www.w3.org/2000/svg" width="32" height="32" viewBox="0 0 32 32"><path d="M16 32c-4.25 0-8.313-1.688-11.313-4.688s-4.688-7.063-4.688-11.313c0-4.25 1.688-8.313 4.688-11.313s7.063-4.688 11.313-4.688c4.25 0 8.313 1.688 11.313 4.688s4.688 7.063 4.688 11.313c0 4.25-1.688 8.313-4.688 11.313s-7.063 4.688-11.313 4.688zM16 1c-4 0-7.75 1.563-10.625 4.375-2.813 2.875-4.375 6.625-4.375 10.625s1.563 7.75 4.375 10.625c2.875 2.813 6.625 4.375 10.625 4.375s7.75-1.563 10.625-4.375c2.813-2.875 4.375-6.625 4.375-10.625s-1.563-7.75-4.375-10.625c-2.875-2.813-6.625-4.375-10.625-4.375zM10 8h12v1h-12zM8 11h16v1h-16zM11.5 24.5h-2v-1h2c0.938 0 1-2 1-2v-10h1v10c0 1.125-0.438 3-2 3zM21.5 24.5h-1c-2 0-2.5-1.625-2.5-2.5v-10.5h1v10.5c0 0.25 0.063 1.5 1.5 1.5h1z"></path> </svg> 