 <svg version="1.1" xmlns="http://www.w3.org/2000/svg" width="32" height="32" viewBox="0 0 32 32"><path d="M16 32c-4.25 0-8.313-1.688-11.313-4.688s-4.688-7.063-4.688-11.313c0-4.25 1.688-8.313 4.688-11.313s7.063-4.688 11.313-4.688c4.25 0 8.313 1.688 11.313 4.688s4.688 7.063 4.688 11.313c0 4.25-1.688 8.313-4.688 11.313s-7.063 4.688-11.313 4.688zM16 1c-4 0-7.75 1.563-10.625 4.375-2.813 2.875-4.375 6.625-4.375 10.625s1.563 7.75 4.375 10.625c2.875 2.813 6.625 4.375 10.625 4.375s7.75-1.563 10.625-4.375c2.813-2.875 4.375-6.625 4.375-10.625s-1.563-7.75-4.375-10.625c-2.875-2.813-6.625-4.375-10.625-4.375zM16 24c-4.188 0-6.5-2.813-6.5-8s2.313-8 6.5-8c4.813 0 5.438 2.313 5.5 2.375l-1 0.25c0 0-0.5-1.625-4.5-1.625-4.563 0-5.5 3.813-5.5 7s0.938 7 5.5 7c3.625 0 4.375-1.313 4.5-1.563v-2.938h-2.5v-1h3.5v4.125c-0.063 0.063-0.688 2.375-5.5 2.375zM15.5 6h1v20h-1z"></path> </svg> 