 <svg version="1.1" xmlns="http://www.w3.org/2000/svg" width="32" height="32" viewBox="0 0 32 32"><path d="M16 32c-4.25 0-8.313-1.688-11.313-4.688s-4.688-7.063-4.688-11.313c0-4.25 1.688-8.313 4.688-11.313s7.063-4.688 11.313-4.688c4.25 0 8.313 1.688 11.313 4.688s4.688 7.063 4.688 11.313c0 4.25-1.688 8.313-4.688 11.313s-7.063 4.688-11.313 4.688zM16 1c-4 0-7.75 1.563-10.625 4.375-2.813 2.875-4.375 6.625-4.375 10.625s1.563 7.75 4.375 10.625c2.875 2.813 6.625 4.375 10.625 4.375s7.75-1.563 10.625-4.375c2.813-2.875 4.375-6.625 4.375-10.625s-1.563-7.75-4.375-10.625c-2.875-2.813-6.625-4.375-10.625-4.375zM15.5 8.5h1v17.5h-1zM9 8h14v1h-14zM19.25 11.563l0.5 0.875-7 4-0.5-0.875zM19.25 14.563l0.5 0.875-7 4-0.5-0.875z"></path> </svg> 