 <svg version="1.1" xmlns="http://www.w3.org/2000/svg" width="32" height="32" viewBox="0 0 32 32"><path d="M16 32c-4.25 0-8.313-1.688-11.313-4.688s-4.688-7.063-4.688-11.313c0-4.25 1.688-8.313 4.688-11.313s7.063-4.688 11.313-4.688c4.25 0 8.313 1.688 11.313 4.688s4.688 7.063 4.688 11.313c0 4.25-1.688 8.313-4.688 11.313s-7.063 4.688-11.313 4.688zM16 1c-4 0-7.75 1.563-10.625 4.375-2.813 2.875-4.375 6.625-4.375 10.625s1.563 7.75 4.375 10.625c2.875 2.813 6.625 4.375 10.625 4.375s7.75-1.563 10.625-4.375c2.813-2.875 4.375-6.625 4.375-10.625s-1.563-7.75-4.375-10.625c-2.875-2.813-6.625-4.375-10.625-4.375zM11.5 8h1v16h-1zM15.938 18c-0.313 0-0.438 0-0.5 0h-5.938v-1h6c0.063 0 2.438 0.188 3.875-1.125 0.75-0.688 1.125-1.625 1.125-2.875s-0.375-2.188-1.125-2.875c-1.438-1.313-3.813-1.125-3.813-1.125h-3.563v-1h3.5c0.063 0 2.813-0.25 4.563 1.375 0.938 0.875 1.438 2.063 1.438 3.625s-0.5 2.75-1.438 3.625c-1.375 1.25-3.25 1.375-4.125 1.375zM9.5 20h6.5v1h-6.5z"></path> </svg> 