 <svg version="1.1" xmlns="http://www.w3.org/2000/svg" width="32" height="32" viewBox="0 0 32 32"><path d="M16 32c-4.25 0-8.313-1.688-11.313-4.688s-4.688-7.063-4.688-11.313c0-4.25 1.688-8.313 4.688-11.313s7.063-4.688 11.313-4.688c4.25 0 8.313 1.688 11.313 4.688s4.688 7.063 4.688 11.313c0 4.25-1.688 8.313-4.688 11.313s-7.063 4.688-11.313 4.688zM16 1c-4 0-7.75 1.563-10.625 4.375-2.813 2.875-4.375 6.625-4.375 10.625s1.563 7.75 4.375 10.625c2.875 2.813 6.625 4.375 10.625 4.375s7.75-1.563 10.625-4.375c2.813-2.875 4.375-6.625 4.375-10.625s-1.563-7.75-4.375-10.625c-2.875-2.813-6.625-4.375-10.625-4.375zM17.688 25.375l-7.688-7.188v-1.188h4c0.063 0 2.438 0.188 3.875-1.125 0.75-0.688 1.125-1.625 1.125-2.875 0-1.625-0.813-2.813-2.438-3.5-1.25-0.5-2.563-0.5-2.563-0.5h-4v-1h4c2.063 0 6 1.063 6 5 0 1.563-0.5 2.75-1.438 3.625-1.75 1.625-4.5 1.375-4.625 1.375h-2.688l7.063 6.625zM10 8h12v1h-12zM10 11h12v1h-12z"></path> </svg> 