 <svg version="1.1" xmlns="http://www.w3.org/2000/svg" width="32" height="32" viewBox="0 0 32 32"><path d="M16.5 0c-6.688 0-13.5 1.375-13.5 4v24c0 2.625 6.813 4 13.5 4s13.5-1.375 13.5-4v-24c0-2.625-6.813-4-13.5-4zM16.5 31c-7.75 0-12.5-1.75-12.5-3v-6.375c2.125 1.563 7.313 2.375 12.5 2.375s10.375-0.813 12.5-2.375v6.375c0 1.25-4.75 3-12.5 3zM16.5 23c-7.75 0-12.5-1.75-12.5-3v-6.375c2.125 1.563 7.313 2.375 12.5 2.375s10.375-0.813 12.5-2.375v6.375c0 1.25-4.75 3-12.5 3zM16.5 15c-7.75 0-12.5-1.75-12.5-3v-6.375c2.125 1.563 7.313 2.375 12.5 2.375s10.375-0.813 12.5-2.375v6.375c0 1.25-4.75 3-12.5 3zM16.5 7c-7.75 0-12.5-1.75-12.5-3s4.75-3 12.5-3c7.75 0 12.5 1.75 12.5 3s-4.75 3-12.5 3z"></path> </svg> 