 <svg version="1.1" xmlns="http://www.w3.org/2000/svg" width="32" height="32" viewBox="0 0 32 32"><path d="M27 0h-0.188l-0.188 0.125c0 0-1.25 1.313-2 2l-5.625 5.688-2-2-2.688 2.688 2.25 2.25-15.063 16.063v1l-1.688 1.688 2.688 2.688 1.688-1.688h1l16.063-15.063 2.25 2.25 2.688-2.688-2-2 7.813-7.813v-0.188c0-2.5-2.5-5-5-5zM4.813 29.5h-1l-1.313 1.313-1.313-1.313 1.313-1.313v-1l14.75-15.75 3.313 3.313zM23.5 16.313l-7.813-7.813 1.313-1.313 7.813 7.813zM23.5 12.313l-3.813-3.813 5.688-5.625c0.563-0.625 1.438-1.5 1.813-1.875 1.813 0.125 3.688 2 3.813 3.813z"></path> </svg> 