 <svg version="1.1" xmlns="http://www.w3.org/2000/svg" width="32" height="32" viewBox="0 0 32 32"><path d="M9.5 24.563c-0.625-0.188-1.25-0.438-1.813-0.688l-0.438 0.938c0.625 0.25 1.313 0.5 1.938 0.688zM12.375 25.188c-0.688-0.063-1.313-0.188-1.938-0.375l-0.25 1c0.688 0.125 1.313 0.313 2 0.375zM14.188 5.563c-0.688 0.063-1.375 0.125-2.063 0.25l0.188 1c0.625-0.125 1.25-0.188 1.938-0.25zM17.188 6.5l0.063-1c-0.688 0-1.375 0-2.063 0l0.063 1c0.625 0 1.313 0 1.938 0zM15.25 25.5c-0.625 0-1.313-0.063-1.938-0.125l-0.125 0.938c0.688 0.125 1.375 0.125 2.063 0.188zM18.313 26.375l-0.125-1c-0.625 0.063-1.25 0.125-1.938 0.125v1c0.688 0 1.375-0.063 2.063-0.125zM21.313 25.875l-0.188-0.938c-0.625 0.125-1.313 0.25-1.938 0.375l0.125 0.938c0.688-0.063 1.375-0.188 2-0.375zM20.25 5.875c-0.625-0.125-1.313-0.188-2-0.25l-0.063 1c0.625 0.063 1.25 0.125 1.938 0.25zM23.25 6.625c-0.625-0.188-1.313-0.375-2-0.563l-0.188 1c0.625 0.125 1.25 0.313 1.875 0.5zM3.688 22.75l0.625-0.813c-0.5-0.375-1-0.813-1.375-1.313l-0.75 0.688c0.438 0.5 0.938 1 1.5 1.438zM3.563 10.688l-0.688-0.688c-0.5 0.438-1 1-1.375 1.563l0.813 0.563c0.375-0.5 0.75-1 1.25-1.438zM11.125 6c-0.688 0.125-1.313 0.313-2 0.5l0.313 0.938c0.625-0.188 1.25-0.313 1.875-0.438zM0.188 14.438l0.938 0.188c0.188-0.563 0.375-1.125 0.688-1.688l-0.875-0.5c-0.375 0.625-0.625 1.313-0.75 2zM8.188 6.813c-0.688 0.25-1.313 0.5-1.875 0.813l0.438 0.938c0.563-0.313 1.188-0.563 1.75-0.813zM5.375 8.125c-0.625 0.375-1.188 0.75-1.688 1.188l0.625 0.75c0.438-0.375 1-0.75 1.563-1.063zM6.813 23.5c-0.625-0.313-1.188-0.625-1.688-1l-0.563 0.875c0.563 0.375 1.125 0.688 1.813 1zM1.5 20.5l0.813-0.563c-0.375-0.563-0.625-1.125-0.875-1.625l-0.938 0.313c0.25 0.688 0.625 1.313 1 1.875zM28.75 11c0.438 0.438 0.813 0.938 1.188 1.438l0.813-0.5c-0.375-0.563-0.813-1.125-1.313-1.688zM31.313 19.125l-0.938-0.438c-0.25 0.563-0.563 1.063-1 1.563l0.813 0.625c0.438-0.563 0.813-1.125 1.125-1.75zM31.938 14.875c-0.125-0.688-0.375-1.375-0.688-2.063l-0.875 0.438c0.25 0.563 0.438 1.188 0.563 1.813zM32 16v-0.063l-1 0.063c0 0.625-0.063 1.25-0.25 1.813l0.938 0.313c0.188-0.688 0.313-1.438 0.313-2.125zM1.188 17.375c-0.125-0.438-0.188-0.938-0.188-1.375 0-0.125 0-0.313 0-0.438l-1-0.063c0 0.188 0 0.313 0 0.5 0 0.563 0.063 1.063 0.188 1.625zM26.063 7.813c-0.563-0.313-1.188-0.563-1.813-0.813l-0.375 0.938c0.625 0.188 1.188 0.5 1.75 0.813zM27.063 23.625l-0.563-0.875c-0.5 0.375-1.125 0.688-1.688 0.938l0.375 0.875c0.688-0.25 1.25-0.563 1.875-0.938zM24.25 25l-0.375-0.938c-0.563 0.25-1.188 0.438-1.813 0.625l0.25 0.938c0.688-0.188 1.313-0.375 1.938-0.625zM28.688 9.563c-0.563-0.438-1.125-0.813-1.688-1.188l-0.563 0.813c0.563 0.375 1.125 0.75 1.563 1.125zM29.5 21.688l-0.75-0.688c-0.438 0.438-0.938 0.813-1.438 1.25l0.563 0.813c0.625-0.438 1.125-0.875 1.625-1.375z"></path> </svg> 