 <svg version="1.1" xmlns="http://www.w3.org/2000/svg" width="32" height="32" viewBox="0 0 32 32"><path d="M6.5 26.5h19c3.563 0 6.5-2.938 6.5-6.5v-8c0-3.563-2.938-6.5-6.5-6.5h-19c-3.563 0-6.5 2.938-6.5 6.5v8c0 3.563 2.938 6.5 6.5 6.5zM6.5 25.5c-1.125 0-2.25-0.375-3.125-1l12.625-7.938 12.625 7.938c-0.875 0.625-2 1-3.125 1zM31 12v8c0 1.5-0.625 2.875-1.563 3.875l-12.5-7.875 12.5-7.875c0.938 1 1.563 2.375 1.563 3.875zM25.5 6.5c1.125 0 2.25 0.375 3.125 1l-12.625 7.938-12.625-7.938c0.875-0.625 2-1 3.125-1zM1 12c0-1.5 0.625-2.875 1.563-3.875l12.5 7.875-12.5 7.875c-0.938-1-1.563-2.375-1.563-3.875z"></path> </svg> 