 <svg version="1.1" xmlns="http://www.w3.org/2000/svg" width="32" height="32" viewBox="0 0 32 32"><path d="M16 24c10.125 0 15.688-7.375 15.875-7.688l0.25-0.313-0.25-0.313c-0.188-0.313-5.75-7.688-15.875-7.688s-15.688 7.375-15.875 7.688l-0.25 0.313 0.25 0.313c0.188 0.313 5.75 7.688 15.875 7.688zM16 9c8.5 0 13.688 5.625 14.875 7-1.188 1.375-6.375 7-14.875 7s-13.688-5.625-14.875-7c1.188-1.375 6.375-7 14.875-7zM16 20c2.188 0 4-1.813 4-4s-1.813-4-4-4c-2.188 0-4 1.813-4 4s1.813 4 4 4zM16 13c1.625 0 3 1.375 3 3s-1.375 3-3 3c-1.625 0-3-1.375-3-3s1.375-3 3-3z"></path> </svg> 