 <svg version="1.1" xmlns="http://www.w3.org/2000/svg" width="32" height="32" viewBox="0 0 32 32"><path d="M8.688 22.625l-4.563 4.5 0.75 0.75 4.813-4.875c1.875 0.625 3.938 1 6.313 1 10.125 0 15.688-7.375 15.875-7.688l0.25-0.313-0.25-0.313c-0.125-0.188-3.063-4.125-8.563-6.313l4.563-4.5-0.75-0.75-4.813 4.875c-1.875-0.625-3.938-1-6.313-1-10.125 0-15.688 7.375-15.875 7.688l-0.25 0.313 0.25 0.313c0.125 0.188 3.063 4.125 8.563 6.313zM30.875 16c-1.188 1.375-6.375 7-14.875 7-2 0-3.813-0.313-5.5-0.813l3.063-3.063c0.688 0.563 1.5 0.875 2.438 0.875 2.188 0 4-1.813 4-4 0-0.938-0.313-1.75-0.875-2.438l3.375-3.375c4.688 1.688 7.563 4.813 8.375 5.813zM13 16c0-1.625 1.375-3 3-3 0.625 0 1.25 0.188 1.75 0.563l-4.188 4.188c-0.375-0.5-0.563-1.125-0.563-1.75zM19 16c0 1.625-1.375 3-3 3-0.625 0-1.25-0.188-1.75-0.563l4.188-4.188c0.375 0.5 0.563 1.125 0.563 1.75zM16 9c2 0 3.813 0.313 5.5 0.813l-3.063 3.063c-0.688-0.563-1.5-0.875-2.438-0.875-2.188 0-4 1.813-4 4 0 0.938 0.313 1.75 0.875 2.438l-3.375 3.375c-4.688-1.688-7.563-4.813-8.375-5.813 1.188-1.375 6.375-7 14.875-7z"></path> </svg> 