 <svg version="1.1" xmlns="http://www.w3.org/2000/svg" width="32" height="32" viewBox="0 0 32 32"><path d="M21 29h2v-6h-2v-1.375l3.563-6.625-8.563-15.563-8.563 15.563 3.563 6.625v1.375h-2v6h2v3h10zM16 12.938c0.813 0 1.5 0.688 1.5 1.5s-0.688 1.5-1.5 1.5c-0.813 0-1.5-0.688-1.5-1.5s0.688-1.5 1.5-1.5zM8.563 15l6.938-12.563v9.563c-1.125 0.25-2 1.25-2 2.438 0 1.375 1.125 2.5 2.5 2.5s2.5-1.125 2.5-2.5c0-1.188-0.875-2.188-2-2.438v-9.563l6.938 12.563-3.438 6.375v1.625h-8v-1.625zM10 28v-4h12v4zM20 31h-8v-2h8z"></path> </svg> 