 <svg version="1.1" xmlns="http://www.w3.org/2000/svg" width="32" height="32" viewBox="0 0 32 32"><path d="M19.5 0c-6.875 0-12.5 5.625-12.5 12.5 0 3.25 1.25 6.25 3.313 8.5l-5.563 5.563-3.875-3.938-0.75 0.75 3.938 3.875-3.938 3.875 0.75 0.75 3.875-3.938 3.875 3.938 0.75-0.75-3.938-3.875 5.563-5.563c2.25 2.063 5.25 3.313 8.5 3.313 6.875 0 12.5-5.625 12.5-12.5s-5.625-12.5-12.5-12.5zM19.5 24c-6.313 0-11.5-5.188-11.5-11.5s5.188-11.5 11.5-11.5c6.313 0 11.5 5.188 11.5 11.5s-5.188 11.5-11.5 11.5z"></path> </svg> 