 <svg version="1.1" xmlns="http://www.w3.org/2000/svg" width="32" height="32" viewBox="0 0 32 32"><path d="M32 14h-32v-5.5h32zM1 13h30v-3.5h-30zM29.5 29.5h-27v-16.5h27zM3.5 28.5h25v-14.5h-25zM15.5 9h1v20h-1zM16 9.5c-0.188 0-1.875 0-3.5-0.625-2.313-0.813-3.5-2.313-3.5-4.375 0-1.563 1.125-2.563 2.875-2.563 2.188 0 4.625 1.5 4.625 3.563v4zM11.875 2.938c-0.688 0-1.875 0.25-1.875 1.563 0 3.313 4.063 3.875 5.5 4v-3c0-1.438-1.938-2.563-3.625-2.563zM16 9.5h-0.5v-4c0-2.063 2.438-3.563 4.625-3.563 1.75 0 2.875 1 2.875 2.563 0 2.063-1.188 3.563-3.5 4.375-1.625 0.625-3.313 0.625-3.5 0.625zM20.125 2.938c-1.688 0-3.625 1.125-3.625 2.563v3c0.625-0.063 1.688-0.188 2.688-0.563 1.875-0.688 2.813-1.813 2.813-3.438 0-1.313-1.188-1.563-1.875-1.563z"></path> </svg> 