 <svg version="1.1" xmlns="http://www.w3.org/2000/svg" width="32" height="32" viewBox="0 0 32 32"><path d="M29 14c0 6.938-6.063 13-13 13-4.625 0-6.063-1.813-6.125-1.813l-0.75 0.625c0.063 0.063 1.563 2.063 6.375 2.188v3h-4.5v1h10v-1h-4.5v-3c7.25-0.313 13.5-6.688 13.5-14 0-7.438-6.563-14-14-14v1c6.938 0 13 6.063 13 13zM16 24.5c5.813 0 10.5-4.688 10.5-10.5s-4.688-10.5-10.5-10.5c-5.813 0-10.5 4.688-10.5 10.5s4.688 10.5 10.5 10.5zM16 4.5c5.25 0 9.5 4.25 9.5 9.5s-4.25 9.5-9.5 9.5c-5.25 0-9.5-4.25-9.5-9.5s4.25-9.5 9.5-9.5z"></path> </svg> 