 <svg version="1.1" xmlns="http://www.w3.org/2000/svg" width="32" height="32" viewBox="0 0 32 32"><path d="M16 0c-4.25 0-8.313 1.688-11.313 4.688s-4.688 7.063-4.688 11.313c0 4.25 1.688 8.313 4.688 11.313s7.063 4.688 11.313 4.688c4.25 0 8.313-1.688 11.313-4.688s4.688-7.063 4.688-11.313c0-4.25-1.688-8.313-4.688-11.313s-7.063-4.688-11.313-4.688zM26.625 26.625c-2.875 2.813-6.625 4.375-10.625 4.375s-7.75-1.563-10.625-4.375c-2.813-2.875-4.375-6.625-4.375-10.625s1.563-7.75 4.375-10.625c2.875-2.813 6.625-4.375 10.625-4.375s7.75 1.563 10.625 4.375c2.813 2.875 4.375 6.625 4.375 10.625s-1.563 7.75-4.375 10.625zM16 4c-3.188 0-6.25 1.25-8.5 3.5s-3.5 5.313-3.5 8.5c0 3.188 1.25 6.25 3.5 8.5s5.313 3.5 8.5 3.5c3.188 0 6.25-1.25 8.5-3.5s3.5-5.313 3.5-8.5c0-3.188-1.25-6.25-3.5-8.5s-5.313-3.5-8.5-3.5zM23.75 23.75c-2.063 2.125-4.813 3.25-7.75 3.25s-5.688-1.125-7.75-3.25c-2.125-2.063-3.25-4.813-3.25-7.75s1.125-5.688 3.25-7.75c2.063-2.125 4.813-3.25 7.75-3.25s5.688 1.125 7.75 3.25c2.125 2.063 3.25 4.813 3.25 7.75s-1.125 5.688-3.25 7.75zM16 8c-2.125 0-4.125 0.813-5.688 2.313-1.5 1.563-2.313 3.563-2.313 5.688s0.813 4.125 2.313 5.688c1.563 1.5 3.563 2.313 5.688 2.313s4.125-0.813 5.688-2.313c1.5-1.563 2.313-3.563 2.313-5.688s-0.813-4.125-2.313-5.688c-1.563-1.5-3.563-2.313-5.688-2.313zM20.938 20.938c-1.313 1.313-3.063 2.063-4.938 2.063s-3.625-0.75-4.938-2.063c-1.313-1.313-2.063-3.063-2.063-4.938s0.75-3.625 2.063-4.938c1.313-1.313 3.063-2.063 4.938-2.063s3.625 0.75 4.938 2.063c1.313 1.313 2.063 3.063 2.063 4.938s-0.75 3.625-2.063 4.938zM16 12c-1.063 0-2.063 0.438-2.813 1.188s-1.188 1.75-1.188 2.813c0 1.063 0.438 2.063 1.188 2.813s1.75 1.188 2.813 1.188c1.063 0 2.063-0.438 2.813-1.188s1.188-1.75 1.188-2.813c0-1.063-0.438-2.063-1.188-2.813s-1.75-1.188-2.813-1.188zM18.125 18.125c-0.563 0.563-1.313 0.875-2.125 0.875s-1.563-0.313-2.125-0.875c-0.563-0.563-0.875-1.313-0.875-2.125s0.313-1.563 0.875-2.125c0.563-0.563 1.313-0.875 2.125-0.875s1.563 0.313 2.125 0.875c0.563 0.563 0.875 1.313 0.875 2.125s-0.313 1.563-0.875 2.125z"></path> </svg> 