 <svg version="1.1" xmlns="http://www.w3.org/2000/svg" width="32" height="32" viewBox="0 0 32 32"><path d="M20.5 18.813l-8.813-8.813 6-6-2.625-2.625-0.375 0.188c0 0.063-1.25 0.938-2.813 0.938-1.125 0-2.125-0.5-3-1.375l-0.375-0.313-8.688 8.688 6.188 6.188 5-5 8.813 8.813-1.5 1.5 10.188 10.188 3.688-3.688-10.188-10.188zM1.188 9.5l7.313-7.313c1 0.875 2.125 1.313 3.375 1.313 1.375 0 2.5-0.563 3.063-0.875l1.375 1.375-10.313 10.313zM28.5 29.813l-8.813-8.813 2.313-2.313 8.813 8.813z"></path> </svg> 