 <svg version="1.1" xmlns="http://www.w3.org/2000/svg" width="32" height="32" viewBox="0 0 32 32"><path d="M16 6.938c-1.188-2.875-4.313-4.938-8-4.938-5 0-8 4.313-8 8.5 0 4.313 2.688 8.875 7.938 13.625 3.875 3.5 7.75 5.813 7.813 5.813l0.25 0.125 0.25-0.125c0.063 0 3.938-2.313 7.813-5.813 5.25-4.75 7.938-9.313 7.938-13.625 0-4.188-3-8.5-8-8.5-3.688 0-6.813 2.063-8 4.938zM1 10.5c0-3.688 2.625-7.5 7-7.5 3.625 0 7.5 2.5 7.5 6.5v0.25l2.75 2.313-3.938 3.938 3 3-3 3 3 3-2.938 2.875c-4-2.688-13.375-9.813-13.375-17.375zM31 10.5c0 8.938-13 17.188-15 18.438-0.188-0.125-0.438-0.313-0.75-0.5l3.438-3.438-3-3 3-3-3-3 4.063-4.063-3.25-2.688c0.188-3.875 3.938-6.25 7.5-6.25 4.375 0 7 3.813 7 7.5z"></path> </svg> 