 <svg version="1.1" xmlns="http://www.w3.org/2000/svg" width="32" height="32" viewBox="0 0 32 32"><path d="M9.5 30v-1h-0.875l-0.375-0.625-0.813 0.5 0.625 1.125zM2.25 19.813l-1-1.813 0.875-0.5 1 1.813zM5.188 22.938l1.063 1.813-0.875 0.5-1.063-1.813zM6.75 25.688l1 1.813-0.875 0.5-1-1.813zM3.688 20.25l1 1.813-0.875 0.5-1-1.813zM0.125 16l0.625 1.125 0.875-0.5-0.375-0.625 0.375-0.625-0.875-0.5zM3.688 11.75l-0.875-0.5 1-1.813 0.875 0.5zM6.75 6.313l-0.875-0.5 1-1.813 0.875 0.5zM2.125 14.5l-0.875-0.5 1-1.813 0.875 0.5zM5.188 9.063l-0.875-0.5 1.063-1.813 0.875 0.5zM7.438 3.125l0.813 0.5 0.375-0.625h0.875v-1h-1.438zM13.5 2h2v1h-2zM16.5 2h2v1h-2zM10.5 2h2v1h-2zM19.5 2h2v1h-2zM22.5 2v1h0.875l0.375 0.625 0.813-0.5-0.625-1.125zM28.313 11.75l-1-1.813 0.875-0.5 1 1.813zM25.25 6.313l-1-1.813 0.875-0.5 1 1.813zM26.813 9.063l-1.063-1.813 0.875-0.5 1.063 1.813zM29.875 14.5l-1-1.813 0.875-0.5 1 1.813zM31.875 16l-0.625-1.125-0.875 0.5 0.375 0.625-0.375 0.625 0.875 0.5zM25.125 28l-0.875-0.5 1-1.813 0.875 0.5zM26.813 22.938l0.875 0.5-1.063 1.813-0.875-0.5zM28.313 20.25l0.875 0.5-1 1.813-0.875-0.5zM29.875 17.5l0.875 0.5-1 1.813-0.875-0.5zM22.5 30h1.438l0.625-1.125-0.813-0.5-0.375 0.625h-0.875zM19.5 29h2v1h-2zM13.5 29h2v1h-2zM16.5 29h2v1h-2zM10.5 29h2v1h-2z"></path> </svg> 