 <svg version="1.1" xmlns="http://www.w3.org/2000/svg" width="32" height="32" viewBox="0 0 32 32"><path d="M16-0.063c-4.313 0-8.313 1.688-11.375 4.688-3 3.063-4.688 7.063-4.688 11.375s1.688 8.313 4.688 11.313c3.063 3.063 7.063 4.688 11.375 4.688 0 0 0 0 0 0v0c8.875 0 16.063-7.188 16.063-16 0-4.313-1.688-8.313-4.688-11.375-3.063-3-7.063-4.688-11.375-4.688zM27.375 6.125c-0.438 0.625-1.625 1.938-4 3-1.375-3.938-3.563-6.625-4.938-8 3.125 0.5 5.938 1.938 8.188 4.25 0.25 0.25 0.5 0.5 0.75 0.75zM16.75 31.063c-0.063 0-0.188 0-0.25 0v-9.563c2.5 0.063 4.438 0.438 5.938 1-1.75 5.063-5.063 8.063-5.688 8.563zM9.563 22.5c1.563-0.563 3.5-0.938 5.938-1v9.563c-0.063 0-0.188 0-0.25 0-0.625-0.5-3.938-3.5-5.688-8.563zM15.25 0.938c0.063 0 0.188 0 0.25 0v9.563c-2.5-0.063-4.438-0.438-5.938-1 1.75-5.063 5.063-8.063 5.688-8.563zM22.438 9.5c-1.563 0.563-3.5 0.938-5.938 1v-9.563c0.063 0 0.188 0 0.25 0 0.625 0.5 3.938 3.5 5.688 8.563zM16.5 11.5c2.563-0.063 4.625-0.438 6.25-1 0.438 1.5 0.688 3.188 0.75 5h-7zM15.5 11.5v4h-7c0.063-1.813 0.313-3.5 0.75-5 1.625 0.563 3.688 0.938 6.25 1zM7.5 15.5h-6.563c0.125-3.125 1.188-6.125 3.063-8.563 0.625 0.75 1.938 2.125 4.313 3.188-0.438 1.625-0.75 3.375-0.813 5.375zM7.5 16.5c0.063 2 0.375 3.75 0.813 5.375-2.375 1.063-3.688 2.438-4.313 3.188-1.875-2.438-2.938-5.438-3.063-8.563zM8.5 16.5h7v4c-2.563 0.063-4.625 0.438-6.25 1-0.438-1.5-0.688-3.188-0.75-5zM16.5 20.5v-4h7c-0.063 1.813-0.313 3.5-0.75 5-1.625-0.563-3.688-0.938-6.25-1zM24.5 16.5h6.563c-0.125 3.188-1.25 6.188-3.063 8.563-0.625-0.813-1.938-2.125-4.313-3.188 0.438-1.625 0.75-3.375 0.813-5.375zM24.5 15.5c-0.063-2-0.375-3.75-0.813-5.375 2.375-1.063 3.688-2.438 4.313-3.188 1.875 2.438 2.938 5.438 3.063 8.563h-6.563zM13.563 1.125c-1.375 1.375-3.563 4.063-4.938 8-0.75-0.313-1.375-0.688-1.813-1-1.188-0.813-1.875-1.563-2.125-2 0.188-0.25 0.438-0.5 0.688-0.75 2.25-2.313 5.063-3.75 8.188-4.25zM4.625 25.875c0.438-0.625 1.625-1.938 4-3 1.375 3.938 3.563 6.625 4.938 8-3.125-0.5-5.938-1.938-8.188-4.25-0.25-0.25-0.5-0.5-0.75-0.75zM16 31.5v0.063zM18.438 30.875c1.375-1.375 3.563-4.063 4.938-8 0.75 0.313 1.375 0.688 1.813 1 1.188 0.813 1.875 1.563 2.125 2-2.25 2.625-5.375 4.375-8.875 5z"></path> </svg> 