 <svg version="1.1" xmlns="http://www.w3.org/2000/svg" width="32" height="32" viewBox="0 0 32 32"><path d="M25 13h-8.5v-2h7v-4.5h-5v-1h-1v2h5v2.5h-7v3h-8.5c-3.875 0-7 3.125-7 7s3.125 7 7 7c2.313 0 4.438-1.125 5.75-3h6.5c1.313 1.875 3.438 3 5.75 3 3.875 0 7-3.125 7-7s-3.125-7-7-7zM25 26c-2.063 0-3.938-1.063-5.063-2.75l-0.125-0.25h-7.625l-0.125 0.25c-1.125 1.688-3 2.75-5.063 2.75-3.313 0-6-2.688-6-6s2.688-6 6-6h18c3.313 0 6 2.688 6 6s-2.688 6-6 6zM7.5 16h-1v3.5h-3.5v1h3.5v3.5h1v-3.5h3.5v-1h-3.5zM25 16c-2.188 0-4 1.813-4 4s1.813 4 4 4c2.188 0 4-1.813 4-4s-1.813-4-4-4zM27.938 19.5h-2.438v-2.438c1.25 0.188 2.25 1.188 2.438 2.438zM24.5 17.063v2.438h-2.438c0.188-1.25 1.188-2.25 2.438-2.438zM22.063 20.5h2.438v2.438c-1.25-0.188-2.25-1.188-2.438-2.438zM25.5 22.938v-2.438h2.438c-0.188 1.25-1.188 2.25-2.438 2.438z"></path> </svg> 