 <svg version="1.1" xmlns="http://www.w3.org/2000/svg" width="32" height="32" viewBox="0 0 32 32"><path d="M4 7.5h7v-4.5h-5v-1h-1v2h5v2.5h-7v4h-3v16h32v-16h-28zM31 25.5h-30v-14h30zM2 14h2v1h-2zM5 14h2v1h-2zM8 14h2v1h-2zM11 14h2v1h-2zM14 14h2v1h-2zM17 14h2v1h-2zM20 14h2v1h-2zM23 14h2v1h-2zM26 14h2v1h-2zM2 22h2v1h-2zM5 22h2v1h-2zM8 22h13v1h-13zM25 22h2v1h-2zM28 22h2v1h-2zM22 22h2v1h-2zM4 18h2v1h-2zM7 18h2v1h-2zM10 18h2v1h-2zM13 18h2v1h-2zM16 18h2v1h-2zM19 18h2v1h-2zM22 18h2v1h-2zM25 18h2v1h-2zM28 18h2v1h-2z"></path> </svg> 