 <svg version="1.1" xmlns="http://www.w3.org/2000/svg" width="32" height="32" viewBox="0 0 32 32"><path d="M20 32v-3h1v-3h1v-5.75c3.125-2.063 5-5.5 5-9.25 0-6.063-4.938-11-11-11s-11 4.938-11 11c0 3.75 1.938 7.25 5 9.25v5.75h1v3h1v3zM19 31h-6v-2h6zM10.75 19.563c-2.938-1.813-4.75-5.063-4.75-8.563 0-5.5 4.5-10 10-10s10 4.5 10 10c0 3.5-1.75 6.688-4.75 8.5l-0.25 0.188v2.313h-2.438l1.438-9.438-1-0.125-0.063 0.375-1.375 1-1.563-1.5-1.563 1.5-1.375-1-0.063-0.375-1 0.125 1.438 9.438h-2.438v-2.25zM14.438 22l-1.188-7.813 1.313 1 1.438-1.5 1.438 1.5 1.313-1-1.188 7.813zM11 23h10v2h-10zM12 26h8v2h-8z"></path> </svg> 