 <svg version="1.1" xmlns="http://www.w3.org/2000/svg" width="32" height="32" viewBox="0 0 32 32"><path d="M27 25.5h-27v-14h27zM1 24.5h25v-12h-25zM32 20.5h-4.5v-1h3.5v-12h-25v3.5h-1v-4.5h27zM23 23.5h-18.5v-0.5c0-0.75-0.25-1.5-2-1.5h-0.5v-6h0.5c1.75 0 2-0.75 2-1.5v-0.5h18.5v0.5c0 1.25 0.813 1.5 1.5 1.5h0.5v6h-0.5c-0.688 0-1.5 0.25-1.5 1.5zM5.438 22.5h16.625c0.125-1.25 1-1.813 1.938-1.938v-4.125c-0.938-0.125-1.813-0.688-1.938-1.938h-16.625c-0.125 0.938-0.688 1.813-2.438 2v4c1.75 0.188 2.313 1.063 2.438 2zM13.5 21.5c-1.625 0-3-1.375-3-3s1.375-3 3-3c1.625 0 3 1.375 3 3s-1.375 3-3 3zM13.5 16.5c-1.125 0-2 0.875-2 2s0.875 2 2 2c1.125 0 2-0.875 2-2s-0.875-2-2-2z"></path> </svg> 