 <svg version="1.1" xmlns="http://www.w3.org/2000/svg" width="32" height="32" viewBox="0 0 32 32"><path d="M32 24.5h-32v-17h32zM1 23.5h30v-15h-30zM27.5 22.5h-23v-0.5c0-1.125-0.875-2-2-2h-0.5v-8h0.5c1.125 0 2-0.875 2-2v-0.5h23v0.5c0 1.125 0.875 2 2 2h0.5v8h-0.5c-1.125 0-2 0.875-2 2zM5.438 21.5h21.125c0.188-1.25 1.188-2.25 2.438-2.438v-6.125c-1.25-0.188-2.25-1.188-2.438-2.438h-21.125c-0.188 1.25-1.188 2.25-2.438 2.438v6.125c1.25 0.188 2.25 1.188 2.438 2.438zM16 20.5c-2.5 0-4.5-2-4.5-4.5s2-4.5 4.5-4.5c2.5 0 4.5 2 4.5 4.5s-2 4.5-4.5 4.5zM16 12.5c-1.938 0-3.5 1.563-3.5 3.5s1.563 3.5 3.5 3.5c1.938 0 3.5-1.563 3.5-3.5s-1.563-3.5-3.5-3.5z"></path> </svg> 