 <svg version="1.1" xmlns="http://www.w3.org/2000/svg" width="32" height="32" viewBox="0 0 32 32"><path d="M5.5 32.313v-25l7.313-7.313h13.688v32.313l-2.5-1.25-2 1-2-1-2 1-2-1-2 1-2-1-2 1-2-1zM20 29.938l2 1 2-1 1.5 0.75v-29.688h-12.313l-6.688 6.688v23l1.5-0.75 2 1 2-1 2 1 2-1 2 1zM13.5 8h-7.5v-1h6.5v-6.5h1zM12.5 11h1v13h-1zM15.5 17.5h-2.5v-1h2.5c0.125 0 2.5-0.063 2.5-2 0-2.5-2.375-2.5-2.5-2.5h-2.5v-1h2.5c1.188 0 3.5 0.75 3.5 3.5 0 2.375-2.313 3-3.5 3zM16 24h-3v-1h3c0.125 0 3-0.063 3-2.5 0-0.938-0.25-1.688-0.813-2.188-0.875-0.875-2.188-0.813-2.188-0.813h-2.5v-1h2.5c0.063 0 1.75-0.063 2.938 1.125 0.688 0.688 1.063 1.625 1.063 2.875 0 2.75-2.625 3.5-4 3.5zM15.5 10h1v15h-1z"></path> </svg> 