 <svg version="1.1" xmlns="http://www.w3.org/2000/svg" width="32" height="32" viewBox="0 0 32 32"><path d="M5.5 32.313v-25l7.313-7.313h13.688v32.313l-2.5-1.25-2 1-2-1-2 1-2-1-2 1-2-1-2 1-2-1zM20 29.938l2 1 2-1 1.5 0.75v-29.688h-12.313l-6.688 6.688v23l1.5-0.75 2 1 2-1 2 1 2-1 2 1zM13.5 8h-7.5v-1h6.5v-6.5h1zM17 23.5c-2.25 0-5-1.125-5-6.5 0-4.063 1.625-6 5-6 3.813 0 4.438 1.688 4.5 1.875l-1 0.313c0-0.063-0.438-1.188-3.5-1.188-2.75 0-4 1.563-4 5 0 3.688 1.313 5.5 4 5.5 2.813 0 3.438-1.313 3.5-1.563v-1.938h-1.5v-1h2.5v3.125c-0.063 0.063-0.625 2.375-4.5 2.375zM16.5 10h1v14.5h-1z"></path> </svg> 