 <svg version="1.1" xmlns="http://www.w3.org/2000/svg" width="32" height="32" viewBox="0 0 32 32"><path d="M5.5 32.313v-25l7.313-7.313h13.688v32.313l-2.5-1.25-2 1-2-1-2 1-2-1-2 1-2-1-2 1-2-1zM20 29.938l2 1 2-1 1.5 0.75v-29.688h-12.313l-6.688 6.688v23l1.5-0.75 2 1 2-1 2 1 2-1 2 1zM13.5 8h-7.5v-1h6.5v-6.5h1zM16 22.5c-1.313 0-2.313-0.313-2.875-0.875-0.625-0.625-0.625-1.375-0.625-1.625h1c0 0.188 0 0.563 0.313 0.938 0.375 0.375 1.125 0.563 2.188 0.563 1.188 0 2.063-0.25 2.5-0.75 0.5-0.5 0.5-1.188 0.5-1.625v-0.125c0 0-0.188-2-3-2-2.438 0-3.5-0.75-3.5-2.5v-0.063c0-0.625 0-1.438 0.625-2.063 0.563-0.625 1.5-0.875 2.875-0.875 1.313 0 2.25 0.313 2.875 0.938 0.625 0.688 0.625 1.5 0.625 1.563h-1c0-0.063 0-0.5-0.375-0.875-0.438-0.375-1.125-0.625-2.125-0.625-1.063 0-1.813 0.188-2.125 0.563-0.375 0.313-0.375 0.875-0.375 1.375v0.063c0 0.688 0 1.5 2.5 1.5 3.313 0 4 2.375 4 3v0.125c0 0.5 0 1.563-0.75 2.375-0.688 0.625-1.75 1-3.25 1zM16.5 10.5h1v13.5h-1zM14.5 10.5h1v13.5h-1z"></path> </svg> 