 <svg version="1.1" xmlns="http://www.w3.org/2000/svg" width="32" height="32" viewBox="0 0 32 32"><path d="M5.5 32.313v-25l7.313-7.313h13.688v32.313l-2.5-1.25-2 1-2-1-2 1-2-1-2 1-2-1-2 1-2-1zM20 29.938l2 1 2-1 1.5 0.75v-29.688h-12.313l-6.688 6.688v23l1.5-0.75 2 1 2-1 2 1 2-1 2 1zM13.5 8h-7.5v-1h6.5v-6.5h1zM17.188 25.313l-6.688-6.063v-1.25h3.5c0.063 0 2.25 0.125 3.563-1.063 0.625-0.563 0.938-1.375 0.938-2.438 0-1.438-0.75-2.438-2.188-3-1.125-0.5-2.313-0.5-2.313-0.5h-3.5v-1h3.5c1.875 0 5.5 1 5.5 4.5 0 1.313-0.438 2.375-1.25 3.188-1.625 1.5-4.188 1.313-4.313 1.313h-2.188l6.125 5.625zM10.5 10h11v1h-11zM10.5 12.5h11v1h-11z"></path> </svg> 