 <svg version="1.1" xmlns="http://www.w3.org/2000/svg" width="32" height="32" viewBox="0 0 32 32"><path d="M5.5 32.313v-25l7.313-7.313h13.688v32.313l-2.5-1.25-2 1-2-1-2 1-2-1-2 1-2-1-2 1-2-1zM20 29.938l2 1 2-1 1.5 0.75v-29.688h-12.313l-6.688 6.688v23l1.5-0.75 2 1 2-1 2 1 2-1 2 1zM13.5 8h-7.5v-1h6.5v-6.5h1zM11 10h10v1h-10zM9.5 12.5h13v1h-13zM12.438 24h-1.438v-1h1.438c0.75 0 1-1.313 1.063-1.563v-7.938h1v8.063c-0.125 0.938-0.75 2.438-2.063 2.438zM21 24h-1c-1.625 0-2.375-1.25-2.5-1.875v-8.625h1v8.438c0.063 0.25 0.375 1.063 1.5 1.063h1z"></path> </svg> 