 <svg version="1.1" xmlns="http://www.w3.org/2000/svg" width="32" height="32" viewBox="0 0 32 32"><path d="M5.5 32.313v-25l7.313-7.313h13.688v32.313l-2.5-1.25-2 1-2-1-2 1-2-1-2 1-2-1-2 1-2-1zM20 29.938l2 1 2-1 1.5 0.75v-29.688h-12.313l-6.688 6.688v23l1.5-0.75 2 1 2-1 2 1 2-1 2 1zM13.5 8h-7.5v-1h6.5v-6.5h1zM12.5 10h1v14h-1zM16.25 19c-0.188 0-0.313 0-0.313 0h-4.938v-1h5c0.063 0 2.25 0.125 3.563-1.063 0.625-0.563 0.938-1.438 0.938-2.438s-0.313-1.875-0.938-2.438c-1.313-1.188-3.5-1.063-3.563-1.063h-3v-1h3c0.063 0 2.625-0.188 4.25 1.313 0.813 0.813 1.25 1.875 1.25 3.188s-0.438 2.375-1.25 3.188c-1.313 1.188-3.25 1.313-4 1.313zM11 20.5h5.5v1h-5.5z"></path> </svg> 