 <svg version="1.1" xmlns="http://www.w3.org/2000/svg" width="32" height="32" viewBox="0 0 32 32"><path d="M19.5 11c0-1.938-1.563-3.5-3.5-3.5s-3.5 1.563-3.5 3.5c0 1.938 1.563 3.5 3.5 3.5s3.5-1.563 3.5-3.5zM13.5 11c0-1.375 1.125-2.5 2.5-2.5s2.5 1.125 2.5 2.5c0 1.375-1.125 2.5-2.5 2.5s-2.5-1.125-2.5-2.5zM16 32.25l0.375-0.438c0.438-0.5 10.688-12.563 10.625-20.438 0-6.25-4.938-11.375-11-11.375s-11 5.125-11 11.375c0 7.875 10.188 19.938 10.625 20.438zM16 1c5.5 0 10 4.625 10 10.375 0 6.688-8.125 17.063-10 19.313-1.875-2.25-10-12.625-10-19.313 0-5.75 4.5-10.375 10-10.375z"></path> </svg> 