 <svg version="1.1" xmlns="http://www.w3.org/2000/svg" width="32" height="32" viewBox="0 0 32 32"><path d="M16 0c-4.25 0-8.313 1.688-11.313 4.688s-4.688 7.063-4.688 11.313c0 4.25 1.688 8.313 4.688 11.313s7.063 4.688 11.313 4.688c4.25 0 8.313-1.688 11.313-4.688s4.688-7.063 4.688-11.313c0-4.25-1.688-8.313-4.688-11.313s-7.063-4.688-11.313-4.688zM26.625 26.625c-2.875 2.813-6.625 4.375-10.625 4.375s-7.75-1.563-10.625-4.375c-2.813-2.875-4.375-6.625-4.375-10.625s1.563-7.75 4.375-10.625c2.875-2.813 6.625-4.375 10.625-4.375s7.75 1.563 10.625 4.375c2.813 2.875 4.375 6.625 4.375 10.625s-1.563 7.75-4.375 10.625zM14.5 21.5h1v2h-1zM16 7.5c-3 0-4.5 1-4.5 3h1c0-0.938 0.375-2 3.5-2 2.125 0 3.5 1.188 3.5 3 0 1.375-1.938 2.688-2.75 3.063-0.063 0.063-2.25 1.188-2.25 4.438v0.5h1v-0.5c0-2.625 1.625-3.5 1.75-3.563s3.25-1.625 3.25-3.938c0-2.375-1.875-4-4.5-4z"></path> </svg> 