 <svg version="1.1" xmlns="http://www.w3.org/2000/svg" width="32" height="32" viewBox="0 0 32 32"><path d="M29.938 24.75c0.5-0.5 0.938-1.063 1.313-1.688l-0.875-0.438c-0.313 0.5-0.688 1-1.125 1.375zM30.75 10.313l0.938-0.313c-0.25-0.688-0.563-1.313-1-1.875l-0.813 0.563c0.375 0.5 0.688 1.063 0.875 1.625zM30 7.313c-0.5-0.5-1.125-0.875-1.75-1.188l-0.438 0.875c0.563 0.25 1.063 0.625 1.5 1zM30.688 21.75l0.938 0.375c0.25-0.688 0.375-1.438 0.375-2.125v0h-1c0 0.625-0.125 1.188-0.313 1.75zM9.5 25.5h2v1h-2zM13.5 5.5h2v1h-2zM12.5 25.5h1.5v1h-1.5zM10.5 5.5h2v1h-2zM6.438 26.5h2.063v-1h-2zM7.5 5.5h2v1h-2zM15 25.5h2v1h-2zM6.438 6.5v-1c-0.75 0-1.438 0.125-2.125 0.375l0.375 0.938c0.563-0.188 1.125-0.313 1.75-0.313zM21 25.5h2v1h-2zM24 25.5v1h1.5c0.188 0 0.375 0 0.625 0l-0.125-1c-0.188 0-0.313 0-0.5 0zM19 5.5h2v1h-2zM18 25.5h2v1h-2zM16.5 5.5h2v1h-2zM22 5.5h2v1h-2zM31 14h1v2h-1zM31 17h1v2h-1zM27.125 26.313c0.688-0.188 1.375-0.5 1.938-0.875l-0.5-0.875c-0.5 0.375-1.063 0.625-1.688 0.75zM27 6.688l0.25-0.938c-0.563-0.188-1.188-0.25-1.75-0.25h-0.5v1h0.5c0.5 0 1 0.063 1.5 0.188zM0 17.5h1v2h-1zM3.25 25.625c0.625 0.375 1.313 0.625 2 0.75l0.188-1c-0.563-0.063-1.125-0.313-1.688-0.625zM31.938 11.063l-1 0.125c0.063 0.25 0.063 0.563 0.063 0.813v1h1v-1c0-0.313 0-0.625-0.063-0.938zM0 14.5h1v2h-1zM2.375 25.063l0.625-0.813c-0.438-0.375-0.875-0.813-1.188-1.313l-0.813 0.5c0.375 0.625 0.813 1.125 1.375 1.625zM3.813 7.188l-0.438-0.875c-0.625 0.375-1.188 0.813-1.688 1.313l0.75 0.688c0.375-0.438 0.875-0.813 1.375-1.125zM0 20.438c0.063 0.688 0.25 1.375 0.5 2.063l0.938-0.375c-0.25-0.563-0.375-1.188-0.438-1.75zM1.875 9l-0.813-0.5c-0.438 0.563-0.688 1.25-0.875 1.938l1 0.25c0.125-0.625 0.375-1.188 0.688-1.688zM1 12c0-0.125 0-0.313 0-0.438l-1-0.063c0 0.125 0 0.313 0 0.5v1.5h1z"></path> </svg> 