 <svg version="1.1" xmlns="http://www.w3.org/2000/svg" width="32" height="32" viewBox="0 0 32 32"><path d="M31 25.5h-0.5v1h1.5v-1.5h-1zM27.5 25.5h2v1h-2zM15 25.5h2v1h-2zM5.5 25.5h2v1h-2zM18 25.5h2v1h-2zM21 25.5h2v1h-2zM12 25.5h2v1h-2zM24.5 25.5h2v1h-2zM8.5 25.5h2.5v1h-2.5zM2.5 25.5h2v1h-2zM1.5 25.5h-0.5v-0.5h-1v1.5h1.5zM0 22h1v2h-1zM0 19.5h1v1.5h-1zM0 13.5h1v2h-1zM0 16.5h1v2h-1zM0 11h1v1.5h-1zM0 8h1v2h-1zM1 6.5h0.5v-1h-1.5v1.5h1zM27.5 5.5h2v1h-2zM12 5.5h2v1h-2zM24.5 5.5h2v1h-2zM2.5 5.5h2v1h-2zM5.5 5.5h2v1h-2zM8.5 5.5h2.5v1h-2.5zM15 5.5h2v1h-2zM21 5.5h2v1h-2zM18 5.5h2v1h-2zM30.5 6.5h0.5v0.5h1v-1.5h-1.5zM31 11h1v1.5h-1zM31 16.5h1v2h-1zM31 19.5h1v1.5h-1zM31 22h1v2h-1zM31 8h1v2h-1zM31 13.5h1v2h-1z"></path> </svg> 