 <svg version="1.1" xmlns="http://www.w3.org/2000/svg" width="32" height="32" viewBox="0 0 32 32"><path d="M4.063 25.125c-0.375-0.5-0.75-1.063-1.063-1.625l-0.875 0.5c0.375 0.563 0.75 1.188 1.188 1.75zM2.125 8l0.875 0.5c0.313-0.563 0.688-1.125 1.125-1.625l-0.813-0.625c-0.438 0.563-0.813 1.125-1.188 1.75zM0 16c0 0.375 0 0.688 0.063 1l0.938-0.063c0-0.313 0-0.625 0-0.938s0-0.688 0.063-1l-1-0.063c-0.063 0.375-0.063 0.688-0.063 1.063zM0.125 18.063c0.125 0.688 0.25 1.375 0.438 2.063l0.938-0.25c-0.188-0.625-0.313-1.313-0.375-1.938zM0.125 13.875l1 0.125c0.063-0.625 0.188-1.25 0.375-1.875l-0.938-0.313c-0.188 0.688-0.313 1.375-0.438 2.063zM0.875 10.813l0.938 0.375c0.188-0.625 0.438-1.25 0.75-1.813l-0.938-0.438c-0.25 0.625-0.563 1.25-0.75 1.875zM2.563 22.625c-0.313-0.563-0.563-1.188-0.75-1.813l-1 0.313c0.25 0.688 0.5 1.313 0.813 1.938zM11.188 1.813l-0.313-1c-0.688 0.25-1.313 0.5-1.938 0.813l0.438 0.938c0.563-0.313 1.188-0.563 1.813-0.75zM8 29.875l0.5-0.875c-0.563-0.313-1.125-0.688-1.625-1.125l-0.625 0.813c0.563 0.438 1.125 0.813 1.75 1.188zM13.875 31.875l0.125-1c-0.625-0.063-1.25-0.188-1.875-0.375l-0.313 0.938c0.688 0.188 1.375 0.313 2.063 0.438zM10.813 31.125l0.375-0.938c-0.625-0.188-1.25-0.438-1.813-0.75l-0.438 0.938c0.625 0.25 1.25 0.563 1.875 0.75zM8.5 3l-0.5-0.875c-0.563 0.375-1.188 0.75-1.75 1.188l0.625 0.75c0.5-0.375 1.063-0.75 1.625-1.063zM14.063 1.125l-0.125-1c-0.688 0.125-1.375 0.25-2.063 0.438l0.25 0.938c0.625-0.188 1.313-0.313 1.938-0.375zM5.438 3.938c-0.5 0.5-1 1-1.438 1.5l0.75 0.688c0.438-0.5 0.875-1 1.375-1.438zM5.438 28l0.688-0.75c-0.5-0.438-1-0.875-1.438-1.375l-0.75 0.688c0.5 0.5 1 1 1.5 1.438zM16 31c-0.313 0-0.625 0-0.938 0l-0.125 0.938c0.375 0.063 0.688 0.063 1.063 0.063zM16 0c-0.375 0-0.688 0-1.063 0.063l0.125 0.938c0.313 0 0.625 0 0.938 0 8.25 0 15 6.75 15 15 0 3.125-0.938 6.125-2.75 8.688l-2.25 2.25v-4.438h-1v5.5l0.5 0.5h5.5v-1h-4.188l2.188-2.125v-0.063c2-2.75 3-5.938 3-9.313 0-8.813-7.188-16-16-16z"></path> </svg> 