 <svg version="1.1" xmlns="http://www.w3.org/2000/svg" width="32" height="32" viewBox="0 0 32 32"><path d="M15.5 0c-0.313 0-0.688 0-1.063 0.063l0.125 1c0.313-0.063 0.625-0.063 0.938-0.063zM0.188 18l1-0.125c-0.125-0.688-0.188-1.375-0.188-2h-1c0 0.75 0.063 1.438 0.188 2.125zM0 14.813l1 0.063c0.063-0.688 0.125-1.375 0.25-2l-1-0.188c-0.125 0.688-0.188 1.375-0.25 2.125zM0.5 11.625l0.938 0.25c0.188-0.688 0.375-1.313 0.688-1.938l-0.938-0.375c-0.313 0.688-0.5 1.375-0.688 2.063zM3.938 24.188l1.438 1.5-0.688 0.688-1.5-1.438zM13.375 0.125c-0.688 0.125-1.375 0.25-2.063 0.438l0.25 1c0.625-0.188 1.313-0.313 2-0.438zM10.25 0.938c-0.688 0.188-1.313 0.5-1.938 0.813l0.438 0.938c0.625-0.313 1.25-0.625 1.875-0.813zM1.5 22.125c0.313 0.625 0.625 1.313 1.063 1.875l0.813-0.563c-0.375-0.563-0.688-1.125-1-1.75zM1.625 8.563l0.875 0.5c0.313-0.625 0.688-1.188 1.063-1.75l-0.875-0.563c-0.375 0.563-0.75 1.188-1.063 1.813zM0.438 19.063c0.125 0.688 0.375 1.438 0.625 2.063l0.938-0.375c-0.25-0.625-0.438-1.25-0.625-1.875zM7.875 3.188l-0.5-0.875c-0.625 0.375-1.188 0.813-1.75 1.25l0.625 0.75c0.5-0.375 1.063-0.813 1.625-1.125zM4.563 4.563c-0.438 0.375-0.813 0.875-1.188 1.313l0.75 0.625c0.375-0.438 0.75-0.875 1.125-1.25 0.063-0.063 0.188-0.188 0.25-0.25l-0.688-0.75c-0.125 0.125-0.188 0.188-0.25 0.313zM16.5 31v1c0.313 0 0.688 0 1.063-0.063l-0.125-1c-0.313 0.063-0.625 0.063-0.938 0.063zM30.938 10.875l-0.938 0.375c0.25 0.625 0.438 1.25 0.625 1.875l0.938-0.188c-0.125-0.688-0.375-1.438-0.625-2.063zM31.5 20.375l-0.938-0.25c-0.188 0.688-0.375 1.313-0.688 1.938l0.938 0.375c0.313-0.688 0.5-1.375 0.688-2.063zM30.813 14.125c0.125 0.688 0.188 1.375 0.188 2h1c0-0.75-0.063-1.438-0.188-2.125zM30.75 19.125l1 0.188c0.125-0.688 0.188-1.375 0.25-2.125l-1-0.063c-0.063 0.688-0.125 1.375-0.25 2zM24.625 29.688c0.625-0.375 1.188-0.813 1.75-1.25l-0.625-0.75c-0.5 0.375-1.063 0.813-1.625 1.125zM27.188 27.75c0.125-0.125 0.188-0.188 0.25-0.313 0.438-0.375 0.813-0.875 1.188-1.313l-0.75-0.625c-0.375 0.438-0.75 0.875-1.125 1.25-0.063 0.063-0.188 0.188-0.25 0.25zM30.375 23.438l-0.875-0.5c-0.313 0.625-0.688 1.188-1.063 1.75l0.875 0.563c0.375-0.563 0.75-1.188 1.063-1.813zM20.438 30.438c-0.625 0.188-1.313 0.313-2 0.438l0.188 1c0.688-0.125 1.375-0.25 2.063-0.438zM23.25 29.313c-0.625 0.313-1.25 0.625-1.875 0.813l0.375 0.938c0.688-0.188 1.313-0.5 1.938-0.813zM30.5 9.875c-0.313-0.625-0.625-1.313-1.063-1.875l-0.813 0.563c0.375 0.563 0.688 1.125 1 1.75zM28.063 7.813l-1.438-1.5 0.688-0.688 1.5 1.438zM1 27v1h5.5l0.5-0.5v-5.5h-1v4.563l-0.438 0.438zM25 4.5v5.5h1v-4.563l0.438-0.438h4.563v-1h-5.5z"></path> </svg> 