 <svg version="1.1" xmlns="http://www.w3.org/2000/svg" width="32" height="32" viewBox="0 0 32 32"><path d="M16.5 1c3.875 0 7.5 1.5 10.25 4.25 5.063 5.063 5.688 13.188 1.375 18.938l-2.125 2.125v-4.313h-1v5.5l0.5 0.5h5.5v-1h-4.313l2.188-2.125v-0.063c4.625-6.125 4-14.875-1.438-20.25-2.875-2.938-6.813-4.563-10.938-4.563zM3.875 7.813l2.125-2.125v4.313h1v-5.5l-0.5-0.5h-5.5v1h4.313l-2.188 2.125v0.063c-4.625 6.125-4 14.875 1.438 20.25 2.875 2.938 6.813 4.563 10.938 4.563v-1c-3.875 0-7.5-1.5-10.25-4.25-5.063-5.063-5.688-13.188-1.375-18.938z"></path> </svg> 