 <svg version="1.1" xmlns="http://www.w3.org/2000/svg" width="32" height="32" viewBox="0 0 32 32"><path d="M16.5 0v1c0.313 0 0.625 0 0.938 0.063l0.125-1c-0.375-0.063-0.688-0.063-1.063-0.063zM18.625 0.125l-0.188 1c0.688 0.125 1.375 0.25 2 0.438l0.25-1c-0.688-0.188-1.375-0.313-2.063-0.438zM31.563 19.063l-0.938-0.188c-0.188 0.625-0.375 1.25-0.625 1.875l0.938 0.375c0.25-0.625 0.5-1.313 0.625-2.063zM32 15.875h-1c0 0.625-0.063 1.313-0.188 2l1 0.125c0.125-0.688 0.188-1.375 0.188-2.125zM27.313 26.375l-0.688-0.688 1.438-1.5 0.75 0.75zM21.75 0.938l-0.375 0.938c0.625 0.188 1.25 0.5 1.875 0.813l0.438-0.938c-0.625-0.313-1.25-0.625-1.938-0.813zM30.5 22.125l-0.875-0.438c-0.313 0.625-0.625 1.188-1 1.75l0.813 0.563c0.438-0.625 0.75-1.25 1.063-1.875zM30.75 12.875c0.125 0.625 0.188 1.313 0.25 2l1-0.063c-0.063-0.75-0.125-1.438-0.25-2.125zM28.438 7.313c0.375 0.563 0.75 1.125 1.063 1.75l0.875-0.5c-0.313-0.625-0.688-1.25-1.063-1.813zM29.875 9.938c0.25 0.625 0.5 1.25 0.688 1.938l0.938-0.25c-0.188-0.688-0.375-1.375-0.688-2.063zM27.188 4.25l-0.688 0.75c0.063 0.063 0.188 0.188 0.25 0.25 0.375 0.375 0.75 0.813 1.125 1.25l0.75-0.625c-0.375-0.438-0.75-0.938-1.188-1.313-0.063-0.125-0.125-0.188-0.25-0.313zM24.125 3.188c0.563 0.313 1.125 0.688 1.625 1.125l0.625-0.75c-0.563-0.438-1.125-0.875-1.75-1.25zM26 26.563v-4.563h-1v5.5l0.5 0.5h5.5v-1h-4.563zM15.5 31c-0.313 0-0.625 0-0.938-0.063l-0.125 1c0.375 0.063 0.688 0.063 1.063 0.063zM5.625 28.438c0.563 0.438 1.125 0.875 1.75 1.25l0.5-0.875c-0.563-0.313-1.125-0.688-1.625-1.125zM0 17.188c0.063 0.75 0.125 1.438 0.25 2.125l1-0.188c-0.125-0.625-0.188-1.313-0.25-2zM0.5 20.375c0.188 0.688 0.375 1.375 0.688 2.063l0.938-0.375c-0.25-0.625-0.5-1.25-0.688-1.938zM1.375 13.125c0.188-0.625 0.375-1.25 0.625-1.875l-0.938-0.375c-0.25 0.625-0.5 1.313-0.625 2.063zM8.75 29.313l-0.438 0.938c0.625 0.313 1.25 0.625 1.938 0.813l0.375-0.938c-0.625-0.188-1.25-0.5-1.875-0.813zM0 16.125h1c0-0.625 0.063-1.313 0.188-2l-1-0.125c-0.125 0.688-0.188 1.375-0.188 2.125zM1.5 9.875l0.875 0.438c0.313-0.625 0.625-1.188 1-1.75l-0.813-0.563c-0.438 0.625-0.75 1.25-1.063 1.875zM1.625 23.438c0.313 0.625 0.688 1.25 1.063 1.813l0.875-0.563c-0.375-0.563-0.75-1.125-1.063-1.75zM4.813 27.75l0.688-0.75c-0.063-0.063-0.188-0.188-0.25-0.25-0.375-0.375-0.75-0.813-1.125-1.25l-0.75 0.625c0.375 0.438 0.75 0.938 1.188 1.313 0.063 0.125 0.125 0.188 0.25 0.313zM3.938 7.813l-0.75-0.75 1.5-1.438 0.688 0.688zM11.563 30.438l-0.25 1c0.688 0.188 1.375 0.313 2.063 0.438l0.188-1c-0.688-0.125-1.375-0.25-2-0.438zM1 4v1h4.563l0.438 0.438v4.563h1v-5.5l-0.5-0.5z"></path> </svg> 