 <svg version="1.1" xmlns="http://www.w3.org/2000/svg" width="32" height="32" viewBox="0 0 32 32"><path d="M3.125 24.813l2.188 2.188h-4.313v1h5.5l0.5-0.5v-5.5h-1v4.313l-2.125-2.125c-4.313-5.75-3.688-13.875 1.375-18.938 2.75-2.75 6.375-4.25 10.25-4.25v-1c-4.125 0-8.063 1.625-10.938 4.563-5.438 5.375-6.063 14.125-1.438 20.25zM26.688 5h4.313v-1h-5.5l-0.5 0.5v5.5h1v-4.313l2.125 2.125c4.313 5.75 3.688 13.875-1.375 18.938-2.75 2.75-6.375 4.25-10.25 4.25v1c4.125 0 8.063-1.625 10.938-4.563 5.438-5.375 6.063-14.125 1.438-20.25z"></path> </svg> 