 <svg version="1.1" xmlns="http://www.w3.org/2000/svg" width="32" height="32" viewBox="0 0 32 32"><path d="M20.5 18.813l-2.063-2.125 3.75-3.688h1.813c2.5 0 5.5-1.188 5.5-6.75v-0.813l-4.375 2.063-1.563-1.563 1.938-4.438h-0.75c-5.563 0-6.75 3-6.75 5.5v1.813l-3.75 3.75-6.063-6.063 1.625-1.625-5.875-3.5-1.563 1.563 3.5 5.875 1.625-1.625 6.063 6.125-12.188 12.313-0.063 0.125-1 3.375 1.5 1.438 3.438-0.875 12.438-12.25 2.125 2.063-1.5 1.5 10.188 10.188 3.688-3.688-10.188-10.188zM3.625 3.063l0.438-0.438 4.125 2.5-2.063 2.063zM4.688 28.813l-2.625 0.625-0.625-0.563 0.75-2.625 16.813-17.063v-2.188c0-2.813 1.625-4.25 5-4.438l-1.563 3.625 2.438 2.563 3.625-1.688c-0.25 3.25-1.75 4.938-4.5 4.938h-2.188zM28.5 29.813l-8.813-8.813 2.313-2.313 8.813 8.813z"></path> </svg> 