 <svg version="1.1" xmlns="http://www.w3.org/2000/svg" width="32" height="32" viewBox="0 0 32 32"><path d="M16 0c-8.813 0-16 7.188-16 16s7.188 16 16 16c8.813 0 16-7.188 16-16s-7.188-16-16-16zM30.563 12.5h-7.375c-0.813-1.625-2.063-2.875-3.688-3.688v-7.375c5.438 1.313 9.75 5.625 11.063 11.063zM31 16c0 0.875-0.063 1.688-0.188 2.5h-7.188c0.25-0.813 0.375-1.625 0.375-2.5s-0.125-1.688-0.375-2.5h7.188c0.125 0.813 0.188 1.625 0.188 2.5zM16 23c-3.875 0-7-3.125-7-7s3.125-7 7-7c3.875 0 7 3.125 7 7s-3.125 7-7 7zM8.375 18.5h-7.188c-0.125-0.813-0.188-1.625-0.188-2.5s0.063-1.688 0.188-2.5h7.188c-0.25 0.813-0.375 1.625-0.375 2.5s0.125 1.688 0.375 2.5zM18.5 1.188v7.188c-0.813-0.25-1.625-0.375-2.5-0.375s-1.688 0.125-2.5 0.375v-7.188c0.813-0.125 1.625-0.188 2.5-0.188s1.688 0.063 2.5 0.188zM12.5 1.438v7.375c-1.625 0.813-2.875 2.063-3.688 3.688h-7.375c1.313-5.438 5.625-9.75 11.063-11.063zM1.438 19.5h7.375c0.813 1.625 2.063 2.875 3.688 3.688v7.375c-5.438-1.313-9.75-5.625-11.063-11.063zM13.5 30.813v-7.188c0.813 0.25 1.625 0.375 2.5 0.375s1.688-0.125 2.5-0.375v7.188c-0.813 0.125-1.625 0.188-2.5 0.188s-1.688-0.063-2.5-0.188zM19.5 30.563v-7.375c1.625-0.813 2.875-2.063 3.688-3.688h7.375c-1.313 5.438-5.625 9.75-11.063 11.063z"></path> </svg> 