 <svg version="1.1" xmlns="http://www.w3.org/2000/svg" width="32" height="32" viewBox="0 0 32 32"><path d="M32 30h-32v-28h32zM1 29h30v-26h-30zM29 27h-24v-22h24zM6 26h22v-20h-22zM3 8h3v1h-3zM3 13h3v1h-3zM3 18h3v1h-3zM3 23h3v1h-3zM22 18c-1.125 0-2-0.875-2-2s0.875-2 2-2c1.125 0 2 0.875 2 2s-0.875 2-2 2zM22 15c-0.563 0-1 0.438-1 1s0.438 1 1 1c0.563 0 1-0.438 1-1s-0.438-1-1-1zM22 21c-2.75 0-5-2.25-5-5s2.25-5 5-5c2.75 0 5 2.25 5 5s-2.25 5-5 5zM22 12c-2.188 0-4 1.813-4 4s1.813 4 4 4c2.188 0 4-1.813 4-4s-1.813-4-4-4zM17.5 15.5h3v1h-3zM21.5 11.5h1v3h-1zM23.5 15.5h3v1h-3zM21.5 17.5h1v3h-1zM23.375 16.625l2 2-0.75 0.75-2-2zM24.625 12.625l0.75 0.75-2 2-0.75-0.75zM19.375 12.625l2 2-0.75 0.75-2-2zM20.625 16.625l0.75 0.75-2 2-0.688-0.75z"></path> </svg> 