 <svg version="1.1" xmlns="http://www.w3.org/2000/svg" width="32" height="32" viewBox="0 0 32 32"><path d="M8.5 22.5v6.5h-2v3h19v-3h-1.5v-6.5c0-1.563-2.563-3.438-6.813-6.25 4.25-2.813 6.813-4.688 6.813-6.25v-7h1.5v-3h-19v3h2v7c0 1.563 2.563 3.438 6.813 6.25-4.25 2.813-6.813 4.688-6.813 6.25zM24.5 31h-17v-1h17zM7.5 1h17v1h-17zM9.5 10v-7h13.5v7c0 1.188-3.688 3.625-6.75 5.625-3.063-2-6.75-4.438-6.75-5.625zM16.25 16.875c3.063 2 6.75 4.438 6.75 5.625v6.5h-13.5v-6.5c0-1.188 3.688-3.625 6.75-5.625z"></path> </svg> 