 <svg version="1.1" xmlns="http://www.w3.org/2000/svg" width="32" height="32" viewBox="0 0 32 32"><path d="M28 19c-1.125 0-2-0.875-2-2s0.875-2 2-2c1.125 0 2 0.875 2 2s-0.875 2-2 2zM28 16c-0.563 0-1 0.438-1 1s0.438 1 1 1c0.563 0 1-0.438 1-1s-0.438-1-1-1zM11 4c-1.125 0-2-0.875-2-2s0.875-2 2-2c1.125 0 2 0.875 2 2s-0.875 2-2 2zM11 1c-0.563 0-1 0.438-1 1s0.438 1 1 1c0.563 0 1-0.438 1-1s-0.438-1-1-1zM20 27c-1.125 0-2-0.875-2-2s0.875-2 2-2c1.125 0 2 0.875 2 2s-0.875 2-2 2zM20 24c-0.563 0-1 0.438-1 1s0.438 1 1 1c0.563 0 1-0.438 1-1s-0.438-1-1-1zM3.5 17.5c-1.125 0-2-0.875-2-2s0.875-2 2-2c1.125 0 2 0.875 2 2s-0.875 2-2 2zM3.5 14.5c-0.563 0-1 0.438-1 1s0.438 1 1 1c0.563 0 1-0.438 1-1s-0.438-1-1-1zM9.563 2.75l0.875 0.5-6 11-0.875-0.5zM26.625 17.688l0.75 0.625-5.5 6-0.75-0.625zM32 32h-32v-4h32zM1 31h30v-2h-30zM12.5 2.813l7 20.5-1 0.375-7-20.5z"></path> </svg> 