 <svg version="1.1" xmlns="http://www.w3.org/2000/svg" width="32" height="32" viewBox="0 0 32 32"><path d="M25.5 0c-3.563 0-6.5 2.938-6.5 6.5 0 1.375 0.438 2.625 1.125 3.625l-10.813 6.938c-1-1-2.313-1.563-3.813-1.563-3.063 0-5.5 2.438-5.5 5.5s2.438 5.5 5.5 5.5c2.063 0 3.875-1.125 4.813-2.813l9.188 3.625c0 0.063 0 0.125 0 0.188 0 2.5 2 4.5 4.5 4.5s4.5-2 4.5-4.5c0-2.5-2-4.5-4.5-4.5-2.063 0-3.813 1.438-4.313 3.313l-9-3.563c0.188-0.563 0.313-1.125 0.313-1.75 0-1.188-0.375-2.313-1.063-3.188l10.813-6.875c1.188 1.25 2.875 2.063 4.75 2.063 3.563 0 6.5-2.938 6.5-6.5s-2.938-6.5-6.5-6.5zM24 24c1.938 0 3.5 1.563 3.5 3.5s-1.563 3.5-3.5 3.5c-1.938 0-3.5-1.563-3.5-3.5s1.563-3.5 3.5-3.5zM5.5 25.5c-2.5 0-4.5-2-4.5-4.5s2-4.5 4.5-4.5c2.5 0 4.5 2 4.5 4.5s-2 4.5-4.5 4.5zM25.5 12c-3.063 0-5.5-2.438-5.5-5.5s2.438-5.5 5.5-5.5c3.063 0 5.5 2.438 5.5 5.5s-2.438 5.5-5.5 5.5z"></path> </svg> 