 <svg version="1.1" xmlns="http://www.w3.org/2000/svg" width="32" height="32" viewBox="0 0 32 32"><path d="M18 26h-2c-2.563 0-4.5-2.625-4.5-5h1c0 1.875 1.5 4 3.5 4h2zM16.875 27.813l-0.75-0.625 1.25-1.688-1.25-1.688 0.75-0.625 1.5 2v0.625zM21.5 21h-1c0-1.875-1.5-4-3.5-4h-2v-1h2c2.563 0 4.5 2.625 4.5 5zM16.125 18.813l-1.5-2v-0.625l1.5-2 0.75 0.625-1.25 1.688 1.25 1.688zM27.5 32h-23v-23.5h23zM5.5 31h21v-21.5h-21zM21.5 12h-1v-6.5c0-2.5-2-4.5-4.5-4.5s-4.5 2-4.5 4.5v6.5h-1v-6.5c0-3.063 2.438-5.5 5.5-5.5s5.5 2.438 5.5 5.5z"></path> </svg> 