 <svg version="1.1" xmlns="http://www.w3.org/2000/svg" width="32" height="32" viewBox="0 0 32 32"><path d="M14.5 23c-1.938 0-3.5-1.563-3.5-3.5s1.563-3.5 3.5-3.5c1.938 0 3.5 1.563 3.5 3.5s-1.563 3.5-3.5 3.5zM14.5 17c-1.375 0-2.5 1.125-2.5 2.5s1.125 2.5 2.5 2.5c1.375 0 2.5-1.125 2.5-2.5s-1.125-2.5-2.5-2.5zM16.875 21.125l4 4-0.75 0.75-4-4zM27.5 32h-23v-23.5h23zM5.5 31h21v-21.5h-21zM21.5 12h-1v-6.5c0-2.5-2-4.5-4.5-4.5s-4.5 2-4.5 4.5v6.5h-1v-6.5c0-3.063 2.438-5.5 5.5-5.5s5.5 2.438 5.5 5.5z"></path> </svg> 