 <svg version="1.1" xmlns="http://www.w3.org/2000/svg" width="32" height="32" viewBox="0 0 32 32"><path d="M1 18c0 4.25 3.75 8 8 8 2.375 0 4.375-1.25 5.5-3.375-0.125 2.688-0.75 8.375-3 8.375v1h9v-1c-2.25 0-2.875-5.563-3-8.313 1.25 2 3.438 3.313 6 3.313 4.625 0 7.5-4.125 7.5-8 0-4-2.5-8.25-7.438-12.625-3.625-3.188-7.25-5.313-7.313-5.313l-0.25-0.125-0.25 0.125c-0.063 0-3.688 2.125-7.313 5.313-4.938 4.375-7.438 8.625-7.438 12.625zM16 1.063c1.875 1.125 14 8.75 14 16.938 0 3.375-2.5 7-6.5 7-3.438 0-6-2.563-6-6h-1v3c0 0.813 0.063 6.625 2.063 9h-5.125c2-2.375 2.063-8.188 2.063-9v-3l-1-0.063c-0.25 3-2.063 6.063-5.5 6.063-3.75 0-7-3.25-7-7 0-8.188 12.125-15.813 14-16.938z"></path> </svg> 