 <svg version="1.1" xmlns="http://www.w3.org/2000/svg" width="32" height="32" viewBox="0 0 32 32"><path d="M0 15h1v-14h30v30h-14v1h15v-32h-32zM16 16h-1.5v1h0.5v0.5h1zM11.5 16h2v1h-2zM2.5 16h2v1h-2zM8.5 16h2v1h-2zM5.5 16h2v1h-2zM1 17h0.5v-1h-1.5v1.5h1zM0 24.5h1v2h-1zM0 21.5h1v2h-1zM0 18.5h1v2h-1zM0 27.5h1v2h-1zM1.5 31h-0.5v-0.5h-1v1.5h1.5zM8.5 31h2v1h-2zM5.5 31h2v1h-2zM11.5 31h2v1h-2zM2.5 31h2v1h-2zM14.5 32h1.5v-1.5h-1v0.5h-0.5zM15 21.5h1v2h-1zM15 18.5h1v2h-1zM15 24.5h1v2h-1zM15 27.5h1v2h-1zM20 6v5.5l0.5 0.5h5.5v-1h-4.313l7.188-7.125-0.75-0.75-7.125 7.188v-4.313z"></path> </svg> 