 <svg version="1.1" xmlns="http://www.w3.org/2000/svg" width="32" height="32" viewBox="0 0 32 32"><path d="M8 0h2v1h-2zM11 0h2v1h-2zM14 0h2v1h-2zM2 0h2v1h-2zM5 0h2v1h-2zM24 31h2v1h-2zM31 16h1v2h-1zM23 0h2v1h-2zM31 22h1v2h-1zM31 13h1v2h-1zM26 0h2v1h-2zM0 3h1v2h-1zM0 0h1v2h-1zM0 12h1v2h-1zM31 25h1v2h-1zM21 31h2v1h-2zM31 28h1v2h-1zM0 6h1v2h-1zM0 9h1v2h-1zM30 31h2v1h-2zM31 19h1v2h-1zM27 31h2v1h-2zM31 7h1v2h-1zM31 10h1v2h-1zM20 0h2v1h-2zM29 0h2v1h-2zM31 1h1v2h-1zM31 4h1v2h-1zM18 31h2v1h-2zM17 0h2v1h-2zM16 16h-16v16h16zM15 31h-14v-14h14zM20.875 11.875l7.125-7.188v4.313h1v-5.5l-0.5-0.5h-5.5v1h4.313l-7.188 7.125z"></path> </svg> 