 <svg version="1.1" xmlns="http://www.w3.org/2000/svg" width="32" height="32" viewBox="0 0 32 32"><path d="M0.5 0l-0.5 0.5v31l0.5 0.5h31l0.5-0.5v-31l-0.5-0.5zM31 31h-30v-30h30zM11 18c-1.625 0-3 1.375-3 3s1.375 3 3 3c1.625 0 3-1.375 3-3v-2h4v2c0 1.625 1.375 3 3 3s3-1.375 3-3c0-1.625-1.375-3-3-3h-2v-4h2c1.625 0 3-1.375 3-3s-1.375-3-3-3c-1.625 0-3 1.375-3 3v2h-4v-2c0-1.625-1.375-3-3-3s-3 1.375-3 3c0 1.625 1.375 3 3 3h2v4zM13 21c0 1.125-0.875 2-2 2s-2-0.875-2-2c0-1.125 0.875-2 2-2h2zM19 11c0-1.125 0.875-2 2-2s2 0.875 2 2c0 1.125-0.875 2-2 2h-2zM19 19h2c1.125 0 2 0.875 2 2s-0.875 2-2 2c-1.125 0-2-0.875-2-2zM14 14h4v4h-4zM11 13c-1.125 0-2-0.875-2-2s0.875-2 2-2c1.125 0 2 0.875 2 2v2z"></path> </svg> 