 <svg version="1.1" xmlns="http://www.w3.org/2000/svg" width="32" height="32" viewBox="0 0 32 32"><path d="M25 11h2v1h-2zM28 11h1.5v1h-1.5zM22.5 11h1.5v1h-1.5zM32 11h-1.5v1h0.5v0.5h1zM31 27.5h1v2h-1zM31 25h1v1.5h-1zM31 19h1v2h-1zM31 16.5h1v1.5h-1zM31 13.5h1v2h-1zM31 22h1v2h-1zM31 31h-0.5v1h1.5v-1.5h-1zM13.5 31h2v1h-2zM16.5 31h1.5v1h-1.5zM19 31h2v1h-2zM27.5 31h2v1h-2zM22 31h2v1h-2zM25 31h1.5v1h-1.5zM11 32h1.5v-1h-0.5v-0.5h-1zM11 25h1v2h-1zM11 28h1v1.5h-1zM11 22.5h1v1.5h-1zM11 21.5h1v-9.5h9.5v-1h-0.5v-11h-21v21h11zM1 1h19v10h-9v9h-10z"></path> </svg> 