 <svg version="1.1" xmlns="http://www.w3.org/2000/svg" width="32" height="32" viewBox="0 0 32 32"><path d="M21 12h1.5v-1h-1.5v-1.5h-1v1.5h-9v9h-1.5v1h1.5v1.5h1v-1.5h9zM12 20v-8h8v8zM8.5 0h2v1h-2zM1 1h0.5v-1h-1.5v1.5h1zM11.5 0h2v1h-2zM3.5 20h2v1h-2zM5.5 0h2v1h-2zM6.5 20h2v1h-2zM0 8.5h1v2h-1zM2.5 0h2v1h-2zM0 2.5h1v2h-1zM0.5 20h2v1h-2zM0 5.5h1v2h-1zM0 11.5h1v2h-1zM17.5 0h2v1h-2zM20 6.5h1v2h-1zM14.5 0h2v1h-2zM0 17.5h1v2h-1zM20 3.5h1v2h-1zM0 14.5h1v2h-1zM20 0.5h1v2h-1zM32 30.5h-1v0.5h-0.5v1h1.5zM31 27.5h1v2h-1zM29.5 11h2v1h-2zM31 18.5h1v2h-1zM31 21.5h1v2h-1zM31 24.5h1v2h-1zM15.5 31h2v1h-2zM18.5 31h2v1h-2zM12.5 31h2v1h-2zM31 15.5h1v2h-1zM11 23.5h1v2h-1zM21.5 31h2v1h-2zM11 29.5h1v2h-1zM27.5 31h2v1h-2zM31 12.5h1v2h-1zM24.5 31h2v1h-2zM23.5 11h2v1h-2zM26.5 11h2v1h-2zM11 26.5h1v2h-1z"></path> </svg> 