 <svg version="1.1" xmlns="http://www.w3.org/2000/svg" width="32" height="32" viewBox="0 0 32 32"><path d="M6 26.688l4.188-4.188h0.813v-1h-0.5v-0.5h-1v0.813l-4.188 4.188h-5.313v6h6zM5 31h-4v-4h4zM26 5.313l-4.188 4.188h-0.813v1h0.5v0.5h1v-0.813l4.188-4.188h5.313v-6h-6zM27 1h4v4h-4zM18 9.5h2v1h-2zM12 9.5h2v1h-2zM15 9.5h2v1h-2zM10.5 10.5h0.5v-1h-1.5v1.5h1zM9.5 12h1v2h-1zM9.5 15h1v2h-1zM9.5 18h1v2h-1zM15 21.5h2v1h-2zM12 21.5h2v1h-2zM18 21.5h2v1h-2zM21.5 21.5h-0.5v1h1.5v-1.5h-1zM21.5 18h1v2h-1zM21.5 12h1v2h-1zM21.5 15h1v2h-1zM12.5 15.5h7v1h-7z"></path> </svg> 