 <svg version="1.1" xmlns="http://www.w3.org/2000/svg" width="32" height="32" viewBox="0 0 32 32"><path d="M16 32c3.875 0 7.5-1.5 10.25-4.25s4.25-6.375 4.25-10.25c0-3.875-1.5-7.5-4.25-10.25-2.625-2.625-6.063-4.125-9.75-4.25v-2h2.5v-1h-6v1h2.5v2c-3.688 0.125-7.125 1.625-9.75 4.25-2.75 2.75-4.25 6.375-4.25 10.25s1.5 7.5 4.25 10.25c2.75 2.75 6.375 4.25 10.25 4.25zM6.438 7.938c2.438-2.438 5.625-3.813 9.063-3.938v1.5h1v-1.5c3.438 0.125 6.625 1.5 9.063 3.938s3.813 5.625 3.938 9.063h-1.5v1h1.5c-0.125 3.438-1.5 6.625-3.938 9.063s-5.625 3.813-9.063 3.938v-1.5h-1v1.5c-3.438-0.125-6.625-1.5-9.063-3.938s-3.813-5.625-3.938-9.063h1.5v-1h-1.5c0.125-3.438 1.5-6.625 3.938-9.063zM7.625 8.438l1.438 1.375-0.75 0.75-1.375-1.438zM23.688 24.438l1.375 1.438-0.688 0.688-1.438-1.375zM24.375 8.438l0.688 0.688-1.375 1.438-0.75-0.75zM8.375 24.438l0.688 0.75-1.438 1.375-0.688-0.688zM16 19.5c1.125 0 2-0.875 2-2 0-0.938-0.625-1.688-1.5-1.938v-5.063h-1v5.063c-0.875 0.25-1.5 1-1.5 1.938 0 1.125 0.875 2 2 2zM16 16.5c0.563 0 1 0.438 1 1s-0.438 1-1 1c-0.563 0-1-0.438-1-1s0.438-1 1-1z"></path> </svg> 