 <svg version="1.1" xmlns="http://www.w3.org/2000/svg" width="32" height="32" viewBox="0 0 32 32"><path d="M12 32.188l-3.688-3.688 0.313-0.375c0.688-0.625 0.875-1.125 0.875-2.125 0-2-1.5-3.5-3.5-3.5-1 0-1.5 0.188-2.125 0.875l-0.375 0.313-3.688-3.688 20.188-20.188 3.688 3.688-0.313 0.375c-0.688 0.625-0.875 1.125-0.875 2.125 0 2 1.5 3.5 3.5 3.5 1 0 1.5-0.188 2.125-0.875l0.375-0.313 3.688 3.688zM9.688 28.5l2.313 2.313 18.813-18.813-2.313-2.313c-0.75 0.625-1.438 0.813-2.5 0.813-2.563 0-4.5-1.938-4.5-4.5 0-1.063 0.188-1.75 0.813-2.5l-2.313-2.313-18.813 18.813 2.313 2.313c0.75-0.625 1.438-0.813 2.5-0.813 2.563 0 4.5 1.938 4.5 4.5 0 1.063-0.188 1.75-0.813 2.5zM13.375 7.125l2 2-0.75 0.75-2-2zM22.875 16.625l2 2-0.75 0.75-2-2zM16.375 10.125l2 2-0.75 0.75-2-2zM19.875 13.625l2 2-0.75 0.75-2-2z"></path> </svg> 