 <svg version="1.1" xmlns="http://www.w3.org/2000/svg" width="32" height="32" viewBox="0 0 32 32"><path d="M16 2.5c-8.813 0-16 4.625-16 10.25 0 3.938 3.5 7.375 8.688 9.125-1 0.438-1.688 1.188-1.688 2.125 0 1.375 1.563 2.5 3.5 2.5 0.75 0 1.375-0.125 1.938-0.438 0.25 0.25 0.563 0.625 0.563 1.438 0 0.938-0.438 1-0.5 1v1c0.5 0 1.5-0.438 1.5-2 0-1-0.375-1.625-0.688-2 0.438-0.375 0.688-0.938 0.688-1.5 0-0.375-0.125-0.75-0.375-1.125 0.813 0.063 1.563 0.125 2.375 0.125 8.813 0 16-4.625 16-10.25s-7.188-10.25-16-10.25zM8 24c0-0.813 1.125-1.5 2.5-1.5s2.5 0.688 2.5 1.5c0 0.813-1.125 1.5-2.5 1.5s-2.5-0.688-2.5-1.5zM16 22c-8.25 0-15-4.125-15-9.25s6.75-9.25 15-9.25c8.25 0 15 4.125 15 9.25s-6.75 9.25-15 9.25z"></path> </svg> 