 <svg version="1.1" xmlns="http://www.w3.org/2000/svg" width="32" height="32" viewBox="0 0 32 32"><path d="M23.5 7.5h-15c-4.688 0-8.5 3.813-8.5 8.5s3.813 8.5 8.5 8.5h15c4.688 0 8.5-3.813 8.5-8.5s-3.813-8.5-8.5-8.5zM23.5 23.5h-15c-4.125 0-7.5-3.375-7.5-7.5s3.375-7.5 7.5-7.5h15c4.125 0 7.5 3.375 7.5 7.5s-3.375 7.5-7.5 7.5zM23.5 9.5c-3.563 0-6.5 2.938-6.5 6.5s2.938 6.5 6.5 6.5c3.563 0 6.5-2.938 6.5-6.5s-2.938-6.5-6.5-6.5zM23.5 21.5c-3.063 0-5.5-2.438-5.5-5.5s2.438-5.5 5.5-5.5c3.063 0 5.5 2.438 5.5 5.5s-2.438 5.5-5.5 5.5z"></path> </svg> 