 <svg version="1.1" xmlns="http://www.w3.org/2000/svg" width="32" height="32" viewBox="0 0 32 32"><path d="M13 11.188l11.188-11.188h-22.375zM13 9.813l-8.813-8.813h17.625zM4 31.188l0.063-0.063-0.063-0.063v-0.063h-0.063l-0.563-0.563-1.563 1.563h2.188zM10.5 31h2v1h-2zM16.5 31h1.5v1h-1.5zM19 31h2v1h-2zM8 31h1.5v1h-1.5zM5 31h2v1h-2zM13.5 31h2v1h-2zM22.063 31h-0.063v0.063l-0.063 0.063 0.063 0.063v0.813h2.188l-1.563-1.563zM19.313 28.5l-1.313-1.313 0.688-0.688 1.313 1.313zM21.25 30.5l-1.313-1.313 0.75-0.75 1.313 1.313zM15.313 24.563l-1.313-1.313 0.75-0.75 1.313 1.313zM17.313 26.5l-1.313-1.313 0.688-0.688 1.313 1.313zM12.625 22.563l0.375-0.375 0.375 0.375 0.688-0.688-1.063-1.063-1.063 1.063zM10.688 24.563l-0.75-0.75 1.313-1.313 0.75 0.75zM8 27.188l-1.313 1.313-0.688-0.688 1.313-1.313zM5.313 28.438l0.75 0.75-1.313 1.313-0.75-0.75zM10 25.188l-1.313 1.313-0.688-0.688 1.313-1.313zM1 15.25h1v1h-1zM3 15.5h2v1h-2zM12 15.5h2v1h-2zM15 15.5h2v1h-2zM18 15.5h2v1h-2zM9 15.5h2v1h-2zM21 15.5h2v1h-2zM6 15.5h2v1h-2zM24 15.25h1v1h-1zM25.813 3.063l-0.625 0.875c3.75 2.625 5.813 6.938 5.813 12.063 0 4.75-1.75 8.813-5 11.5v-4.5h-1v5.5l0.5 0.5h5.5v-1h-4.063c3.25-2.875 5.063-7.063 5.063-12 0-5.438-2.188-10.063-6.188-12.938z"></path> </svg> 