 <svg version="1.1" xmlns="http://www.w3.org/2000/svg" width="32" height="32" viewBox="0 0 32 32"><path d="M0 7.313v22.375l11.188-11.188zM1 9.688l8.813 8.813-8.813 8.813zM32 27.5h-0.813l-0.063-0.063-0.063 0.063h-0.063v0.063l-0.563 0.563 1.563 1.563zM31 19h1v2h-1zM31 22h1v1.5h-1zM31 16h1v2h-1zM31 24.5h1v2h-1zM31 13.5h1v1.5h-1zM31 10.5h1v2h-1zM32 7.313l-1.563 1.563 0.563 0.563v0.063h0.063l0.063 0.063 0.063-0.063h0.813zM25.188 15.5l-0.688-0.688 1.313-1.313 0.688 0.688zM29.188 11.563l-0.75-0.75 1.313-1.313 0.75 0.75zM23.25 17.5l-0.75-0.75 1.313-1.313 0.75 0.75zM27.813 11.5l0.688 0.688-1.313 1.313-0.688-0.688zM20.813 18.5l1.063 1.063 0.688-0.688-0.375-0.375 0.375-0.375-0.688-0.688zM26.5 24.188l0.688-0.688 1.313 1.313-0.688 0.688zM28.438 26.188l0.75-0.75 1.313 1.313-0.75 0.75zM25.188 21.5l1.313 1.313-0.688 0.688-1.313-1.313zM23.25 19.5l1.313 1.313-0.75 0.75-1.313-1.313zM15.5 29.5h1v1h-1zM15.5 20.5h1v2h-1zM15.5 14.5h1v2h-1zM15.5 17.5h1v2h-1zM15.5 23.5h1v2h-1zM15.5 26.5h1v2h-1zM15.5 8.5h1v2h-1zM15.5 11.5h1v2h-1zM15.5 6.5h1v1h-1zM28 5.063c-2.875-3.25-7.063-5.063-12-5.063-5.438 0-10.063 2.188-12.938 6.188l0.875 0.625c2.625-3.75 6.938-5.813 12.063-5.813 4.75 0 8.813 1.75 11.5 5h-4.5v1h5.5l0.5-0.5v-5.5h-1z"></path> </svg> 