 <svg version="1.1" xmlns="http://www.w3.org/2000/svg" width="32" height="32" viewBox="0 0 32 32"><path d="M26.5 16c0-3.5-1.75-6.563-4.375-8.5h0.375v-7.5h-13v7.5h0.375c-2.625 1.938-4.375 5-4.375 8.5s1.75 6.563 4.375 8.5h-0.375v7.5h13v-7.5h-0.375c2.625-1.938 4.375-5 4.375-8.5zM10.5 1h11v6.063c-1.625-1-3.5-1.563-5.5-1.563s-3.875 0.563-5.5 1.563zM21.5 31h-11v-6.063c1.625 1 3.5 1.563 5.5 1.563s3.875-0.563 5.5-1.563zM16 25.5c-5.25 0-9.5-4.25-9.5-9.5s4.25-9.5 9.5-9.5c5.25 0 9.5 4.25 9.5 9.5s-4.25 9.5-9.5 9.5zM16.5 10h-1v6.313l4.25 2.125 0.5-0.875-3.75-1.875z"></path> </svg> 