 <svg version="1.1" xmlns="http://www.w3.org/2000/svg" width="32" height="32" viewBox="0 0 32 32"><path d="M4 0v1c8 0 15.563 3.563 20.75 9.688 4.063 4.875 6.25 11 6.25 17.313h1c0-6.563-2.313-12.938-6.5-17.938-5.313-6.375-13-10.063-21.5-10.063zM25.375 28h1c0-12.313-9.875-22.375-22.375-22.375v1c12 0 21.375 9.625 21.375 21.375zM4 11.313v1c8.5 0 15.75 7 15.75 15.688h1c0-9.188-7.75-16.688-16.75-16.688zM15.125 28c0-6.125-5.125-11.063-11.125-11.063v1c5.5 0 10.125 4.5 10.125 10.063zM8.063 28c0-2.25-1.813-4-4.063-4-2.188 0-4 1.75-4 4s1.813 4 4 4c2.25 0 4.063-1.75 4.063-4zM1 28c0-1.688 1.375-3 3-3 1.688 0 3.063 1.313 3.063 3s-1.375 3-3.063 3c-1.625 0-3-1.313-3-3z"></path> </svg> 