 <svg version="1.1" xmlns="http://www.w3.org/2000/svg" width="32" height="32" viewBox="0 0 32 32"><path d="M6 10h9v1h-9zM20.5 19.813l-2.25-2.25c1.688-1.875 2.75-4.375 2.75-7.063 0-5.813-4.688-10.5-10.5-10.5s-10.5 4.688-10.5 10.5c0 5.813 4.688 10.5 10.5 10.5 2.688 0 5.188-1.063 7.063-2.75l2.25 2.25-1.5 1.5 10.188 10.188 3.688-3.688-10.188-10.188zM1 10.5c0-5.25 4.25-9.5 9.5-9.5s9.5 4.25 9.5 9.5c0 5.25-4.25 9.5-9.5 9.5s-9.5-4.25-9.5-9.5zM28.5 30.813l-8.813-8.813 2.313-2.313 8.813 8.813z"></path> </svg> 