 <svg version="1.1" xmlns="http://www.w3.org/2000/svg" width="32" height="32" viewBox="0 0 32 32">  <path d="M16 0.672c-8.448 0-15.328 6.88-15.328 15.328s6.88 15.328 15.328 15.328 15.328-6.88 15.328-15.328-6.88-15.328-15.328-15.328zM16 30.016c-7.712 0-13.984-6.304-13.984-14.016s6.272-14.016 13.984-14.016 14.016 6.304 14.016 14.016-6.304 14.016-14.016 14.016zM16 12.672c-1.088 0-1.984 0.896-1.984 1.984v8c0 1.12 0.896 2.016 1.984 2.016s2.016-0.896 2.016-2.016v-8c0-1.088-0.896-1.984-2.016-1.984zM16.672 22.656c0 0.384-0.288 0.672-0.672 0.672s-0.672-0.288-0.672-0.672v-8c0-0.352 0.32-0.672 0.672-0.672s0.672 0.32 0.672 0.672v8zM16 7.328c-1.088 0-1.984 0.896-1.984 2.016s0.896 1.984 1.984 1.984 2.016-0.896 2.016-1.984-0.896-2.016-2.016-2.016zM16 9.984c-0.352 0-0.672-0.288-0.672-0.64s0.32-0.672 0.672-0.672 0.672 0.288 0.672 0.672-0.288 0.64-0.672 0.64z"></path> </svg> 