 <svg version="1.1" xmlns="http://www.w3.org/2000/svg" width="32" height="32" viewBox="0 0 32 32">  <path d="M16 32.128c-0.32 0-0.608-0.256-0.64-0.544-0.256-0.224-1.216-0.512-1.952-0.768-2.528-0.768-6.272-1.952-7.84-5.344h-0.896c-0.096 0-0.192-0.032-0.288-0.064-0.32-0.16-3.040-1.6-3.040-8.608 0-0.288 0.16-0.512 0.416-0.64 0.224-0.096 0.512-0.032 0.704 0.16 3.264 3.232 6.528 5.216 6.56 5.248 0.288 0.16 0.384 0.544 0.256 0.864l-0.448 0.896c2.080 1.984 3.456 2.144 3.84 2.144 0.512 0 0.672-0.768 0.672-0.8v-12.544h-2.016c-0.64 0.832-1.632 1.344-2.656 1.344-1.856 0-3.328-1.504-3.328-3.36s1.472-3.328 3.328-3.328c1.024 0 2.016 0.512 2.656 1.344h2.016v-1.024c-0.864-0.768-1.344-1.824-1.344-2.976 0-2.208 1.792-4 4-4s4 1.792 4 4c0 1.152-0.48 2.208-1.344 2.976v1.024h2.016c0.64-0.832 1.632-1.344 2.656-1.344 1.856 0 3.328 1.504 3.328 3.328s-1.472 3.36-3.328 3.36c-1.024 0-2.016-0.512-2.656-1.344h-2.016v12.672c0 0 0 0 0 0 0.032 0 0.192 0.672 0.672 0.672 0.384 0 1.76-0.16 3.872-2.144l-0.448-0.896c-0.16-0.32-0.064-0.704 0.224-0.864 0.064-0.032 3.328-2.016 6.56-5.248 0.192-0.192 0.48-0.256 0.736-0.16 0.224 0.128 0.384 0.352 0.384 0.64 0 7.008-2.72 8.448-3.040 8.608-0.096 0.032-0.192 0.064-0.288 0.064h-0.896c-1.568 3.392-5.312 4.576-7.808 5.344-0.768 0.256-1.728 0.544-1.952 0.768-0.064 0.288-0.352 0.544-0.672 0.544zM4.864 24.128h1.152c0.256 0 0.512 0.16 0.608 0.416 1.216 3.136 4.8 4.256 7.168 5.024 0.928 0.288 1.696 0.512 2.208 0.832 0.512-0.32 1.28-0.544 2.208-0.832 2.368-0.768 5.952-1.888 7.168-5.024 0.096-0.256 0.352-0.416 0.64-0.416h1.12c0.384-0.288 1.824-1.6 2.144-5.728-2.176 1.984-4.16 3.36-5.088 3.968l0.416 0.8c0.128 0.256 0.064 0.544-0.128 0.768-1.856 1.824-3.68 2.848-5.152 2.848-1.312 0-1.888-1.216-1.984-1.888v-13.44c0-0.352 0.288-0.672 0.672-0.672h3.008c0.256 0 0.48 0.128 0.576 0.352 0.384 0.608 1.024 0.992 1.728 0.992 1.12 0 2.016-0.896 2.016-2.016s-0.896-1.984-2.016-1.984c-0.704 0-1.344 0.384-1.728 0.992-0.096 0.224-0.32 0.352-0.576 0.352h-3.008c-0.384 0-0.672-0.32-0.672-0.672v-2.016c0-0.224 0.096-0.416 0.256-0.544 0.672-0.512 1.056-1.28 1.056-2.112 0-1.472-1.184-2.656-2.656-2.656s-2.656 1.184-2.656 2.656c0 0.832 0.384 1.6 1.056 2.112 0.16 0.128 0.256 0.32 0.256 0.544v2.016c0 0.352-0.288 0.672-0.64 0.672h-3.040c-0.256 0-0.48-0.128-0.576-0.352-0.384-0.608-1.024-0.992-1.728-0.992-1.12 0-2.016 0.896-2.016 1.984s0.896 2.016 2.016 2.016c0.704 0 1.344-0.384 1.728-0.992 0.096-0.224 0.32-0.352 0.576-0.352h3.040c0.352 0 0.64 0.32 0.64 0.672v13.344c-0.096 0.768-0.672 1.984-1.984 1.984-1.472 0-3.296-1.024-5.152-2.848-0.192-0.224-0.256-0.512-0.128-0.768l0.416-0.8c-0.928-0.608-2.912-1.984-5.088-3.968 0.32 4.128 1.728 5.44 2.144 5.728z"></path> </svg> 