 <svg version="1.1" xmlns="http://www.w3.org/2000/svg" width="32" height="32" viewBox="0 0 32 32">  <path d="M31.136 15.52l-6.656-6.656c-0.064-0.064-0.128-0.128-0.224-0.16-0.032 0-0.064 0-0.096 0-0.064-0.032-0.096-0.032-0.16-0.032-0.032 0-0.064 0-0.096 0-0.064 0.032-0.096 0.032-0.16 0.032-0.064 0.032-0.16 0.096-0.224 0.16v0l-6.656 6.656c-0.256 0.256-0.256 0.704 0 0.96l6.656 6.656c0.032 0.032 0.064 0.032 0.096 0.064s0.064 0.064 0.128 0.064c0.096 0.064 0.16 0.064 0.256 0.064s0.16 0 0.256-0.064c0.064 0 0.128-0.064 0.192-0.128 0 0 0.032 0 0.032 0l6.656-6.656c0.256-0.256 0.256-0.704 0-0.96zM20.288 17.984l3.040-3.040v2.112l-1.984 1.984-1.056-1.056zM23.328 18.944v2.112l-1.056-1.056 1.056-1.056zM23.328 10.944v2.112l-4 4-1.056-1.056 5.056-5.056zM24.672 21.056v-10.112l5.056 5.056-5.056 5.056zM11.136 11.52c-0.256-0.256-0.672-0.256-0.928 0l-4 4c-0.256 0.256-0.256 0.704 0 0.96l4 4c0.128 0.128 0.288 0.192 0.448 0.192 0.192 0 0.352-0.064 0.48-0.192 0.256-0.256 0.256-0.704 0-0.96l-3.52-3.52 3.52-3.52c0.256-0.256 0.256-0.704 0-0.96zM12.96 16l4.832-4.864c0.288-0.256 0.288-0.672 0-0.928s-0.672-0.288-0.928 0l-5.344 5.312c-0.256 0.256-0.256 0.704 0 0.96l5.344 5.312c0.128 0.128 0.288 0.192 0.48 0.192s0.32-0.064 0.448-0.192c0.288-0.256 0.288-0.672 0-0.928l-4.832-4.864zM4.48 12.864c-0.256-0.256-0.704-0.256-0.96 0l-2.656 2.656c-0.256 0.256-0.256 0.704 0 0.96l2.656 2.656c0.128 0.128 0.32 0.192 0.48 0.192s0.352-0.064 0.48-0.192c0.256-0.256 0.256-0.672 0-0.928l-2.208-2.208 2.208-2.208c0.256-0.256 0.256-0.672 0-0.928z"></path> </svg> 