 <svg version="1.1" xmlns="http://www.w3.org/2000/svg" width="32" height="32" viewBox="0 0 32 32">  <path d="M7.872 7.584c-0.256-0.512-1.216-0.512-1.344 0l-4.384 11.744c-0.128 0.416 0 0.8 0.384 0.928 0.416 0.128 0.8 0 0.928-0.384l1.472-3.872c0 0 0 0 0 0h4.416c0 0 0 0 0 0l1.472 3.872c0.128 0.256 0.384 0.512 0.64 0.512 0.16 0 0.16 0 0.288 0 0.384-0.128 0.512-0.512 0.384-0.928l-4.256-11.872zM5.472 14.4l1.728-4.544 1.728 4.544h-3.456zM26.144 11.456c1.184 0 2.112 0.928 2.112 2.144 0 0.384 0.288 0.672 0.672 0.672 0.416 0 0.672-0.288 0.672-0.672 0-2.016-1.6-3.616-3.584-3.616-2.016 0-3.616 1.6-3.616 3.616v2.944c0 1.984 1.6 3.584 3.616 3.584 1.984 0 3.584-1.6 3.584-3.584 0-0.416-0.256-0.672-0.672-0.672-0.384 0-0.672 0.256-0.672 0.672 0 1.184-0.928 2.112-2.112 2.112s-2.144-0.928-2.144-2.112v-2.944c-0.128-1.056 0.928-2.144 2.144-2.144zM17.344 9.984c-0.8 0-1.6 0.288-2.144 0.8v-2.912c0-0.416-0.256-0.672-0.672-0.672-0.384 0-0.672 0.256-0.672 0.672v11.584c0 0.416 0.288 0.672 0.672 0.672 0.416 0 0.672-0.256 0.672-0.672v0c0.672 0.416 1.344 0.8 2.144 0.8 1.984 0 3.584-1.6 3.584-3.584v-2.944c0.128-2.144-1.6-3.744-3.584-3.744zM19.616 16.544c0 1.184-0.96 2.112-2.144 2.112s-2.144-0.928-2.144-2.112v-2.816c0-1.184 0.928-2.144 2.144-2.144s2.144 0.96 2.144 2.144v2.816zM2.016 24.544c11.712-1.76 20.256-2.272 25.856-1.472 1.728 0.256 2.4 0.8 1.344 1.472"></path> </svg> 