 <svg version="1.1" xmlns="http://www.w3.org/2000/svg" width="32" height="32" viewBox="0 0 32 32">  <path d="M5.28 9.76c-0.192-0.512-1.056-0.512-1.248 0l-4 10.656c-0.128 0.352 0.064 0.736 0.416 0.864 0.32 0.128 0.704-0.032 0.832-0.384l1.344-3.584c0.032 0 0.032 0.032 0.032 0.032h4c0.032 0 0.032-0.032 0.032-0.032l1.344 3.584c0.128 0.256 0.352 0.448 0.64 0.448 0.064 0 0.16-0.032 0.224-0.064 0.352-0.128 0.512-0.512 0.384-0.864l-4-10.656zM3.136 16l1.536-4.096 1.536 4.096h-3.072zM22.016 13.344c1.088 0 1.984 0.896 1.984 1.984 0 0.384 0.288 0.672 0.672 0.672s0.672-0.288 0.672-0.672c0-1.824-1.504-3.328-3.328-3.328s-3.36 1.504-3.36 3.328v2.656c0 1.856 1.504 3.36 3.36 3.36s3.328-1.504 3.328-3.36c0-0.352-0.32-0.64-0.672-0.64s-0.672 0.288-0.672 0.64c0 1.12-0.896 2.016-1.984 2.016s-2.016-0.896-2.016-2.016v-2.656c0-1.088 0.896-1.984 2.016-1.984zM14.016 12c-0.768 0-1.44 0.256-2.016 0.672v-2.688c0-0.352-0.288-0.64-0.672-0.64s-0.672 0.288-0.672 0.64v10.688c0 0.352 0.32 0.672 0.672 0.672s0.672-0.32 0.672-0.672v-0.032c0.576 0.416 1.248 0.704 2.016 0.704 1.824 0 3.328-1.504 3.328-3.36v-2.656c0-1.824-1.504-3.328-3.328-3.328zM16 17.984c0 1.12-0.896 2.016-1.984 2.016s-2.016-0.896-2.016-2.016v-2.656c0-1.088 0.896-1.984 2.016-1.984s1.984 0.896 1.984 1.984v2.656zM31.904 25.632c-0.032-0.064-0.864-1.312-2.56-1.568v-6.72h0.672c0.352 0 0.64-0.32 0.64-0.672s-0.288-0.672-0.64-0.672h-0.672v-8.064c1.696-0.288 2.528-1.536 2.56-1.568 0.192-0.32 0.096-0.736-0.224-0.928-0.288-0.192-0.704-0.096-0.896 0.192-0.032 0.064-0.704 1.024-2.112 1.024s-2.080-0.96-2.112-1.024c-0.192-0.288-0.608-0.384-0.896-0.192-0.32 0.192-0.416 0.608-0.224 0.896 0.032 0.064 0.832 1.312 2.56 1.6v8.064h-0.672c-0.352 0-0.672 0.288-0.672 0.672s0.32 0.672 0.672 0.672h0.672v6.72c-1.728 0.256-2.528 1.536-2.56 1.568-0.192 0.32-0.096 0.736 0.192 0.928 0.32 0.192 0.736 0.096 0.928-0.192 0.032-0.064 0.704-1.024 2.112-1.024s2.080 0.96 2.112 0.992c0.128 0.224 0.32 0.32 0.544 0.32 0.128 0 0.256-0.032 0.352-0.096 0.32-0.192 0.416-0.608 0.224-0.928z"></path> </svg> 