 <svg version="1.1" xmlns="http://www.w3.org/2000/svg" width="32" height="32" viewBox="0 0 32 32">  <path d="M30.656 8h-29.312v20.672c0 1.088 0.896 1.984 1.984 1.984h25.344c1.088 0 1.984-0.896 1.984-1.984v-20.672zM30.656 6.656v-1.984c0-1.12-0.896-2.016-1.984-2.016h-25.344c-1.088 0-1.984 0.896-1.984 2.016v1.984h29.312zM32 28.672c0 1.824-1.504 3.328-3.328 3.328h-25.344c-1.824 0-3.328-1.504-3.328-3.328v-24c0-1.856 1.504-3.328 3.328-3.328h25.344c1.824 0 3.328 1.472 3.328 3.328v24zM4 4.672c0 0.352-0.288 0.672-0.672 0.672s-0.672-0.32-0.672-0.672 0.32-0.672 0.672-0.672 0.672 0.288 0.672 0.672zM6.656 4.672c0 0.352-0.288 0.672-0.64 0.672s-0.672-0.32-0.672-0.672 0.288-0.672 0.672-0.672 0.64 0.288 0.64 0.672zM9.344 4.672c0 0.352-0.288 0.672-0.672 0.672s-0.672-0.32-0.672-0.672 0.288-0.672 0.672-0.672c0.384 0 0.672 0.288 0.672 0.672zM4.672 28c-0.384 0-0.672-0.288-0.672-0.672v-2.656c0-0.384 0.288-0.672 0.672-0.672h2.656c0.384 0 0.672 0.288 0.672 0.672v2.656c0 0.384-0.288 0.672-0.672 0.672h-2.656zM5.344 26.656h1.312v-1.312h-1.312v1.312zM10.016 25.344c-0.384 0-0.672-0.32-0.672-0.672s0.288-0.672 0.672-0.672h4c0.352 0 0.64 0.288 0.64 0.672s-0.288 0.672-0.64 0.672h-4zM10.016 28c-0.384 0-0.672-0.288-0.672-0.672s0.288-0.672 0.672-0.672h4c0.352 0 0.64 0.288 0.64 0.672s-0.288 0.672-0.64 0.672h-4zM18.016 28c-0.384 0-0.672-0.288-0.672-0.672v-2.656c0-0.384 0.288-0.672 0.672-0.672h2.656c0.384 0 0.672 0.288 0.672 0.672v2.656c0 0.384-0.288 0.672-0.672 0.672h-2.656zM18.656 26.656h1.344v-1.312h-1.344v1.312zM23.328 25.344c-0.352 0-0.672-0.32-0.672-0.672s0.32-0.672 0.672-0.672h4c0.384 0 0.672 0.288 0.672 0.672s-0.288 0.672-0.672 0.672h-4zM23.328 28c-0.352 0-0.672-0.288-0.672-0.672s0.32-0.672 0.672-0.672h4c0.384 0 0.672 0.288 0.672 0.672s-0.288 0.672-0.672 0.672h-4zM15.328 18.656v-6.656h-2.656v0.704c0 0.384-0.288 0.672-0.672 0.672s-0.672-0.288-0.672-0.672v-1.376c0-0.384 0.288-0.672 0.672-0.672h8c0.384 0 0.672 0.288 0.672 0.672v1.376c0 0.384-0.288 0.672-0.672 0.672s-0.672-0.288-0.672-0.672v-0.704h-2.656v6.656h1.344c0.352 0 0.64 0.288 0.64 0.672s-0.288 0.672-0.64 0.672h-4c-0.384 0-0.672-0.288-0.672-0.672s0.288-0.672 0.672-0.672h1.312z"></path> </svg> 