 <svg version="1.1" xmlns="http://www.w3.org/2000/svg" width="32" height="32" viewBox="0 0 32 32">  <path d="M10.336 9.344v-2.72c0.192-3.584 2.176-5.568 5.696-5.568 3.488 0 5.504 1.984 5.632 5.632v2.656h2.336c1.472 0 2.656 1.184 2.656 2.656v16c0 1.472-1.184 2.656-2.656 2.656h-16c-1.472 0-2.656-1.184-2.656-2.656v-16c0-1.472 1.184-2.656 2.656-2.656h2.336zM12.32 9.344h7.36v-2.624c-0.128-2.56-1.216-3.68-3.648-3.68s-3.552 1.12-3.712 3.648v2.656zM10.336 11.328h-2.336c-0.384 0-0.672 0.288-0.672 0.672v16c0 0.384 0.288 0.672 0.672 0.672h16c0.384 0 0.672-0.288 0.672-0.672v-16c0-0.384-0.288-0.672-0.672-0.672h-2.336v3.2c0 0.544-0.448 0.992-0.992 0.992s-0.992-0.448-0.992-0.992v-3.2h-7.36v3.2c0 0.544-0.448 0.992-0.992 0.992s-0.992-0.448-0.992-0.992v-3.2z"></path> </svg> 