 <svg version="1.1" xmlns="http://www.w3.org/2000/svg" width="32" height="32" viewBox="0 0 32 32">  <path d="M31.968 15.104c-0.064-0.192-0.224-0.352-0.416-0.416l-3.616-1.184 0.704-3.36c0.064-0.192 0.032-0.352-0.096-0.512-0.096-0.16-0.224-0.256-0.416-0.288-0.288-0.064-7.040-1.344-12.128-1.344s-11.84 1.28-12.128 1.344c-0.16 0.032-0.32 0.128-0.416 0.288s-0.128 0.32-0.096 0.512l0.704 3.36-3.616 1.184c-0.192 0.064-0.32 0.224-0.416 0.416-0.064 0.192-0.032 0.384 0.064 0.576l1.888 3.136-0.64 4.416c-0.032 0.224 0.064 0.48 0.224 0.608 0.128 0.096 0.288 0.16 0.448 0.16 0.064 0 0.128 0 0.224-0.032 0.032-0.032 5.408-1.984 7.776-1.984 0.192 0 0.384-0.096 0.512-0.256s0.16-0.352 0.128-0.576l-0.512-1.984c1.728-0.256 3.776-0.512 5.856-0.512s4.128 0.256 5.856 0.512l-0.512 2.016c-0.032 0.192 0 0.384 0.128 0.544s0.32 0.256 0.544 0.256c2.336 0 7.712 1.952 7.744 1.984 0.096 0.032 0.16 0.032 0.256 0.032 0.128 0 0.288-0.064 0.416-0.16 0.16-0.128 0.256-0.384 0.224-0.608l-0.64-4.416 1.888-3.136c0.096-0.192 0.128-0.384 0.064-0.576zM9.152 20.704c-1.984 0.224-4.832 1.12-6.336 1.632l0.512-3.584c0.032-0.16 0-0.288-0.096-0.448l-1.568-2.592 2.688-0.896 0.992 4.64c0.032 0.192 0.16 0.352 0.32 0.448 0.096 0.064 0.224 0.096 0.352 0.096 0.032 0 0.096 0 0.16-0.032 0.032 0 1.056-0.288 2.656-0.576l0.32 1.312zM16 17.344c-4 0-7.936 0.8-9.504 1.184l-1.696-8c1.856-0.32 7.136-1.184 11.2-1.184s9.344 0.864 11.2 1.184l-1.696 8c-1.568-0.384-5.504-1.184-9.504-1.184zM28.768 18.336c-0.096 0.128-0.128 0.256-0.096 0.416l0.512 3.584c-1.504-0.512-4.352-1.408-6.336-1.632l0.32-1.312c1.6 0.288 2.624 0.576 2.656 0.576 0.192 0.064 0.384 0.032 0.512-0.064 0.16-0.096 0.288-0.256 0.32-0.448l0.992-4.64 2.688 0.896-1.568 2.624z"></path> </svg> 