 <svg version="1.1" xmlns="http://www.w3.org/2000/svg" width="32" height="32" viewBox="0 0 32 32">  <path d="M4 12c0 0 0 0 0 0h4.192l2.176-6.496c0.256-0.864 1.088-1.504 2.016-1.504h8.576c0.96 0 1.792 0.64 2.016 1.536l2.176 6.464h4.16c0.032 0 0.032 0 0.032 0h1.984c0.384 0 0.672 0.288 0.672 0.672s-0.288 0.672-0.672 0.672h-1.408l-1.984 12.192c-0.416 1.472-1.696 2.464-3.2 2.464h-16.096c-1.504 0-2.816-0.992-3.232-2.528l-1.984-12.128h-1.408c-0.384 0-0.672-0.32-0.672-0.672s0.288-0.672 0.672-0.672h1.984zM4.8 13.344l1.92 11.84c0.224 0.864 1.024 1.472 1.92 1.472h16.096c0.896 0 1.664-0.576 1.92-1.376l1.92-11.936h-23.776zM23.744 12l-2.016-6.080c-0.096-0.352-0.416-0.576-0.768-0.576h-8.576c-0.352 0-0.64 0.224-0.736 0.544l-2.048 6.112h14.144zM16 16.672c0-0.384 0.288-0.672 0.672-0.672s0.672 0.288 0.672 0.672v6.656c0 0.384-0.288 0.672-0.672 0.672s-0.672-0.288-0.672-0.672v-6.656zM21.984 23.424c-0.064 0.352-0.384 0.608-0.768 0.576-0.352-0.064-0.608-0.416-0.544-0.768l0.928-6.592c0.064-0.384 0.416-0.64 0.768-0.576s0.608 0.384 0.576 0.768l-0.96 6.592zM12.64 23.232c0.064 0.352-0.192 0.704-0.544 0.768s-0.704-0.192-0.768-0.576l-0.928-6.592c-0.064-0.352 0.192-0.704 0.576-0.768 0.352-0.064 0.704 0.192 0.736 0.576l0.928 6.592z"></path> </svg> 