 <svg version="1.1" xmlns="http://www.w3.org/2000/svg" width="32" height="32" viewBox="0 0 32 32">  <path d="M4.096 13.344h-2.080c-0.384 0-0.672-0.32-0.672-0.672s0.288-0.672 0.672-0.672h6.176l2.176-6.496c0.256-0.864 1.088-1.504 2.016-1.504h8.576c0.96 0 1.792 0.64 2.016 1.536l2.176 6.464h6.176c0.384 0 0.672 0.288 0.672 0.672s-0.288 0.672-0.672 0.672h-2.112l-1.92 12.032c-0.32 1.152-1.376 1.952-2.592 1.952h-16.064c-1.184 0-2.24-0.8-2.56-1.952l-1.984-12.032zM23.744 12l-2.016-6.080c-0.096-0.352-0.416-0.576-0.768-0.576h-8.576c-0.352 0-0.64 0.224-0.736 0.544l-2.048 6.112h14.144zM16 16.672v6.656c0 0.384 0.288 0.672 0.672 0.672s0.672-0.288 0.672-0.672v-6.656c0-0.384-0.288-0.672-0.672-0.672s-0.672 0.288-0.672 0.672zM21.984 23.424l0.96-6.592c0.032-0.352-0.224-0.704-0.576-0.768s-0.704 0.192-0.768 0.576l-0.928 6.592c-0.064 0.352 0.192 0.704 0.544 0.768 0.384 0.032 0.736-0.224 0.768-0.576zM12.64 23.232l-0.928-6.592c-0.064-0.352-0.384-0.608-0.768-0.576-0.352 0.064-0.608 0.416-0.544 0.768l0.928 6.592c0.064 0.384 0.384 0.64 0.768 0.576 0.352-0.064 0.608-0.416 0.544-0.768z"></path> </svg> 