 <svg version="1.1" xmlns="http://www.w3.org/2000/svg" width="32" height="32" viewBox="0 0 32 32">  <path d="M3.328 11.68c0 0 0.032 0 0.032 0h3.296l2.272-6.304c0.288-0.992 1.312-1.696 2.432-1.696h9.312c1.12 0 2.144 0.704 2.464 1.76l2.24 6.24h3.296c0 0 0.032 0 0.032 0h1.952c0.544 0 1.024 0.448 1.024 0.992s-0.48 0.992-1.024 0.992h-1.12l-1.952 11.968c-0.448 1.6-1.888 2.688-3.52 2.688h-16.096c-1.632 0-3.104-1.088-3.552-2.784l-1.92-11.872h-1.152c-0.544 0-1.024-0.448-1.024-0.992s0.48-0.992 1.024-0.992h1.984zM4.512 13.664l1.856 11.456c0.192 0.704 0.832 1.216 1.6 1.216h16.096c0.736 0 1.408-0.512 1.568-1.12l1.888-11.552h-23.008zM23.232 11.68l-2.016-5.632c-0.096-0.224-0.288-0.384-0.576-0.384h-9.28c-0.288 0-0.48 0.16-0.544 0.32l-2.048 5.696h14.464zM15.008 16.672c0-0.544 0.448-0.992 0.992-0.992s0.992 0.448 0.992 0.992v6.656c0 0.544-0.448 0.992-0.992 0.992s-0.992-0.448-0.992-0.992v-6.656zM21.664 23.488c-0.096 0.544-0.608 0.896-1.152 0.832s-0.896-0.576-0.832-1.12l0.928-6.592c0.096-0.544 0.608-0.928 1.152-0.864s0.896 0.576 0.832 1.12l-0.928 6.624zM12.32 23.2c0.096 0.544-0.32 1.024-0.864 1.12-0.544 0.064-1.056-0.32-1.12-0.864l-0.96-6.592c-0.064-0.544 0.32-1.056 0.864-1.12 0.544-0.096 1.056 0.288 1.12 0.832l0.96 6.624z"></path> </svg> 