 <svg version="1.1" xmlns="http://www.w3.org/2000/svg" width="32" height="32" viewBox="0 0 32 32">  <path d="M12.672 5.344h-9.344c-1.088 0-1.984 0.896-1.984 1.984v9.344c0 1.088 0.896 1.984 1.984 1.984h3.328v2.208c0 1.28-0.704 2.4-1.824 2.976l-3.136 1.568c-0.256 0.128-0.416 0.448-0.352 0.736 0.064 0.32 0.352 0.512 0.672 0.512h4.512c3.168 0 5.952-2.016 6.944-4.992 0.8-2.368 1.184-4.8 1.184-7.296v-7.040c0-1.088-0.896-1.984-1.984-1.984zM13.344 14.368c0 2.336-0.384 4.64-1.12 6.848-0.832 2.464-3.104 4.128-5.696 4.128h-1.696l0.576-0.32c1.6-0.8 2.592-2.4 2.592-4.16v-2.88c0-0.352-0.288-0.64-0.672-0.64h-4c-0.352 0-0.672-0.32-0.672-0.672v-9.344c0-0.352 0.32-0.672 0.672-0.672h9.344c0.352 0 0.672 0.32 0.672 0.672 0 0 0 7.040 0 7.040zM28.672 5.344h-9.344c-1.088 0-1.984 0.896-1.984 1.984v9.344c0 1.088 0.896 1.984 1.984 1.984h3.328v2.208c0 1.28-0.704 2.4-1.824 2.976l-3.136 1.568c-0.256 0.128-0.416 0.448-0.352 0.736 0.064 0.32 0.352 0.512 0.672 0.512h4.512c3.168 0 5.952-2.016 6.944-4.992 0.8-2.368 1.184-4.8 1.184-7.296v-7.040c0-1.088-0.896-1.984-1.984-1.984zM29.344 14.368c0 2.336-0.384 4.64-1.12 6.848-0.832 2.464-3.104 4.128-5.696 4.128h-1.696l0.576-0.32c1.6-0.8 2.592-2.4 2.592-4.16v-2.88c0-0.352-0.288-0.64-0.672-0.64h-4c-0.352 0-0.672-0.32-0.672-0.672v-9.344c0-0.352 0.32-0.672 0.672-0.672h9.344c0.352 0 0.672 0.32 0.672 0.672v7.040z"></path> </svg> 