 <svg version="1.1" xmlns="http://www.w3.org/2000/svg" width="32" height="32" viewBox="0 0 32 32">  <path d="M30.016 7.328h-28c-1.12 0-2.016 0.896-2.016 2.016v13.312c0 1.12 0.896 2.016 2.016 2.016h28c1.088 0 1.984-0.896 1.984-2.016v-13.312c0-1.12-0.896-2.016-1.984-2.016zM30.656 22.656c0 0.384-0.288 0.672-0.64 0.672h-28c-0.384 0-0.672-0.288-0.672-0.672v-13.312c0-0.384 0.288-0.672 0.672-0.672h28c0.352 0 0.64 0.288 0.64 0.672v13.312zM23.328 11.328c-2.56 0-4.672 2.112-4.672 4.672s2.112 4.672 4.672 4.672 4.672-2.112 4.672-4.672-2.080-4.672-4.672-4.672zM23.328 19.328c-1.824 0-3.328-1.504-3.328-3.328s1.504-3.328 3.328-3.328 3.328 1.504 3.328 3.328-1.472 3.328-3.328 3.328zM15.328 19.328h-10.656c-0.384 0-0.672 0.288-0.672 0.672s0.288 0.672 0.672 0.672h10.656c0.384 0 0.672-0.32 0.672-0.672s-0.288-0.672-0.672-0.672zM15.328 15.328h-10.656c-0.384 0-0.672 0.288-0.672 0.672s0.288 0.672 0.672 0.672h10.656c0.384 0 0.672-0.32 0.672-0.672s-0.288-0.672-0.672-0.672zM15.328 11.328h-10.656c-0.384 0-0.672 0.288-0.672 0.672s0.288 0.672 0.672 0.672h10.656c0.384 0 0.672-0.32 0.672-0.672s-0.288-0.672-0.672-0.672z"></path> </svg> 