 <svg version="1.1" xmlns="http://www.w3.org/2000/svg" width="32" height="32" viewBox="0 0 32 32">  <path d="M3.328 19.328c-0.352 0-0.672 0.288-0.672 0.672s-0.288 0.672-0.64 0.672-0.672-0.32-0.672-0.672v-2.656c0-0.384 0.288-0.672 0.672-0.672s0.64 0.288 0.64 0.672 0.32 0.64 0.672 0.64 0.672-0.288 0.672-0.64c0-1.12-0.896-2.016-1.984-2.016s-2.016 0.896-2.016 2.016v2.656c0 1.088 0.896 1.984 2.016 1.984s1.984-0.896 1.984-1.984c0-0.384-0.288-0.672-0.672-0.672zM16.672 16c0.352 0 0.672 0.288 0.672 0.672s0.288 0.672 0.672 0.672 0.64-0.32 0.64-0.672c0-1.12-0.896-2.016-1.984-2.016s-2.016 0.896-2.016 2.016v2.656c0 1.12 0.896 2.016 2.016 2.016s1.984-0.896 1.984-2.016c0-0.352-0.288-0.672-0.64-0.672s-0.672 0.32-0.672 0.672-0.32 0.672-0.672 0.672-0.672-0.288-0.672-0.672v-2.656c0-0.384 0.288-0.672 0.672-0.672zM31.968 21.088l-2.016-5.312c-0.192-0.544-1.056-0.544-1.248 0l-1.984 5.312c-0.128 0.352 0.032 0.736 0.384 0.864s0.736-0.032 0.864-0.384l0.32-0.896h2.080l0.352 0.896c0.096 0.256 0.352 0.416 0.608 0.416 0.096 0 0.16 0 0.256-0.032 0.32-0.128 0.512-0.512 0.384-0.864zM28.8 19.328l0.544-1.44 0.544 1.44h-1.088zM7.296 18.432c-0.192-0.512-1.056-0.512-1.248 0l-2.016 5.344c-0.128 0.32 0.064 0.704 0.416 0.832 0.32 0.128 0.704-0.032 0.832-0.384l0.352-0.896h2.080l0.32 0.896c0.128 0.288 0.352 0.448 0.64 0.448 0.064 0 0.16-0.032 0.224-0.064 0.352-0.128 0.512-0.512 0.384-0.832l-1.984-5.344zM6.144 21.984l0.512-1.408 0.544 1.408h-1.056zM11.328 12.672h-1.312c-0.384 0-0.672 0.288-0.672 0.672v5.312c0 0.384 0.288 0.672 0.672 0.672s0.64-0.288 0.64-0.672v-1.984h0.672c1.12 0 2.016-0.896 2.016-2.016s-0.896-1.984-2.016-1.984zM11.328 15.328h-0.672v-1.344h0.672c0.384 0 0.672 0.32 0.672 0.672s-0.288 0.672-0.672 0.672zM24.672 17.984c-0.384 0-0.672 0.32-0.672 0.672v2.016h-2.656v-2.016c0-0.352-0.32-0.672-0.672-0.672s-0.672 0.32-0.672 0.672v5.344c0 0.352 0.288 0.672 0.672 0.672s0.672-0.32 0.672-0.672v-2.016h2.656v2.016c0 0.352 0.288 0.672 0.672 0.672s0.672-0.32 0.672-0.672v-5.344c0-0.352-0.32-0.672-0.672-0.672zM14.656 13.344c0 0.352 0.32 0.64 0.672 0.64s0.672-0.288 0.672-0.64v-4.672h1.344c0.352 0 0.672-0.32 0.672-0.672s-0.32-0.672-0.672-0.672h-4c-0.384 0-0.672 0.288-0.672 0.672s0.288 0.672 0.672 0.672h1.312v4.672z"></path> </svg> 