 <svg version="1.1" xmlns="http://www.w3.org/2000/svg" width="32" height="32" viewBox="0 0 32 32">  <path d="M3.136 14.208c-0.256-0.288-0.672-0.288-0.928 0l-1.344 1.312c-0.256 0.256-0.256 0.704 0 0.96l1.344 1.312c0.128 0.128 0.288 0.192 0.448 0.192s0.352-0.064 0.48-0.192c0.256-0.256 0.256-0.672 0-0.928l-0.864-0.864 0.864-0.864c0.256-0.256 0.256-0.672 0-0.928zM31.136 15.52l-1.344-1.312c-0.256-0.288-0.672-0.288-0.928 0s-0.256 0.672 0 0.928l0.864 0.864-0.864 0.864c-0.256 0.256-0.256 0.672 0 0.928 0.128 0.128 0.288 0.192 0.48 0.192s0.32-0.064 0.448-0.192l1.344-1.312c0.256-0.256 0.256-0.704 0-0.96zM10.656 13.344h-5.312c-0.384 0-0.672 0.288-0.672 0.64v4c0 0.384 0.288 0.672 0.672 0.672h5.312c0.384 0 0.672-0.288 0.672-0.672v-4c0-0.352-0.288-0.64-0.672-0.64zM10.016 17.344h-4v-2.688h4v2.688zM18.656 13.344h-5.312c-0.384 0-0.672 0.288-0.672 0.64v4c0 0.384 0.288 0.672 0.672 0.672h5.312c0.384 0 0.672-0.288 0.672-0.672v-4c0-0.352-0.288-0.64-0.672-0.64zM18.016 17.344h-4v-2.688h4v2.688zM26.656 13.344h-5.312c-0.384 0-0.672 0.288-0.672 0.64v4c0 0.384 0.288 0.672 0.672 0.672h5.312c0.384 0 0.672-0.288 0.672-0.672v-4c0-0.352-0.288-0.64-0.672-0.64zM26.016 17.344h-4v-2.688h4v2.688z"></path> </svg> 