 <svg version="1.1" xmlns="http://www.w3.org/2000/svg" width="32" height="32" viewBox="0 0 32 32">  <path d="M6.016 5.344h24c0.16 0 0.352 0.064 0.48 0.224 0.128 0.128 0.192 0.32 0.16 0.512l-1.024 8.32c-0.224 1.664-1.632 2.944-3.296 2.944h-17.92l0.256 1.312c0.32 1.536 1.696 2.688 3.264 2.688h15.392c0.384 0 0.672 0.288 0.672 0.64s-0.288 0.672-0.672 0.672h-15.392c-2.208 0-4.128-1.568-4.576-3.744l-3.232-16.256h-3.456c-0.384 0-0.672-0.288-0.672-0.672s0.288-0.64 0.672-0.64h4c0.32 0 0.576 0.224 0.64 0.512l0.704 3.488zM24.672 24c1.824 0 3.328 1.504 3.328 3.328s-1.504 3.328-3.328 3.328-3.328-1.472-3.328-3.328 1.472-3.328 3.328-3.328zM11.328 24c1.856 0 3.328 1.504 3.328 3.328s-1.472 3.328-3.328 3.328-3.328-1.472-3.328-3.328 1.504-3.328 3.328-3.328z"></path> </svg> 