 <svg version="1.1" xmlns="http://www.w3.org/2000/svg" width="32" height="32" viewBox="0 0 32 32">  <path d="M23.68 27.328c0 0.928 0.736 1.664 1.664 1.664s1.664-0.736 1.664-1.664-0.768-1.664-1.664-1.664-1.664 0.736-1.664 1.664zM6.944 4.992h23.712c0.608 0 1.088 0.544 0.992 1.12l-1.024 8.352c-0.224 1.824-1.792 3.2-3.648 3.2h-17.472l0.192 0.928c0.256 1.408 1.504 2.4 2.944 2.4h15.36c0.544 0 0.992 0.448 0.992 0.992s-0.448 1.024-0.992 1.024h-15.392c-2.368 0-4.448-1.696-4.896-4.032l-3.2-15.968h-3.168c-0.544 0-1.024-0.448-1.024-1.024s0.48-0.992 1.024-0.992h4c0.48 0 0.896 0.352 0.992 0.8l0.608 3.2zM7.36 7.008l1.728 8.672h17.888c0.832 0 1.536-0.64 1.664-1.472l0.896-7.2h-22.176zM21.664 27.328c0-2.016 1.632-3.648 3.68-3.648s3.648 1.632 3.648 3.648-1.632 3.68-3.648 3.68-3.68-1.632-3.68-3.68zM8.32 27.328c0-2.016 1.664-3.648 3.68-3.648s3.68 1.632 3.68 3.648-1.664 3.68-3.68 3.68-3.68-1.632-3.68-3.68zM10.336 27.328c0 0.928 0.736 1.664 1.664 1.664s1.664-0.736 1.664-1.664-0.736-1.664-1.664-1.664-1.664 0.736-1.664 1.664z"></path> </svg> 