 <svg version="1.1" xmlns="http://www.w3.org/2000/svg" width="32" height="32" viewBox="0 0 32 32">  <path d="M14.72 25.344c1.12 0 2.016 0.896 2.016 1.984s-0.896 2.016-2.016 2.016-2.048-0.896-2.048-2.016 0.928-1.984 2.048-1.984zM22.72 25.344c1.12 0 2.016 0.896 2.016 1.984s-0.896 2.016-2.016 2.016-2.048-0.896-2.048-2.016 0.928-1.984 2.048-1.984zM7.488 8.032l4.448 14.4c0.064 0.16 0.224 0.288 0.384 0.288h12.16c0.192 0 0.352-0.128 0.416-0.288l4.416-13.856c0-0.032 0-0.064 0-0.096 0-0.256-0.192-0.416-0.416-0.416l-21.408-0.032zM7.072 6.72h21.824c0.96 0 1.76 0.768 1.76 1.728 0 0.192-0.032 0.352-0.096 0.544l-4.416 13.856c-0.224 0.704-0.896 1.216-1.664 1.216h-12.16c-0.736 0-1.44-0.512-1.664-1.248l-4.704-15.232c-0.32-1.12-0.832-2.144-1.536-3.104-0.64-0.864-1.408-1.28-2.4-1.28-0.384 0-0.672-0.288-0.672-0.672s0.288-0.672 0.672-0.672c1.44 0 2.624 0.64 3.488 1.856 0.672 0.96 1.216 1.952 1.568 3.008z"></path> </svg> 