 <svg version="1.1" xmlns="http://www.w3.org/2000/svg" width="32" height="32" viewBox="0 0 32 32">  <path d="M22.656 27.328c0 1.12 0.896 2.016 2.016 2.016 1.088 0 1.984-0.896 1.984-2.016 0-1.088-0.896-1.984-1.984-1.984-1.12 0-2.016 0.896-2.016 1.984zM6.016 5.344h24c0.384 0 0.704 0.352 0.64 0.736l-1.024 8.32c-0.224 1.664-1.632 2.944-3.328 2.944h-17.888l0.256 1.312c0.32 1.568 1.696 2.688 3.264 2.688h15.392c0.384 0 0.672 0.288 0.672 0.64 0 0.384-0.288 0.672-0.672 0.672h-15.392c-2.208 0-4.128-1.568-4.576-3.744l-3.232-16.256h-3.456c-0.384 0-0.672-0.288-0.672-0.672 0-0.352 0.288-0.64 0.672-0.64h4c0.32 0 0.576 0.224 0.64 0.512l0.704 3.488zM6.272 6.656l1.888 9.344h18.144c1.024 0 1.856-0.768 1.984-1.76l0.96-7.584h-22.976zM21.344 27.328c0-1.824 1.472-3.328 3.328-3.328 1.824 0 3.328 1.504 3.328 3.328 0 1.856-1.504 3.328-3.328 3.328-1.856 0-3.328-1.472-3.328-3.328zM8 27.328c0-1.824 1.504-3.328 3.328-3.328 1.856 0 3.328 1.504 3.328 3.328 0 1.856-1.472 3.328-3.328 3.328-1.824 0-3.328-1.472-3.328-3.328zM9.344 27.328c0 1.12 0.896 2.016 1.984 2.016 1.12 0 2.016-0.896 2.016-2.016 0-1.088-0.896-1.984-2.016-1.984-1.088 0-1.984 0.896-1.984 1.984z"></path> </svg> 