 <svg version="1.1" xmlns="http://www.w3.org/2000/svg" width="32" height="32" viewBox="0 0 32 32">  <path d="M15.872 1.472c-8 0-14.528 6.528-14.528 14.656s6.528 14.528 14.528 14.528 14.528-6.528 14.528-14.528-6.4-14.656-14.528-14.656M15.872 32c-8.672 0-15.872-7.2-15.872-15.872s7.2-16 15.872-16 15.872 7.2 15.872 15.872-7.072 16-15.872 16M13.344 22.784l-6.944-6.912c-0.256-0.288-0.256-0.672 0-0.928 0.256-0.288 0.8-0.288 1.056 0l6.4 6.4 10.56-10.56c0.256-0.256 0.64-0.256 0.928 0 0.256 0.288 0.256 0.672 0 0.96l-11.072 11.040c-0.128 0.16-0.256 0.288-0.544 0.288s-0.256-0.128-0.384-0.288z"></path> </svg> 