 <svg version="1.1" xmlns="http://www.w3.org/2000/svg" width="32" height="32" viewBox="0 0 32 32">  <path d="M7.328 22.656h-5.312c-1.12 0-2.016 0.896-2.016 2.016v5.344c0 1.088 0.896 1.984 2.016 1.984h5.312c1.12 0 2.016-0.896 2.016-1.984v-5.344c0-1.12-0.896-2.016-2.016-2.016zM8 30.016c0 0.352-0.288 0.64-0.672 0.64h-5.312c-0.384 0-0.672-0.288-0.672-0.64v-5.344c0-0.384 0.288-0.672 0.672-0.672h5.312c0.384 0 0.672 0.288 0.672 0.672v5.344zM12.672 6.656h18.656c0.384 0 0.672-0.288 0.672-0.672s-0.288-0.64-0.672-0.64h-18.656c-0.384 0-0.672 0.288-0.672 0.64s0.288 0.672 0.672 0.672zM31.328 16h-18.656c-0.384 0-0.672 0.288-0.672 0.672s0.288 0.672 0.672 0.672h18.656c0.384 0 0.672-0.32 0.672-0.672s-0.288-0.672-0.672-0.672zM31.328 26.656h-18.656c-0.384 0-0.672 0.32-0.672 0.672s0.288 0.672 0.672 0.672h18.656c0.384 0 0.672-0.288 0.672-0.672s-0.288-0.672-0.672-0.672zM9.44 0.288l-0.96 1.408c-0.32-0.224-0.736-0.352-1.152-0.352h-5.312c-1.12 0-2.016 0.896-2.016 1.984v5.344c0 1.088 0.896 1.984 2.016 1.984h5.312c1.12 0 2.016-0.896 2.016-1.984v-5.344c0-0.16-0.032-0.32-0.064-0.448l1.28-1.824c0.192-0.32 0.128-0.736-0.192-0.928-0.288-0.224-0.704-0.16-0.928 0.16zM8 8.672c0 0.352-0.288 0.672-0.672 0.672h-5.312c-0.384 0-0.672-0.32-0.672-0.672v-5.344c0-0.352 0.288-0.672 0.672-0.672h5.312c0.16 0 0.256 0.064 0.384 0.128l-2.464 3.52-1.44-1.44c-0.256-0.256-0.672-0.256-0.96 0s-0.256 0.672 0 0.928l2.016 2.016c0.128 0.128 0.288 0.192 0.48 0.192 0 0 0.032 0 0.064 0 0.192-0.032 0.352-0.128 0.48-0.288l2.112-3.040v4zM9.44 10.944l-0.96 1.408c-0.32-0.224-0.736-0.352-1.152-0.352h-5.312c-1.12 0-2.016 0.896-2.016 1.984v5.344c0 1.12 0.896 2.016 2.016 2.016h5.312c1.12 0 2.016-0.896 2.016-2.016v-5.344c0-0.16-0.032-0.288-0.064-0.448l1.28-1.824c0.192-0.288 0.128-0.704-0.192-0.928-0.288-0.224-0.704-0.128-0.928 0.16zM8 19.328c0 0.384-0.288 0.672-0.672 0.672h-5.312c-0.384 0-0.672-0.288-0.672-0.672v-5.344c0-0.352 0.288-0.64 0.672-0.64h5.312c0.16 0 0.256 0.032 0.384 0.096l-2.464 3.52-1.44-1.44c-0.256-0.256-0.672-0.256-0.96 0s-0.256 0.704 0 0.96l2.016 1.984c0.128 0.128 0.288 0.192 0.48 0.192 0 0 0.032 0 0.064 0 0.192 0 0.352-0.128 0.48-0.288l2.112-3.008v3.968z"></path> </svg> 