 <svg version="1.1" xmlns="http://www.w3.org/2000/svg" width="32" height="32" viewBox="0 0 32 32">  <path d="M22.272 17.056c0.384-0.384 0.544-0.928 0.544-1.472 0-0.512-0.16-1.056-0.544-1.312l-9.472-9.6c-0.384-0.416-0.8-0.672-1.472-0.672-0.512 0-0.928 0.128-1.312 0.544-0.416 0.384-0.672 0.928-0.672 1.44 0 0.544 0.128 1.088 0.512 1.472l8.16 8.288-8.288 8.928c-0.384 0.384-0.512 0.928-0.512 1.472 0 0.512 0.256 1.056 0.64 1.472 0.416 0.256 0.96 0.384 1.472 0.384 0.544 0 1.088-0.256 1.472-0.672l9.472-10.272z"></path> </svg> 