 <svg version="1.1" xmlns="http://www.w3.org/2000/svg" width="32" height="32" viewBox="0 0 32 32">  <path d="M20.672 4c-0.544 0-1.056 0.256-1.344 0.544l-9.472 9.6c-0.384 0.384-0.512 0.928-0.512 1.44 0 0.544 0.128 1.088 0.512 1.472l9.472 10.272c0.416 0.416 0.8 0.672 1.344 0.672s1.056-0.128 1.472-0.544c0.384-0.384 0.672-0.928 0.672-1.472 0-0.512-0.16-1.056-0.672-1.44l-8.128-8.96 8.128-8.384c0.256-0.256 0.512-0.672 0.512-1.216 0-0.512-0.128-1.056-0.512-1.44-0.544-0.416-0.928-0.544-1.472-0.544z"></path> </svg> 