 <svg version="1.1" xmlns="http://www.w3.org/2000/svg" width="32" height="32" viewBox="0 0 32 32">  <path d="M9.216 9.184c-0.544 0.416-0.8 0.96-0.8 1.76v17.856c0 0.672 0.256 1.216 0.64 1.728 0.416 0.544 1.088 0.8 1.76 0.8h17.856c0.672 0 1.184-0.256 1.728-0.8s0.672-1.056 0.672-1.728v-17.856c0-0.672-0.256-1.344-0.672-1.76-0.544-0.512-1.056-0.8-1.728-0.8h-17.728c-0.8 0-1.344 0.288-1.728 0.8M4 4.544c0-0.416 0.128-0.544 0.544-0.544h16.128c0.544 0 0.672 0.128 0.672 0.544v1.184c0 0.416 0.128 0.8 0.512 1.056 0.288 0.288 0.672 0.416 1.088 0.416s0.8-0.128 1.056-0.416c0.256-0.256 0.544-0.64 0.544-1.056v-1.184c0-1.088-0.416-1.888-1.088-2.688-0.8-0.672-1.6-1.056-2.656-1.056h-16.256c-1.088 0-1.888 0.384-2.688 1.056-0.64 0.8-1.056 1.728-1.056 2.688v16.128c0 1.056 0.416 1.856 1.056 2.656 0.8 0.672 1.6 1.056 2.688 1.056h1.184c0.416 0 0.8-0.128 1.088-0.512 0.256-0.288 0.512-0.672 0.512-1.088 0-0.384-0.128-0.8-0.512-1.056-0.288-0.256-0.672-0.384-1.088-0.384h-1.184c-0.416 0-0.544-0.16-0.544-0.672v-16.128z"></path> </svg> 