 <svg version="1.1" xmlns="http://www.w3.org/2000/svg" width="32" height="32" viewBox="0 0 32 32">  <path d="M23.744 5.344l-7.744 7.712-7.744-7.712c-0.384-0.416-0.8-0.544-1.312-0.544-0.672 0-1.216 0.256-1.6 0.544-0.416 0.384-0.544 0.928-0.544 1.44 0 0.544 0.128 0.96 0.672 1.344l7.584 7.872-7.712 7.744c-0.928 0.928-0.928 1.856 0 2.784s1.856 0.928 2.784 0l7.744-7.744 7.744 7.744c0.384 0.416 0.928 0.544 1.44 0.544 0.544 0 1.088-0.128 1.472-0.544 0.416-0.384 0.544-0.8 0.544-1.472 0-0.512-0.128-1.056-0.544-1.472l-7.712-7.584 7.84-7.744c0.96-0.928 0.96-1.856 0-2.784-0.928-1.088-1.856-1.088-2.912-0.128z"></path> </svg> 