 <svg version="1.1" xmlns="http://www.w3.org/2000/svg" width="32" height="32" viewBox="0 0 32 32">  <path d="M12.544 5.6c4.256-1.056 7.712 0.544 9.856 4.672 0.416 0.672 0.128 1.6-0.544 1.984-0.64 0.416-1.44 0.128-1.856-0.512-1.6-2.944-3.744-4-6.784-3.2-3.072 0.8-4.672 3.040-5.088 7.2l-0.128 1.056-0.928 0.256c-2.944 0.672-4.256 2.272-4.256 4.8-0.16 3.072 1.184 4.288 4 4.416h16.8c4.128 0.384 5.728-0.928 5.728-4.288 0-1.984-0.8-3.328-2.4-4.256-0.672-0.384-0.928-1.184-0.672-1.984 0.384-0.672 1.184-1.088 1.856-0.672 2.688 1.472 4 3.712 4 6.784 0 5.216-3.072 7.744-8.512 7.2h-16.672c-4.416-0.128-6.944-2.784-6.816-7.456 0-3.616 2.016-6.144 5.472-7.328 0.544-4.672 2.944-7.616 6.944-8.672zM28.416 7.328c0.384-0.384 0.928-0.384 1.312 0s0.416 1.056 0 1.472l-10.528 12c0 0 0 0 0 0-0.544 0.544-1.344 0.544-1.728 0l-5.056-5.6c-0.416-0.416-0.416-1.056 0-1.472 0.384-0.384 0.928-0.384 1.312 0l4.544 5.056 10.144-11.456z"></path> </svg> 