 <svg version="1.1" xmlns="http://www.w3.org/2000/svg" width="32" height="32" viewBox="0 0 32 32">  <path d="M10.016 31.328c-0.096 0-0.192 0-0.256-0.032-0.352-0.16-0.512-0.544-0.384-0.864l12-29.344c0.16-0.352 0.544-0.512 0.864-0.384 0.352 0.16 0.512 0.544 0.384 0.896l-12 29.312c-0.096 0.256-0.352 0.416-0.608 0.416zM23.328 25.984c-0.16 0-0.288-0.032-0.416-0.16-0.288-0.224-0.32-0.64-0.096-0.928l7.648-8.896-7.648-8.896c-0.224-0.288-0.192-0.704 0.096-0.96 0.256-0.224 0.704-0.192 0.928 0.096l8 9.312c0.224 0.256 0.224 0.64 0 0.864l-8 9.344c-0.128 0.16-0.32 0.224-0.512 0.224zM8.672 25.984c-0.192 0-0.384-0.064-0.512-0.224l-8-9.344c-0.224-0.224-0.224-0.608 0-0.864l8-9.312c0.256-0.288 0.672-0.32 0.928-0.096 0.288 0.256 0.32 0.672 0.096 0.96l-7.648 8.896 7.648 8.896c0.224 0.288 0.192 0.704-0.096 0.928-0.096 0.128-0.256 0.16-0.416 0.16z"></path> </svg> 