 <svg version="1.1" xmlns="http://www.w3.org/2000/svg" width="32" height="32" viewBox="0 0 32 32">  <path d="M26.432 30.656h-20.864c-2.336 0-4.224-1.888-4.224-4.224v-20.864c0-2.336 1.888-4.224 4.224-4.224h20.864c2.336 0 4.224 1.888 4.224 4.224v20.864c0 2.336-1.888 4.224-4.224 4.224zM5.568 4.32c-0.672 0-1.248 0.544-1.248 1.248v20.864c0 0.672 0.576 1.248 1.248 1.248h20.864c0.672 0 1.248-0.576 1.248-1.248v-20.864c0-0.704-0.576-1.248-1.248-1.248h-20.864zM8 18.944c0-0.256 0.096-0.512 0.288-0.704l7.008-7.264c0.192-0.192 0.416-0.32 0.704-0.32s0.512 0.128 0.704 0.32l7.008 7.264c0.192 0.192 0.288 0.448 0.288 0.704s-0.096 0.544-0.288 0.736c-0.192 0.224-0.416 0.32-0.704 0.32h-14.016c-0.256 0-0.512-0.096-0.704-0.32-0.192-0.192-0.288-0.448-0.288-0.736z"></path> </svg> 