 <svg version="1.1" xmlns="http://www.w3.org/2000/svg" width="32" height="32" viewBox="0 0 32 32">  <path d="M14.016 5.344h-13.344c-0.384 0-0.672 0.288-0.672 0.64s0.288 0.672 0.672 0.672h13.344c0.352 0 0.64-0.288 0.64-0.672s-0.288-0.64-0.64-0.64zM14.016 9.344h-13.344c-0.384 0-0.672 0.288-0.672 0.64s0.288 0.672 0.672 0.672h13.344c0.352 0 0.64-0.288 0.64-0.672s-0.288-0.64-0.64-0.64zM14.016 13.344h-13.344c-0.384 0-0.672 0.288-0.672 0.64s0.288 0.672 0.672 0.672h13.344c0.352 0 0.64-0.288 0.64-0.672s-0.288-0.64-0.64-0.64zM14.016 17.344h-13.344c-0.384 0-0.672 0.288-0.672 0.64s0.288 0.672 0.672 0.672h13.344c0.352 0 0.64-0.288 0.64-0.672s-0.288-0.64-0.64-0.64zM14.016 21.344h-13.344c-0.384 0-0.672 0.288-0.672 0.64s0.288 0.672 0.672 0.672h13.344c0.352 0 0.64-0.288 0.64-0.672s-0.288-0.64-0.64-0.64zM10.016 25.344h-9.344c-0.384 0-0.672 0.288-0.672 0.64s0.288 0.672 0.672 0.672h9.344c0.352 0 0.64-0.288 0.64-0.672s-0.288-0.64-0.64-0.64zM18.016 6.656h13.312c0.384 0 0.672-0.288 0.672-0.672s-0.288-0.64-0.672-0.64h-13.312c-0.384 0-0.672 0.288-0.672 0.64s0.288 0.672 0.672 0.672zM31.328 9.344h-13.312c-0.384 0-0.672 0.288-0.672 0.64s0.288 0.672 0.672 0.672h13.312c0.384 0 0.672-0.288 0.672-0.672s-0.288-0.64-0.672-0.64zM31.328 13.344h-13.312c-0.384 0-0.672 0.288-0.672 0.64s0.288 0.672 0.672 0.672h13.312c0.384 0 0.672-0.288 0.672-0.672s-0.288-0.64-0.672-0.64zM31.328 17.344h-13.312c-0.384 0-0.672 0.288-0.672 0.64s0.288 0.672 0.672 0.672h13.312c0.384 0 0.672-0.288 0.672-0.672s-0.288-0.64-0.672-0.64zM31.328 21.344h-13.312c-0.384 0-0.672 0.288-0.672 0.64s0.288 0.672 0.672 0.672h13.312c0.384 0 0.672-0.288 0.672-0.672s-0.288-0.64-0.672-0.64zM27.328 25.344h-9.312c-0.384 0-0.672 0.288-0.672 0.64s0.288 0.672 0.672 0.672h9.312c0.384 0 0.672-0.288 0.672-0.672s-0.288-0.64-0.672-0.64z"></path> </svg> 