 <svg version="1.1" xmlns="http://www.w3.org/2000/svg" width="32" height="32" viewBox="0 0 32 32">  <path d="M30.656 4.128c0-0.8-0.256-1.472-0.8-1.984-0.512-0.544-1.184-0.8-1.984-0.8h-23.872c-0.672 0-1.344 0.256-1.856 0.8-0.544 0.512-0.8 1.184-0.8 1.984v23.872c0 0.8 0.256 1.344 0.8 1.856 0.512 0.544 1.184 0.8 1.856 0.8h23.872c0.8 0 1.472-0.256 1.984-0.8 0.544-0.512 0.8-1.184 0.8-1.856v-23.872M4.256 7.2h10.272v20.544h-10.272v-20.544M17.472 27.744v-20.544h10.144v20.544h-10.144z"></path> </svg> 