 <svg version="1.1" xmlns="http://www.w3.org/2000/svg" width="32" height="32" viewBox="0 0 32 32">  <path d="M24.928 7.232l1.6-2.176c0.224-0.288 0.16-0.704-0.128-0.928s-0.704-0.16-0.928 0.128l-1.6 2.176c-1.728-1.184-3.712-1.952-5.856-2.272v-2.816h0.64c0.384 0 0.672-0.32 0.672-0.672s-0.288-0.672-0.672-0.672h-5.312c-0.384 0-0.672 0.288-0.672 0.672s0.288 0.672 0.672 0.672h0.672v2.816c-2.144 0.32-4.16 1.088-5.856 2.24l-1.632-2.144c-0.224-0.288-0.64-0.352-0.928-0.128s-0.352 0.64-0.128 0.928l1.6 2.176c-3.104 2.56-5.056 6.432-5.056 10.752 0 7.744 6.272 14.016 13.984 14.016s14.016-6.272 14.016-14.016c0-4.32-1.984-8.192-5.088-10.752zM15.328 1.344h1.344v2.688c-0.224 0-0.448-0.032-0.672-0.032s-0.448 0.032-0.672 0.032v-2.688zM16 30.656c-6.976 0-12.672-5.664-12.672-12.672s5.696-12.64 12.672-12.64 12.672 5.664 12.672 12.64-5.696 12.672-12.672 12.672zM16 6.656c-0.352 0-0.672 0.32-0.672 0.672v10.656c0 0.384 0.32 0.672 0.672 0.672h10.656c0.384 0 0.672-0.288 0.672-0.672 0-6.24-5.088-11.328-11.328-11.328zM16.672 17.344v-9.312c4.992 0.32 8.992 4.32 9.312 9.312h-9.312z"></path> </svg> 