 <svg version="1.1" xmlns="http://www.w3.org/2000/svg" width="32" height="32" viewBox="0 0 32 32">  <path d="M10.272 11.584c-0.256 0-0.416 0-0.544 0.16l-1.984 2.912c-0.128 0.288-0.128 0.544 0.128 0.672s0.544 0.128 0.672-0.128l1.056-1.6v6.272c0 0.256 0.256 0.512 0.544 0.512 0.256 0 0.512-0.256 0.512-0.512v-7.744c0-0.256-0.128-0.384-0.384-0.544zM15.072 11.584c-1.344 0-2.4 1.088-2.4 2.4 0 0.288 0.256 0.544 0.544 0.544s0.512-0.256 0.512-0.544c0-0.8 0.672-1.44 1.472-1.44s1.472 0.64 1.472 1.44v0.288c0 0.256-0.128 0.672-0.256 0.928l-3.488 4.384c-0.128 0.16-0.128 0.416 0 0.544s0.288 0.256 0.416 0.256h3.872c0.256 0 0.512-0.256 0.512-0.512s-0.256-0.544-0.512-0.544h-2.944l2.784-3.584c0.416-0.416 0.544-0.96 0.544-1.472v-0.288c-0.128-1.312-1.184-2.4-2.528-2.4zM24.256 13.984c0-1.312-1.056-2.4-2.4-2.4s-2.4 1.088-2.4 2.4c0 0.288 0.288 0.544 0.544 0.544s0.544-0.256 0.544-0.544c0-0.8 0.672-1.44 1.472-1.44s1.44 0.64 1.44 1.44-0.64 1.472-1.44 1.472c-0.288 0-0.544 0.288-0.544 0.544s0.256 0.544 0.544 0.544c0.8 0 1.44 0.64 1.44 1.44s-0.64 1.472-1.44 1.472c-0.8 0-1.472-0.672-1.472-1.472 0-0.256-0.288-0.512-0.544-0.512s-0.544 0.256-0.544 0.512c0 1.344 1.088 2.4 2.4 2.4s2.4-1.056 2.4-2.4c0-0.8-0.384-1.44-0.928-1.984 0.544-0.416 0.928-1.216 0.928-2.016zM16 0.672c8.416 0 15.328 6.912 15.328 15.328s-6.912 15.328-15.328 15.328-15.328-6.944-15.328-15.328c0-2.944 0.8-5.856 2.528-8.416 0.256-0.256 0.672-0.384 0.928-0.128 0.288 0.128 0.416 0.544 0.128 0.928-1.44 2.272-2.24 4.8-2.24 7.616 0 7.744 6.24 14.016 13.984 14.016s14.016-6.272 14.016-14.016-6.272-14.016-14.016-14.016c-0.384 0-0.672-0.256-0.672-0.64s0.288-0.672 0.672-0.672z"></path> </svg> 