 <svg version="1.1" xmlns="http://www.w3.org/2000/svg" width="32" height="32" viewBox="0 0 32 32">  <path d="M31.808 8.512l-4-4c-0.064-0.032-0.128-0.096-0.224-0.128-0.032-0.032-0.096-0.032-0.128-0.032-0.064 0-0.096-0.032-0.128-0.032s-0.096 0.032-0.128 0.032c-0.032 0.032-0.096 0.032-0.128 0.032-0.064 0.032-0.16 0.096-0.224 0.16l-3.968 3.968c-0.288 0.288-0.288 0.704 0 0.96s0.672 0.256 0.928 0l2.848-2.848v20.384c0 0.352 0.32 0.672 0.672 0.672s0.672-0.32 0.672-0.672v-20.384l2.848 2.848c0.16 0.128 0.32 0.192 0.48 0.192s0.352-0.064 0.48-0.192c0.256-0.256 0.256-0.672 0-0.96zM3.52 11.040c-0.256-0.096-0.576 0-0.736 0.256l-2.656 4c-0.224 0.32-0.128 0.704 0.16 0.928 0.32 0.192 0.736 0.128 0.928-0.192l1.44-2.176v8.48c0 0.352 0.32 0.672 0.672 0.672s0.672-0.32 0.672-0.672v-10.656c0-0.32-0.192-0.576-0.48-0.64zM10.016 11.008c-1.856 0-3.36 1.472-3.36 3.328 0 0.352 0.32 0.672 0.672 0.672s0.672-0.32 0.672-0.672c0-1.12 0.896-2.016 2.016-2.016s1.984 0.896 1.984 2.016v0.384c0 0.448-0.16 0.896-0.448 1.248l-4.736 5.952c-0.16 0.192-0.192 0.48-0.096 0.704 0.128 0.224 0.352 0.384 0.608 0.384h5.344c0.352 0 0.672-0.32 0.672-0.672s-0.32-0.672-0.672-0.672h-3.936l3.872-4.864c0.48-0.576 0.736-1.312 0.736-2.080v-0.384c0-1.856-1.504-3.328-3.328-3.328zM22.656 14.336c0-1.856-1.472-3.328-3.328-3.328s-3.328 1.472-3.328 3.328c0 0.352 0.288 0.672 0.672 0.672s0.672-0.32 0.672-0.672c0-1.12 0.896-2.016 1.984-2.016s2.016 0.896 2.016 2.016-0.896 1.984-2.016 1.984c-0.352 0-0.672 0.32-0.672 0.672s0.32 0.672 0.672 0.672c1.12 0 2.016 0.896 2.016 2.016s-0.896 1.984-2.016 1.984-1.984-0.896-1.984-1.984c0-0.384-0.32-0.672-0.672-0.672s-0.672 0.288-0.672 0.672c0 1.824 1.504 3.328 3.328 3.328s3.328-1.504 3.328-3.328c0-1.12-0.512-2.080-1.312-2.688 0.8-0.608 1.312-1.568 1.312-2.656z"></path> </svg> 