 <svg version="1.1" xmlns="http://www.w3.org/2000/svg" width="32" height="32" viewBox="0 0 32 32">  <path d="M16 9.344c0.8 0 1.344 0.512 1.344 1.312s-0.544 1.344-1.344 1.344-1.344-0.544-1.344-1.344 0.544-1.312 1.344-1.312zM22.656 12c0.8 0 1.344 0.544 1.344 1.344s-0.544 1.312-1.344 1.312-1.312-0.512-1.312-1.312 0.512-1.344 1.312-1.344zM9.344 12c0.8 0 1.312 0.544 1.312 1.344s-0.512 1.312-1.312 1.312-1.344-0.512-1.344-1.312 0.544-1.344 1.344-1.344zM6.656 17.344c0.8 0 1.344 0.512 1.344 1.312s-0.544 1.344-1.344 1.344-1.312-0.544-1.312-1.344 0.512-1.312 1.312-1.312zM25.344 17.344c0.8 0 1.312 0.512 1.312 1.312s-0.512 1.344-1.312 1.344-1.344-0.544-1.344-1.344 0.544-1.312 1.344-1.312zM18.4 22.272c-0.128-1.088-0.672-2.016-1.6-2.528-0.928-0.544-1.984-0.544-2.944-0.16l-0.384-0.128 6.656-5.312-1.312 8.384-0.416-0.256zM15.456 25.472c-0.512 0-1.184-0.128-1.6-0.416-0.8-0.384-1.312-1.184-1.6-1.984-0.256-0.8-0.128-1.728 0.288-2.528s1.184-1.344 1.984-1.6 1.728-0.16 2.528 0.256c0.8 0.384 1.344 1.184 1.6 1.984 0.288 0.8 0.16 1.76-0.256 2.56s-1.184 1.312-1.984 1.6c-0.416 0-0.672 0.128-0.96 0.128zM15.456 20.128c-0.128 0-0.384 0-0.512 0.128-0.544 0.128-0.928 0.544-1.216 0.928-0.256 0.416-0.384 1.088-0.128 1.472 0.128 0.544 0.544 0.928 0.928 1.216 0.416 0.256 1.088 0.384 1.472 0.256 0.544-0.128 0.928-0.544 1.216-0.928 0.256-0.416 0.384-1.056 0.128-1.472-0.128-0.544-0.544-0.928-0.928-1.184v0c-0.288-0.416-0.544-0.416-0.96-0.416zM28.544 28.672h-25.088l-0.128-0.256c-2.112-2.816-3.328-6.144-3.328-9.76 0-8.8 7.2-16 16-16s16 7.2 16 16c0 3.616-1.184 6.944-3.328 9.76l-0.128 0.256zM4.128 27.328h23.744c1.856-2.528 2.784-5.472 2.784-8.672 0-8.128-6.528-14.656-14.656-14.656s-14.656 6.528-14.656 14.656c0 3.2 0.928 6.144 2.784 8.672z"></path> </svg> 