 <svg version="1.1" xmlns="http://www.w3.org/2000/svg" width="32" height="32" viewBox="0 0 32 32">  <path d="M30.016 5.984h-28c-1.12 0-2.016 0.896-2.016 2.016v16c0 1.088 0.896 1.984 2.016 1.984h28c1.088 0 1.984-0.896 1.984-1.984v-16c0-1.12-0.896-2.016-1.984-2.016zM30.656 24c0 0.352-0.288 0.672-0.64 0.672h-28c-0.384 0-0.672-0.32-0.672-0.672v-16c0-0.384 0.288-0.672 0.672-0.672h28c0.352 0 0.64 0.288 0.64 0.672v16zM12.896 10.048c-0.352-0.128-0.736 0.032-0.864 0.384l-4 10.656c-0.128 0.352 0.064 0.736 0.416 0.864 0.064 0.032 0.128 0.032 0.224 0.032 0.256 0 0.512-0.16 0.608-0.416l4-10.656c0.128-0.352-0.032-0.736-0.384-0.864zM23.584 10.048c-0.352-0.128-0.736 0.032-0.864 0.384l-4 10.656c-0.128 0.352 0.032 0.736 0.384 0.864 0.064 0.032 0.16 0.032 0.224 0.032 0.288 0 0.544-0.16 0.64-0.416l4-10.656c0.128-0.352-0.064-0.736-0.384-0.864zM6.016 20.672h-2.688c-0.352 0-0.672 0.288-0.672 0.672 0 0.352 0.32 0.64 0.672 0.64h2.688c0.352 0 0.64-0.288 0.64-0.64s-0.288-0.672-0.64-0.672zM16.672 20.672h-5.344c-0.352 0-0.672 0.288-0.672 0.672 0 0.352 0.32 0.64 0.672 0.64h5.344c0.352 0 0.672-0.288 0.672-0.64s-0.32-0.672-0.672-0.672zM28.672 20.672h-6.656c-0.384 0-0.672 0.288-0.672 0.672 0 0.352 0.288 0.64 0.672 0.64h6.656c0.352 0 0.672-0.288 0.672-0.64s-0.32-0.672-0.672-0.672z"></path> </svg> 