 <svg version="1.1" xmlns="http://www.w3.org/2000/svg" width="32" height="32" viewBox="0 0 32 32">  <path d="M31.712 14.112c-0.288-0.192-0.704-0.128-0.928 0.16-0.48 0.672-1.984 2.4-3.296 2.4-1.28 0-2.816-1.728-3.296-2.4-0.256-0.352-0.832-0.352-1.088 0-0.48 0.672-1.984 2.4-3.296 2.4s-2.784-1.728-3.264-2.4c-0.128-0.16-0.352-0.288-0.544-0.288-0.224 0-0.416 0.128-0.544 0.288-0.48 0.672-2.016 2.4-3.296 2.4s-2.816-1.728-3.296-2.4c-0.128-0.16-0.32-0.288-0.544-0.288-0.192 0-0.416 0.128-0.544 0.288-0.48 0.672-1.984 2.4-3.264 2.4-1.312 0-2.816-1.728-3.296-2.4-0.224-0.288-0.64-0.352-0.928-0.16-0.32 0.224-0.384 0.64-0.16 0.928 0.224 0.32 2.176 2.944 4.384 2.944 1.568 0 3.040-1.376 3.808-2.24 0.768 0.864 2.24 2.24 3.84 2.24s3.072-1.376 3.84-2.272c0.768 0.896 2.24 2.272 3.808 2.272 1.6 0 3.072-1.376 3.84-2.272 0.768 0.896 2.24 2.272 3.84 2.272 2.208 0 4.16-2.624 4.384-2.944 0.224-0.288 0.16-0.704-0.16-0.928z"></path> </svg> 