 <svg version="1.1" xmlns="http://www.w3.org/2000/svg" width="32" height="32" viewBox="0 0 32 32">  <path d="M12.128 0.256c0.128-0.128 0.416-0.256 0.544-0.256h13.344c1.056 0 1.984 0.928 1.984 1.984v28.032c0 1.056-0.928 1.984-1.984 1.984h-20c-1.088 0-2.016-0.928-2.016-1.984v-21.344c0-0.128 0.128-0.416 0.256-0.544l7.872-7.872zM12 2.272l-5.728 5.728h5.056c0.416 0 0.672-0.256 0.672-0.672v-5.056zM26.016 1.344h-12.672v5.984c0 1.056-0.928 2.016-2.016 2.016h-5.984v20.672c0 0.384 0.256 0.64 0.672 0.64h20c0.384 0 0.64-0.256 0.64-0.64v-28.032c0-0.384-0.256-0.64-0.64-0.64zM8.672 24.672c-0.416 0-0.672-0.288-0.672-0.672s0.256-0.672 0.672-0.672h14.656c0.416 0 0.672 0.256 0.672 0.672s-0.256 0.672-0.672 0.672h-14.656zM8.672 28.672c-0.416 0-0.672-0.256-0.672-0.672s0.256-0.672 0.672-0.672h14.656c0.416 0 0.672 0.288 0.672 0.672s-0.256 0.672-0.672 0.672h-14.656zM8.672 16.672c-0.416 0-0.672-0.288-0.672-0.672s0.256-0.672 0.672-0.672h14.656c0.416 0 0.672 0.256 0.672 0.672s-0.256 0.672-0.672 0.672h-14.656zM8.672 20.672c-0.416 0-0.672-0.288-0.672-0.672s0.256-0.672 0.672-0.672h14.656c0.416 0 0.672 0.256 0.672 0.672s-0.256 0.672-0.672 0.672h-14.656zM16.416 8.672c-0.416 0-0.672-0.288-0.672-0.672s0.256-0.672 0.672-0.672h6.912c0.416 0 0.672 0.256 0.672 0.672s-0.256 0.672-0.672 0.672h-6.912zM8.672 12.672c-0.416 0-0.672-0.288-0.672-0.672s0.256-0.672 0.672-0.672h14.656c0.416 0 0.672 0.256 0.672 0.672s-0.256 0.672-0.672 0.672h-14.656z"></path> </svg> 