 <svg version="1.1" xmlns="http://www.w3.org/2000/svg" width="32" height="32" viewBox="0 0 32 32">  <path d="M5.344 16c0 5.888 4.768 10.656 10.656 10.656s10.656-4.768 10.656-10.656-4.768-10.656-10.656-10.656-10.656 4.768-10.656 10.656zM2.656 16c0-7.36 5.984-13.344 13.344-13.344s13.344 5.984 13.344 13.344-5.984 13.344-13.344 13.344-13.344-5.984-13.344-13.344zM14.656 18.656h-3.328c-0.192 0-0.32 0.064-0.448 0.192s-0.224 0.256-0.224 0.416 0.064 0.288 0.224 0.416l4.64 4.128c0.16 0.128 0.32 0.192 0.48 0.192s0.32-0.064 0.48-0.192l4.64-4.128c0.16-0.128 0.224-0.256 0.224-0.416s-0.064-0.32-0.224-0.416-0.288-0.192-0.448-0.192h-3.328v-9.376c0-0.512-0.608-1.28-1.344-1.28s-1.344 0.736-1.344 1.28v9.376z"></path> </svg> 