 <svg version="1.1" xmlns="http://www.w3.org/2000/svg" width="32" height="32" viewBox="0 0 32 32">  <path d="M28 4.672h-24c-1.824 0-3.328 1.504-3.328 3.328v8c0 1.824 1.504 3.328 3.328 3.328h9.344c0.352 0 0.672-0.288 0.672-0.672s-0.32-0.672-0.672-0.672h-9.344c-1.088 0-1.984-0.896-1.984-1.984v-8c0-1.12 0.896-2.016 1.984-2.016h24c1.12 0 2.016 0.896 2.016 2.016v8c0 1.088-0.896 1.984-2.016 1.984h-9.344c-0.352 0-0.64 0.32-0.64 0.672s0.288 0.672 0.64 0.672h9.344c1.824 0 3.328-1.504 3.328-3.328v-8c0-1.824-1.504-3.328-3.328-3.328zM19.52 22.208l-2.848 2.848v-11.712c0-0.384-0.288-0.672-0.672-0.672s-0.672 0.288-0.672 0.672v11.712l-2.848-2.848c-0.256-0.288-0.704-0.288-0.96 0s-0.256 0.672 0 0.928l4 4c0.128 0.128 0.32 0.192 0.48 0.192s0.352-0.064 0.48-0.192l4-4c0.256-0.256 0.256-0.672 0-0.928-0.256-0.288-0.704-0.288-0.96 0z"></path> </svg> 