 <svg version="1.1" xmlns="http://www.w3.org/2000/svg" width="32" height="32" viewBox="0 0 32 32">  <path d="M1.472 2.272c0 0.416-0.32 0.768-0.736 0.768s-0.736-0.352-0.736-0.768v-1.536c0-0.416 0.32-0.736 0.736-0.736h1.568c0.416 0 0.736 0.32 0.736 0.736s-0.32 0.768-0.736 0.768h-0.8v0.768zM5.376 1.472c-0.416 0-0.736-0.32-0.736-0.736s0.32-0.736 0.736-0.736h2.944c0.416 0 0.768 0.32 0.768 0.736s-0.352 0.768-0.768 0.768h-2.944zM11.296 1.472c-0.416 0-0.736-0.32-0.736-0.736s0.32-0.736 0.736-0.736h2.976c0.416 0 0.736 0.32 0.736 0.736s-0.32 0.768-0.736 0.768h-2.976zM17.248 1.472c-0.416 0-0.768-0.32-0.768-0.736s0.352-0.736 0.768-0.736h2.944c0.416 0 0.768 0.32 0.768 0.736s-0.352 0.736-0.768 0.736h-2.944zM23.936 1.472c-0.416 0-0.768-0.32-0.768-0.736s0.352-0.736 0.768-0.736h1.536c0.416 0 0.736 0.32 0.736 0.736v1.536c0 0.416-0.32 0.768-0.736 0.768s-0.736-0.352-0.736-0.768v-0.8h-0.8zM24.736 5.376c0-0.416 0.32-0.736 0.736-0.736s0.736 0.32 0.736 0.736v2.944c0 0.416-0.32 0.768-0.736 0.768s-0.736-0.352-0.736-0.768v-2.944zM24.736 11.552c0-0.416 0.32-0.736 0.736-0.736s0.736 0.32 0.736 0.736v1.568c0 0.384-0.32 0.736-0.736 0.736s-0.736-0.352-0.736-0.736v-1.568zM14.656 23.168c0.384 0 0.736 0.352 0.736 0.736 0 0.416-0.352 0.768-0.736 0.768h-2.976c-0.416 0-0.736-0.352-0.736-0.768 0-0.384 0.32-0.736 0.736-0.736h2.976zM8.704 23.168c0.416 0 0.736 0.352 0.736 0.736 0 0.416-0.32 0.768-0.736 0.768h-2.944c-0.416 0-0.768-0.352-0.768-0.768 0-0.384 0.352-0.736 0.768-0.736h2.944zM2.272 23.168c0.416 0 0.768 0.352 0.768 0.736 0 0.416-0.352 0.768-0.768 0.768h-1.536c-0.416 0-0.736-0.352-0.736-0.768v-1.536c0-0.416 0.32-0.736 0.736-0.736s0.768 0.32 0.768 0.736v0.8h0.768zM1.472 19.264c0 0.416-0.32 0.768-0.736 0.768s-0.736-0.352-0.736-0.768v-2.944c0-0.416 0.32-0.736 0.736-0.736s0.768 0.32 0.768 0.736v2.944zM1.472 13.344c0 0.416-0.32 0.736-0.736 0.736s-0.736-0.32-0.736-0.736v-2.944c0-0.416 0.32-0.768 0.736-0.768s0.768 0.352 0.768 0.768v2.944zM1.472 7.424c0 0.416-0.32 0.736-0.736 0.736s-0.736-0.32-0.736-0.736v-2.976c0-0.416 0.32-0.736 0.736-0.736s0.768 0.32 0.768 0.736v2.976zM17.568 28.352c-0.928 0.704-2.24 0.064-2.24-1.088v-19.872c0-1.248 1.536-1.856 2.4-0.96l13.888 14.336c0.864 0.896 0.224 2.368-0.992 2.368h-3.136l2.24 4.64c0.352 0.672 0.064 1.472-0.608 1.824l-4.288 2.208c-0.672 0.352-1.536 0.096-1.888-0.608l-2.464-5.088-2.912 2.24zM18.112 24.416l2.048-1.568c0.704-0.544 1.728-0.288 2.112 0.512l2.592 5.312 1.792-0.928-2.624-5.408c-0.448-0.896 0.224-1.984 1.248-1.984h2.080l-9.216-9.536v13.6z"></path> </svg> 