 <svg version="1.1" xmlns="http://www.w3.org/2000/svg" width="32" height="32" viewBox="0 0 32 32">  <path d="M10.432 12.16c-0.192-0.16-0.48-0.224-0.704-0.096-0.256 0.096-0.384 0.352-0.384 0.608v12c0 0.256 0.16 0.512 0.416 0.608 0.224 0.096 0.512 0.032 0.704-0.128l2.016-2.016 2.272 4.512c0.064 0.16 0.224 0.288 0.384 0.32 0.064 0.032 0.128 0.032 0.192 0.032 0.128 0 0.256-0.032 0.352-0.096l2.976-1.728c0.16-0.096 0.288-0.256 0.32-0.416 0.032-0.192 0-0.352-0.096-0.512l-2.368-3.904h2.816c0.288 0 0.544-0.192 0.64-0.448s0-0.544-0.192-0.736l-9.344-8zM15.328 20c-0.224 0-0.448 0.128-0.576 0.352-0.128 0.192-0.128 0.448 0 0.672l2.656 4.32-1.792 1.056-2.336-4.704c-0.096-0.192-0.288-0.32-0.512-0.352-0.032 0-0.064 0-0.096 0-0.192 0-0.352 0.064-0.48 0.192l-1.536 1.504v-8.928l6.88 5.888c0 0-2.208 0-2.208 0zM28.672 4h-25.344c-1.824 0-3.328 1.504-3.328 3.328v8c0 1.856 1.504 3.328 3.328 3.328h4c0.384 0 0.672-0.288 0.672-0.672s-0.288-0.64-0.672-0.64h-4c-1.088 0-1.984-0.896-1.984-2.016v-8c0-1.088 0.896-1.984 1.984-1.984h12.672v3.328c0 0 0 0 0 0v4c0 0 0 0 0 0v1.984c0 0.384 0.288 0.672 0.672 0.672s0.672-0.288 0.672-0.672v-1.728l7.616-7.584h2.112l-9.536 9.504c-0.256 0.288-0.256 0.704 0 0.96 0.128 0.128 0.288 0.192 0.48 0.192s0.32-0.064 0.448-0.192l10.464-10.464c0.544 0.096 1.024 0.384 1.344 0.8-0.032 0.032-0.064 0.032-0.064 0.064l-10.688 10.656c-0.224 0.224-0.224 0.544-0.096 0.8-0.032 0.096-0.096 0.224-0.096 0.32 0 0.384 0.32 0.672 0.672 0.672h8.672c1.824 0 3.328-1.504 3.328-3.328v-8c0-1.824-1.504-3.328-3.328-3.328zM19.072 5.344l-1.728 1.696v-1.696h1.728zM17.344 11.040v-2.112l3.616-3.584h2.112l-5.728 5.696zM27.072 17.344h-2.112l5.696-5.728v2.112l-3.584 3.616zM30.656 7.616v2.112l-7.584 7.616h-2.112l9.696-9.728zM28.96 17.312l1.664-1.664c-0.128 0.832-0.8 1.504-1.664 1.664z"></path> </svg> 