 <svg version="1.1" xmlns="http://www.w3.org/2000/svg" width="32" height="32" viewBox="0 0 32 32">  <path d="M5.824 8.768l0.832 0.096v0.48h-2.656v-0.48l0.864-0.096v-2.688h-0.864v-0.48l1.824-0.256v3.424zM6.048 16.736h-0.992v-0.032l0.704-0.736c0.288-0.32 0.48-0.608 0.608-0.8s0.192-0.416 0.192-0.672c0-0.352-0.096-0.64-0.32-0.832s-0.544-0.32-0.96-0.32c-0.384 0-0.704 0.128-0.928 0.384-0.256 0.224-0.352 0.544-0.352 0.896v0h0.768c0-0.192 0.032-0.352 0.128-0.48s0.224-0.192 0.384-0.192c0.16 0 0.288 0.064 0.384 0.16 0.096 0.128 0.128 0.256 0.128 0.416 0 0.128-0.032 0.256-0.096 0.416-0.096 0.128-0.192 0.32-0.384 0.512l-1.248 1.376v0.512h2.592v-0.992h-0.576l-0.032 0.384zM6.016 23.936c0.192-0.128 0.32-0.256 0.448-0.48s0.16-0.416 0.16-0.64c0-0.48-0.128-0.832-0.384-1.088-0.224-0.256-0.544-0.384-0.96-0.384-0.352 0-0.64 0.128-0.896 0.384s-0.352 0.608-0.352 0.992v0.032h0.768c0-0.192 0.064-0.32 0.16-0.448s0.224-0.16 0.352-0.16c0.16 0 0.288 0.064 0.384 0.16s0.128 0.32 0.128 0.512c0 0.224-0.032 0.416-0.128 0.544s-0.224 0.192-0.416 0.192h-0.448v0.768h0.448c0.192 0 0.352 0.064 0.448 0.192 0.128 0.128 0.16 0.352 0.16 0.608 0 0.224-0.064 0.416-0.16 0.544-0.128 0.128-0.256 0.192-0.448 0.192-0.16 0-0.288-0.064-0.384-0.192s-0.16-0.288-0.16-0.48h-0.736c0 0.48 0.128 0.832 0.384 1.088s0.544 0.384 0.896 0.384c0.416 0 0.736-0.128 0.992-0.416s0.384-0.64 0.384-1.12c0-0.256-0.032-0.512-0.16-0.736-0.096-0.192-0.256-0.352-0.48-0.448zM25.856 14.656h-15.2c-0.736 0-1.312 0.608-1.312 1.344s0.576 1.344 1.312 1.344h15.2c0.736 0 1.344-0.608 1.344-1.344s-0.608-1.344-1.344-1.344zM25.856 22.656h-15.2c-0.736 0-1.312 0.608-1.312 1.344s0.576 1.344 1.312 1.344h15.2c0.736 0 1.344-0.608 1.344-1.344s-0.608-1.344-1.344-1.344zM10.656 9.344h15.2c0.736 0 1.344-0.608 1.344-1.344s-0.608-1.344-1.344-1.344h-15.2c-0.736 0-1.312 0.608-1.312 1.344s0.576 1.344 1.312 1.344z"></path> </svg> 