 <svg version="1.1" xmlns="http://www.w3.org/2000/svg" width="32" height="32" viewBox="0 0 32 32">  <path d="M15.424 8.512v6.816c0 0.672-0.128 1.312-0.384 1.92s-0.608 1.152-1.056 1.6c-0.448 0.416-0.96 0.8-1.568 1.056-0.64 0.256-1.28 0.384-1.92 0.384h-0.64c-0.16 0-0.288-0.064-0.416-0.192s-0.192-0.256-0.192-0.448v-1.248c0-0.16 0.064-0.288 0.192-0.416 0.096-0.128 0.256-0.192 0.416-0.192h0.64c0.672 0 1.248-0.256 1.728-0.736s0.736-1.056 0.736-1.728v-0.32c0-0.256-0.096-0.48-0.288-0.64-0.192-0.192-0.384-0.288-0.64-0.288h-2.176c-0.512 0-0.96-0.16-1.312-0.544-0.384-0.352-0.544-0.8-0.544-1.312v-3.712c0-0.512 0.16-0.96 0.544-1.312 0.352-0.352 0.8-0.544 1.312-0.544h3.712c0.512 0 0.96 0.192 1.312 0.544 0.384 0.384 0.544 0.8 0.544 1.312zM24.096 8.512v6.816c0 0.672-0.128 1.312-0.384 1.92s-0.608 1.152-1.056 1.6c-0.448 0.416-0.96 0.8-1.6 1.056-0.608 0.256-1.248 0.384-1.92 0.384h-0.608c-0.16 0-0.288-0.064-0.448-0.192s-0.16-0.256-0.16-0.448v-1.248c0-0.16 0.064-0.288 0.16-0.416 0.128-0.128 0.288-0.192 0.448-0.192h0.608c0.704 0 1.28-0.256 1.76-0.736s0.704-1.056 0.704-1.728v-0.32c0-0.256-0.064-0.48-0.256-0.64s-0.384-0.288-0.64-0.288h-2.176c-0.512 0-0.96-0.16-1.312-0.544-0.352-0.352-0.544-0.8-0.544-1.312v-3.712c0-0.512 0.192-0.96 0.544-1.312s0.8-0.544 1.312-0.544h3.712c0.544 0 0.96 0.192 1.344 0.544 0.352 0.384 0.512 0.8 0.512 1.312z"></path> </svg> 