 <svg version="1.1" xmlns="http://www.w3.org/2000/svg" width="32" height="32" viewBox="0 0 32 32">  <path d="M15.008 22.72c0.512 0.224 0.992 0.352 1.44 0.352 2.592 0 3.872-1.248 3.872-3.744 0-0.864-0.16-1.536-0.416-2.016-0.192-0.352-0.416-0.608-0.64-0.832s-0.48-0.416-0.704-0.512c-0.224-0.128-0.512-0.224-0.832-0.288s-0.608-0.096-0.864-0.128c-0.256 0-0.576-0.032-0.96-0.032-0.512 0-0.864 0.064-1.056 0.128 0 0.384 0 0.992 0 1.76 0 0.8 0 1.376 0 1.792 0 0.032 0 0.288 0 0.736s-0.032 0.8 0 1.088c0 0.288 0 0.576 0.032 0.928s0.064 0.608 0.128 0.768zM14.944 14.528c0.32 0.032 0.736 0.064 1.28 0.064 0.64 0 1.184-0.032 1.664-0.128s0.928-0.256 1.312-0.48c0.384-0.192 0.64-0.512 0.864-0.896 0.192-0.416 0.288-0.896 0.288-1.472 0-0.48-0.096-0.896-0.352-1.248-0.224-0.352-0.512-0.64-0.896-0.832s-0.832-0.352-1.28-0.448-0.928-0.128-1.44-0.128c-0.384 0-0.896 0.032-1.536 0.128 0 0.352 0.032 0.832 0.064 1.536s0.064 1.216 0.064 1.568c0 0.192 0 0.448 0 0.8s0 0.64 0 0.832c-0.064 0.288-0.064 0.544-0.032 0.704zM9.344 24l0.032-0.96c0.096-0.032 0.384-0.096 0.864-0.16s0.864-0.192 1.12-0.288c0.032-0.096 0.096-0.192 0.128-0.288s0.064-0.224 0.096-0.352 0.032-0.224 0.032-0.32 0.032-0.224 0.032-0.384 0-0.288 0-0.384v-0.672c0-6.816-0.064-10.368-0.224-10.688-0.032-0.032-0.096-0.096-0.224-0.128s-0.288-0.096-0.48-0.128-0.352-0.064-0.512-0.064-0.32-0.032-0.512-0.064-0.256 0-0.32 0l-0.032-0.896c0.672 0 1.856-0.032 3.552-0.096s2.976-0.128 3.904-0.128c0.16 0 0.384 0 0.704 0s0.544 0 0.704 0c0.48 0 0.96 0.032 1.44 0.128s0.896 0.256 1.312 0.448c0.448 0.192 0.8 0.448 1.12 0.736s0.576 0.64 0.8 1.088 0.288 0.896 0.288 1.44c0 0.352-0.064 0.672-0.192 0.992s-0.256 0.544-0.384 0.736-0.384 0.416-0.672 0.608-0.544 0.352-0.768 0.448-0.512 0.256-0.864 0.416c1.056 0.256 1.952 0.704 2.656 1.408s1.056 1.536 1.056 2.592c0 0.704-0.096 1.312-0.352 1.856s-0.576 1.024-0.96 1.376-0.896 0.64-1.44 0.896-1.12 0.416-1.728 0.512-1.184 0.128-1.824 0.128c-0.32 0-0.768 0-1.376-0.032s-1.056-0.032-1.376-0.032c-0.736 0-1.792 0.064-3.2 0.128s-2.208 0.128-2.4 0.128z"></path> </svg> 