 <svg version="1.1" xmlns="http://www.w3.org/2000/svg" width="32" height="32" viewBox="0 0 32 32">  <path d="M8.512 8.96c-0.256 0-0.416 0-0.48-0.032l-0.032-0.896c0.096-0.032 0.224-0.032 0.416-0.032 0.416 0 0.8 0.032 1.184 0.064 0.896 0.032 1.472 0.064 1.728 0.064 0.608 0 1.184-0.032 1.728-0.032 0.8-0.032 1.312-0.032 1.536-0.064 0.384 0 0.704 0 0.896-0.032l-0.032 0.16 0.032 0.64v0.096c-0.416 0.064-0.832 0.096-1.28 0.096-0.416 0-0.704 0.096-0.832 0.256-0.096 0.096-0.128 0.544-0.128 1.376 0 0.096 0 0.192 0 0.32s0 0.224 0 0.256v2.368l0.16 2.88c0.032 0.864 0.192 1.536 0.512 2.080 0.256 0.416 0.576 0.736 1.024 0.96 0.608 0.32 1.216 0.48 1.824 0.48 0.736 0 1.408-0.096 1.984-0.288 0.384-0.128 0.736-0.32 1.024-0.544 0.352-0.256 0.576-0.448 0.704-0.64 0.256-0.384 0.416-0.768 0.544-1.184 0.128-0.512 0.192-1.28 0.192-2.368 0-0.544 0-0.96-0.032-1.312s-0.064-0.768-0.128-1.248c-0.032-0.512-0.096-1.056-0.128-1.664l-0.032-0.608c-0.064-0.448-0.128-0.768-0.256-0.896-0.256-0.256-0.512-0.352-0.8-0.352l-1.056 0.032-0.128-0.032v-0.864h0.896l2.144 0.096c0.512 0.032 1.184-0.032 2.016-0.096h0.192c0.032 0.288 0.064 0.448 0.064 0.544 0 0.032 0 0.16-0.032 0.32-0.32 0.064-0.608 0.128-0.896 0.128-0.48 0.064-0.768 0.128-0.8 0.16-0.128 0.128-0.16 0.256-0.16 0.448 0 0.032 0 0.128 0 0.256s0 0.256 0 0.32c0.064 0.128 0.16 1.504 0.256 4.096 0.032 1.312-0.032 2.368-0.16 3.136-0.128 0.512-0.256 0.928-0.448 1.248-0.256 0.448-0.64 0.864-1.152 1.248-0.544 0.416-1.152 0.704-1.92 0.928-0.736 0.224-1.632 0.352-2.656 0.352-1.152 0-2.144-0.16-2.944-0.48-0.832-0.32-1.44-0.768-1.856-1.28-0.448-0.512-0.704-1.184-0.864-1.984-0.128-0.576-0.16-1.376-0.16-2.464v-3.392c0-1.312-0.064-2.048-0.192-2.208-0.128-0.256-0.64-0.384-1.472-0.416zM24 23.744c0 0.096-0.032 0.128-0.096 0.192s-0.128 0.064-0.224 0.064h-15.36c-0.064 0-0.16-0.032-0.224-0.064s-0.096-0.096-0.096-0.192v-0.448c0-0.064 0.032-0.128 0.096-0.192s0.16-0.064 0.224-0.064h15.36c0.096 0 0.16 0.032 0.224 0.064s0.096 0.128 0.096 0.192v0.448z"></path> </svg> 