 <svg version="1.1" xmlns="http://www.w3.org/2000/svg" width="32" height="32" viewBox="0 0 32 32">  <path d="M18.56 16.672l5.056-5.056c0.512-0.512 0.512-1.376 0-1.888-0.544-0.512-1.376-0.512-1.888 0l-5.056 5.056-5.056-5.056c-0.512-0.544-1.376-0.544-1.888 0-0.256 0.256-0.384 0.576-0.384 0.928s0.128 0.704 0.384 0.96l5.056 5.056-5.056 5.056c-0.512 0.512-0.512 1.344 0 1.856 0.288 0.288 0.608 0.416 0.96 0.416s0.672-0.16 0.928-0.416l5.056-5.024 5.056 5.024c0.288 0.288 0.608 0.416 0.96 0.416s0.672-0.16 0.928-0.416c0.288-0.256 0.384-0.576 0.384-0.928s-0.128-0.672-0.384-0.96l-5.056-5.024z"></path> </svg> 