 <svg version="1.1" xmlns="http://www.w3.org/2000/svg" width="32" height="32" viewBox="0 0 32 32">  <path d="M12.256 20.096l-2.496 2.496c-0.064 0.032-0.128 0.096-0.224 0.096s-0.16-0.032-0.224-0.096c-0.064-0.064-0.096-0.128-0.096-0.224s0.032-0.16 0.096-0.224l2.464-2.496c0.064-0.064 0.16-0.096 0.224-0.096s0.16 0.032 0.256 0.096c0.032 0.064 0.064 0.128 0.064 0.224s0 0.16-0.064 0.224zM13.888 20.48v3.104c0 0.096-0.032 0.16-0.096 0.256-0.064 0.032-0.128 0.064-0.224 0.064s-0.16 0-0.224-0.064-0.096-0.16-0.096-0.256v-3.072c0-0.096 0.032-0.16 0.096-0.224 0.032-0.064 0.128-0.096 0.224-0.096s0.16 0.032 0.224 0.096c0.064 0.032 0.096 0.128 0.096 0.192zM11.712 18.336c0 0.096-0.032 0.16-0.096 0.224-0.032 0.064-0.128 0.096-0.224 0.096h-3.072c-0.096 0-0.16-0.032-0.224-0.096s-0.096-0.128-0.096-0.224 0-0.16 0.096-0.224c0.032-0.064 0.128-0.096 0.224-0.096h3.072c0.096 0 0.16 0.032 0.224 0.096s0.096 0.128 0.096 0.224zM23.936 19.584c0 0.768-0.256 1.408-0.8 1.952l-1.44 1.408c-0.544 0.544-1.184 0.8-1.952 0.8-0.8 0-1.44-0.288-1.984-0.832l-3.232-3.232c-0.128-0.128-0.256-0.32-0.384-0.544l2.304-0.16 2.624 2.656c0.192 0.16 0.416 0.256 0.672 0.256s0.48-0.064 0.64-0.256l1.44-1.408c0.192-0.192 0.256-0.384 0.256-0.64s-0.096-0.48-0.256-0.672l-2.656-2.656 0.16-2.304c0.224 0.128 0.416 0.288 0.544 0.416l3.264 3.232c0.544 0.544 0.8 1.216 0.8 1.984zM17.984 12.576l-2.304 0.16-2.656-2.656c-0.192-0.16-0.384-0.256-0.64-0.256s-0.48 0.096-0.672 0.256l-1.44 1.408c-0.192 0.192-0.256 0.416-0.256 0.672 0 0.224 0.096 0.48 0.256 0.64l2.656 2.656-0.16 2.304c-0.224-0.128-0.416-0.256-0.544-0.384l-3.264-3.264c-0.544-0.544-0.8-1.216-0.8-1.952 0-0.8 0.256-1.44 0.8-1.984l1.44-1.408c0.544-0.544 1.184-0.8 1.952-0.8 0.8 0 1.44 0.288 1.984 0.832l3.232 3.232c0.128 0.128 0.288 0.32 0.416 0.544zM24.096 13.376c0 0.096-0.032 0.16-0.096 0.224s-0.128 0.096-0.224 0.096h-3.104c-0.096 0-0.16-0.032-0.224-0.096-0.032-0.032-0.096-0.128-0.096-0.224s0.032-0.16 0.096-0.224c0.064-0.032 0.128-0.096 0.224-0.096h3.104c0.096 0 0.16 0.032 0.224 0.096s0.096 0.128 0.096 0.224zM18.816 8.128v3.072c0 0.096 0 0.16-0.096 0.224-0.032 0.064-0.128 0.096-0.224 0.096s-0.16 0-0.224-0.096c-0.032-0.032-0.096-0.128-0.096-0.224v-3.072c0-0.096 0.032-0.16 0.096-0.224s0.128-0.096 0.224-0.096c0.096 0 0.16 0.032 0.224 0.096 0.096 0.064 0.096 0.128 0.096 0.224zM22.784 9.568l-2.496 2.496c-0.064 0.032-0.128 0.096-0.224 0.096-0.064 0-0.128-0.032-0.224-0.096-0.064-0.064-0.096-0.16-0.096-0.224s0.032-0.16 0.096-0.256l2.496-2.464c0.064-0.064 0.128-0.096 0.224-0.096s0.16 0.032 0.224 0.096c0.032 0.064 0.096 0.128 0.096 0.224s-0.064 0.16-0.096 0.224z"></path> </svg> 