 <svg version="1.1" xmlns="http://www.w3.org/2000/svg" width="32" height="32" viewBox="0 0 32 32">  <path d="M20.192 22.656c-0.32 0-0.768 0-1.376-0.032s-1.088-0.032-1.408-0.032c-0.288 0-0.768 0-1.376 0.032s-1.056 0.032-1.376 0.032c-0.16 0-0.288-0.064-0.384-0.192s-0.128-0.32-0.128-0.48c0-0.224 0.064-0.384 0.192-0.48s0.224-0.16 0.384-0.192 0.32-0.032 0.544-0.064 0.352-0.096 0.448-0.16c0.224-0.128 0.352-0.608 0.352-1.44v-4.064c0-0.16 0-0.256-0.032-0.32-0.096-0.032-0.256-0.064-0.512-0.064h-7.008c-0.256 0-0.448 0.032-0.544 0.064 0 0.064 0 0.16 0 0.32l-0.032 3.84c0 0.992 0.16 1.568 0.384 1.728 0.128 0.064 0.288 0.128 0.512 0.128s0.448 0.032 0.608 0.032 0.32 0.064 0.48 0.16 0.192 0.256 0.192 0.48c0 0.192-0.032 0.352-0.128 0.512s-0.224 0.192-0.384 0.192c-0.32 0-0.8 0-1.44-0.032s-1.12-0.032-1.44-0.032c-0.32 0-0.768 0-1.344 0.032s-1.024 0.032-1.312 0.032c-0.16 0-0.288-0.064-0.384-0.192s-0.128-0.32-0.128-0.48c0-0.224 0.064-0.352 0.16-0.48s0.224-0.16 0.384-0.16 0.288-0.064 0.48-0.096 0.32-0.096 0.448-0.16c0.224-0.16 0.352-0.64 0.352-1.504l-0.032-0.576v-8.448c0-0.032 0-0.128 0-0.288s0-0.288 0-0.384 0-0.224 0-0.384-0.032-0.32-0.064-0.448-0.032-0.256-0.064-0.384-0.064-0.256-0.096-0.352-0.128-0.128-0.16-0.16c-0.128-0.096-0.288-0.128-0.48-0.128s-0.384-0.032-0.544-0.032-0.32-0.064-0.416-0.16-0.192-0.256-0.192-0.448c0-0.192 0.032-0.352 0.128-0.512s0.192-0.224 0.352-0.224c0.32 0 0.8 0 1.44 0.032s1.12 0.032 1.44 0.032c0.288 0 0.736 0 1.312-0.032s1.056-0.032 1.344-0.032c0.16 0 0.288 0.096 0.384 0.224s0.128 0.32 0.128 0.512c0 0.224-0.064 0.352-0.16 0.448s-0.256 0.16-0.416 0.16-0.32 0.032-0.512 0.032-0.352 0.064-0.448 0.128-0.384 0.704-0.384 1.664l0.032 3.36c0 0.128 0 0.256 0 0.32 0.096 0.032 0.224 0.032 0.416 0.032h7.264c0.192 0 0.32-0.032 0.416-0.032 0-0.064 0-0.192 0-0.32l0.032-3.36c0-0.96-0.128-1.504-0.384-1.664-0.096-0.064-0.32-0.096-0.608-0.128s-0.512-0.032-0.704-0.128-0.256-0.256-0.256-0.512c0-0.192 0.032-0.352 0.128-0.512s0.224-0.224 0.384-0.224c0.32 0 0.768 0 1.376 0.032s1.088 0.032 1.376 0.032c0.288 0 0.768 0 1.344-0.032s1.056-0.032 1.344-0.032c0.192 0 0.32 0.064 0.384 0.224s0.16 0.32 0.16 0.512c0 0.192-0.064 0.352-0.192 0.448s-0.288 0.16-0.416 0.16-0.352 0-0.544 0-0.352 0.064-0.448 0.16c-0.224 0.16-0.352 0.704-0.352 1.664v9.824c0 0.832 0.128 1.312 0.352 1.472 0.128 0.064 0.288 0.096 0.48 0.128s0.416 0.032 0.576 0.064 0.32 0.064 0.416 0.16 0.192 0.256 0.192 0.448c0 0.192-0.032 0.352-0.128 0.512s-0.224 0.224-0.384 0.224zM25.056 12.352c-0.288 0-0.544 0.064-0.768 0.192s-0.416 0.288-0.512 0.48c0.096 0.096 0.192 0.256 0.224 0.416s0.064 0.288 0.064 0.384c0 0.096 0 0.224-0.064 0.352s-0.096 0.224-0.16 0.32c-0.096 0.128-0.224 0.192-0.352 0.256s-0.288 0.128-0.512 0.128c-0.16 0-0.288-0.064-0.416-0.128s-0.224-0.128-0.32-0.256c-0.096-0.096-0.16-0.224-0.224-0.352s-0.064-0.32-0.064-0.448c0-0.16 0.064-0.352 0.128-0.512s0.16-0.384 0.288-0.576 0.288-0.352 0.512-0.544c0.192-0.16 0.416-0.32 0.672-0.448s0.544-0.224 0.864-0.32 0.672-0.096 1.024-0.096c0.448 0 0.864 0.032 1.28 0.16s0.832 0.256 1.184 0.512 0.608 0.544 0.832 0.928 0.32 0.864 0.32 1.408c0 0.256-0.064 0.544-0.16 0.832s-0.288 0.64-0.544 0.992-0.608 0.768-1.056 1.216-1.056 0.96-1.792 1.536c-0.288 0.256-0.544 0.48-0.768 0.704s-0.384 0.416-0.512 0.64-0.256 0.352-0.352 0.512-0.128 0.288-0.128 0.384l3.232 0.096c0.16 0 0.32-0.032 0.448-0.064s0.256-0.064 0.352-0.16 0.16-0.192 0.224-0.32 0.064-0.288 0.064-0.512h1.024l-0.128 2.592h-7.008c0-0.544 0.064-1.024 0.224-1.472s0.32-0.832 0.544-1.184 0.512-0.672 0.8-0.992 0.608-0.576 0.928-0.864c0.384-0.384 0.704-0.704 0.992-1.024s0.48-0.64 0.64-0.96c0.192-0.288 0.32-0.576 0.384-0.864s0.128-0.576 0.128-0.864c0-0.256-0.032-0.512-0.064-0.768s-0.128-0.48-0.256-0.672-0.256-0.352-0.448-0.48c-0.224-0.096-0.448-0.16-0.768-0.16z"></path> </svg> 