 <svg version="1.1" xmlns="http://www.w3.org/2000/svg" width="32" height="32" viewBox="0 0 32 32">  <path d="M20.192 22.656c-0.32 0-0.768 0-1.376-0.032-0.64-0.032-1.088-0.032-1.408-0.032-0.288 0-0.768 0-1.376 0.032s-1.056 0.032-1.376 0.032c-0.16 0-0.288-0.064-0.384-0.192-0.096-0.16-0.128-0.32-0.128-0.48 0-0.224 0.064-0.384 0.192-0.48 0.096-0.128 0.224-0.16 0.384-0.192 0.16 0 0.32-0.032 0.544-0.064 0.192-0.032 0.352-0.096 0.448-0.16 0.224-0.128 0.352-0.608 0.352-1.44v-4.064c0-0.16 0-0.256-0.032-0.32-0.096-0.032-0.256-0.064-0.512-0.064h-7.008c-0.256 0-0.448 0.032-0.544 0.064 0 0.064 0 0.16 0 0.32l-0.032 3.84c0 0.992 0.16 1.568 0.384 1.728 0.128 0.064 0.288 0.128 0.512 0.128 0.224 0.032 0.448 0.032 0.608 0.032s0.32 0.064 0.48 0.16c0.128 0.128 0.192 0.256 0.192 0.48 0 0.192-0.032 0.352-0.128 0.512s-0.224 0.224-0.384 0.224c-0.32 0-0.8 0-1.44-0.032s-1.12-0.032-1.44-0.032c-0.32 0-0.768 0-1.344 0.032s-1.024 0.032-1.312 0.032c-0.16 0-0.288-0.064-0.384-0.224-0.096-0.128-0.128-0.288-0.128-0.448 0-0.224 0.064-0.352 0.16-0.48 0.096-0.096 0.224-0.16 0.384-0.192 0.128 0 0.288-0.032 0.48-0.064s0.32-0.096 0.448-0.16c0.224-0.16 0.352-0.64 0.352-1.504l-0.032-0.576v-8.48c0-0.032 0-0.128 0-0.288s0-0.288 0-0.384c0-0.096 0-0.224 0-0.384-0.032-0.192-0.032-0.32-0.064-0.448 0-0.128-0.032-0.256-0.064-0.384 0-0.128-0.064-0.256-0.096-0.352-0.064-0.064-0.128-0.128-0.16-0.16-0.128-0.096-0.288-0.128-0.48-0.128-0.224-0.032-0.384-0.032-0.544-0.032s-0.32-0.064-0.416-0.16c-0.128-0.096-0.192-0.256-0.192-0.448s0.032-0.352 0.128-0.512c0.064-0.16 0.192-0.224 0.352-0.224 0.32 0 0.8 0 1.44 0.032s1.12 0.032 1.44 0.032c0.288 0 0.736 0 1.312-0.032 0.608-0.032 1.056-0.032 1.344-0.032 0.16 0 0.288 0.064 0.384 0.224s0.128 0.32 0.128 0.512c0 0.192-0.064 0.352-0.16 0.448-0.128 0.096-0.256 0.16-0.416 0.16s-0.32 0-0.512 0.032c-0.192 0.032-0.352 0.064-0.448 0.128-0.256 0.16-0.384 0.704-0.384 1.664l0.032 3.328c0 0.16 0 0.256 0 0.352 0.096 0 0.224 0 0.416 0h7.264c0.192 0 0.32 0 0.416 0 0-0.096 0-0.192 0-0.352l0.032-3.328c0-0.96-0.128-1.504-0.384-1.664-0.096-0.096-0.32-0.128-0.608-0.128s-0.512-0.064-0.704-0.128c-0.16-0.096-0.256-0.256-0.256-0.544 0-0.16 0.032-0.32 0.128-0.48s0.224-0.256 0.384-0.256c0.32 0 0.768 0.032 1.376 0.064s1.088 0.032 1.376 0.032c0.288 0 0.768 0 1.344-0.032 0.608-0.032 1.056-0.064 1.344-0.064 0.192 0 0.32 0.096 0.384 0.256 0.096 0.128 0.16 0.32 0.16 0.48 0 0.224-0.064 0.384-0.192 0.48-0.128 0.064-0.288 0.128-0.416 0.128-0.16 0-0.352 0.032-0.544 0.032s-0.352 0.064-0.448 0.128c-0.224 0.16-0.352 0.736-0.352 1.696v9.824c0 0.832 0.128 1.312 0.352 1.44 0.128 0.064 0.288 0.128 0.48 0.16 0.224 0.032 0.416 0.032 0.576 0.032 0.16 0.032 0.32 0.064 0.416 0.16 0.128 0.128 0.192 0.256 0.192 0.48 0 0.192-0.032 0.352-0.128 0.512s-0.224 0.224-0.384 0.224zM21.888 20.704c0-0.16 0.032-0.32 0.096-0.48 0.032-0.16 0.128-0.288 0.224-0.384s0.192-0.192 0.352-0.256c0.128-0.064 0.288-0.096 0.448-0.096 0.192 0 0.352 0.032 0.48 0.096s0.224 0.16 0.288 0.256 0.16 0.224 0.192 0.32 0.032 0.256 0.032 0.352c0 0.096 0 0.224-0.032 0.352-0.032 0.16-0.128 0.288-0.192 0.384 0.064 0.096 0.128 0.192 0.224 0.256 0.096 0.096 0.224 0.16 0.352 0.224 0.128 0.032 0.256 0.096 0.416 0.096 0.128 0.032 0.288 0.064 0.448 0.064 0.32 0 0.64-0.064 0.864-0.16 0.256-0.128 0.48-0.256 0.64-0.448s0.288-0.416 0.384-0.672 0.128-0.544 0.128-0.832c0-0.288-0.032-0.576-0.096-0.832-0.064-0.288-0.192-0.544-0.384-0.768s-0.416-0.384-0.736-0.512c-0.32-0.16-0.672-0.224-1.152-0.224-0.032 0-0.096 0-0.16 0s-0.128 0-0.224 0c-0.096 0-0.16 0.032-0.256 0.032-0.064 0-0.128 0-0.192 0v-1.152c0.064 0.032 0.128 0.032 0.16 0.032s0.064 0 0.128 0c0.768 0 1.376-0.16 1.792-0.512 0.416-0.384 0.64-0.896 0.64-1.568 0-0.288-0.032-0.512-0.096-0.736-0.032-0.224-0.128-0.416-0.256-0.576s-0.288-0.256-0.48-0.352-0.384-0.128-0.672-0.128c-0.128 0-0.288 0-0.416 0.032s-0.256 0.096-0.352 0.16-0.192 0.128-0.288 0.192c-0.096 0.096-0.16 0.16-0.192 0.256 0.096 0.128 0.16 0.256 0.192 0.416 0.032 0.128 0.064 0.288 0.064 0.384s-0.032 0.224-0.064 0.32-0.096 0.224-0.192 0.32c-0.064 0.128-0.192 0.192-0.32 0.288-0.16 0.064-0.32 0.096-0.512 0.096s-0.32-0.032-0.448-0.096-0.224-0.16-0.32-0.256c-0.064-0.128-0.16-0.224-0.192-0.384-0.032-0.128-0.064-0.288-0.064-0.448 0-0.224 0.064-0.48 0.192-0.768 0.16-0.288 0.352-0.544 0.64-0.8s0.64-0.448 1.056-0.608c0.416-0.16 0.896-0.256 1.472-0.256 0.48 0 0.96 0.032 1.376 0.128 0.448 0.096 0.832 0.288 1.152 0.512s0.576 0.512 0.768 0.864c0.16 0.352 0.256 0.8 0.256 1.312 0 0.224-0.032 0.448-0.128 0.704-0.064 0.256-0.224 0.512-0.416 0.736-0.192 0.256-0.416 0.448-0.736 0.64s-0.672 0.352-1.12 0.448v0.032c0.512 0.096 0.96 0.224 1.344 0.416 0.352 0.192 0.672 0.416 0.928 0.672 0.224 0.288 0.416 0.576 0.544 0.864 0.128 0.32 0.16 0.64 0.16 0.992 0 0.544-0.096 1.024-0.32 1.472s-0.512 0.768-0.896 1.056c-0.384 0.288-0.8 0.512-1.344 0.64s-1.088 0.224-1.728 0.224c-0.608 0-1.12-0.064-1.568-0.192s-0.8-0.32-1.056-0.544-0.512-0.48-0.64-0.768c-0.128-0.288-0.192-0.576-0.192-0.832z"></path> </svg> 