 <svg version="1.1" xmlns="http://www.w3.org/2000/svg" width="32" height="32" viewBox="0 0 32 32">  <path d="M28.544 16c0 0.736-0.608 1.344-1.344 1.344h-15.2c-0.736 0-1.344-0.608-1.344-1.344s0.608-1.344 1.344-1.344h15.2c0.736 0 1.344 0.608 1.344 1.344zM27.2 22.656h-15.2c-0.736 0-1.344 0.608-1.344 1.344s0.608 1.344 1.344 1.344h15.2c0.736 0 1.344-0.608 1.344-1.344s-0.608-1.344-1.344-1.344zM12 9.344h15.2c0.736 0 1.344-0.608 1.344-1.344s-0.608-1.344-1.344-1.344h-15.2c-0.736 0-1.344 0.608-1.344 1.344s0.608 1.344 1.344 1.344zM6.016 5.984c-1.12 0-2.016 0.896-2.016 2.016s0.896 1.984 2.016 1.984c1.088 0 1.984-0.864 1.984-1.984s-0.896-2.016-1.984-2.016zM6.016 21.984c-1.12 0-2.016 0.896-2.016 2.016s0.896 1.984 2.016 1.984c1.088 0 1.984-0.864 1.984-1.984s-0.896-2.016-1.984-2.016zM6.016 13.92c-1.12 0-2.016 0.896-2.016 1.984 0 1.12 0.896 2.016 2.016 2.016 1.088 0 1.984-0.896 1.984-2.016 0-1.088-0.896-1.984-1.984-1.984z"></path> </svg> 