 <svg version="1.1" xmlns="http://www.w3.org/2000/svg" width="32" height="32" viewBox="0 0 32 32">  <path d="M20.192 22.656c-0.32 0-0.768 0-1.376-0.032s-1.088-0.032-1.408-0.032c-0.288 0-0.768 0-1.376 0.032s-1.056 0.032-1.376 0.032c-0.16 0-0.288-0.064-0.384-0.192s-0.128-0.32-0.128-0.48c0-0.224 0.064-0.384 0.192-0.48s0.224-0.16 0.384-0.192 0.32-0.032 0.544-0.064 0.352-0.096 0.448-0.16c0.224-0.128 0.352-0.608 0.352-1.44v-4.064c0-0.16 0-0.256-0.032-0.32-0.096-0.032-0.256-0.064-0.512-0.064h-7.008c-0.256 0-0.448 0.032-0.544 0.064 0 0.064 0 0.16 0 0.32l-0.032 3.84c0 0.992 0.16 1.568 0.384 1.728 0.128 0.064 0.288 0.128 0.512 0.128s0.448 0.032 0.608 0.032 0.32 0.064 0.48 0.16 0.192 0.256 0.192 0.48c0 0.192-0.032 0.352-0.128 0.512s-0.224 0.192-0.384 0.192c-0.32 0-0.8 0-1.44-0.032s-1.12-0.032-1.44-0.032c-0.32 0-0.768 0-1.344 0.032s-1.024 0.032-1.312 0.032c-0.16 0-0.288-0.064-0.384-0.192s-0.128-0.32-0.128-0.48c0-0.224 0.064-0.352 0.16-0.48s0.224-0.16 0.384-0.16 0.288-0.064 0.48-0.096 0.32-0.096 0.448-0.16c0.224-0.16 0.352-0.64 0.352-1.504l-0.032-0.576v-8.448c0-0.032 0-0.128 0-0.288s0-0.288 0-0.384 0-0.224 0-0.384-0.032-0.32-0.064-0.448-0.032-0.256-0.064-0.384-0.064-0.256-0.096-0.352-0.128-0.128-0.16-0.16c-0.128-0.096-0.288-0.128-0.48-0.128s-0.384-0.032-0.544-0.032-0.32-0.064-0.416-0.16-0.192-0.256-0.192-0.448c0-0.192 0.032-0.352 0.128-0.512s0.192-0.224 0.352-0.224c0.32 0 0.8 0 1.44 0.032s1.12 0.032 1.44 0.032c0.288 0 0.736 0 1.312-0.032s1.056-0.032 1.344-0.032c0.16 0 0.288 0.096 0.384 0.224s0.128 0.32 0.128 0.512c0 0.224-0.064 0.352-0.16 0.448s-0.256 0.16-0.416 0.16-0.32 0.032-0.512 0.032-0.352 0.064-0.448 0.128-0.384 0.704-0.384 1.664l0.032 3.36c0 0.128 0 0.256 0 0.32 0.096 0.032 0.224 0.032 0.416 0.032h7.264c0.192 0 0.32-0.032 0.416-0.032 0-0.064 0-0.192 0-0.32l0.032-3.36c0-0.96-0.128-1.504-0.384-1.664-0.096-0.064-0.32-0.096-0.608-0.128s-0.512-0.032-0.704-0.128-0.256-0.256-0.256-0.512c0-0.192 0.032-0.352 0.128-0.512s0.224-0.224 0.384-0.224c0.32 0 0.768 0 1.376 0.032s1.088 0.032 1.376 0.032c0.288 0 0.768 0 1.344-0.032s1.056-0.032 1.344-0.032c0.192 0 0.32 0.064 0.384 0.224s0.16 0.32 0.16 0.512c0 0.192-0.064 0.352-0.192 0.448s-0.288 0.16-0.416 0.16-0.352 0-0.544 0-0.352 0.064-0.448 0.16c-0.224 0.16-0.352 0.704-0.352 1.664v9.824c0 0.832 0.128 1.312 0.352 1.472 0.128 0.064 0.288 0.096 0.48 0.128s0.416 0.032 0.576 0.064 0.32 0.064 0.416 0.16 0.192 0.256 0.192 0.448c0 0.192-0.032 0.352-0.128 0.512s-0.224 0.224-0.384 0.224zM23.968 21.184c0.032 0.096 0.128 0.192 0.192 0.256s0.224 0.128 0.32 0.192 0.256 0.096 0.384 0.128 0.256 0.032 0.352 0.032c0.32 0 0.608-0.064 0.832-0.192s0.384-0.32 0.544-0.544 0.224-0.448 0.288-0.704 0.096-0.544 0.096-0.832c0-0.16 0-0.352 0-0.544s-0.032-0.384-0.096-0.576c-0.032-0.224-0.096-0.416-0.16-0.608s-0.224-0.384-0.352-0.512-0.32-0.288-0.512-0.384-0.48-0.16-0.8-0.16c-0.224 0-0.512 0.064-0.832 0.128s-0.704 0.256-1.088 0.48l-0.672-0.544-0.064-5.344h4.16c0.192 0 0.352 0 0.48-0.032s0.288-0.064 0.416-0.16 0.16-0.16 0.224-0.32 0.096-0.32 0.096-0.512h0.992l-0.128 2.592-5.024 0.096v2.848c0.128-0.064 0.256-0.128 0.416-0.16s0.32-0.096 0.512-0.128 0.352-0.064 0.512-0.064 0.352-0.032 0.512-0.032c0.672 0 1.248 0.096 1.728 0.288s0.864 0.448 1.184 0.8 0.576 0.704 0.736 1.152 0.224 0.896 0.224 1.344c0 0.608-0.096 1.152-0.32 1.632s-0.544 0.864-0.96 1.184-0.8 0.544-1.312 0.704-0.992 0.224-1.504 0.224c-0.544 0-1.024-0.064-1.408-0.192s-0.768-0.32-1.056-0.512-0.48-0.448-0.64-0.704-0.224-0.512-0.224-0.768c0-0.16 0.032-0.32 0.096-0.48s0.128-0.256 0.224-0.384 0.224-0.192 0.352-0.288 0.288-0.096 0.448-0.096c0.192 0 0.352 0.032 0.48 0.096s0.224 0.16 0.32 0.256 0.128 0.224 0.16 0.352 0.064 0.224 0.064 0.352c0 0.096 0 0.192-0.032 0.32s-0.096 0.224-0.16 0.32z"></path> </svg> 