 <svg version="1.1" xmlns="http://www.w3.org/2000/svg" width="32" height="32" viewBox="0 0 32 32">  <path d="M10.656 23.968l0.192-0.864c0.032-0.032 0.32-0.096 0.832-0.224s0.928-0.288 1.184-0.416c0.192-0.224 0.32-0.576 0.416-1.024 0-0.064 0.224-1.056 0.64-3.040s0.8-3.84 1.184-5.664 0.544-2.816 0.544-3.072v-0.288c-0.16-0.096-0.352-0.16-0.576-0.192s-0.448-0.064-0.704-0.064-0.48-0.032-0.608-0.064l0.192-1.056c0.224 0 0.64 0.032 1.248 0.064s1.12 0.064 1.568 0.064c0.448 0.032 0.864 0.032 1.248 0.032 0.352 0 0.704 0 1.024-0.032s0.8-0.032 1.28-0.064 0.832-0.064 1.024-0.064c-0.032 0.256-0.096 0.576-0.192 0.928-0.224 0.064-0.576 0.192-1.056 0.288s-0.864 0.256-1.12 0.352c-0.064 0.128-0.128 0.288-0.16 0.448s-0.064 0.288-0.096 0.416-0.064 0.256-0.064 0.48-0.064 0.352-0.096 0.448c-0.16 1.024-0.48 2.464-0.896 4.352s-0.704 3.136-0.8 3.712c-0.032 0.064-0.064 0.256-0.128 0.608s-0.16 0.64-0.224 0.928-0.128 0.576-0.16 0.864-0.064 0.48-0.064 0.608v0.192c0.128 0 0.768 0.128 1.952 0.32-0.032 0.288-0.096 0.64-0.16 1.024-0.096 0-0.192 0-0.352 0s-0.256 0.032-0.32 0.032c-0.192 0-0.512-0.064-0.928-0.128s-0.704-0.096-0.864-0.096c-0.96-0.032-1.696-0.032-2.176-0.032-0.352 0-0.832 0.032-1.472 0.096s-1.088 0.128-1.312 0.128z"></path> </svg> 