 <svg version="1.1" xmlns="http://www.w3.org/2000/svg" width="32" height="32" viewBox="0 0 32 32">  <path d="M23.744 11.808l1.952 1.952c0.096 0.096 0.256 0.16 0.416 0.16s0.32-0.064 0.416-0.16c0.128-0.128 0.192-0.288 0.192-0.448v-6.048c0-0.16-0.064-0.32-0.192-0.416-0.128-0.128-0.256-0.192-0.416-0.192h-6.048c-0.16 0-0.32 0.064-0.416 0.192s-0.192 0.256-0.192 0.416 0.064 0.32 0.192 0.416l2.080 2.080-7.2 7.2c-0.544 0.576-0.544 1.472 0 2.016s1.472 0.576 2.016 0l7.2-7.168zM24 17.856v3.936c0 0.96-0.352 1.792-1.024 2.496-0.704 0.704-1.536 1.056-2.528 1.056h-10.24c-0.96 0-1.792-0.352-2.496-1.056s-1.056-1.536-1.056-2.496v-10.24c0-0.992 0.352-1.824 1.056-2.528s1.536-1.024 2.496-1.024h7.232c0.128 0 0.224 0.032 0.288 0.096 0.064 0.096 0.096 0.192 0.096 0.288v0.8c0 0.096-0.032 0.192-0.096 0.256-0.096 0.096-0.192 0.128-0.288 0.128h-7.232c-0.544 0-0.992 0.192-1.376 0.576s-0.576 0.832-0.576 1.376v10.24c0 0.544 0.192 0.992 0.576 1.376s0.864 0.576 1.376 0.576h10.24c0.544 0 0.992-0.192 1.408-0.576s0.544-0.832 0.544-1.376v-3.936c0-0.128 0.064-0.224 0.128-0.288s0.16-0.096 0.288-0.096h0.768c0.128 0 0.224 0.032 0.288 0.096 0.096 0.096 0.128 0.192 0.128 0.32z"></path> </svg> 