 <svg version="1.1" xmlns="http://www.w3.org/2000/svg" width="32" height="32" viewBox="0 0 32 32">  <path d="M22.112 19.744c0-0.256-0.096-0.48-0.256-0.64l-2.048-2.048c-0.192-0.192-0.416-0.288-0.672-0.288-0.288 0-0.512 0.096-0.704 0.32 0 0.032 0.064 0.096 0.192 0.192 0.096 0.096 0.16 0.16 0.192 0.224 0.064 0.032 0.096 0.096 0.16 0.16 0.064 0.096 0.096 0.192 0.128 0.256s0.032 0.192 0.032 0.288c0 0.256-0.096 0.48-0.256 0.672-0.192 0.16-0.416 0.256-0.672 0.256-0.096 0-0.192 0-0.288-0.032s-0.16-0.064-0.224-0.128c-0.096-0.064-0.16-0.096-0.192-0.16-0.064-0.032-0.128-0.096-0.224-0.192-0.096-0.128-0.16-0.16-0.192-0.192-0.192 0.192-0.32 0.448-0.32 0.704 0 0.288 0.096 0.48 0.288 0.672l2.016 2.016c0.16 0.192 0.384 0.288 0.672 0.288 0.256 0 0.48-0.096 0.672-0.256l1.44-1.44c0.16-0.192 0.256-0.416 0.256-0.672zM15.232 12.864c0-0.288-0.096-0.48-0.288-0.672l-2.016-2.048c-0.192-0.16-0.384-0.256-0.672-0.256-0.256 0-0.48 0.096-0.64 0.256l-1.44 1.44c-0.192 0.16-0.288 0.384-0.288 0.64s0.096 0.48 0.288 0.672l2.016 2.048c0.192 0.16 0.416 0.256 0.672 0.256 0.288 0 0.512-0.096 0.704-0.32 0 0-0.064-0.064-0.192-0.16-0.096-0.128-0.16-0.192-0.192-0.224-0.064-0.032-0.096-0.096-0.16-0.192-0.064-0.064-0.096-0.16-0.128-0.256-0.032-0.064-0.032-0.16-0.032-0.256 0-0.288 0.096-0.48 0.256-0.672s0.416-0.288 0.672-0.288c0.096 0 0.192 0.032 0.288 0.032 0.064 0.032 0.16 0.096 0.256 0.16 0.064 0.064 0.128 0.096 0.16 0.128 0.064 0.032 0.128 0.128 0.224 0.224s0.16 0.16 0.192 0.192c0.224-0.224 0.32-0.448 0.32-0.704zM24 19.744c0 0.8-0.288 1.472-0.832 2.016l-1.44 1.408c-0.544 0.544-1.184 0.832-1.984 0.832-0.768 0-1.44-0.288-1.984-0.832l-2.016-2.048c-0.544-0.544-0.832-1.184-0.832-1.984s0.288-1.472 0.864-2.048l-0.864-0.864c-0.544 0.576-1.216 0.864-2.016 0.864s-1.472-0.288-2.016-0.832l-2.048-2.016c-0.544-0.576-0.832-1.216-0.832-2.016s0.288-1.44 0.832-1.984l1.44-1.44c0.544-0.544 1.216-0.8 1.984-0.8 0.8 0 1.472 0.288 2.016 0.832l2.016 2.016c0.544 0.544 0.8 1.216 0.8 1.984 0 0.8-0.288 1.504-0.864 2.048l0.864 0.864c0.576-0.544 1.248-0.864 2.048-0.864s1.44 0.288 1.984 0.832l2.048 2.048c0.544 0.544 0.832 1.216 0.832 1.984z"></path> </svg> 