 <svg version="1.1" xmlns="http://www.w3.org/2000/svg" width="32" height="32" viewBox="0 0 32 32">  <path d="M24.64 22.752c-0.256 0-0.544-0.096-0.768-0.288-0.416-0.416-0.448-1.12-0.032-1.568l4.512-4.768-4.448-4.384c-0.416-0.448-0.448-1.12 0-1.568 0.416-0.416 1.12-0.448 1.536-0.032l5.216 5.184c0.448 0.416 0.448 1.12 0.032 1.536l-5.248 5.536c-0.224 0.256-0.512 0.352-0.8 0.352zM13.248 26.784l8.768-19.68c0.256-0.544 0-1.184-0.576-1.44-0.544-0.256-1.184 0-1.44 0.576l-8.768 19.648c-0.256 0.576 0 1.216 0.576 1.472 0.128 0.064 0.288 0.096 0.448 0.096 0.416 0 0.8-0.256 0.992-0.672zM8.672 22.464c0.448-0.416 0.448-1.12 0.064-1.568l-4.544-4.736 4.448-4.416c0.448-0.448 0.448-1.12 0.032-1.568-0.416-0.416-1.12-0.448-1.568-0.032l-5.216 5.184c-0.416 0.416-0.448 1.12-0.032 1.536l5.28 5.536c0.224 0.224 0.512 0.352 0.8 0.352 0.256 0 0.544-0.096 0.736-0.288z"></path> </svg> 