 <svg version="1.1" xmlns="http://www.w3.org/2000/svg" width="32" height="32" viewBox="0 0 32 32">  <path d="M21.536 22.656c-0.32 0-0.768 0-1.408-0.032s-1.088-0.032-1.376-0.032c-0.32 0-0.768 0-1.376 0.032s-1.056 0.032-1.376 0.032c-0.16 0-0.288-0.064-0.384-0.192s-0.128-0.32-0.128-0.48c0-0.224 0.032-0.384 0.16-0.48s0.256-0.16 0.416-0.192 0.32-0.032 0.512-0.064 0.384-0.096 0.48-0.16c0.224-0.128 0.352-0.608 0.352-1.44l-0.032-4.064c0-0.16 0-0.256 0-0.32-0.096-0.032-0.256-0.064-0.512-0.064h-7.008c-0.288 0-0.448 0.032-0.544 0.064-0.032 0.064-0.032 0.16-0.032 0.32v3.84c0 0.992 0.128 1.568 0.384 1.728 0.096 0.064 0.288 0.128 0.512 0.128s0.416 0.032 0.608 0.032 0.32 0.064 0.448 0.16 0.224 0.256 0.224 0.48c0 0.192-0.032 0.352-0.128 0.512s-0.224 0.192-0.384 0.192c-0.32 0-0.832 0-1.472-0.032s-1.12-0.032-1.44-0.032c-0.288 0-0.736 0-1.312 0.032s-1.024 0.032-1.344 0.032c-0.16 0-0.256-0.064-0.352-0.192s-0.128-0.32-0.128-0.48c0-0.224 0.032-0.352 0.16-0.48s0.224-0.16 0.352-0.16 0.32-0.064 0.512-0.096 0.32-0.096 0.416-0.16c0.224-0.16 0.352-0.64 0.352-1.504v-9.024c0-0.032 0-0.128 0-0.288s0-0.288 0-0.384-0.032-0.224-0.032-0.384 0-0.32-0.032-0.448-0.032-0.256-0.064-0.384-0.064-0.256-0.128-0.352-0.096-0.128-0.16-0.16c-0.096-0.096-0.256-0.128-0.448-0.128s-0.384-0.032-0.544-0.032-0.32-0.064-0.448-0.16-0.192-0.256-0.192-0.448c0-0.192 0.064-0.352 0.128-0.512s0.224-0.224 0.384-0.224c0.32 0 0.8 0 1.44 0.032s1.12 0.032 1.44 0.032c0.288 0 0.736 0 1.312-0.032s1.024-0.032 1.312-0.032c0.192 0 0.32 0.096 0.384 0.224s0.16 0.32 0.16 0.512c0 0.224-0.064 0.352-0.192 0.448s-0.256 0.16-0.384 0.16-0.32 0.032-0.544 0.032-0.32 0.064-0.448 0.128c-0.224 0.16-0.352 0.704-0.352 1.664v3.36c0 0.128 0 0.256 0.032 0.32 0.096 0.032 0.224 0.032 0.384 0.032h7.296c0.16 0 0.288-0.032 0.384-0.032 0.032-0.064 0.032-0.192 0.032-0.32v-3.36c0-0.96-0.128-1.504-0.352-1.664-0.128-0.064-0.32-0.096-0.608-0.128s-0.512-0.032-0.704-0.128-0.256-0.256-0.256-0.512c0-0.192 0.032-0.352 0.128-0.512s0.224-0.224 0.384-0.224c0.32 0 0.768 0 1.376 0.032s1.056 0.032 1.376 0.032c0.288 0 0.736 0 1.344-0.032s1.024-0.032 1.344-0.032c0.16 0 0.32 0.064 0.384 0.224s0.128 0.32 0.128 0.512c0 0.192-0.064 0.352-0.192 0.448s-0.256 0.16-0.384 0.16-0.352 0-0.544 0-0.352 0.064-0.448 0.16c-0.256 0.16-0.384 0.704-0.384 1.664l0.032 9.824c0 0.832 0.128 1.312 0.352 1.472 0.096 0.064 0.256 0.096 0.48 0.128s0.416 0.032 0.576 0.064 0.288 0.064 0.416 0.16 0.192 0.256 0.192 0.448c0 0.192-0.032 0.352-0.128 0.512s-0.224 0.224-0.384 0.224zM22.816 14.848l-0.576-0.96 3.648-2.688h0.992v8.832c0 0.16 0 0.288 0 0.448s0 0.256-0.032 0.384 0 0.256 0 0.352-0.032 0.192-0.032 0.256l1.184-0.064v1.248h-4.576v-1.056c0.16 0 0.32-0.032 0.48-0.064 0.128-0.032 0.256-0.064 0.352-0.16s0.16-0.224 0.224-0.416 0.096-0.448 0.096-0.768v-6.4l-1.76 1.056z"></path> </svg> 