 <svg version="1.1" xmlns="http://www.w3.org/2000/svg" width="32" height="32" viewBox="0 0 32 32">  <path d="M30.016 5.984h-28c-1.12 0-2.016 0.896-2.016 2.016v16c0 1.088 0.896 1.984 2.016 1.984h28c1.088 0 1.984-0.896 1.984-1.984v-16c0-1.12-0.896-2.016-1.984-2.016zM30.656 24c0 0.352-0.288 0.672-0.64 0.672h-28c-0.384 0-0.672-0.32-0.672-0.672v-16c0-0.384 0.288-0.672 0.672-0.672h28c0.352 0 0.64 0.288 0.64 0.672v16zM10.016 8.672c-4.064 0-7.36 3.296-7.36 7.328s3.296 7.328 7.36 7.328c1.888 0 3.712-0.736 5.088-2.048 0.256-0.256 0.256-0.704 0-0.96s-0.672-0.256-0.928 0c-1.12 1.088-2.592 1.664-4.16 1.664-3.328 0-6.016-2.688-6.016-5.984s2.688-6.016 6.016-6.016c3.264 0 5.92 2.656 5.984 5.92 0 0.032-0.032 0.064-0.032 0.096 0 0.736-0.608 1.344-1.344 1.344-0.672 0-1.248-0.544-1.312-1.248 0-0.032 0.032-0.064 0.032-0.096 0-1.824-1.504-3.328-3.328-3.328s-3.36 1.504-3.36 3.328 1.504 3.328 3.36 3.328c1.12 0 2.144-0.576 2.72-1.44 0.512 0.48 1.152 0.768 1.888 0.768 1.376 0 2.528-1.056 2.656-2.4 0.032-0.064 0.064-0.16 0.064-0.256 0-4.032-3.296-7.328-7.328-7.328zM10.016 17.984c-1.12 0-2.016-0.896-2.016-1.984s0.896-2.016 2.016-2.016c1.056 0 1.92 0.864 1.984 1.92 0 0.032-0.032 0.064-0.032 0.096 0 0.064 0 0.096 0.032 0.16-0.096 1.024-0.96 1.824-1.984 1.824z"></path> </svg> 