 <svg version="1.1" xmlns="http://www.w3.org/2000/svg" width="32" height="32" viewBox="0 0 32 32">  <path d="M12.544 8v11.040c0 0.544-0.608 0.96-1.344 0.96s-1.344-0.416-1.344-0.96v-11.040h-3.328c-0.192 0-0.32-0.064-0.448-0.16-0.16-0.128-0.224-0.256-0.224-0.416s0.064-0.32 0.224-0.416l4.64-4.16c0.16-0.128 0.32-0.16 0.48-0.16s0.32 0.032 0.48 0.16l4.64 4.16c0.16 0.096 0.224 0.256 0.224 0.416s-0.064 0.288-0.224 0.416c-0.128 0.096-0.288 0.16-0.448 0.16h-3.328zM19.2 24v-11.040c0-0.544 0.608-0.96 1.344-0.96s1.312 0.416 1.312 0.96v11.040h3.36c0.16 0 0.32 0.064 0.448 0.16s0.192 0.256 0.192 0.416-0.064 0.288-0.192 0.416l-4.672 4.16c-0.128 0.128-0.288 0.16-0.448 0.16s-0.352-0.032-0.48-0.16l-4.672-4.16c-0.128-0.128-0.192-0.256-0.192-0.416s0.064-0.288 0.192-0.416 0.288-0.16 0.48-0.16h3.328z"></path> </svg> 