 <svg version="1.1" xmlns="http://www.w3.org/2000/svg" width="32" height="32" viewBox="0 0 32 32">  <path d="M27.68 4.32v23.36h-23.36v-23.36h23.36zM27.936 1.344h-23.872c-1.504 0-2.72 1.216-2.72 2.72v23.872c0 1.504 1.216 2.72 2.72 2.72h23.872c1.504 0 2.72-1.216 2.72-2.72v-23.872c0-1.504-1.216-2.72-2.72-2.72zM8 13.024c0 0.288 0.096 0.544 0.288 0.736l7.008 7.264c0.192 0.192 0.416 0.32 0.704 0.32s0.512-0.128 0.704-0.32l7.008-7.264c0.192-0.192 0.288-0.448 0.288-0.736s-0.096-0.512-0.288-0.704-0.416-0.32-0.704-0.32h-14.016c-0.256 0-0.512 0.096-0.704 0.32s-0.288 0.448-0.288 0.704z"></path> </svg> 