 <svg version="1.1" xmlns="http://www.w3.org/2000/svg" width="32" height="32" viewBox="0 0 32 32">  <path d="M28.576 16.096c-1.664-2.592-3.744-4.512-6.24-5.792 0.672 1.152 0.992 2.368 0.992 3.68 0 2.016-0.704 3.776-2.144 5.216-1.44 1.408-3.168 2.144-5.184 2.144s-3.744-0.736-5.184-2.144c-1.44-1.44-2.144-3.2-2.144-5.216 0-1.312 0.32-2.528 0.992-3.68-2.496 1.28-4.576 3.2-6.24 5.792 1.472 2.24 3.264 4 5.472 5.344s4.544 1.984 7.104 1.984 4.896-0.672 7.104-1.984 4.032-3.104 5.472-5.344zM16.8 9.824c0-0.224-0.096-0.416-0.224-0.576-0.16-0.128-0.352-0.224-0.576-0.224-1.344 0-2.528 0.48-3.52 1.472-0.96 0.96-1.44 2.144-1.44 3.488 0 0.224 0.064 0.416 0.224 0.576 0.128 0.16 0.32 0.224 0.544 0.224s0.416-0.064 0.576-0.224c0.128-0.16 0.224-0.32 0.224-0.576 0-0.928 0.32-1.728 0.992-2.4s1.472-0.992 2.4-0.992c0.224 0 0.416-0.064 0.576-0.224 0.128-0.16 0.224-0.352 0.224-0.544zM30.656 16.096c0 0.384-0.096 0.736-0.32 1.12-1.536 2.528-3.584 4.544-6.176 6.048-2.56 1.504-5.28 2.24-8.16 2.24s-5.6-0.736-8.16-2.272c-2.592-1.504-4.64-3.52-6.176-6.016-0.224-0.384-0.32-0.768-0.32-1.152s0.096-0.736 0.32-1.12c1.536-2.496 3.584-4.512 6.176-6.016s5.28-2.272 8.16-2.272 5.6 0.768 8.16 2.304 4.64 3.52 6.176 6.016c0.224 0.384 0.32 0.736 0.32 1.12z"></path> </svg> 