 <svg version="1.1" xmlns="http://www.w3.org/2000/svg" width="32" height="32" viewBox="0 0 32 32">  <path d="M28.672 4h-25.344c-1.824 0-3.328 1.504-3.328 3.328v13.344c0 1.824 1.504 3.328 3.328 3.328h8.384l3.808 3.808c0.128 0.128 0.32 0.192 0.48 0.192s0.352-0.064 0.48-0.192l3.808-3.808h8.384c1.824 0 3.328-1.504 3.328-3.328v-13.344c0-1.824-1.504-3.328-3.328-3.328zM30.656 20.672c0 1.088-0.896 1.984-1.984 1.984h-8.672c-0.16 0-0.352 0.064-0.48 0.192l-3.52 3.552-3.52-3.552c-0.128-0.128-0.288-0.192-0.48-0.192h-8.672c-1.088 0-1.984-0.896-1.984-1.984v-13.344c0-1.088 0.896-1.984 1.984-1.984h25.344c1.088 0 1.984 0.896 1.984 1.984v13.344zM10.016 8h-1.344c-1.856 0-3.328 1.504-3.328 3.328v0.672h-0.672c-0.384 0-0.672 0.288-0.672 0.672s0.288 0.672 0.672 0.672h0.672v5.984c0 0.384 0.288 0.672 0.672 0.672s0.64-0.288 0.64-0.672v-5.984h2.016c0.352 0 0.672-0.32 0.672-0.672s-0.32-0.672-0.672-0.672h-2.016v-0.672c0-1.088 0.896-1.984 2.016-1.984h1.344c0.352 0 0.64-0.32 0.64-0.672s-0.288-0.672-0.64-0.672zM23.328 17.344h-9.312c-0.384 0-0.672 0.288-0.672 0.64s0.288 0.672 0.672 0.672h9.312c0.384 0 0.672-0.288 0.672-0.672s-0.288-0.64-0.672-0.64zM27.328 13.344h-13.312c-0.384 0-0.672 0.288-0.672 0.64s0.288 0.672 0.672 0.672h13.312c0.384 0 0.672-0.288 0.672-0.672s-0.288-0.64-0.672-0.64zM27.328 9.344h-13.312c-0.384 0-0.672 0.288-0.672 0.64s0.288 0.672 0.672 0.672h13.312c0.384 0 0.672-0.288 0.672-0.672s-0.288-0.64-0.672-0.64z"></path> </svg> 