 <svg version="1.1" xmlns="http://www.w3.org/2000/svg" width="32" height="32" viewBox="0 0 32 32">  <path d="M28.672 0h-25.344c-1.824 0-3.328 1.504-3.328 3.328v25.344c0 1.824 1.504 3.328 3.328 3.328h25.344c1.824 0 3.328-1.504 3.328-3.328v-25.344c0-1.824-1.504-3.328-3.328-3.328zM30.656 28.672c0 1.088-0.896 1.984-1.984 1.984h-25.344c-1.088 0-1.984-0.896-1.984-1.984v-25.344c0-1.088 0.896-1.984 1.984-1.984h25.344c1.088 0 1.984 0.896 1.984 1.984v25.344zM24.352 13.344h-4.992l0.032-0.64c0.416-0.864 0.608-1.792 0.608-2.72 0-0.96-0.224-1.952-0.672-2.816l-0.352-0.736c-0.352-0.672-1.024-1.088-1.792-1.088h-0.512c-1.088 0-2.016 0.896-2.016 1.984v2.4c0 0.096 0 0.192-0.032 0.256l-2.4 6.016h-0.224v-0.672c0-0.352-0.288-0.672-0.672-0.672h-6.656c-0.384 0-0.672 0.32-0.672 0.672v12c0 0.384 0.288 0.672 0.672 0.672h6.656c0.384 0 0.672-0.288 0.672-0.672v-1.6l1.696 0.864c0.096 0.064 0.192 0.064 0.32 0.064h9.6c1.696 0 3.136-1.28 3.328-2.944l0.736-6.688c0.096-0.928-0.192-1.888-0.832-2.592s-1.536-1.088-2.496-1.088zM10.656 26.656h-5.312v-10.656h5.312v10.656zM26.336 16.896l-0.736 6.656c-0.096 1.024-0.96 1.792-1.984 1.792h-9.472l-2.144-1.088v-6.912h0.672c0.256 0 0.512-0.192 0.608-0.448l2.592-6.4c0.096-0.256 0.128-0.512 0.128-0.768v-2.4c0-0.352 0.288-0.672 0.672-0.672h0.512c0.256 0 0.48 0.16 0.576 0.384l0.384 0.736c0.352 0.672 0.512 1.44 0.512 2.208s-0.16 1.536-0.512 2.24c-0.032 0.096-0.064 0.16-0.064 0.256l-0.064 1.472c-0.032 0.192 0.032 0.384 0.16 0.512s0.32 0.192 0.48 0.192h5.696c0.576 0 1.12 0.256 1.504 0.672s0.544 0.992 0.48 1.568z"></path> </svg> 