 <svg version="1.1" xmlns="http://www.w3.org/2000/svg" width="32" height="32" viewBox="0 0 32 32">  <path d="M2.016 15.328c-0.416 0-0.672-0.256-0.672-0.672v-13.312c0-0.416 0.256-0.672 0.672-0.672h28c0.384 0 0.64 0.256 0.64 0.672v13.312c0 0.416-0.256 0.672-0.64 0.672h-28zM29.344 13.984v-12h-26.688v12h26.688zM2.016 19.328h28c0.384 0 0.64-0.256 0.64-0.672s-0.256-0.672-0.64-0.672h-28c-0.416 0-0.672 0.288-0.672 0.672s0.256 0.672 0.672 0.672zM2.016 23.328h18.656c0.384 0 0.672-0.256 0.672-0.672s-0.288-0.672-0.672-0.672h-18.656c-0.416 0-0.672 0.288-0.672 0.672s0.256 0.672 0.672 0.672zM2.016 27.328h18.656c0.384 0 0.672-0.256 0.672-0.672s-0.288-0.672-0.672-0.672h-18.656c-0.416 0-0.672 0.288-0.672 0.672s0.256 0.672 0.672 0.672zM2.016 31.328h18.656c0.384 0 0.672-0.256 0.672-0.672s-0.288-0.64-0.672-0.64h-18.656c-0.416 0-0.672 0.256-0.672 0.64s0.256 0.672 0.672 0.672zM28.672 21.984c-2.144 0-3.328 1.216-3.328 3.36v5.312c0 0.416 0.256 0.672 0.672 0.672s0.64-0.256 0.64-0.672v-5.312c0-1.472 0.544-2.016 2.016-2.016 0.384 0 0.672-0.256 0.672-0.672s-0.288-0.672-0.672-0.672zM24 27.328h4.672c0.384 0 0.672-0.256 0.672-0.672s-0.288-0.672-0.672-0.672h-4.672c-0.384 0-0.672 0.288-0.672 0.672s0.288 0.672 0.672 0.672z"></path> </svg> 