 <svg version="1.1" xmlns="http://www.w3.org/2000/svg" width="32" height="32" viewBox="0 0 32 32">  <path d="M3.328 21.344c-0.352 0-0.672-0.32-0.672-0.672v-17.344c0-0.384 0.32-0.672 0.672-0.672h25.344c0.384 0 0.672 0.288 0.672 0.672v17.344c0 0.352-0.288 0.672-0.672 0.672h-25.344zM4 20h24v-16h-24v16zM3.328 25.344c-0.352 0-0.672-0.32-0.672-0.672s0.32-0.672 0.672-0.672h10.688c0.352 0 0.64 0.288 0.64 0.672s-0.288 0.672-0.64 0.672h-10.688zM18.016 25.344c-0.384 0-0.672-0.32-0.672-0.672s0.288-0.672 0.672-0.672h10.656c0.384 0 0.672 0.288 0.672 0.672s-0.288 0.672-0.672 0.672h-10.656zM3.328 29.344c-0.352 0-0.672-0.288-0.672-0.672s0.32-0.672 0.672-0.672h10.688c0.352 0 0.64 0.288 0.64 0.672s-0.288 0.672-0.64 0.672h-10.688zM18.016 29.344c-0.384 0-0.672-0.288-0.672-0.672s0.288-0.672 0.672-0.672h10.656c0.384 0 0.672 0.288 0.672 0.672s-0.288 0.672-0.672 0.672h-10.656zM10.144 14.080l-6.304 7.040c-0.256 0.288-0.672 0.288-0.96 0.064-0.288-0.256-0.288-0.672-0.064-0.96l6.72-7.456c0.224-0.256 0.608-0.288 0.864-0.096l3.968 2.816 5.568-6.976c0.288-0.352 0.8-0.32 1.056 0.032l8.224 11.744c0.192 0.32 0.128 0.736-0.16 0.928-0.32 0.224-0.736 0.128-0.96-0.16l-7.68-10.976-5.376 6.752c-0.224 0.288-0.64 0.352-0.928 0.128l-3.968-2.88zM9.792 8.128c0-0.8-0.608-1.472-1.376-1.472s-1.376 0.672-1.376 1.472 0.64 1.472 1.376 1.472 1.376-0.64 1.376-1.472zM11.136 8.128c0 1.536-1.216 2.816-2.72 2.816s-2.688-1.28-2.688-2.816 1.184-2.784 2.688-2.784 2.72 1.248 2.72 2.784z"></path> </svg> 