 <svg version="1.1" xmlns="http://www.w3.org/2000/svg" width="32" height="32" viewBox="0 0 32 32">  <path d="M26.016 1.984h-20c-0.384 0-0.672 0.32-0.672 0.672v26.688c0 0.352 0.288 0.672 0.672 0.672h20c0.352 0 0.64-0.32 0.64-0.672v-26.688c0-0.352-0.288-0.672-0.64-0.672zM25.344 28.672h-18.688v-25.344h18.688v25.344zM31.968 20.224c-0.128-0.352-0.48-0.544-0.832-0.416l-1.12 0.352c1.344-2.752 1.408-6.208-1.024-8.672-0.256-0.256-0.704-0.256-0.96 0s-0.256 0.672 0 0.928c2.048 2.080 1.92 5.088 0.672 7.424l-0.512-1.504c-0.128-0.352-0.48-0.544-0.832-0.416s-0.544 0.48-0.416 0.832l0.928 2.848c0 0 0.032 0.032 0.032 0.032 0.032 0.064 0.032 0.096 0.064 0.128s0.064 0.064 0.096 0.096c0 0.032 0.032 0.032 0.032 0.064 0 0 0.032 0 0.032 0 0.032 0.032 0.064 0.032 0.096 0.064 0.064 0.032 0.192 0.064 0.288 0.064 0.064 0 0.128 0 0.192-0.032l2.848-0.96c0.352-0.096 0.544-0.48 0.416-0.832zM4.128 11.744c0-0.032-0.032-0.032-0.032-0.064s-0.032-0.064-0.064-0.128c-0.032-0.032-0.064-0.032-0.064-0.064-0.032-0.032-0.032-0.064-0.064-0.064-0.032-0.032-0.032-0.032-0.064-0.032s-0.032-0.032-0.032-0.032c-0.032 0-0.064 0-0.064-0.032-0.064 0-0.096-0.032-0.16-0.032-0.032 0-0.064 0-0.096 0-0.064 0-0.096 0-0.128 0-0.032 0.032-0.064 0.032-0.064 0.032l-2.848 0.928c-0.352 0.128-0.544 0.512-0.416 0.864 0.128 0.32 0.512 0.512 0.864 0.416l1.088-0.384c-1.344 2.752-1.408 6.24 1.056 8.704 0.128 0.128 0.288 0.192 0.448 0.192 0.192 0 0.352-0.064 0.48-0.192 0.256-0.256 0.256-0.672 0-0.96-2.048-2.048-1.888-5.056-0.672-7.392l0.512 1.472c0.096 0.288 0.352 0.48 0.64 0.48 0.064 0 0.128-0.032 0.192-0.032 0.352-0.128 0.544-0.512 0.448-0.864l-0.96-2.816zM10.016 11.328h12c0.352 0 0.64-0.288 0.64-0.672s-0.288-0.672-0.64-0.672h-12c-0.384 0-0.672 0.32-0.672 0.672s0.288 0.672 0.672 0.672zM10.016 15.328h12c0.352 0 0.64-0.288 0.64-0.672s-0.288-0.672-0.64-0.672h-12c-0.384 0-0.672 0.32-0.672 0.672s0.288 0.672 0.672 0.672zM10.016 19.328h12c0.352 0 0.64-0.288 0.64-0.672s-0.288-0.672-0.64-0.672h-12c-0.384 0-0.672 0.32-0.672 0.672s0.288 0.672 0.672 0.672zM10.016 23.328h5.312c0.384 0 0.672-0.288 0.672-0.672s-0.288-0.672-0.672-0.672h-5.312c-0.384 0-0.672 0.32-0.672 0.672s0.288 0.672 0.672 0.672z"></path> </svg> 