 <svg version="1.1" xmlns="http://www.w3.org/2000/svg" width="32" height="32" viewBox="0 0 32 32">  <path d="M28.672 28.672h-25.344c-1.824 0-3.328-1.504-3.328-3.328v-16c0-1.856 1.504-3.36 3.328-3.36h4.768c1.408 0 2.688 0.928 3.136 2.304l0.128 0.352c0.288 0.8 1.024 1.344 1.888 1.344h15.424c1.824 0 3.328 1.504 3.328 3.36v12c0 1.824-1.504 3.328-3.328 3.328zM3.328 7.328c-1.088 0-1.984 0.896-1.984 2.016v16c0 1.088 0.896 1.984 1.984 1.984h25.344c1.088 0 1.984-0.896 1.984-1.984v-12c0-1.12-0.896-2.016-1.984-2.016h-15.424c-1.44 0-2.688-0.928-3.168-2.272l-0.096-0.352c-0.288-0.832-1.056-1.376-1.888-1.376h-4.768zM30.016 11.328c-0.384 0-0.672-0.288-0.672-0.672v-4c0-1.088-0.896-1.984-2.016-1.984h-22.656c-1.12 0-2.016 0.896-2.016 1.984 0 0.384-0.288 0.672-0.64 0.672s-0.672-0.288-0.672-0.672c0-1.824 1.472-3.328 3.328-3.328h22.656c1.856 0 3.328 1.504 3.328 3.328v4c0 0.384-0.288 0.672-0.64 0.672z"></path> </svg> 