 <svg version="1.1" xmlns="http://www.w3.org/2000/svg" width="32" height="32" viewBox="0 0 32 32">  <path d="M4.672 11.072v18.656c0 0.128 0.128 0.416 0.384 0.416h21.216v-27.744c0-0.128-0.128-0.416-0.416-0.416h-12.128v7.36c0 0.928-0.8 1.728-1.728 1.728h-7.328zM12.544 1.984v0l-7.616 7.744h7.2c0.128 0 0.416-0.128 0.416-0.384v-7.36zM5.056 31.456c-0.928 0-1.728-0.8-1.728-1.728v-20c0-0.128 0.128-0.384 0.128-0.384l8.16-8.416c0.128-0.128 0.256-0.256 0.512-0.256h13.888c0.928 0 1.728 0.8 1.728 1.728v28.416c0 0.384-0.288 0.64-0.672 0.64h-22.016zM13.216 21.344l-1.888-4.544-1.856 4.544h3.744zM14.656 25.344l-1.184-2.944h-4.416l-1.184 2.944h-1.344l4.128-10.56h1.472l4.128 10.56h-1.6zM22.016 24.384c-0.8 0.8-1.6 1.216-2.4 1.216-0.672 0-1.216-0.256-1.6-0.672s-0.672-0.928-0.672-1.472c0-0.8 0.384-1.472 1.056-1.984 0.672-0.416 1.728-0.672 3.072-0.672h0.384v-0.928c0-0.928-0.384-1.344-1.312-1.344-0.8 0-1.6 0.256-2.4 0.672v-1.216c0.928-0.384 1.856-0.512 2.656-0.512 0.928 0 1.472 0.128 1.856 0.512 0.416 0.416 0.672 1.088 0.672 1.888v3.456c0 0.8 0.288 1.216 0.8 1.216 0 0 0.128 0 0.288 0l0.128 0.8c-0.288 0.128-0.672 0.256-1.088 0.256-0.928-0.128-1.312-0.544-1.44-1.216zM21.728 23.584v-1.984h-0.512c-0.8 0-1.344 0.128-1.888 0.384-0.384 0.288-0.672 0.672-0.672 1.216 0 0.384 0.16 0.672 0.416 0.8 0.256 0.256 0.544 0.384 0.928 0.384 0.544 0 1.056-0.256 1.728-0.8z"></path> </svg> 