 <svg version="1.1" xmlns="http://www.w3.org/2000/svg" width="32" height="32" viewBox="0 0 32 32">  <path d="M8.672 13.344h-8c-0.384 0-0.672 0.288-0.672 0.64v4c0 0.384 0.288 0.672 0.672 0.672h8c0.352 0 0.672-0.288 0.672-0.672v-4c0-0.352-0.32-0.64-0.672-0.64zM8 17.344h-6.656v-2.688h6.656v2.688zM19.328 13.344h-8c-0.352 0-0.672 0.288-0.672 0.64v4c0 0.384 0.32 0.672 0.672 0.672h8c0.384 0 0.672-0.288 0.672-0.672v-4c0-0.352-0.288-0.64-0.672-0.64zM18.656 17.344h-6.656v-2.688h6.656v2.688zM29.344 13.344h-5.344c-1.472 0-2.656 1.184-2.656 2.656s1.184 2.656 2.656 2.656h5.344c1.472 0 2.656-1.184 2.656-2.656s-1.184-2.656-2.656-2.656zM29.344 17.344h-5.344c-0.736 0-1.344-0.608-1.344-1.344s0.608-1.344 1.344-1.344h5.344c0.736 0 1.312 0.608 1.312 1.344s-0.576 1.344-1.312 1.344z"></path> </svg> 