 <svg version="1.1" xmlns="http://www.w3.org/2000/svg" width="32" height="32" viewBox="0 0 32 32">  <path d="M9.344 3.328h-8c-0.384 0-0.672 0.288-0.672 0.672v8c0 0.352 0.288 0.672 0.672 0.672h8c0.352 0 0.672-0.32 0.672-0.672v-8c0-0.384-0.32-0.672-0.672-0.672zM8.672 11.328h-6.656v-6.656h6.656v6.656zM20 3.328h-8c-0.352 0-0.672 0.288-0.672 0.672v13.344c0 0.352 0.32 0.64 0.672 0.64h8c0.384 0 0.672-0.288 0.672-0.64v-13.344c0-0.384-0.288-0.672-0.672-0.672zM19.328 16.672h-6.656v-12h6.656v12zM30.656 3.328h-8c-0.352 0-0.64 0.288-0.64 0.672v10.656c0 0.384 0.288 0.672 0.64 0.672h8c0.384 0 0.672-0.288 0.672-0.672v-10.656c0-0.384-0.288-0.672-0.672-0.672zM30.016 13.984h-6.688v-9.312h6.688v9.312zM9.344 13.984h-8c-0.384 0-0.672 0.32-0.672 0.672v8c0 0.384 0.288 0.672 0.672 0.672h8c0.352 0 0.672-0.288 0.672-0.672v-8c0-0.352-0.32-0.672-0.672-0.672zM8.672 21.984h-6.656v-6.656h6.656v6.656zM20 19.328h-8c-0.352 0-0.672 0.288-0.672 0.672v8c0 0.384 0.32 0.672 0.672 0.672h8c0.384 0 0.672-0.288 0.672-0.672v-8c0-0.384-0.288-0.672-0.672-0.672zM19.328 27.328h-6.656v-6.656h6.656v6.656zM30.656 16.672h-8c-0.352 0-0.64 0.288-0.64 0.672v8c0 0.352 0.288 0.64 0.64 0.64h8c0.384 0 0.672-0.288 0.672-0.64v-8c0-0.384-0.288-0.672-0.672-0.672zM30.016 24.672h-6.688v-6.688h6.688v6.688z"></path> </svg> 