 <svg version="1.1" xmlns="http://www.w3.org/2000/svg" width="32" height="32" viewBox="0 0 32 32">  <path d="M0.672 10.656h6.656c0.384 0 0.672-0.288 0.672-0.672v-6.656c0-0.352-0.288-0.672-0.672-0.672h-6.656c-0.384 0-0.672 0.32-0.672 0.672v6.656c0 0.384 0.288 0.672 0.672 0.672zM1.344 4h5.312v5.344h-5.312v-5.344zM10.016 10.656h12c0.352 0 0.64-0.288 0.64-0.672v-6.656c0-0.352-0.288-0.672-0.64-0.672h-12c-0.384 0-0.672 0.32-0.672 0.672v6.656c0 0.384 0.288 0.672 0.672 0.672zM10.656 4h10.688v5.344h-10.688v-5.344zM31.328 2.656h-6.656c-0.384 0-0.672 0.32-0.672 0.672v6.656c0 0.384 0.288 0.672 0.672 0.672h6.656c0.384 0 0.672-0.288 0.672-0.672v-6.656c0-0.352-0.288-0.672-0.672-0.672zM30.656 9.344h-5.312v-5.344h5.312v5.344zM22.016 12h-6.688c-0.352 0-0.672 0.288-0.672 0.672v6.656c0 0.384 0.32 0.672 0.672 0.672h6.688c0.352 0 0.64-0.288 0.64-0.672v-6.656c0-0.384-0.288-0.672-0.64-0.672zM21.344 18.656h-5.344v-5.312h5.344v5.312zM0.672 20h12c0.352 0 0.672-0.288 0.672-0.672v-6.656c0-0.384-0.32-0.672-0.672-0.672h-12c-0.384 0-0.672 0.288-0.672 0.672v6.656c0 0.384 0.288 0.672 0.672 0.672zM1.344 13.344h10.656v5.312h-10.656v-5.312zM31.328 12h-6.656c-0.384 0-0.672 0.288-0.672 0.672v6.656c0 0.384 0.288 0.672 0.672 0.672h6.656c0.384 0 0.672-0.288 0.672-0.672v-6.656c0-0.384-0.288-0.672-0.672-0.672zM30.656 18.656h-5.312v-5.312h5.312v5.312zM6.016 21.344h-5.344c-0.384 0-0.672 0.288-0.672 0.64v6.688c0 0.352 0.288 0.672 0.672 0.672h5.344c0.352 0 0.64-0.32 0.64-0.672v-6.688c0-0.352-0.288-0.64-0.64-0.64zM5.344 28h-4v-5.344h4v5.344zM19.328 21.344h-10.656c-0.384 0-0.672 0.288-0.672 0.64v6.688c0 0.352 0.288 0.672 0.672 0.672h10.656c0.384 0 0.672-0.32 0.672-0.672v-6.688c0-0.352-0.288-0.64-0.672-0.64zM18.656 28h-9.312v-5.344h9.312v5.344zM31.328 21.344h-9.312c-0.384 0-0.672 0.288-0.672 0.64v6.688c0 0.352 0.288 0.672 0.672 0.672h9.312c0.384 0 0.672-0.32 0.672-0.672v-6.688c0-0.352-0.288-0.64-0.672-0.64zM30.656 28h-8v-5.344h8v5.344z"></path> </svg> 