 <svg version="1.1" xmlns="http://www.w3.org/2000/svg" width="32" height="32" viewBox="0 0 32 32">  <path d="M17.184 10.816c-0.288-0.256-0.512-0.16-0.512 0.192v2.688h-12c-0.384 0-0.672 0.288-0.672 0.64v2.688c0 0.384 0.288 0.672 0.672 0.672h12v2.656c0 0.384 0.224 0.48 0.512 0.224l4.992-4.448c0.256-0.224 0.256-0.64 0-0.896l-4.992-4.416zM28 4.736c0-0.416-0.288-0.736-0.672-0.736h-2.656c-0.384 0-0.672 0.352-0.672 0.736v22.528c0 0.416 0.288 0.736 0.672 0.736h2.656c0.384 0 0.672-0.352 0.672-0.736v-22.528z"></path> </svg> 