 <svg version="1.1" xmlns="http://www.w3.org/2000/svg" width="32" height="32" viewBox="0 0 32 32">  <path d="M14.848 20.64c0.256 0.256 0.48 0.16 0.48-0.224v-2.624h12c0.384 0 0.672-0.288 0.672-0.64v-2.624c0-0.384-0.288-0.672-0.672-0.672h-12v-2.624c0-0.352-0.224-0.448-0.48-0.224l-5.024 4.384c-0.256 0.256-0.256 0.64 0 0.864l5.024 4.384zM8 5.984c0-0.352-0.288-0.64-0.672-0.64h-2.656c-0.384 0-0.672 0.288-0.672 0.64v19.712c0 0.352 0.288 0.64 0.672 0.64h2.656c0.384 0 0.672-0.288 0.672-0.64v-19.712z"></path> </svg> 