 <svg version="1.1" xmlns="http://www.w3.org/2000/svg" width="32" height="32" viewBox="0 0 32 32">  <path d="M23.488 12.32c-0.224-0.192-0.384-0.096-0.384 0.192v2.24h-3.296c-0.288 0-0.544 0.224-0.544 0.544v2.24c0 0.288 0.256 0.544 0.544 0.544h3.296v2.208c0 0.32 0.16 0.384 0.384 0.192l4.096-3.712c0.224-0.192 0.224-0.544 0-0.736l-4.096-3.712zM8.256 20.48c0.224 0.192 0.416 0.128 0.416-0.192v-2.208h3.264c0.32 0 0.544-0.256 0.544-0.544v-2.24c0-0.32-0.224-0.544-0.544-0.544h-3.264v-2.24c0-0.288-0.192-0.384-0.416-0.192l-4.096 3.712c-0.224 0.192-0.224 0.544 0 0.736l4.096 3.712zM14.368 26.048c0 0.352 0.256 0.608 0.544 0.608h2.176c0.32 0 0.544-0.288 0.544-0.608v-18.752c0-0.352-0.256-0.64-0.544-0.64h-2.176c-0.32 0-0.544 0.288-0.544 0.64v18.752z"></path> </svg> 