 <svg version="1.1" xmlns="http://www.w3.org/2000/svg" width="32" height="32" viewBox="0 0 32 32">  <path d="M5.344 22.784c-1.472 0-2.688-1.184-2.688-2.656s1.216-2.656 2.688-2.656 2.656 1.184 2.656 2.656-1.184 2.656-2.656 2.656zM15.872 22.784c-1.472 0-2.656-1.184-2.656-2.656s1.184-2.656 2.656-2.656 2.656 1.184 2.656 2.656-1.184 2.656-2.656 2.656zM26.528 22.784c-1.472 0-2.656-1.184-2.656-2.656s1.184-2.656 2.656-2.656c1.472 0 2.688 1.184 2.688 2.656s-1.216 2.656-2.688 2.656zM5.344 14.656c-1.472 0-2.688-1.184-2.688-2.656s1.216-2.656 2.688-2.656 2.656 1.184 2.656 2.656-1.184 2.656-2.656 2.656zM15.872 14.656c-1.472 0-2.656-1.184-2.656-2.656s1.184-2.656 2.656-2.656 2.656 1.184 2.656 2.656-1.184 2.656-2.656 2.656zM26.528 14.656c-1.472 0-2.656-1.184-2.656-2.656s1.184-2.656 2.656-2.656c1.472 0 2.688 1.184 2.688 2.656s-1.216 2.656-2.688 2.656z"></path> </svg> 