 <svg version="1.1" xmlns="http://www.w3.org/2000/svg" width="32" height="32" viewBox="0 0 32 32">  <path d="M19.392 29.344v0c0 0 0 0 0 0zM19.776 1.504c0 0 0 0 0 0s-0.032-0.032-0.032-0.032c0 0 0 0 0.032 0.032 0 0 0 0 0 0zM12.704 2.656c0 0 0 0 0 0v0zM3.744 1.504c0.032 0 0.032 0 0 0 0 0 0-0.032-0.032-0.032 0 0 0.032 0 0.032 0.032 0 0 0 0 0 0zM3.392 29.344c0 0 0 0 0 0v0zM24 29.344l1.92-0.032c-0.096-0.128-0.192-0.288-0.256-0.48-0.256-0.608-0.288-1.12-0.256-2.208 0-0.224 0-0.32 0-0.448v-20.832c0-1.152 0.224-2.048 0.672-2.688h-2.016l-2.080 0.032c0.448 0.64 0.672 1.536 0.672 2.688v7.904c0 0.768-0.608 1.408-1.376 1.408h-10.464c-0.8 0-1.408-0.64-1.408-1.408v-7.936c0-1.152 0.224-2.048 0.672-2.688h-2.016l-2.080 0.032c0.448 0.64 0.672 1.536 0.672 2.688v20.832c0 0.128 0 0.224 0 0.448 0.032 1.12 0 1.6-0.256 2.24-0.064 0.16-0.16 0.32-0.224 0.448h3.744c-0.096-0.16-0.192-0.32-0.256-0.48-0.256-0.64-0.288-1.12-0.256-2.24 0-0.224 0-0.32 0-0.448v-7.424c0-0.768 0.64-1.408 1.408-1.408h10.464c0.768 0 1.376 0.64 1.376 1.408v7.456c0 0.128 0 0.224 0.032 0.448 0.032 1.12 0 1.6-0.288 2.24-0.064 0.16-0.128 0.32-0.224 0.448h1.824zM10.72 18.72v7.456c0 1.344-0.288 2.88 1.568 3.072 0.192 0 0.384 0.032 0.576 0.096 0.288 0.096 0.48 0.352 0.48 0.64 0 0.384-0.288 0.672-0.672 0.672h-9.28c-0.384 0-0.672-0.288-0.672-0.64 0-0.32 0.192-0.576 0.48-0.64 0.192-0.064 0.352-0.096 0.544-0.096 1.856-0.192 1.568-1.728 1.568-3.072v-20.832c0-3.008-1.792-2.464-2.272-2.752-0.032-0.032-0.064-0.032-0.096-0.064-0.288-0.224-0.384-0.64-0.16-0.928 0.128-0.192 0.32-0.288 0.544-0.288h9.376c0.192 0 0.416 0.096 0.544 0.256 0.192 0.32 0.128 0.736-0.16 0.96-0.576 0.352-2.368-0.224-2.368 2.784v7.936c0 0.032 0.032 0.064 0.096 0.064h10.432c0.032 0 0.064-0.032 0.064-0.064v-7.904c0-3.008-1.792-2.464-2.272-2.752 0-0.032-0.032-0.032-0.064-0.064-0.32-0.224-0.384-0.64-0.16-0.928 0.096-0.192 0.32-0.288 0.544-0.288h9.344c0.224 0 0.416 0.096 0.544 0.256 0.224 0.32 0.128 0.736-0.16 0.96-0.544 0.352-2.336-0.224-2.336 2.784v20.832c0 1.344-0.288 2.88 1.568 3.072 0.192 0 0.384 0.032 0.544 0.096 0.288 0.096 0.512 0.352 0.512 0.64 0 0.384-0.32 0.672-0.672 0.672h-9.312c-0.352 0-0.672-0.288-0.672-0.64 0-0.32 0.224-0.576 0.512-0.64 0.16-0.064 0.352-0.096 0.544-0.096 1.824-0.192 1.536-1.728 1.536-3.072v-7.488c0-0.032-0.032-0.064-0.064-0.064h-10.432c-0.064 0-0.096 0.032-0.096 0.064z"></path> </svg> 