 <svg version="1.1" xmlns="http://www.w3.org/2000/svg" width="34" height="32" viewBox="0 0 34 32">  <path d="M33.152 21.152v-4.576c0-8.8-7.424-16.576-16-16.576s-16 7.776-16 16.576v4.576c-0.719 0.932-1.152 2.117-1.152 3.402 0 0.008 0 0.015 0 0.023v-0.001c0.243 3.998 3.426 7.181 7.402 7.423l0.022 0.001c0.947-0.018 1.71-0.781 1.728-1.726l0-0.002v-10.272c-0.018-0.947-0.781-1.71-1.726-1.728l-0.002-0c-0.035-0.001-0.077-0.001-0.118-0.001-1.906 0-3.66 0.651-5.051 1.742l0.018-0.013v-3.424c0.097-4.813 2.292-9.094 5.704-11.98l0.024-0.020v2.848c0 0.001 0 0.003 0 0.004 0 0.248 0.142 0.464 0.348 0.57l0.004 0.002c0.058 0.025 0.126 0.040 0.197 0.040 0.15 0 0.285-0.064 0.378-0.167l0-0c1.942-1.982 4.645-3.21 7.636-3.21 0.162 0 0.323 0.004 0.483 0.011l-0.023-0.001c0.166-0.009 0.36-0.015 0.555-0.015 2.972 0 5.656 1.231 7.57 3.212l0.003 0.003c0.102 0.144 0.262 0.241 0.446 0.256l0.002 0h0.224c0.21-0.108 0.352-0.323 0.352-0.572 0-0.002 0-0.003-0-0.005v0-2.976c3.464 2.881 5.662 7.18 5.696 11.994l0 0.006v3.424c-1.374-1.078-3.127-1.728-5.033-1.728-0.031 0-0.061 0-0.092 0l0.005-0c-0.947 0.018-1.71 0.781-1.728 1.726l-0 0.002v10.272c0.018 0.947 0.781 1.71 1.726 1.728l0.002 0c3.998-0.244 7.18-3.426 7.423-7.402l0.001-0.022c0.010-0.119 0.016-0.257 0.016-0.396 0-1.146-0.391-2.201-1.048-3.039l0.008 0.011zM8 30.272c0 0.318-0.258 0.576-0.576 0.576s-0.576-0.258-0.576-0.576v0-10.272c0-0.318 0.258-0.576 0.576-0.576s0.576 0.258 0.576 0.576v0 10.272zM5.728 19.552v10.976c-2.557-0.873-4.396-3.176-4.575-5.932l-0.001-0.020c0-2.752 2.176-4.448 4.576-5.024zM25.152 4v2.176c-2.092-1.639-4.761-2.629-7.662-2.629-0.119 0-0.238 0.002-0.356 0.005l0.017-0c-0.101-0.003-0.219-0.005-0.338-0.005-2.9 0-5.57 0.989-7.689 2.649l0.027-0.021v-2.4c2.233-1.581 4.996-2.553 7.983-2.624l0.017-0c3.005 0.052 5.773 1.027 8.043 2.653l-0.043-0.029v0.224zM26.272 20c0-0.318 0.258-0.576 0.576-0.576s0.576 0.258 0.576 0.576v0 10.272c0 0.318-0.258 0.576-0.576 0.576s-0.576-0.258-0.576-0.576v0-10.272zM28.576 30.528v-10.976c2.496 0.576 4.576 2.176 4.576 5.024-0.215 2.763-2.039 5.050-4.528 5.937l-0.048 0.015z"></path> </svg> 