 <svg version="1.1" xmlns="http://www.w3.org/2000/svg" width="32" height="32" viewBox="0 0 32 32">  <path d="M24 18.656c-4.128 0-5.664-2.176-6.208-3.488-0.608-1.536-0.544-3.36 0.096-4.832-1.472 0.384-2.272 0.384-3.776 0 0.672 1.472 0.736 3.296 0.096 4.832-0.544 1.312-2.080 3.488-6.208 3.488-5.248 0-6.656-2.912-6.656-4.672 0-0.224 0-0.48 0.032-0.8 0.064-0.736 0.128-1.888-0.224-2.304-0.096-0.096-0.224-0.192-0.512-0.224-0.32 0-0.576-0.256-0.64-0.544-0.032-0.32 0.128-0.608 0.416-0.736 0.16-0.064 3.616-1.376 7.584-1.376 2.496 0 4.544 0.544 6.016 0.928 0.8 0.224 1.536 0.416 1.984 0.416s1.184-0.192 1.984-0.416c1.504-0.384 3.52-0.928 6.016-0.928 3.968 0 7.424 1.312 7.584 1.376 0.288 0.128 0.448 0.416 0.416 0.736-0.064 0.288-0.32 0.544-0.64 0.544-0.288 0.032-0.416 0.128-0.48 0.224-0.384 0.416-0.32 1.568-0.256 2.304 0.032 0.32 0.032 0.576 0.032 0.8 0 1.76-1.376 4.672-6.656 4.672zM19.744 9.856c-0.896 0.96-1.44 3.040-0.704 4.8 0.512 1.216 1.76 2.688 4.96 2.688 5.184 0 5.344-3.008 5.344-3.36 0-0.192-0.032-0.416-0.032-0.704-0.096-0.992-0.192-2.24 0.416-3.104-1.344-0.384-3.456-0.832-5.728-0.832-1.632 0-3.040 0.224-4.256 0.512zM2.304 10.176c0.576 0.864 0.48 2.112 0.416 3.104-0.032 0.288-0.064 0.512-0.064 0.704 0 0.352 0.16 3.36 5.344 3.36 3.2 0 4.448-1.472 4.96-2.688 0.736-1.76 0.192-3.84-0.704-4.8-1.216-0.288-2.624-0.512-4.256-0.512-2.272 0-4.384 0.448-5.696 0.832zM18.016 13.984c-0.384 0-0.672-0.288-0.672-0.64s-0.416-0.672-1.344-0.672-1.344 0.32-1.344 0.672c0 0.352-0.288 0.64-0.64 0.64s-0.672-0.288-0.672-0.64c0-1.024 0.832-2.016 2.656-2.016s2.656 0.992 2.656 2.016c0 0.352-0.288 0.64-0.64 0.64zM16 32c-8.832 0-16-7.168-16-16s7.168-16 16-16 16 7.168 16 16-7.168 16-16 16zM16 1.344c-8.096 0-14.656 6.56-14.656 14.656s6.56 14.656 14.656 14.656 14.656-6.56 14.656-14.656-6.56-14.656-14.656-14.656zM8.672 14.656c-1.12 0-2.016-0.896-2.016-1.984s0.896-2.016 2.016-2.016 1.984 0.896 1.984 2.016-0.896 1.984-1.984 1.984zM8.672 12c-0.384 0-0.672 0.288-0.672 0.672s0.288 0.672 0.672 0.672 0.672-0.32 0.672-0.672-0.32-0.672-0.672-0.672zM23.328 14.656c-1.088 0-1.984-0.896-1.984-1.984s0.896-2.016 1.984-2.016 2.016 0.896 2.016 2.016-0.896 1.984-2.016 1.984zM23.328 12c-0.352 0-0.672 0.288-0.672 0.672s0.32 0.672 0.672 0.672 0.672-0.32 0.672-0.672-0.288-0.672-0.672-0.672zM20.544 25.344c-1.28 0-5.216 0-5.216-2.688s1.984-2.656 2.944-2.656c0.448 0 0.992 0.16 1.728 0.384 1.568 0.48 3.904 1.184 7.296 0.96 0.32-0.032 0.576 0.16 0.672 0.448s0 0.576-0.256 0.768c-1.28 0.864-4.896 2.784-7.168 2.784zM18.272 21.344c-1.216 0-1.6 0.096-1.6 1.312 0 1.12 2.112 1.344 3.872 1.344 1.088 0 2.752-0.608 4.256-1.344-2.304-0.128-4.032-0.64-5.184-0.992-0.576-0.192-1.088-0.32-1.344-0.32zM11.456 25.344c-2.272 0-5.888-1.92-7.168-2.784-0.256-0.192-0.352-0.48-0.256-0.768s0.384-0.48 0.672-0.448c3.392 0.224 5.728-0.48 7.296-0.96 0.736-0.224 1.28-0.384 1.728-0.384 0.96 0 2.944 0 2.944 2.656s-3.904 2.688-5.216 2.688zM7.2 22.656c1.504 0.736 3.168 1.344 4.256 1.344 1.792 0 3.872-0.224 3.872-1.344 0-1.216-0.384-1.312-1.6-1.312-0.256 0-0.768 0.128-1.344 0.32-1.152 0.352-2.88 0.864-5.184 0.992z"></path> </svg> 