 <svg version="1.1" xmlns="http://www.w3.org/2000/svg" width="32" height="32" viewBox="0 0 32 32">  <path d="M7.328 20h17.344c0.352 0 0.672-0.288 0.672-0.672s-0.32-0.672-0.672-0.672h-17.344c-0.352 0-0.672 0.32-0.672 0.672s0.32 0.672 0.672 0.672zM24.672 22.656h-17.344c-0.352 0-0.672 0.32-0.672 0.672s0.32 0.672 0.672 0.672h17.344c0.352 0 0.672-0.288 0.672-0.672s-0.32-0.672-0.672-0.672zM24.672 26.656h-17.344c-0.352 0-0.672 0.32-0.672 0.672s0.32 0.672 0.672 0.672h17.344c0.352 0 0.672-0.288 0.672-0.672s-0.32-0.672-0.672-0.672zM24.672 30.656h-17.344c-0.352 0-0.672 0.32-0.672 0.672s0.32 0.672 0.672 0.672h17.344c0.352 0 0.672-0.288 0.672-0.672s-0.32-0.672-0.672-0.672zM16 16c4.416 0 8-3.584 8-8s-3.584-8-8-8-8 3.584-8 8 3.584 8 8 8zM16 1.344c3.68 0 6.656 2.976 6.656 6.656s-2.976 6.656-6.656 6.656-6.656-2.976-6.656-6.656 2.976-6.656 6.656-6.656zM16 12c2.208 0 4-1.792 4-4s-1.792-4-4-4-4 1.792-4 4 1.792 4 4 4zM16 5.344c1.472 0 2.656 1.184 2.656 2.656s-1.184 2.656-2.656 2.656-2.656-1.184-2.656-2.656 1.184-2.656 2.656-2.656z"></path> </svg> 