 <svg version="1.1" xmlns="http://www.w3.org/2000/svg" width="32" height="32" viewBox="0 0 32 32">  <path d="M7.328 14.656c1.856 0 3.328-1.472 3.328-3.328s-1.472-3.328-3.328-3.328-3.328 1.504-3.328 3.328 1.504 3.328 3.328 3.328zM7.328 9.344c1.12 0 2.016 0.896 2.016 1.984s-0.896 2.016-2.016 2.016-1.984-0.896-1.984-2.016 0.896-1.984 1.984-1.984zM31.328 4h-15.328v-2.656h0.672c0.352 0 0.672-0.32 0.672-0.672s-0.32-0.672-0.672-0.672h-2.656c-0.384 0-0.672 0.288-0.672 0.672s0.288 0.672 0.672 0.672h0.64v2.656h-13.984c-0.384 0-0.672 0.288-0.672 0.672v22.656c0 0.384 0.288 0.672 0.672 0.672h13.984v2.656h-0.64c-0.384 0-0.672 0.32-0.672 0.672s0.288 0.672 0.672 0.672h2.656c0.352 0 0.672-0.288 0.672-0.672s-0.32-0.672-0.672-0.672h-0.672v-2.656h15.328c0.384 0 0.672-0.288 0.672-0.672v-22.656c0-0.384-0.288-0.672-0.672-0.672zM14.656 5.344v9.12l-4.064 6.432-4.096-4.672c-0.128-0.16-0.352-0.224-0.576-0.224-0.192 0.032-0.384 0.16-0.512 0.32l-4.064 7.168v-18.144h13.312zM1.344 26.656v-0.48l4.768-8.384 4.064 4.64c0.128 0.16 0.352 0.256 0.544 0.224 0.224 0 0.384-0.128 0.512-0.288l3.424-5.408v9.696h-13.312zM30.656 26.656h-14.656v-21.312h14.656v21.312z"></path> </svg> 