 <svg version="1.1" xmlns="http://www.w3.org/2000/svg" width="32" height="32" viewBox="0 0 32 32">  <path d="M28 0.672c0-0.384-0.288-0.672-0.672-0.672h-22.656c-0.384 0-0.672 0.288-0.672 0.672v14.656c0 0.096 0.032 0.16 0.064 0.256 0 0.032 0 0.032 0 0.032 0.032 0.064 0.064 0.128 0.128 0.192 0.128 0.128 0.32 0.192 0.48 0.192v0h22.656c0.16 0 0.288-0.064 0.384-0.128 0 0 0.032 0 0.032-0.032 0 0 0.032 0 0.032 0 0.032-0.032 0.064-0.096 0.096-0.128s0.032-0.064 0.064-0.096c0-0.032 0.032-0.064 0.032-0.128 0-0.032 0.032-0.064 0.032-0.128 0 0 0 0 0-0.032v-14.656zM26.656 1.344v12.064l-6.144-7.808c-0.096-0.16-0.288-0.256-0.48-0.256-0.224-0.032-0.384 0.064-0.512 0.224l-4.96 5.504-3.52-2.24c-0.288-0.16-0.608-0.128-0.832 0.096l-4.864 4.8v-12.384h21.312zM25.952 14.656h-19.648l4.448-4.416 3.552 2.272c0.288 0.16 0.64 0.128 0.864-0.128l4.8-5.344 5.984 7.616zM24.672 18.656h-17.344c-0.352 0-0.672 0.32-0.672 0.672s0.32 0.672 0.672 0.672h17.344c0.352 0 0.672-0.288 0.672-0.672s-0.32-0.672-0.672-0.672zM24.672 22.656h-17.344c-0.352 0-0.672 0.32-0.672 0.672s0.32 0.672 0.672 0.672h17.344c0.352 0 0.672-0.288 0.672-0.672s-0.32-0.672-0.672-0.672zM24.672 26.656h-17.344c-0.352 0-0.672 0.32-0.672 0.672s0.32 0.672 0.672 0.672h17.344c0.352 0 0.672-0.288 0.672-0.672s-0.32-0.672-0.672-0.672zM24.672 30.656h-17.344c-0.352 0-0.672 0.32-0.672 0.672s0.32 0.672 0.672 0.672h17.344c0.352 0 0.672-0.288 0.672-0.672s-0.32-0.672-0.672-0.672zM10.656 8c1.472 0 2.688-1.184 2.688-2.656s-1.216-2.688-2.688-2.688-2.656 1.216-2.656 2.688 1.184 2.656 2.656 2.656zM10.656 4c0.736 0 1.344 0.608 1.344 1.344s-0.608 1.312-1.344 1.312-1.312-0.576-1.312-1.312 0.576-1.344 1.312-1.344z"></path> </svg> 