 <svg version="1.1" xmlns="http://www.w3.org/2000/svg" width="32" height="32" viewBox="0 0 32 32">  <path d="M7.328 17.344c1.856 0 3.328-1.504 3.328-3.36s-1.472-3.328-3.328-3.328-3.328 1.504-3.328 3.328 1.504 3.36 3.328 3.36zM7.328 12c1.12 0 2.016 0.896 2.016 1.984s-0.896 2.016-2.016 2.016-1.984-0.896-1.984-2.016 0.896-1.984 1.984-1.984zM31.328 6.656h-4.704c0.032-0.224 0.032-0.448 0.032-0.672 0-2.56-2.080-4.64-4.64-4.64s-4.672 2.080-4.672 4.64c0 0.224 0 0.448 0.032 0.672h-16.704c-0.384 0-0.672 0.32-0.672 0.672v22.688c0 0.352 0.288 0.64 0.672 0.64h30.656c0.384 0 0.672-0.288 0.672-0.64v-22.688c0-0.352-0.288-0.672-0.672-0.672zM22.016 2.656c1.824 0 3.328 1.504 3.328 3.328 0 2.4-2.272 6.368-3.328 8.096-1.088-1.728-3.36-5.696-3.36-8.096 0-1.824 1.504-3.328 3.36-3.328zM17.664 8c0.928 3.392 3.648 7.488 3.776 7.712 0.128 0.16 0.352 0.288 0.576 0.288s0.416-0.128 0.544-0.288c0.128-0.224 2.848-4.32 3.776-7.712h4.32v17.504l-5.472-6.592c-0.256-0.32-0.768-0.32-1.024 0l-2.72 3.264-4.192-7.168c-0.128-0.224-0.32-0.352-0.576-0.352-0.192 0.032-0.448 0.128-0.576 0.32l-5.504 8.576-4.096-4.672c-0.128-0.16-0.352-0.224-0.576-0.224-0.192 0.032-0.384 0.16-0.512 0.352l-4.064 7.136v-18.144h16.32zM1.344 29.344v-0.512l4.768-8.352 4.064 4.64c0.128 0.128 0.32 0.224 0.544 0.224 0.192-0.032 0.384-0.128 0.512-0.32l5.408-8.416 4.128 7.072c0.096 0.192 0.288 0.288 0.512 0.32 0.224 0 0.416-0.064 0.576-0.256l2.816-3.36 5.984 7.2v1.76h-29.312zM24 5.984c0-1.088-0.896-1.984-1.984-1.984s-2.016 0.896-2.016 1.984 0.896 2.016 2.016 2.016 1.984-0.896 1.984-2.016zM21.344 5.984c0-0.352 0.288-0.64 0.672-0.64s0.64 0.288 0.64 0.64-0.288 0.672-0.64 0.672-0.672-0.288-0.672-0.672z"></path> </svg> 