 <svg version="1.1" xmlns="http://www.w3.org/2000/svg" width="32" height="32" viewBox="0 0 32 32">  <path d="M4 7.328c0 1.856 1.504 3.328 3.328 3.328s3.328-1.472 3.328-3.328-1.472-3.328-3.328-3.328-3.328 1.504-3.328 3.328zM9.344 7.328c0 1.12-0.896 2.016-2.016 2.016s-1.984-0.896-1.984-2.016 0.896-1.984 1.984-1.984 2.016 0.896 2.016 1.984zM31.328 0h-30.656c-0.384 0-0.672 0.288-0.672 0.672v22.656c0 0.384 0.288 0.672 0.672 0.672h14.656c0.384 0 0.672-0.288 0.672-0.672s-0.288-0.672-0.672-0.672h-13.984v-0.48l4.768-8.384 4.064 4.64c0.128 0.16 0.352 0.256 0.544 0.224 0.224 0 0.416-0.128 0.512-0.32l3.328-5.312c0.192-0.32 0.096-0.736-0.192-0.928-0.32-0.192-0.736-0.096-0.928 0.224l-2.848 4.576-4.096-4.672c-0.128-0.16-0.352-0.256-0.576-0.224-0.192 0.032-0.384 0.16-0.512 0.32l-4.064 7.168v-18.144h29.312v17.984c0 0.384 0.32 0.672 0.672 0.672s0.672-0.288 0.672-0.672v-18.656c0-0.384-0.288-0.672-0.672-0.672zM18.464 9.536c-0.192-0.192-0.48-0.256-0.704-0.16-0.256 0.096-0.416 0.352-0.416 0.608v18.496c0 0.224 0.128 0.48 0.352 0.576 0.256 0.128 0.512 0.096 0.704-0.064l3.392-2.656 2.944 5.312c0.128 0.224 0.352 0.352 0.608 0.352 0.096 0 0.192-0.032 0.288-0.064l4-2.016c0.16-0.064 0.288-0.224 0.352-0.384 0.032-0.192 0.032-0.352-0.064-0.512l-2.784-5.024h4.192c0.288 0 0.512-0.16 0.608-0.416 0.128-0.256 0.064-0.544-0.128-0.736l-13.344-13.312zM26.016 22.656c-0.256 0-0.48 0.128-0.576 0.352-0.128 0.192-0.128 0.448-0.032 0.64l3.008 5.408-2.816 1.408-3.008-5.44c-0.096-0.192-0.256-0.32-0.448-0.352-0.064 0-0.096 0-0.128 0-0.16 0-0.32 0.032-0.416 0.128l-2.944 2.304v-15.488l11.072 11.040h-3.712z"></path> </svg> 