 <svg version="1.1" xmlns="http://www.w3.org/2000/svg" width="32" height="32" viewBox="0 0 32 32">  <path d="M15.328 11.744c0-1.088 0.928-1.888 2.016-1.888 1.056 0 1.984 0.8 1.984 1.888 0 1.056-0.928 1.856-1.984 1.856-1.088 0-2.016-0.8-2.016-1.856zM19.328 21.984c0 0.16-0.128 0.288-0.256 0.416-0.672 0.672-1.6 0.928-2.656 1.056-0.416 0-0.96 0-1.344 0-1.216-0.256-1.856-1.056-1.728-2.112 0.256-1.216 0.512-2.4 0.672-3.616 0.128-0.384 0.128-0.672 0.256-1.056 0-0.128 0-0.288 0-0.416 0-0.256-0.256-0.384-0.544-0.384-0.128 0-0.256 0-0.384 0s-0.416-0.128-0.544-0.128c-0.256-0.16-0.256-0.544 0.128-0.544 0.128 0 0.288-0.128 0.544-0.128 0.672 0 1.344 0 1.984 0h1.888c0.384 0 0.672 0.256 0.8 0.512 0 0.416-0.128 0.8-0.128 1.216-0.288 1.184-0.544 2.272-0.672 3.328-0.128 0.416-0.128 0.8-0.288 1.216 0 0.128 0 0.256 0 0.384 0.16 0.544 0.416 0.672 0.96 0.544 0.128 0 0.256-0.128 0.512-0.128 0.128 0 0.288-0.16 0.544-0.288 0.128-0.256 0.256-0.128 0.256 0.128zM16 32c-8.8 0-16-7.2-16-16s7.2-16 16-16 16 7.2 16 16-7.2 16-16 16zM16 30.656c8.128 0 14.656-6.528 14.656-14.656s-6.528-14.656-14.656-14.656-14.656 6.528-14.656 14.656 6.528 14.656 14.656 14.656z"></path> </svg> 