 <svg version="1.1" xmlns="http://www.w3.org/2000/svg" width="32" height="32" viewBox="0 0 32 32">  <path d="M27.328 0h-22.656c-0.384 0-0.672 0.288-0.672 0.672v14.656c0 0 0 0 0 0v16c0 0.384 0.288 0.672 0.672 0.672h22.656c0.384 0 0.672-0.288 0.672-0.672v-30.656c0-0.384-0.288-0.672-0.672-0.672zM26.656 1.344v12.064l-6.144-7.808c-0.096-0.16-0.288-0.256-0.48-0.256-0.192-0.032-0.384 0.064-0.512 0.224l-4.96 5.504-3.52-2.24c-0.288-0.16-0.608-0.128-0.832 0.096l-4.864 4.8v-12.384h21.312zM25.952 14.656h-19.648l4.448-4.416 3.552 2.272c0.288 0.16 0.64 0.128 0.864-0.128l4.8-5.344 5.984 7.616zM5.344 30.656v-14.656h21.312v14.656h-21.312zM23.328 18.656h-14.656c-0.384 0-0.672 0.32-0.672 0.672s0.288 0.672 0.672 0.672h14.656c0.384 0 0.672-0.288 0.672-0.672s-0.288-0.672-0.672-0.672zM20.672 24h-9.344c-0.352 0-0.672 0.288-0.672 0.672v2.656c0 0.384 0.32 0.672 0.672 0.672h9.344c0.352 0 0.672-0.288 0.672-0.672v-2.656c0-0.384-0.32-0.672-0.672-0.672zM20 26.656h-8v-1.312h8v1.312zM10.656 8c1.472 0 2.688-1.184 2.688-2.656s-1.216-2.688-2.688-2.688-2.656 1.216-2.656 2.688 1.184 2.656 2.656 2.656zM10.656 4c0.736 0 1.344 0.608 1.344 1.344s-0.608 1.312-1.344 1.312-1.312-0.576-1.312-1.312 0.576-1.344 1.312-1.344z"></path> </svg> 