 <svg version="1.1" xmlns="http://www.w3.org/2000/svg" width="32" height="32" viewBox="0 0 32 32">  <path d="M12 13.344h-4.064c-0.352 0-0.64 0.096-0.896 0.32-0.256 0.256-0.384 0.512-0.384 0.832s0.128 0.608 0.384 0.832l8.736 8.288c0.256 0.256 0.544 0.352 0.896 0.352s0.608-0.128 0.864-0.352l8.768-8.288c0.256-0.224 0.352-0.512 0.352-0.832s-0.096-0.576-0.352-0.832c-0.256-0.224-0.544-0.32-0.896-0.32h-4.064v-9.344c0-0.736-0.608-1.344-1.344-1.344h-6.656c-0.736 0-1.344 0.608-1.344 1.344v0 9.344zM8.096 29.344c-0.8 0-1.44-0.608-1.44-1.344s0.64-1.344 1.44-1.344h17.152c0.768 0 1.408 0.608 1.408 1.344s-0.64 1.344-1.408 1.344h-17.152z"></path> </svg> 