 <svg version="1.1" xmlns="http://www.w3.org/2000/svg" width="32" height="32" viewBox="0 0 32 32">  <path d="M8.8 5.472l13.344 7.712c0.256 0.16 0.384 0.544 0.256 0.96s-0.544 0.384-0.928 0.256l-13.344-7.744c-1.056 1.344-2.912 1.6-4.512 0.8-1.6-1.056-2.272-3.2-1.216-4.928s3.2-2.272 4.928-1.344c1.472 0.96 2.016 2.688 1.472 4.288zM24 18.656l-13.344 7.744c-0.256 0.128-0.64 0.128-0.928-0.256-0.128-0.288-0.128-0.672 0.288-0.96l13.312-7.712c-0.512-1.6 0.128-3.328 1.6-4.288 1.728-0.928 3.872-0.384 4.928 1.344 0.96 1.728 0.416 3.872-1.312 4.928-1.472 0.8-3.328 0.416-4.544-0.8zM4.256 24.544v-14.688c0-0.384 0.288-0.672 0.672-0.672s0.672 0.288 0.672 0.672v14.688c1.6 0.256 2.944 1.728 2.944 3.456 0 2.016-1.6 3.616-3.616 3.616s-3.584-1.6-3.584-3.616c0-1.728 1.184-3.2 2.912-3.456zM2.656 28c0 1.216 0.96 2.272 2.272 2.272s2.272-0.928 2.272-2.272-0.928-2.272-2.272-2.272-2.272 1.056-2.272 2.272zM27.872 18.272c1.056-0.672 1.472-2.016 0.8-3.072s-2.016-1.472-3.072-0.8c-1.056 0.672-1.472 1.984-0.8 3.072 0.672 1.056 2.016 1.472 3.072 0.8zM4.416 6.272c1.056 0.672 2.4 0.256 3.040-0.8s0.288-2.4-0.8-3.072-2.528-0.256-3.2 0.8-0.128 2.4 0.96 3.072z"></path> </svg> 