 <svg version="1.1" xmlns="http://www.w3.org/2000/svg" width="32" height="32" viewBox="0 0 32 32">  <path d="M15.328 23.584v4.416c0 0.416 0.288 0.672 0.672 0.672s0.672-0.256 0.672-0.672v-4.416l0.8 0.8c0.256 0.288 0.672 0.288 0.928 0 0.256-0.256 0.256-0.64 0-0.928l-1.984-1.984c-0.288-0.288-0.672-0.288-0.96 0l-1.984 1.984c-0.256 0.288-0.256 0.672 0 0.928 0.256 0.288 0.672 0.288 0.928 0l0.928-0.8zM10.656 25.344c0 2.912 2.4 5.312 5.344 5.312s5.344-2.4 5.344-5.312-2.4-5.344-5.344-5.344-5.344 2.4-5.344 5.344zM1.344 3.328c0 0 0 0 0 0 0-1.856 1.472-3.328 3.328-3.328h22.656c1.888 0 3.328 1.472 3.328 3.328v4.128c0.8 0.672 1.344 1.6 1.344 2.816v12.256c0 1.856-1.472 3.456-3.456 3.456h-3.872c-0.416 0-0.672-0.256-0.672-0.64s0.256-0.672 0.672-0.672h3.872c1.184 0 2.112-0.928 2.112-2.144v-12.256c0-1.216-0.928-2.272-2.112-2.272h-16c-1.344 0-2.688-0.8-3.2-2.272v0l-0.128-0.256c-0.288-0.928-1.088-1.472-2.016-1.472h-3.744c-1.184 0-2.112 0.928-2.112 2.144v16.384c0 1.216 0.928 2.144 2.112 2.144h3.872c0.416 0 0.672 0.256 0.672 0.672s-0.256 0.64-0.672 0.64h-3.872c-1.856 0-3.456-1.6-3.456-3.456v-16.384c0-1.088 0.544-2.144 1.344-2.816zM2.816 2.656c0.256 0 0.384 0 0.64 0h3.872c1.472 0 2.688 0.928 3.2 2.272l0.128 0.128v0.128c0.288 0.96 1.088 1.472 1.888 1.472h16c0.256 0 0.512 0 0.8 0.128v-3.456c0-1.056-0.928-1.984-2.016-1.984h-22.656c-0.928 0-1.6 0.512-1.856 1.312zM9.344 25.344c0-3.744 2.912-6.688 6.656-6.688s6.656 2.944 6.656 6.688-2.912 6.656-6.656 6.656-6.656-2.944-6.656-6.656z"></path> </svg> 