 <svg version="1.1" xmlns="http://www.w3.org/2000/svg" width="32" height="32" viewBox="0 0 32 32">  <path d="M15.328 26.4v-4.416c0-0.352 0.288-0.64 0.672-0.64s0.672 0.288 0.672 0.64v4.416l0.864-0.896c0.256-0.256 0.672-0.256 0.96 0s0.256 0.704 0 0.96l-2.016 2.016c-0.256 0.256-0.672 0.256-0.96 0l-1.984-2.016c-0.256-0.256-0.256-0.672 0-0.96 0.256-0.256 0.672-0.256 0.96 0l0.832 0.896zM10.656 25.344c0 2.944 2.4 5.312 5.344 5.312s5.344-2.368 5.344-5.312-2.4-5.344-5.344-5.344-5.344 2.4-5.344 5.344zM1.344 3.392c0-0.032 0-0.032 0-0.064 0-1.824 1.504-3.328 3.36-3.328h22.592c1.856 0 3.36 1.504 3.36 3.328v4.128c0.832 0.64 1.344 1.664 1.344 2.784v12.288c0 1.952-1.504 3.488-3.392 3.488h-3.84c-0.384 0-0.672-0.288-0.672-0.672s0.288-0.64 0.672-0.64h3.84c1.12 0 2.048-0.96 2.048-2.176v-12.288c0-1.216-0.928-2.176-2.048-2.176h-16.032c-1.44 0-2.72-0.928-3.2-2.304l-0.096-0.096-0.064-0.192c-0.288-0.896-1.088-1.472-1.984-1.472h-3.84c-1.12 0-2.048 0.96-2.048 2.144v16.384c0 1.216 0.928 2.176 2.048 2.176h3.84c0.384 0 0.672 0.288 0.672 0.64s-0.288 0.672-0.672 0.672h-3.84c-1.856 0-3.392-1.536-3.392-3.488v-16.384c0-1.12 0.512-2.112 1.344-2.752zM2.752 2.72c0.224-0.032 0.448-0.064 0.64-0.064h3.84c1.408 0 2.688 0.928 3.2 2.304l0.064 0.096 0.128 0.224c0.256 0.864 1.056 1.472 1.952 1.472h16.032c0.256 0 0.512 0.032 0.736 0.064v-3.488c0-1.088-0.928-1.984-2.048-1.984h-22.592c-0.928 0-1.696 0.576-1.952 1.376zM9.344 25.344c0-3.68 2.976-6.688 6.656-6.688s6.656 3.008 6.656 6.688-2.976 6.656-6.656 6.656-6.656-2.976-6.656-6.656z"></path> </svg> 