 <svg version="1.1" xmlns="http://www.w3.org/2000/svg" width="32" height="32" viewBox="0 0 32 32">  <path d="M14.688 2.656c0.128 0 0.256-0.032 0.384-0.128 1.472-1.056 3.072-1.184 4.448-1.184 1.856 0 3.2 0.576 3.936 1.696 0.864 1.344 0.48 2.048 0.064 2.496l-0.64 0.672c-0.128 0.096-0.192 0.256-0.224 0.416l-0.16 3.36c0 0.16 0.064 0.352 0.192 0.48s0.288 0.192 0.48 0.192c0.192 0 0.352 0.096 0.48 0.256 0.128 0.128 0.192 0.32 0.16 0.512l-0.32 2.656c-0.032 0.32-0.32 0.576-0.736 0.576-0.32 0-0.608 0.256-0.64 0.576-0.128 0.736-0.672 1.728-0.704 1.76-0.16 0.32-0.064 0.704 0.256 0.896s0.736 0.064 0.928-0.256c0-0.032 0.448-0.864 0.704-1.696 0.8-0.192 1.408-0.864 1.504-1.696l0.352-2.656c0.064-0.576-0.128-1.12-0.48-1.568-0.224-0.256-0.512-0.448-0.8-0.544l0.128-2.528 0.48-0.48c0.768-0.8 1.376-2.176 0.064-4.16-0.992-1.536-2.688-2.304-5.024-2.304-0.928 0-3.072 0-5.056 1.344-5.696 0.096-6.464 2.752-6.464 5.312 0 0.608 0.16 1.952 0.256 2.784-0.352 0.096-0.672 0.288-0.896 0.576-0.384 0.416-0.576 0.992-0.512 1.568l0.352 2.656c0.096 0.864 0.768 1.568 1.6 1.728 0.288 1.824 1.152 3.616 2.464 4.96l-0.48 1.856-5.12 1.28c-3.328 0.832-5.664 3.84-5.664 7.264 0 0.192 0.064 0.352 0.192 0.48s0.288 0.192 0.48 0.192l17.344-0.032c0.352 0 0.64-0.288 0.64-0.672 0-0.352-0.288-0.64-0.64-0.64 0 0 0 0 0 0h-16.64c0.256-2.528 2.112-4.672 4.64-5.312l5.472-1.376c0.256-0.032 0.448-0.224 0.48-0.48l0.672-2.592c0.064-0.256-0.032-0.512-0.192-0.672-1.344-1.248-2.24-3.104-2.4-4.928 0-0.352-0.32-0.64-0.64-0.64h-0.224c-0.352 0-0.64-0.224-0.672-0.576l-0.32-2.656c-0.032-0.192 0.032-0.384 0.16-0.544 0.128-0.128 0.288-0.224 0.48-0.224h0.16c0.192 0 0.352-0.064 0.48-0.224 0.128-0.128 0.192-0.32 0.16-0.512-0.064-0.672-0.288-2.592-0.288-3.264 0-2.080 0.416-3.936 5.344-4zM31.328 22.624h-0.672v-0.64c0-2.592-2.080-4.672-4.64-4.672s-4.672 2.080-4.672 4.672v0.64h-0.672c-0.384 0-0.672 0.32-0.672 0.672v8c0 0.384 0.288 0.672 0.672 0.672h10.656c0.384 0 0.672-0.288 0.672-0.672v-8c0-0.352-0.288-0.672-0.672-0.672zM22.656 21.984c0-1.856 1.504-3.36 3.36-3.36s3.328 1.504 3.328 3.36v0.64h-6.688v-0.64zM30.656 30.656h-9.312v-6.688h9.312v6.688zM25.344 27.776v0.864c0 0.384 0.288 0.672 0.672 0.672s0.64-0.288 0.64-0.672v-0.864c0.416-0.224 0.672-0.64 0.672-1.152 0-0.736-0.576-1.312-1.312-1.312s-1.344 0.576-1.344 1.312c0 0.512 0.256 0.928 0.672 1.152z"></path> </svg> 