 <svg version="1.1" xmlns="http://www.w3.org/2000/svg" width="32" height="32" viewBox="0 0 32 32">  <path d="M29.984 16c0-7.744-6.272-13.984-13.984-13.984s-13.984 6.24-13.984 13.984 6.24 13.984 13.984 13.984 13.984-6.24 13.984-13.984zM31.328 16c0 8.48-6.848 15.328-15.328 15.328s-15.328-6.848-15.328-15.328 6.848-15.328 15.328-15.328 15.328 6.848 15.328 15.328zM6.592 13.6h0.288c0.224 0 0.384 0.16 0.384 0.352v3.168c0 0.224 0.16 0.384 0.352 0.384h0.896c0.224 0 0.384 0.16 0.384 0.352v0.32c0 0.224-0.16 0.384-0.384 0.384h-1.92c-0.192 0-0.352-0.16-0.352-0.384v-4.224c0-0.192 0.16-0.352 0.352-0.352zM13.44 16.032c0-0.48-0.16-0.864-0.416-1.152-0.288-0.32-0.672-0.448-1.12-0.448s-0.864 0.128-1.12 0.448-0.448 0.672-0.448 1.152c0 0.512 0.16 0.896 0.448 1.184s0.672 0.448 1.12 0.448 0.832-0.16 1.12-0.448c0.256-0.288 0.416-0.672 0.416-1.184zM10.048 17.856c-0.512-0.48-0.768-1.056-0.768-1.824 0-0.736 0.256-1.344 0.768-1.824s1.12-0.704 1.856-0.704c0.736 0 1.344 0.224 1.856 0.704 0.48 0.48 0.736 1.088 0.736 1.824s-0.256 1.344-0.736 1.824c-0.512 0.48-1.12 0.736-1.856 0.736s-1.344-0.256-1.856-0.736zM15.008 16.032c0-0.736 0.256-1.312 0.768-1.792s1.12-0.736 1.824-0.736c0.576 0 1.056 0.128 1.504 0.416 0.416 0.288 0.736 0.704 0.832 1.088 0 0.224-0.256 0.256-0.672 0.256-0.128 0-0.224-0.064-0.32-0.192-0.224-0.448-0.8-0.64-1.344-0.64-0.48 0-0.832 0.128-1.12 0.448s-0.416 0.672-0.416 1.152c0 0.512 0.128 0.896 0.416 1.184s0.64 0.448 1.056 0.448c0.416 0 0.736-0.128 0.992-0.32s0.352-0.352 0.416-0.608h-1.312c-0.192 0-0.352-0.16-0.352-0.352 0 0 0 0 0 0v-0.256c0-0.224 0.16-0.352 0.352-0.352l2.048 0.032c0.192 0 0.352 0.16 0.352 0.352v0.352c-0.096 0.512-0.288 1.024-0.768 1.408-0.448 0.416-1.024 0.64-1.728 0.64s-1.28-0.256-1.76-0.736c-0.512-0.448-0.768-1.056-0.768-1.792zM24.768 16.032c0-0.48-0.16-0.864-0.448-1.152s-0.64-0.448-1.12-0.448-0.832 0.128-1.12 0.448-0.416 0.672-0.416 1.152c0 0.512 0.16 0.896 0.416 1.184 0.32 0.288 0.672 0.448 1.12 0.448s0.864-0.16 1.12-0.448c0.32-0.288 0.448-0.672 0.448-1.184zM21.376 17.856c-0.512-0.48-0.768-1.056-0.768-1.824 0-0.736 0.256-1.344 0.768-1.824s1.12-0.704 1.856-0.704 1.344 0.224 1.824 0.704c0.512 0.48 0.768 1.088 0.768 1.824s-0.256 1.344-0.768 1.824c-0.48 0.48-1.12 0.736-1.856 0.736-0.704 0-1.344-0.256-1.824-0.736zM5.088 11.872c-0.288 0-0.544-0.256-0.544-0.544s0.256-0.544 0.544-0.544h21.568c0.32 0 0.544 0.256 0.544 0.544s-0.224 0.544-0.544 0.544h-21.568zM5.088 21.184c-0.288 0-0.544-0.224-0.544-0.512s0.256-0.544 0.544-0.544h21.568c0.32 0 0.544 0.256 0.544 0.544s-0.224 0.512-0.544 0.512h-21.568z"></path> </svg> 