 <svg version="1.1" xmlns="http://www.w3.org/2000/svg" width="32" height="32" viewBox="0 0 32 32">  <path d="M28.672 26.656h-25.344c-1.824 0-3.328-1.472-3.328-3.328v-14.656c0-1.856 1.504-3.328 3.328-3.328h25.344c1.824 0 3.328 1.472 3.328 3.328v14.656c0 1.856-1.504 3.328-3.328 3.328zM3.328 6.656c-1.088 0-1.984 0.896-1.984 2.016v14.656c0 1.12 0.896 2.016 1.984 2.016h25.344c1.088 0 1.984-0.896 1.984-2.016v-14.656c0-1.12-0.896-2.016-1.984-2.016h-25.344zM16 17.344c-0.736 0-1.472-0.224-2.112-0.64l-10.944-7.488c-0.288-0.224-0.352-0.608-0.16-0.928s0.608-0.384 0.928-0.16l10.944 7.456c0.8 0.576 1.888 0.576 2.688 0l10.944-7.456c0.32-0.224 0.736-0.128 0.928 0.16 0.224 0.32 0.128 0.704-0.16 0.928l-10.944 7.488c-0.64 0.416-1.376 0.64-2.112 0.64zM3.328 24c-0.192 0-0.384-0.096-0.512-0.256-0.224-0.256-0.192-0.704 0.096-0.928l8-6.656c0.288-0.256 0.704-0.192 0.928 0.064 0.256 0.288 0.192 0.704-0.064 0.96l-8 6.656c-0.128 0.096-0.288 0.16-0.448 0.16zM28.672 24c-0.16 0-0.32-0.064-0.416-0.16l-8-6.656c-0.288-0.256-0.32-0.672-0.096-0.96 0.224-0.256 0.64-0.32 0.928-0.064l8 6.656c0.288 0.224 0.32 0.672 0.096 0.928-0.128 0.16-0.32 0.256-0.512 0.256z"></path> </svg> 