 <svg version="1.1" xmlns="http://www.w3.org/2000/svg" width="32" height="32" viewBox="0 0 32 32">  <path d="M29.344 21.6v-0.672c0.256-0.32 0.672-0.896 0.672-1.6 0-0.992-2.016-3.072-3.36-3.776v-2.88c0-1.12-0.576-2.56-1.344-3.68 0.704-0.608 2.688-2.56 2.688-4.32 0-2.784-2.048-3.328-5.344-3.328-0.8 0-1.824 0.224-3.008 0.64-0.512-0.64-1.728-1.984-2.976-1.984-1.472 0-6.336 1.408-9.824 4.864-3.36 3.36-5.504 7.648-5.504 9.12 0 1.12 1.12 2.24 1.792 2.848-0.288 0.544-0.48 1.152-0.48 1.824 0 2.272 1.92 4.128 4.192 4 1.824 5.6 6.4 9.344 11.488 9.344 3.072 0 6.016-1.408 8.256-3.776 0.032-0.064 0.096-0.096 0.128-0.16 0.8-0.864 1.504-1.888 2.112-3.008 0.672-0.224 1.824-0.736 1.824-1.728 0-0.832-0.8-1.44-1.312-1.728zM28.672 19.328c0 0.288-0.224 0.576-0.384 0.736-0.768 0.256-4.32 1.28-6.272 1.28-0.384 0-0.736-0.032-1.056-0.032-1.472-0.032-2.56-0.032-3.168 0.576-0.32 0.288-0.448 0.672-0.448 1.248-0.032 0.48-0.032 1.216 0.608 1.856 0.704 0.736 2.016 1.056 4.096 1.056 2.208 0 3.84-0.224 4.928-0.448-0.384 0.544-0.8 1.056-1.216 1.536-0.512 0.224-2.368 0.864-5.088 0.864-2.944 0-5.344-2.912-5.344-5.344 0-2.048 2.592-3.232 2.88-3.36 0.896-0.064 2.112-0.576 3.488-1.216 1.472-0.64 3.104-1.376 4.224-1.408 0.864 0.32 2.624 2.176 2.752 2.656zM25.344 12.672v2.752c-0.256 0.032-0.48 0.064-0.704 0.128 0-0.064 0.032-0.16 0.032-0.224v-0.672c0-0.352-0.288-0.672-0.672-0.672s-0.672 0.32-0.672 0.672v0.672c0 0.224 0.128 0.416 0.288 0.512-0.8 0.288-1.632 0.672-2.464 1.024-0.288 0.128-0.576 0.288-0.864 0.384 0.224-0.096 0.384-0.32 0.384-0.576v-0.672c0-0.384-0.288-0.672-0.672-0.672s-0.672 0.288-0.672 0.672v0.672c0 0.352 0.32 0.672 0.672 0.672 0.096 0 0.16-0.032 0.224-0.064-0.864 0.384-1.632 0.672-2.144 0.704-0.544-0.224-2.752-1.152-2.752-2.656 0-0.992 0.256-2.656 2.016-2.656 0.736 0 1.472 0.16 2.176 0.352 0.608 0.16 1.216 0.32 1.824 0.32 0.864 0 1.664-0.576 2.208-0.992 0.192-0.16 0.448-0.32 0.448-0.352h0.192c0.288 0 0.8-0.032 0.992 0.16 0.096 0.096 0.16 0.256 0.16 0.512zM26.656 4.672c0 0.992-1.28 2.464-2.208 3.296-0.288-0.256-0.576-0.48-0.864-0.576-1.376-0.608-8.64-3.008-15.488 7.552-0.32-0.128-0.672-0.192-1.024-0.256 3.808-7.36 12.224-12.032 15.584-12.032 4 0 4 0.992 4 2.016zM2.656 13.984c0-0.864 1.824-4.832 5.152-8.192 3.104-3.072 7.648-4.448 8.864-4.448 0.448 0 1.152 0.576 1.664 1.152-4.384 1.984-10.016 6.304-12.832 12.352-0.608 0.192-1.12 0.48-1.568 0.896-0.608-0.544-1.28-1.312-1.28-1.76zM8.16 22.368c0.16-0.064 0.352-0.16 0.512-0.256 0.32-0.192 0.416-0.608 0.256-0.896-0.192-0.32-0.608-0.448-0.928-0.256-0.416 0.256-0.864 0.384-1.344 0.384-1.472 0-2.656-1.216-2.656-2.688s1.184-2.656 2.656-2.656c0.48 0 0.928 0.128 1.344 0.384 0.32 0.16 0.704 0.064 0.896-0.224 6.4-10.24 12.928-8.096 14.176-7.552 0.512 0.224 1.184 1.088 1.664 2.080-0.224-0.032-0.416-0.032-0.576-0.032h-0.16c-0.416 0-0.768 0.288-1.248 0.608-0.416 0.32-0.96 0.736-1.408 0.736s-0.96-0.128-1.504-0.288c-0.736-0.16-1.568-0.384-2.496-0.384-1.632 0-3.328 1.056-3.328 4 0 1.664 1.408 2.784 2.496 3.392-1.088 0.704-2.496 2.016-2.496 3.936 0 3.104 2.912 6.688 6.656 6.688 1.056 0 1.952-0.096 2.752-0.224-1.568 0.992-3.296 1.536-5.088 1.536-4.48 0-8.512-3.296-10.176-8.288zM28.192 23.84c0 0-0.032 0.032-0.032 0.032-0.032 0-0.032 0-0.064 0-0.032 0.032-1.984 0.864-6.048 0.864-2.080 0-2.848-0.384-3.168-0.672-0.192-0.224-0.224-0.48-0.224-0.896 0 0 0-0.128 0-0.128 0-0.096 0.032-0.16 0.064-0.192 0.224-0.224 1.28-0.224 2.208-0.192 0.352 0 0.704 0 1.088 0 1.76 0 4.576-0.704 5.984-1.088v0.416c0 0.288 0.16 0.512 0.416 0.64 0.48 0.192 0.896 0.576 0.928 0.64-0.096 0.16-0.64 0.448-1.152 0.576z"></path> </svg> 