 <svg version="1.1" xmlns="http://www.w3.org/2000/svg" width="32" height="32" viewBox="0 0 32 32">  <path d="M16 23.328c-0.384 0-0.672 0.256-0.672 0.672 0 0.384 0.288 0.672 0.672 0.672 0.416 0 0.672-0.288 0.672-0.672 0-0.416-0.256-0.672-0.672-0.672M18.656 23.328c-0.384 0-0.64 0.256-0.64 0.672 0 0.384 0.256 0.672 0.64 0.672 0.416 0 0.672-0.288 0.672-0.672 0-0.416-0.256-0.672-0.672-0.672M12.672 24c0 0.384 0.256 0.672 0.672 0.672 0.384 0 0.672-0.288 0.672-0.672 0-0.416-0.288-0.672-0.672-0.672-0.416 0-0.672 0.256-0.672 0.672M3.744 8.8l-2.688 1.344c-0.384 0.128-0.512 0.512-0.256 0.8 0.128 0.384 0.544 0.512 0.8 0.256l1.728-0.8v8.384l-1.728-0.8c-0.384-0.256-0.672-0.128-0.8 0.288-0.256 0.384-0.128 0.672 0.256 0.8l2.688 1.312 0.256 0.288 0.256-0.128c0.288-0.16 0.416-0.288 0.288-0.544v-10.656c0-0.288-0.128-0.416-0.288-0.544-0.128-0.128-0.384-0.128-0.512 0M26.016 8c0-0.416-0.288-0.672-0.672-0.672h-18.688c-0.384 0-0.64 0.256-0.64 0.672v13.344c0 0.384 0.256 0.64 0.64 0.64h18.688c0.384 0 0.672-0.256 0.672-0.64v-13.344M24.672 20.672h-17.344v-12h17.344v12M14.816 11.744h-0.16c-0.256 0-0.384 0.128-0.384 0.256v5.6c0.128 0.128 0.384 0.256 0.544 0.128l4.256-2.656 0.128-0.128c0.128-0.16 0-0.416-0.128-0.544l-4.256-2.656M28.672 10.528l1.6 0.8c0.384 0.256 0.672 0.128 0.8-0.256 0.256-0.416 0.128-0.672-0.256-0.8l-2.688-1.344c-0.256-0.128-0.384-0.128-0.672 0-0.128 0.128-0.256 0.256-0.256 0.544v10.656c0 0.256 0.128 0.544 0.256 0.544l0.416 0.128 2.944-1.472c0.384-0.128 0.512-0.384 0.256-0.8-0.128-0.384-0.544-0.544-0.8-0.256l-1.6 0.8v-8.544z"></path> </svg> 