 <svg version="1.1" xmlns="http://www.w3.org/2000/svg" width="32" height="32" viewBox="0 0 32 32">  <path d="M24 4h-1.984v-3.328c0-0.224-0.128-0.416-0.288-0.544s-0.384-0.16-0.576-0.096l-13.344 4c0 0-0.032 0-0.032 0-0.032 0.032-0.096 0.064-0.128 0.064-0.032 0.032-0.064 0.064-0.096 0.064-0.032 0.032-0.064 0.096-0.064 0.128-0.032 0.032-0.064 0.064-0.096 0.096 0 0.032 0 0.064-0.032 0.128 0 0.032 0 0.064-0.032 0.128 0 0 0 0 0 0.032v26.656c0 0.384 0.32 0.672 0.672 0.672h16c0.384 0 0.672-0.288 0.672-0.672v-26.656c0-0.384-0.288-0.672-0.672-0.672zM20.672 4h-8.128l8.128-2.432v2.432zM23.328 30.656h-14.656v-25.312h14.656v25.312zM16 17.344c-0.352 0-0.672 0.288-0.672 0.64v1.344c0 1.152-0.32 1.632-0.672 1.824v-3.168c0-0.352-0.288-0.64-0.64-0.64s-0.672 0.288-0.672 0.64v3.168c-0.352-0.192-0.672-0.672-0.672-1.824v-1.344c0-0.352-0.288-0.64-0.672-0.64s-0.672 0.288-0.672 0.64v1.344c0 1.792 0.736 2.944 2.016 3.264v4.736c0 0.384 0.288 0.672 0.672 0.672s0.64-0.288 0.64-0.672v-4.736c1.28-0.32 2.016-1.472 2.016-3.264v-1.344c0-0.352-0.288-0.64-0.672-0.64zM20 17.344c-0.832 0-1.6 0.736-2.208 2.24-0.416 1.024-0.704 2.304-0.704 3.136 0 1.184 0.704 1.28 0.928 1.28h1.312v3.328c0 0.384 0.32 0.672 0.672 0.672s0.672-0.288 0.672-0.672v-9.344c0-0.352-0.288-0.64-0.672-0.64zM19.328 22.656h-0.896c0-0.672 0.352-2.176 0.896-3.2v3.2zM20 12h-8c-0.352 0-0.672 0.288-0.672 0.672s0.32 0.672 0.672 0.672h8c0.384 0 0.672-0.32 0.672-0.672s-0.288-0.672-0.672-0.672z"></path> </svg> 