 <svg version="1.1" xmlns="http://www.w3.org/2000/svg" width="32" height="32" viewBox="0 0 32 32">  <path d="M3.328 10.656h25.344c1.056 0 1.984-0.928 1.984-1.984s-0.928-2.016-1.984-2.016h-25.344c-1.056 0-1.984 0.928-1.984 2.016s0.928 1.984 1.984 1.984zM3.328 18.656h25.344c1.056 0 1.984-0.928 1.984-1.984s-0.928-2.016-1.984-2.016h-25.344c-1.056 0-1.984 0.928-1.984 2.016s0.928 1.984 1.984 1.984zM3.328 26.656h25.344c1.056 0 1.984-0.928 1.984-1.984s-0.928-2.016-1.984-2.016h-25.344c-1.056 0-1.984 0.928-1.984 2.016s0.928 1.984 1.984 1.984z"></path> </svg> 