 <svg version="1.1" xmlns="http://www.w3.org/2000/svg" width="32" height="32" viewBox="0 0 32 32">  <path d="M8 12h16c0.416 0 0.672-0.256 0.672-0.672s-0.256-0.672-0.672-0.672h-16c-0.384 0-0.672 0.288-0.672 0.672s0.288 0.672 0.672 0.672zM8 17.344h16c0.416 0 0.672-0.288 0.672-0.672s-0.256-0.672-0.672-0.672h-16c-0.384 0-0.672 0.256-0.672 0.672s0.288 0.672 0.672 0.672zM8 22.656h16c0.416 0 0.672-0.256 0.672-0.672s-0.256-0.64-0.672-0.64h-16c-0.384 0-0.672 0.256-0.672 0.64s0.288 0.672 0.672 0.672zM29.344 27.2v-22.4c0-1.216-0.8-2.144-1.728-2.144h-23.2c-0.96 0-1.76 0.928-1.76 2.144v22.4c0 1.216 0.8 2.144 1.76 2.144h23.040c1.088 0 1.888-0.928 1.888-2.144zM30.656 27.2c0 1.856-1.312 3.456-3.040 3.456h-23.2c-1.76 0-3.072-1.6-3.072-3.456v-22.4c0-1.856 1.312-3.456 3.072-3.456h23.040c1.888 0 3.2 1.6 3.2 3.456v22.4z"></path> </svg> 