 <svg version="1.1" xmlns="http://www.w3.org/2000/svg" width="32" height="32" viewBox="0 0 32 32">  <path d="M13.504 29.376l-10.112-9.472c-0.416-0.384-0.448-1.056-0.064-1.504l14.272-15.328c0.192-0.224 0.48-0.352 0.8-0.352l9.376 0.064c0.544 0 1.024 0.448 1.056 0.992l0.736 9.376c0.032 0.288-0.096 0.576-0.288 0.8l-14.272 15.36c-0.384 0.416-1.088 0.448-1.504 0.064zM28.224 13.12l-0.704-8.992-9.024-0.064-14.016 15.072 9.76 9.056 13.984-15.072zM12.096 22.272c-1.376-0.544-2.048-2.112-1.504-3.488 0.544-1.344 2.112-2.016 3.488-1.472 1.344 0.544 2.016 2.112 1.472 3.488-0.544 1.344-2.112 2.016-3.456 1.472zM13.056 21.12c0.736 0 1.344-0.576 1.344-1.312s-0.608-1.344-1.344-1.344-1.312 0.608-1.312 1.344c0 0.736 0.576 1.312 1.312 1.312zM16.544 17.312c-1.376-0.544-2.048-2.112-1.504-3.456 0.576-1.376 2.112-2.016 3.488-1.472 1.344 0.544 2.016 2.080 1.472 3.456s-2.080 2.016-3.456 1.472zM17.536 16.16c0.736 0 1.344-0.576 1.344-1.312s-0.608-1.344-1.344-1.344c-0.736 0-1.344 0.608-1.344 1.344s0.608 1.312 1.344 1.312zM20.992 12.352c-1.344-0.544-2.016-2.112-1.472-3.456 0.544-1.376 2.112-2.016 3.456-1.472s2.048 2.080 1.504 3.456c-0.544 1.376-2.112 2.016-3.488 1.472zM22.016 11.232c0.704 0 1.312-0.608 1.312-1.344s-0.608-1.344-1.312-1.344-1.344 0.608-1.344 1.344c0 0.736 0.576 1.344 1.344 1.344z"></path> </svg> 