 <svg version="1.1" xmlns="http://www.w3.org/2000/svg" width="32" height="32" viewBox="0 0 32 32">  <path d="M29.952 7.584l-13.376-6.144c-0.352-0.16-0.768-0.16-1.12 0l-13.408 6.144c-0.448 0.224-0.704 0.64-0.704 1.088s0.256 0.864 0.704 1.056l13.376 6.144c0.192 0.096 0.384 0.128 0.576 0.128s0.384-0.032 0.576-0.128l13.376-6.144c0.448-0.192 0.704-0.608 0.704-1.056s-0.256-0.864-0.704-1.088zM28.48 14.144c0.736-0.352 1.664-0.032 2.016 0.736 0.384 0.736 0.064 1.664-0.704 2.016l-13.152 6.24c-0.384 0.224-0.896 0.224-1.312 0l-13.12-6.24c-0.768-0.352-1.088-1.28-0.736-2.016s1.28-1.12 2.048-0.736l12.48 5.92 12.48-5.92zM28.48 21.472c0.736-0.352 1.664-0.032 2.016 0.736s0.064 1.664-0.704 2.016l-13.152 6.272c-0.384 0.192-0.896 0.192-1.312 0l-13.12-6.272c-0.768-0.352-1.088-1.28-0.736-2.016s1.28-1.088 2.048-0.736l12.48 5.952 12.48-5.952z"></path> </svg> 