 <svg version="1.1" xmlns="http://www.w3.org/2000/svg" width="32" height="32" viewBox="0 0 32 32">  <path d="M16 7.328c1.856 0 3.328-1.504 3.328-3.328s-1.472-3.328-3.328-3.328-3.328 1.504-3.328 3.328 1.504 3.328 3.328 3.328zM16 1.984c1.12 0 2.016 0.896 2.016 2.016s-0.896 1.984-2.016 1.984-1.984-0.896-1.984-1.984 0.896-2.016 1.984-2.016zM16 12.672c-1.824 0-3.328 1.504-3.328 3.328s1.504 3.328 3.328 3.328 3.328-1.504 3.328-3.328-1.472-3.328-3.328-3.328zM16 17.984c-1.088 0-1.984-0.896-1.984-1.984s0.896-2.016 1.984-2.016 2.016 0.896 2.016 2.016-0.896 1.984-2.016 1.984zM16 24.672c-1.824 0-3.328 1.504-3.328 3.328s1.504 3.328 3.328 3.328 3.328-1.504 3.328-3.328-1.472-3.328-3.328-3.328zM16 30.016c-1.088 0-1.984-0.896-1.984-2.016s0.896-2.016 1.984-2.016 2.016 0.896 2.016 2.016-0.896 2.016-2.016 2.016z"></path> </svg> 