 <svg version="1.1" xmlns="http://www.w3.org/2000/svg" width="32" height="32" viewBox="0 0 32 32">  <path d="M30.656 16c0-8.096-6.56-14.656-14.656-14.656s-14.656 6.56-14.656 14.656 6.56 14.656 14.656 14.656 14.656-6.56 14.656-14.656zM32 16c0 8.832-7.168 16-16 16s-16-7.168-16-16 7.168-16 16-16 16 7.168 16 16zM7.424 20.32c1.696 2.976 4.672 4.352 8.576 4.352s6.88-1.376 8.576-4.352c0.192-0.32 0.064-0.736-0.256-0.896-0.32-0.192-0.704-0.064-0.896 0.256-1.44 2.496-3.936 3.648-7.424 3.648s-5.984-1.152-7.424-3.648c-0.192-0.32-0.576-0.448-0.896-0.256-0.32 0.16-0.448 0.576-0.256 0.896zM22.336 6.016c-3.040 0-5.504 2.368-5.632 5.376-0.192-0.032-0.448-0.064-0.704-0.064s-0.512 0.032-0.704 0.064c-0.128-3.008-2.592-5.376-5.632-5.376-3.104 0-5.632 2.528-5.632 5.664s2.528 5.632 5.632 5.632c2.272 0 4.256-1.376 5.152-3.328 0.288-0.064 0.512-0.32 0.512-0.64 0-0.672 0.032-0.672 0.672-0.672s0.672 0 0.672 0.672c0 0.32 0.224 0.576 0.544 0.64 0.864 1.952 2.848 3.328 5.12 3.328 3.104 0 5.632-2.528 5.632-5.632s-2.528-5.664-5.632-5.664zM9.664 16.032c-2.4 0-4.352-1.952-4.352-4.352 0-2.432 1.952-4.384 4.352-4.384 2.432 0 4.352 1.984 4.352 4.384s-1.92 4.352-4.352 4.352zM22.336 16.032c-2.4 0-4.352-1.952-4.352-4.352 0-2.432 1.952-4.384 4.352-4.384s4.352 1.984 4.352 4.384c0 2.4-1.952 4.352-4.352 4.352zM23.072 11.744c0-0.384-0.288-0.672-0.672-0.672s-0.672 0.288-0.672 0.672 0.288 0.64 0.672 0.64 0.672-0.288 0.672-0.64zM24.416 11.744c0 1.088-0.896 1.984-2.016 1.984s-1.984-0.896-1.984-1.984 0.864-2.016 1.984-2.016c1.12 0 2.016 0.896 2.016 2.016zM10.4 11.744c0-0.384-0.288-0.672-0.672-0.672s-0.672 0.288-0.672 0.672 0.32 0.64 0.672 0.64 0.672-0.288 0.672-0.64zM11.744 11.744c0 1.088-0.896 1.984-2.016 1.984s-1.984-0.896-1.984-1.984 0.896-2.016 1.984-2.016 2.016 0.896 2.016 2.016z"></path> </svg> 