 <svg version="1.1" xmlns="http://www.w3.org/2000/svg" width="32" height="32" viewBox="0 0 32 32">  <path d="M30.016 5.984h-28c-1.12 0-2.016 0.896-2.016 2.016v16c0 1.088 0.896 1.984 2.016 1.984h28c1.088 0 1.984-0.896 1.984-1.984v-16c0-1.12-0.896-2.016-1.984-2.016zM30.656 24c0 0.352-0.288 0.672-0.64 0.672h-28c-0.384 0-0.672-0.32-0.672-0.672v-16c0-0.384 0.288-0.672 0.672-0.672h28c0.352 0 0.64 0.288 0.64 0.672v16zM7.52 10.016c-0.256-0.064-0.576 0.032-0.736 0.288l-2.656 4c-0.224 0.288-0.128 0.704 0.16 0.928 0.32 0.192 0.736 0.096 0.928-0.192l1.44-2.176v8.48c0 0.352 0.32 0.64 0.672 0.64s0.672-0.288 0.672-0.64v-10.688c0-0.288-0.192-0.544-0.48-0.64zM14.016 9.984c-1.856 0-3.36 1.504-3.36 3.36 0 0.352 0.32 0.64 0.672 0.64s0.672-0.288 0.672-0.64c0-1.12 0.896-2.016 2.016-2.016s1.984 0.896 1.984 2.016v0.384c0 0.448-0.16 0.896-0.448 1.248l-4.736 5.952c-0.16 0.192-0.192 0.448-0.096 0.704 0.128 0.224 0.352 0.352 0.608 0.352h5.344c0.352 0 0.672-0.288 0.672-0.64s-0.32-0.672-0.672-0.672h-3.936l3.872-4.864c0.48-0.576 0.736-1.312 0.736-2.080v-0.384c0-1.856-1.504-3.36-3.328-3.36zM26.656 13.344c0-1.856-1.472-3.36-3.328-3.36s-3.328 1.504-3.328 3.36c0 0.352 0.288 0.64 0.672 0.64s0.672-0.288 0.672-0.64c0-1.12 0.896-2.016 1.984-2.016s2.016 0.896 2.016 2.016-0.896 1.984-2.016 1.984c-0.352 0-0.672 0.288-0.672 0.672s0.32 0.672 0.672 0.672c1.12 0 2.016 0.896 2.016 1.984s-0.896 2.016-2.016 2.016-1.984-0.896-1.984-2.016c0-0.352-0.32-0.672-0.672-0.672s-0.672 0.32-0.672 0.672c0 1.856 1.504 3.328 3.328 3.328s3.328-1.472 3.328-3.328c0-1.088-0.512-2.048-1.312-2.656 0.8-0.608 1.312-1.568 1.312-2.656z"></path> </svg> 