 <svg version="1.1" xmlns="http://www.w3.org/2000/svg" width="32" height="32" viewBox="0 0 32 32">  <path d="M32 16c0-0.224-0.128-0.448-0.32-0.576l-3.84-2.176 3.808-1.984c0.224-0.128 0.352-0.352 0.352-0.608s-0.128-0.48-0.352-0.576l-15.328-8c-0.192-0.096-0.416-0.096-0.64 0l-15.328 8c-0.224 0.096-0.352 0.32-0.352 0.576s0.128 0.48 0.352 0.608l3.808 1.984-3.808 2.176c-0.224 0.128-0.352 0.352-0.352 0.576 0 0.256 0.16 0.48 0.352 0.576l3.808 1.984-3.808 2.176c-0.224 0.128-0.352 0.352-0.352 0.608s0.16 0.48 0.352 0.576l15.328 8c0.096 0.064 0.224 0.096 0.32 0.096s0.224-0.032 0.32-0.096l15.328-8c0.224-0.096 0.352-0.32 0.352-0.576s-0.128-0.48-0.32-0.576l-3.84-2.208 3.808-1.984c0.224-0.096 0.352-0.32 0.352-0.576zM16 3.424l13.888 7.232-13.888 7.264-13.888-7.264 13.888-7.232zM29.952 21.312l-13.952 7.264-13.952-7.264 3.52-2.016 10.112 5.28c0.096 0.064 0.224 0.096 0.32 0.096s0.224-0.032 0.32-0.096l10.112-5.28 3.52 2.016zM16 23.232l-13.952-7.264 3.52-1.984 10.112 5.28c0.096 0.032 0.224 0.064 0.32 0.064s0.224-0.032 0.32-0.064l10.112-5.28 3.52 1.984-13.952 7.264z"></path> </svg> 