 <svg version="1.1" xmlns="http://www.w3.org/2000/svg" width="32" height="32" viewBox="0 0 32 32">  <path d="M16 22.656c-3.296 0-6.208-2.656-7.424-6.656-1.088-0.064-1.92-1.472-1.92-3.328 0-0.544 0.096-1.056 0.224-1.504-0.16-0.672-0.224-1.28-0.224-1.824 0-5.152 4.192-9.344 9.344-9.344s9.344 4.192 9.344 9.344c0 0.544-0.064 1.152-0.224 1.824 0.16 0.448 0.224 0.96 0.224 1.504 0 1.856-0.832 3.264-1.92 3.328-1.216 4-4.128 6.656-7.424 6.656zM9.056 14.56c0.096 0 0.16 0 0.224 0.032 0.224 0.096 0.384 0.224 0.416 0.448 0.96 3.776 3.488 6.304 6.304 6.304s5.376-2.528 6.304-6.304c0.032-0.224 0.192-0.384 0.384-0.448 0.192-0.096 0.416-0.064 0.608 0.032 0.224 0.064 0.704-0.672 0.704-1.952 0-0.448-0.064-0.896-0.192-1.28-0.032-0.096-0.032-0.224 0-0.352 0.128-0.64 0.192-1.184 0.192-1.696 0-4.416-3.584-8-8-8s-8 3.584-8 8c0 0.512 0.064 1.056 0.224 1.696 0 0.128 0 0.256-0.032 0.352-0.128 0.384-0.192 0.832-0.192 1.28 0 1.28 0.512 1.984 0.672 1.984 0.096-0.064 0.256-0.096 0.384-0.096zM22.656 12c-0.256 0-0.48-0.16-0.608-0.384 0-0.064-0.512-1.184-0.672-2.304-2.784-0.192-5.696-1.536-7.104-2.976-0.128 0.224-0.288 0.416-0.448 0.576-1.088 1.088-2.784 1.088-3.648 1.088-0.192 0.448-0.288 1.888-0.16 3.296 0 0.192-0.064 0.384-0.224 0.512-0.16 0.16-0.352 0.224-0.544 0.192-0.032 0-0.928-0.16-1.696-0.16-0.352 0-0.672-0.288-0.672-0.64s0.32-0.672 0.672-0.672c0.384 0 0.768 0.032 1.088 0.032-0.064-1.184 0-2.912 0.608-3.552 0.256-0.256 0.576-0.352 0.928-0.352 0.8 0 2.048-0.032 2.688-0.672 0.32-0.32 0.48-0.736 0.48-1.312 0-0.384 0.288-0.672 0.672-0.672s0.64 0.288 0.64 0.672c0.096 0.672 3.424 3.328 7.36 3.328 0.352 0 0.64 0.288 0.64 0.672 0 0.64 0.256 1.472 0.448 1.952l1.28-0.096c0.384-0.032 0.704 0.224 0.736 0.608 0.032 0.352-0.256 0.672-0.608 0.704l-1.792 0.16c0 0-0.032 0-0.064 0zM14.016 13.344h-1.344c-0.384 0-0.672-0.32-0.672-0.672s0.288-0.672 0.672-0.672h1.344c0.352 0 0.64 0.288 0.64 0.672s-0.288 0.672-0.64 0.672zM19.328 13.344h-1.312c-0.384 0-0.672-0.32-0.672-0.672s0.288-0.672 0.672-0.672h1.312c0.384 0 0.672 0.288 0.672 0.672s-0.288 0.672-0.672 0.672zM31.328 32h-30.656c-0.224 0-0.416-0.096-0.544-0.256s-0.16-0.384-0.096-0.576l1.024-4.128c0.224-0.96 0.864-1.76 1.76-2.176l6.88-3.456c0.16-0.096 0.352-0.096 0.544-0.032 0.16 0.064 0.288 0.192 0.384 0.352l3.424 8.032 0.512-1.024c-0.448-0.608-1.216-1.792-1.216-2.752 0-1.216 1.024-1.984 2.656-1.984s2.656 0.768 2.656 1.984c0 0.96-0.768 2.144-1.216 2.752l0.512 1.024 3.424-8.032c0.096-0.16 0.224-0.288 0.384-0.352 0.192-0.064 0.384-0.064 0.544 0.032l6.912 3.456c0.864 0.416 1.504 1.216 1.728 2.176l1.024 4.128c0.064 0.192 0.032 0.416-0.096 0.576s-0.32 0.256-0.544 0.256zM19.008 30.656h11.488l-0.832-3.296c-0.16-0.576-0.544-1.056-1.056-1.312l-6.272-3.136-3.328 7.744zM15.072 30.656h1.856l-0.864-1.696c-0.096-0.224-0.064-0.512 0.096-0.704 0.48-0.608 1.184-1.728 1.184-2.272 0-0.576-0.928-0.64-1.344-0.64s-1.344 0.064-1.344 0.64c0 0.544 0.736 1.664 1.216 2.272 0.16 0.192 0.192 0.48 0.064 0.704l-0.864 1.696zM1.536 30.656h11.456l-3.328-7.744-6.272 3.136c-0.512 0.256-0.896 0.736-1.024 1.312l-0.832 3.296z"></path> </svg> 