 <svg version="1.1" xmlns="http://www.w3.org/2000/svg" width="32" height="32" viewBox="0 0 32 32">  <path d="M23.328 22.656h-22.656c-0.384 0-0.672-0.288-0.672-0.672v-20c0-0.352 0.288-0.64 0.672-0.64h22.656c0.384 0 0.672 0.288 0.672 0.64v20c0 0.384-0.288 0.672-0.672 0.672zM1.344 21.344h21.312v-18.688h-21.312v18.688zM23.328 22.656c-0.224 0-0.48-0.128-0.576-0.352l-6.784-13.568-4.736 8.256c-0.096 0.192-0.256 0.32-0.48 0.32-0.192 0.032-0.416-0.032-0.544-0.16l-3.424-3.424-5.568 8.64c-0.192 0.288-0.608 0.384-0.896 0.192-0.32-0.192-0.416-0.608-0.224-0.928l6.016-9.312c0.096-0.192 0.288-0.288 0.48-0.32s0.416 0.064 0.544 0.192l3.392 3.392 4.896-8.576c0.128-0.224 0.352-0.352 0.608-0.352 0.224 0 0.448 0.16 0.576 0.384l7.328 14.656c0.16 0.32 0.032 0.736-0.288 0.896-0.096 0.064-0.224 0.064-0.32 0.064zM7.328 10.656c-1.824 0-3.328-1.472-3.328-3.328s1.504-3.328 3.328-3.328 3.328 1.504 3.328 3.328-1.472 3.328-3.328 3.328zM7.328 5.344c-1.088 0-1.984 0.896-1.984 1.984s0.896 2.016 1.984 2.016 2.016-0.896 2.016-2.016-0.896-1.984-2.016-1.984zM26.016 25.344h-22.688c-0.352 0-0.672-0.32-0.672-0.672v-2.688c0-0.352 0.32-0.64 0.672-0.64s0.672 0.288 0.672 0.64v2.016h21.344v-18.656h-1.344c-0.352 0-0.672-0.32-0.672-0.672s0.32-0.672 0.672-0.672h2.016c0.352 0 0.64 0.288 0.64 0.672v20c0 0.352-0.288 0.672-0.64 0.672zM28.672 28h-22.656c-0.384 0-0.672-0.288-0.672-0.672v-2.656c0-0.384 0.288-0.672 0.672-0.672s0.64 0.288 0.64 0.672v1.984h21.344v-18.656h-1.984c-0.384 0-0.672-0.288-0.672-0.672s0.288-0.672 0.672-0.672h2.656c0.352 0 0.672 0.32 0.672 0.672v20c0 0.384-0.32 0.672-0.672 0.672zM31.328 30.656h-22.656c-0.384 0-0.672-0.288-0.672-0.64v-2.688c0-0.352 0.288-0.672 0.672-0.672s0.672 0.32 0.672 0.672v2.016h21.312v-17.344h-1.984c-0.384 0-0.672-0.288-0.672-0.672s0.288-0.672 0.672-0.672h2.656c0.384 0 0.672 0.32 0.672 0.672v18.688c0 0.352-0.288 0.64-0.672 0.64z"></path> </svg> 