 <svg version="1.1" xmlns="http://www.w3.org/2000/svg" width="32" height="32" viewBox="0 0 32 32">  <path d="M5.44 12.672h-2.784c-0.288 0-0.576 0.192-0.64 0.512l-1.312 5.312c0 0-0.032 0-0.032 0.032l-0.64 2.656c-0.096 0.352 0.128 0.704 0.48 0.8 0.064 0 0.096 0 0.16 0 0.288 0 0.576-0.192 0.64-0.48l0.544-2.176h2.72c1.536 0 2.88-1.024 3.232-2.528l0.224-0.832c0.192-0.8 0.032-1.632-0.48-2.272-0.512-0.672-1.28-1.024-2.112-1.024zM6.72 15.648l-0.192 0.832c-0.224 0.896-1.024 1.504-1.952 1.504h-2.4l1.024-4h2.24c0.416 0 0.8 0.192 1.056 0.512 0.256 0.352 0.352 0.768 0.224 1.152zM21.44 12.672h-2.784c-0.288 0-0.576 0.192-0.64 0.512l-1.312 5.312c0 0-0.032 0-0.032 0.032l-0.64 2.656c-0.096 0.352 0.128 0.704 0.48 0.8 0.064 0 0.096 0 0.16 0 0.288 0 0.576-0.192 0.64-0.48l0.544-2.176h2.72c1.536 0 2.88-1.024 3.232-2.528l0.224-0.832c0.192-0.8 0.032-1.632-0.48-2.272-0.512-0.672-1.28-1.024-2.112-1.024zM22.72 15.648l-0.192 0.832c-0.224 0.896-1.024 1.504-1.952 1.504h-2.4l1.024-4h2.24c0.416 0 0.8 0.192 1.056 0.512 0.256 0.352 0.352 0.768 0.224 1.152zM15.552 13.696c-0.512-0.672-1.28-1.024-2.112-1.024h-1.92l0.448-1.856c0.096-0.352-0.128-0.704-0.48-0.8s-0.704 0.128-0.8 0.48l-1.984 8c-0.096 0.352 0.096 0.736 0.48 0.8 0.032 0.032 0.096 0.032 0.16 0.032 0.288 0 0.576-0.192 0.64-0.512l1.216-4.832h2.24c0.416 0 0.8 0.192 1.056 0.512 0.256 0.352 0.352 0.768 0.224 1.152l-0.704 2.848c-0.096 0.352 0.128 0.736 0.48 0.8 0.064 0.032 0.128 0.032 0.16 0.032 0.32 0 0.576-0.192 0.672-0.512l0.704-2.848c0.192-0.8 0.032-1.632-0.48-2.272zM31.936 10.336c-0.128-0.192-0.352-0.352-0.608-0.352h-5.312c-0.384 0-0.672 0.32-0.672 0.672s0.288 0.672 0.672 0.672h4.064l-4.64 6.976c-0.192 0.288-0.128 0.704 0.192 0.928 0.128 0.064 0.256 0.096 0.384 0.096 0.192 0 0.416-0.096 0.544-0.288l5.344-8c0.128-0.224 0.128-0.48 0.032-0.704z"></path> </svg> 