 <svg version="1.1" xmlns="http://www.w3.org/2000/svg" width="32" height="32" viewBox="0 0 32 32">  <path d="M26.816 5.184c-2.944-2.912-6.56-4.384-10.816-4.384-4.128 0-7.744 1.472-10.784 4.384-2.944 2.944-4.416 6.56-4.416 10.816s1.472 7.872 4.416 10.784c2.912 2.944 6.528 4.544 10.784 4.544s7.872-1.472 10.816-4.544c2.912-2.912 4.384-6.528 4.384-10.784s-1.472-7.872-4.384-10.816M25.856 6.144c2.688 2.784 4 5.984 4 9.856s-1.312 7.2-4 9.856c-2.656 2.688-5.984 4.16-9.856 4.16s-7.072-1.344-9.728-4.16c-2.656-2.656-4.128-5.984-4.128-9.856s1.312-7.072 4.128-9.856c2.656-2.688 5.984-4.16 9.728-4.16 3.872 0 7.072 1.472 9.856 4.16M14.016 12.544v8l6.528-4-6.528-4z"></path> </svg> 