 <svg version="1.1" xmlns="http://www.w3.org/2000/svg" width="32" height="32" viewBox="0 0 32 32">  <path d="M12.928 7.2l5.728-5.856c0.96-0.96 2.4-0.96 3.36 0v0c0.928 0.928 0.928 2.4 0 3.328l-5.76 5.728 4 4 5.76-5.728c0.928-0.928 2.4-0.928 3.328 0v0c0.928 0.928 0.928 2.4 0 3.328l-5.728 5.728 1.312 1.344c0.288 0.256 0.288 0.672 0 0.928l-2.4 2.656c-0.256 0.288-0.672 0.288-0.928 0l-0.8-0.8-3.744 3.744c-2.528 2.528-6.4 2.656-9.056 0.544l-3.872 3.872c-0.256 0.256-0.672 0.256-0.928 0s-0.256-0.672 0-0.96l3.872-3.872-1.472-1.44-3.872 3.872c-0.256 0.256-0.672 0.256-0.928 0-0.256-0.288-0.256-0.672 0-0.96l3.872-4c-2.144-2.656-2.016-6.528 0.544-9.056l3.712-3.744-0.8-0.672c-0.128-0.256-0.128-0.64 0-0.928l2.528-2.4c0.288-0.256 0.672-0.256 0.96 0l1.312 1.344zM15.328 9.6l5.728-5.728c0.416-0.416 0.416-1.088 0-1.472v0c-0.384-0.416-1.056-0.416-1.44 0l-5.76 5.728 1.472 1.472zM22.656 16.928l5.76-5.728c0.384-0.416 0.384-1.056 0-1.472v0c-0.416-0.384-1.088-0.384-1.472 0l-5.728 5.728 1.44 1.472zM11.072 7.2l-1.472 1.472 0.8 0.8c0.256 0.256 0.256 0.672 0 0.928l-4.256 4.256c-2.144 2.144-2.144 5.6 0 7.744l2.4 2.4c2.112 2.144 5.6 2.144 7.712 0l4.288-4.256c0.256-0.288 0.672-0.288 0.928 0l0.8 0.8 1.472-1.472-12.672-12.672z"></path> </svg> 