 <svg version="1.1" xmlns="http://www.w3.org/2000/svg" width="32" height="32" viewBox="0 0 32 32">  <path d="M14.528 4.672c-0.384 0.384-0.512 0.8-0.512 1.312v7.872h-8c-1.344 0-2.016 0.672-2.016 2.016s0.672 1.984 2.016 1.984h8v7.872c0 0.544 0.128 1.056 0.512 1.472 0.416 0.416 0.928 0.544 1.472 0.544s1.056-0.128 1.344-0.544c0.384-0.416 0.672-0.8 0.672-1.472v-7.872h7.84c1.344 0 2.016-0.672 2.016-1.984s-0.672-2.016-2.016-2.016h-7.84v-7.872c0-0.512-0.16-0.928-0.672-1.312-0.416-0.416-0.8-0.544-1.344-0.544s-1.056 0.128-1.472 0.544z"></path> </svg> 