 <svg version="1.1" xmlns="http://www.w3.org/2000/svg" width="32" height="32" viewBox="0 0 32 32">  <path d="M15.328 16.672h-5.312c-0.416 0-0.672-0.288-0.672-0.672s0.256-0.672 0.672-0.672h5.312v-5.344c0-0.384 0.288-0.64 0.672-0.64s0.672 0.256 0.672 0.64v5.344h5.344c0.384 0 0.64 0.256 0.64 0.672s-0.256 0.672-0.64 0.672h-5.344v5.312c0 0.416-0.256 0.672-0.672 0.672s-0.672-0.256-0.672-0.672v-5.312zM16 32c-8.8 0-16-7.2-16-16s7.2-16 16-16 16 7.2 16 16-7.2 16-16 16zM16 30.656c8.128 0 14.656-6.528 14.656-14.656s-6.528-14.656-14.656-14.656-14.656 6.528-14.656 14.656 6.528 14.656 14.656 14.656z"></path> </svg> 