 <svg version="1.1" xmlns="http://www.w3.org/2000/svg" width="32" height="32" viewBox="0 0 32 32">  <path d="M14.528 14.528h-5.728c-1.856 0-1.856 2.944 0 2.944h5.728v5.728c0 0.8 0.672 1.472 1.472 1.472s1.472-0.672 1.472-1.472v-5.728h5.728c1.856 0 1.856-2.944 0-2.944h-5.728v-5.728c0-0.8-0.672-1.472-1.472-1.472s-1.472 0.672-1.472 1.472v5.728zM6.272 1.344h19.328c2.816 0 5.056 2.24 5.056 4.928v19.328c0 2.816-2.24 4.928-4.928 4.928h-19.456c-2.656 0.128-4.928-2.112-4.928-4.8v-19.456c0-2.688 2.272-4.928 4.928-4.928z"></path> </svg> 