 <svg version="1.1" xmlns="http://www.w3.org/2000/svg" width="32" height="32" viewBox="0 0 32 32">  <path d="M16 32c-0.041 0-0.090 0.001-0.139 0.001-2.122 0-4.142-0.436-5.975-1.222l0.099 0.038-0.384-0.192v-8.704l1.024 0.704c0.739 0.529 1.581 1.001 2.474 1.376l0.086 0.032c0.831 0.268 1.787 0.423 2.779 0.423 1.198 0 2.344-0.226 3.397-0.637l-0.064 0.022c1.079-0.477 2.002-1.113 2.785-1.889l-0.001 0.001c0.745-0.753 1.367-1.631 1.831-2.598l0.025-0.058c0.385-0.984 0.608-2.124 0.608-3.316 0-0.016-0-0.031-0-0.047v0.002c0-0.008 0-0.018 0-0.028 0-1.175-0.223-2.299-0.629-3.33l0.021 0.062c-0.488-1.025-1.11-1.903-1.857-2.657l0.001 0.001c-0.756-0.806-1.687-1.439-2.734-1.839l-0.050-0.017c-0.861-0.43-1.875-0.681-2.948-0.681-0.122 0-0.244 0.003-0.365 0.010l0.017-0.001c-0.114-0.007-0.248-0.011-0.383-0.011-1.058 0-2.060 0.24-2.955 0.668l0.041-0.018c-1.096 0.419-2.026 1.052-2.78 1.852l-0.004 0.004c-0.723 0.743-1.307 1.625-1.708 2.601l-0.020 0.055c-0.445 0.967-0.704 2.097-0.704 3.288 0 0.003 0 0.005 0 0.008v-0 13.728l-1.088-0.832c-0.623-0.478-1.177-0.96-1.698-1.474l0.002 0.002c-2.904-2.818-4.705-6.758-4.705-11.118 0-0.074 0.001-0.147 0.002-0.221l-0 0.011c-0.001-0.069-0.002-0.151-0.002-0.233 0-4.373 1.801-8.326 4.703-11.156l0.003-0.003c2.834-2.847 6.757-4.609 11.091-4.609 0.072 0 0.144 0.001 0.216 0.001l-0.011-0c0.065-0.001 0.141-0.002 0.218-0.002 4.33 0 8.248 1.762 11.077 4.609l0.001 0.001c2.904 2.833 4.706 6.786 4.706 11.159 0 0.082-0.001 0.164-0.002 0.245l0-0.012c0.001 0.053 0.001 0.116 0.001 0.178 0 4.36-1.802 8.299-4.701 11.114l-0.004 0.004c-2.818 2.903-6.758 4.705-11.118 4.705-0.063 0-0.125-0-0.188-0.001l0.009 0zM10.912 29.728c1.483 0.588 3.201 0.928 4.998 0.928 0.032 0 0.063-0 0.095-0l-0.005 0c0.062 0.001 0.135 0.002 0.208 0.002 3.983 0 7.581-1.642 10.157-4.286l0.003-0.003c2.647-2.583 4.289-6.186 4.289-10.173 0-0.069-0-0.137-0.001-0.205l0 0.010c0.001-0.074 0.002-0.162 0.002-0.25 0-4-1.642-7.616-4.288-10.212l-0.002-0.002c-2.591-2.573-6.16-4.162-10.101-4.162-0.094 0-0.188 0.001-0.281 0.003l0.014-0c-0.080-0.002-0.173-0.002-0.267-0.002-3.941 0-7.51 1.59-10.101 4.163l0.001-0.001c-2.649 2.598-4.29 6.214-4.29 10.214 0 0.088 0.001 0.176 0.002 0.263l-0-0.013c-0.001 0.049-0.001 0.107-0.001 0.164 0 4.002 1.655 7.618 4.317 10.2l0.004 0.003 0.48 0.48v-10.944c-0-0.007-0-0.016-0-0.025 0-1.369 0.295-2.67 0.824-3.842l-0.024 0.059c0.523-1.185 1.235-2.195 2.109-3.037l0.003-0.003c0.87-0.939 1.939-1.679 3.142-2.156l0.058-0.020c0.992-0.47 2.156-0.744 3.383-0.744 0.127 0 0.253 0.003 0.378 0.009l-0.018-0.001c0.137-0.008 0.297-0.013 0.459-0.013 1.202 0 2.343 0.264 3.367 0.738l-0.050-0.021c1.25 0.512 2.308 1.262 3.162 2.201l0.006 0.007c0.862 0.861 1.58 1.866 2.116 2.975l0.028 0.065c0.461 1.127 0.731 2.436 0.736 3.806v0.002c0 0.004 0 0.008 0 0.012 0 1.401-0.27 2.738-0.761 3.963l0.025-0.072c-0.556 1.212-1.275 2.249-2.146 3.138l0.002-0.002c-0.89 0.891-1.94 1.623-3.102 2.149l-0.066 0.027c-1.141 0.46-2.465 0.727-3.851 0.727-1.151 0-2.259-0.184-3.296-0.524l0.075 0.021c-0.7-0.328-1.287-0.659-1.848-1.027l0.056 0.035v5.344zM16 22.304c-0.011 0-0.024 0-0.036 0-0.859 0-1.683-0.152-2.445-0.432l0.049 0.016c-0.793-0.35-1.471-0.813-2.049-1.377l0.001 0.001c-0.538-0.576-1.006-1.228-1.384-1.935l-0.024-0.049c-0.344-0.747-0.545-1.622-0.545-2.543 0-0.029 0-0.057 0.001-0.086l-0 0.004c0.004-0.894 0.204-1.741 0.559-2.501l-0.015 0.037c0.689-1.515 1.877-2.703 3.35-3.375l0.042-0.017c0.732-0.278 1.579-0.439 2.464-0.439s1.732 0.161 2.513 0.455l-0.049-0.016c0.792 0.351 1.47 0.813 2.050 1.377l-0.002-0.001c0.623 0.555 1.105 1.254 1.397 2.045l0.011 0.035c0.323 0.706 0.512 1.532 0.512 2.402 0 0.011-0 0.021-0 0.032v-0.002c0 0.006 0 0.012 0 0.019 0 0.921-0.2 1.794-0.56 2.58l0.016-0.039c-0.344 0.788-0.819 1.459-1.405 2.013l-0.003 0.003c-0.567 0.574-1.234 1.047-1.974 1.391l-0.042 0.017c-0.688 0.244-1.481 0.385-2.307 0.385-0.044 0-0.088-0-0.131-0.001l0.007 0zM16 10.912c-0 0-0.001 0-0.001 0-0.712 0-1.393 0.129-2.022 0.365l0.040-0.013c-1.212 0.572-2.156 1.547-2.675 2.749l-0.013 0.035c-0.263 0.564-0.416 1.224-0.416 1.92v0c-0 0.014-0 0.031-0 0.047 0 0.713 0.153 1.389 0.429 1.999l-0.012-0.031c0.33 0.634 0.713 1.181 1.158 1.67l-0.006-0.006c0.452 0.443 0.981 0.808 1.566 1.074l0.034 0.014c0.582 0.206 1.253 0.326 1.952 0.326s1.37-0.119 1.994-0.338l-0.042 0.013c0.606-0.282 1.125-0.647 1.568-1.088l-0 0c0.468-0.442 0.846-0.974 1.108-1.569l0.012-0.031c0.263-0.584 0.416-1.265 0.416-1.983 0-0.023-0-0.046-0-0.069l0 0.003c-0-0.696-0.153-1.356-0.428-1.949l0.012 0.029c-0.23-0.638-0.604-1.176-1.084-1.596l-0.004-0.004c-0.468-0.47-1.019-0.858-1.629-1.138l-0.035-0.014c-0.566-0.236-1.221-0.386-1.908-0.416l-0.012-0z"></path> </svg> 