 <svg version="1.1" xmlns="http://www.w3.org/2000/svg" width="32" height="32" viewBox="0 0 32 32">  <path d="M31.936 12.256c0.032-0.096 0.064-0.16 0.064-0.256 0-2.432-1.376-4.992-4.192-7.808s-5.376-4.192-7.808-4.192c-0.096 0-0.16 0.032-0.256 0.064-0.064 0-0.128 0.064-0.192 0.096 0 0.032 0 0.032-0.032 0.032v0c0 0 0 0 0 0-1.696 1.696-2.656 4.16-2.112 6.784l-4.8 4.8c-1.824-1.088-5.92-1.408-8.416 1.088-2.208 2.208 0.96 6.464 4.192 9.792l-8.192 8.224c-0.256 0.256-0.256 0.672 0 0.928 0.128 0.128 0.32 0.192 0.48 0.192s0.352-0.064 0.48-0.192l8.192-8.192c2.56 2.496 5.664 4.928 7.968 4.928 0.704 0 1.312-0.224 1.824-0.736 2.496-2.496 2.176-6.56 1.088-8.416l4.8-4.8c0.48 0.096 0.992 0.16 1.472 0.16 2.048 0 3.936-0.896 5.312-2.272 0.032-0.032 0.064-0.096 0.064-0.128 0.032-0.032 0.064-0.064 0.064-0.096zM30.592 11.232c-1.6-0.384-4.192-1.792-6.112-3.712s-3.328-4.512-3.712-6.112c1.856 0.288 3.872 1.504 6.112 3.744 2.208 2.208 3.456 4.224 3.712 6.080zM18.208 26.848c-1.152 1.152-4.384-0.64-8.416-4.64-4-4.032-5.792-7.264-4.64-8.416 2.080-2.080 5.376-1.632 6.656-0.928-0.32 1.024 0.16 2.72 2.4 4.928 1.824 1.824 3.264 2.496 4.32 2.496 0.224 0 0.416-0.032 0.608-0.096 0.704 1.28 1.152 4.576-0.928 6.656zM18.88 18.848c0 0 0 0-0.032 0 0 0 0 0 0 0-0.256 0.288-1.568 0.16-3.712-1.984s-2.272-3.456-1.984-3.712l4.704-4.736c0.48 1.12 1.216 2.272 2.336 3.392s2.272 1.856 3.392 2.336l-4.704 4.704zM21.152 10.848c-3.264-3.232-2.976-6.464-1.536-8.64 0.576 1.952 2.112 4.448 3.904 6.272 1.824 1.792 4.32 3.328 6.304 3.904-2.208 1.44-5.44 1.728-8.672-1.536z"></path> </svg> 