 <svg version="1.1" xmlns="http://www.w3.org/2000/svg" width="32" height="32" viewBox="0 0 32 32">  <path d="M9.344 0h-8c-0.384 0-0.672 0.288-0.672 0.672v8c0 0.352 0.288 0.672 0.672 0.672h8c0.352 0 0.672-0.32 0.672-0.672v-8c0-0.384-0.32-0.672-0.672-0.672zM8.672 8h-6.656v-6.656h6.656v6.656zM8 12c0.384 0 0.672-0.288 0.672-0.672s-0.288-0.672-0.672-0.672h-5.344c-0.352 0-0.64 0.32-0.64 0.672s0.288 0.672 0.64 0.672h5.344zM20 0h-8c-0.352 0-0.672 0.288-0.672 0.672v13.312c0 0.384 0.32 0.672 0.672 0.672h8c0.384 0 0.672-0.288 0.672-0.672v-13.312c0-0.384-0.288-0.672-0.672-0.672zM19.328 13.344h-6.656v-12h6.656v12zM18.656 17.344c0.384 0 0.672-0.32 0.672-0.672s-0.288-0.672-0.672-0.672h-5.312c-0.384 0-0.672 0.288-0.672 0.672s0.288 0.672 0.672 0.672h5.312zM30.656 0h-8c-0.352 0-0.64 0.288-0.64 0.672v10.656c0 0.384 0.288 0.672 0.64 0.672h8c0.384 0 0.672-0.288 0.672-0.672v-10.656c0-0.384-0.288-0.672-0.672-0.672zM30.016 10.656h-6.688v-9.312h6.688v9.312zM29.344 14.656c0.352 0 0.672-0.288 0.672-0.672s-0.32-0.64-0.672-0.64h-5.344c-0.352 0-0.672 0.288-0.672 0.64s0.32 0.672 0.672 0.672h5.344zM9.344 14.656h-8c-0.384 0-0.672 0.32-0.672 0.672v8c0 0.384 0.288 0.672 0.672 0.672h8c0.352 0 0.672-0.288 0.672-0.672v-8c0-0.352-0.32-0.672-0.672-0.672zM8.672 22.656h-6.656v-6.656h6.656v6.656zM8 25.344h-5.344c-0.352 0-0.64 0.288-0.64 0.64s0.288 0.672 0.64 0.672h5.344c0.384 0 0.672-0.288 0.672-0.672s-0.288-0.64-0.672-0.64zM20 20h-8c-0.352 0-0.672 0.288-0.672 0.672v8c0 0.352 0.32 0.672 0.672 0.672h8c0.384 0 0.672-0.32 0.672-0.672v-8c0-0.384-0.288-0.672-0.672-0.672zM19.328 28h-6.656v-6.656h6.656v6.656zM18.656 30.656h-5.312c-0.384 0-0.672 0.32-0.672 0.672s0.288 0.672 0.672 0.672h5.312c0.384 0 0.672-0.288 0.672-0.672s-0.288-0.672-0.672-0.672zM30.656 17.344h-8c-0.352 0-0.64 0.288-0.64 0.64v8c0 0.384 0.288 0.672 0.64 0.672h8c0.384 0 0.672-0.288 0.672-0.672v-8c0-0.352-0.288-0.64-0.672-0.64zM30.016 25.344h-6.688v-6.688h6.688v6.688zM29.344 28h-5.344c-0.352 0-0.672 0.288-0.672 0.672s0.32 0.672 0.672 0.672h5.344c0.352 0 0.672-0.32 0.672-0.672s-0.32-0.672-0.672-0.672z"></path> </svg> 