 <svg version="1.1" xmlns="http://www.w3.org/2000/svg" width="32" height="32" viewBox="0 0 32 32">  <path d="M15.072 1.984c-1.312 0-2.4 0.576-3.104 1.632-0.064 0.096-0.128 0.224-0.192 0.32-0.032 0.032-0.064 0.064-0.064 0.096l-0.16 0.288c0 0.032 0 0.064-0.032 0.096l-4.032 8.448-5.472 3.488c-1.28 0.8-2.016 2.176-2.016 3.648v0.224c0 1.344 0.608 2.56 1.632 3.392 0.768 0.64 1.728 0.928 2.688 0.928 0.672 0 1.312-0.16 1.92-0.448l2.656 0.48 1.28 2.592c0.448 0.896 1.248 1.536 2.208 1.824l3.424 0.992c0.064 0 0.128 0.032 0.192 0.032 0.128 0 0.256-0.032 0.352-0.096 0.16-0.128 0.256-0.256 0.288-0.448l0.128-0.64c0.352-1.76-0.608-3.456-2.272-4.032l-1.472-4 8.512 1.152c0.032 0 0.032 0 0.064 0l0.32 0.032c0.032 0 0.096 0 0.128 0 0.064 0 0.128 0 0.192 0 1.344 0 2.4-0.544 3.136-1.6 1.312-1.888 1.248-5.12-0.096-8.64-2.080-5.472-6.56-9.76-10.208-9.76zM2.464 22.56c-0.704-0.544-1.12-1.408-1.12-2.336v-0.224c0-1.024 0.512-1.952 1.376-2.528l4.64-2.944c0.16 2.144 0.8 4.352 3.136 5.568l-4.672 2.72c-1.056 0.608-2.4 0.512-3.36-0.256zM13.856 25.984c1.12 0.288 1.824 1.376 1.632 2.496l-2.752-0.768c-0.608-0.16-1.088-0.576-1.376-1.152l-1.44-2.848c-0.096-0.192-0.256-0.32-0.448-0.384l-1.408-0.256 3.584-2.112 1.728 4.608c0.064 0.192 0.256 0.352 0.48 0.416zM12.16 19.36c-3.008-0.896-3.488-3.328-3.488-5.888l2.4-5.024c0.128 1.184 0.448 2.464 0.96 3.776 1.248 3.264 3.36 6.080 5.6 7.84l-5.472-0.704zM24.288 19.616c-0.48 0.704-1.152 1.056-2.048 1.056-0.16 0-0.32-0.032-0.512-0.064h-0.096c-2.912-0.48-6.624-4.352-8.352-8.864-1.024-2.656-1.216-5.152-0.544-6.752v-0.032c0.096-0.224 0.192-0.416 0.32-0.608 0.48-0.672 1.152-1.024 2.016-1.024 3.008 0 7.104 4.096 8.96 8.896 1.184 3.072 1.28 5.888 0.256 7.392zM18.304 8.8c-1.024-0.288-2.112-0.128-3.040 0.448-0.288 0.192-0.416 0.576-0.224 0.896s0.608 0.416 0.928 0.224c0.608-0.352 1.312-0.448 2.016-0.288s1.28 0.608 1.632 1.216c0.384 0.608 0.48 1.312 0.32 2.016-0.192 0.704-0.608 1.28-1.216 1.632-0.32 0.192-0.416 0.608-0.256 0.928 0.128 0.192 0.352 0.32 0.576 0.32 0.128 0 0.256-0.032 0.352-0.096 0.928-0.544 1.568-1.408 1.824-2.464 0.256-1.024 0.096-2.112-0.448-3.008-0.544-0.928-1.44-1.568-2.464-1.824zM25.376 8.896c0.096 0.256 0.352 0.448 0.64 0.448 0.064 0 0.128-0.032 0.224-0.064l5.344-1.984c0.32-0.128 0.512-0.512 0.384-0.864s-0.512-0.512-0.864-0.384l-5.344 1.984c-0.352 0.128-0.512 0.512-0.384 0.864zM24.672 5.984c0.16 0 0.352-0.064 0.48-0.192l2.656-2.656c0.256-0.256 0.256-0.672 0-0.928s-0.672-0.288-0.96 0l-2.656 2.656c-0.256 0.256-0.256 0.672 0 0.928 0.128 0.128 0.32 0.192 0.48 0.192zM31.328 11.328h-4c-0.352 0-0.672 0.288-0.672 0.672s0.32 0.672 0.672 0.672h4c0.384 0 0.672-0.32 0.672-0.672s-0.288-0.672-0.672-0.672z"></path> </svg> 