 <svg version="1.1" xmlns="http://www.w3.org/2000/svg" width="32" height="32" viewBox="0 0 32 32">  <path d="M31.328 2.656h-8c-0.352 0-0.672 0.32-0.672 0.672v8c0 0.384 0.32 0.672 0.672 0.672h8c0.384 0 0.672-0.288 0.672-0.672v-8c0-0.352-0.288-0.672-0.672-0.672zM30.656 10.656h-6.656v-6.656h6.656v6.656zM30.016 14.656c0.352 0 0.64-0.288 0.64-0.672s-0.288-0.64-0.64-0.64h-5.344c-0.384 0-0.672 0.288-0.672 0.64s0.288 0.672 0.672 0.672h5.344zM31.328 17.344h-8c-0.352 0-0.672 0.288-0.672 0.64v8c0 0.384 0.32 0.672 0.672 0.672h8c0.384 0 0.672-0.288 0.672-0.672v-8c0-0.352-0.288-0.64-0.672-0.64zM30.656 25.344h-6.656v-6.688h6.656v6.688zM30.016 28h-5.344c-0.384 0-0.672 0.288-0.672 0.672s0.288 0.672 0.672 0.672h5.344c0.352 0 0.64-0.32 0.64-0.672s-0.288-0.672-0.64-0.672zM20.672 2.656h-20c-0.384 0-0.672 0.32-0.672 0.672v25.344c0 0.352 0.288 0.672 0.672 0.672h20c0.352 0 0.672-0.32 0.672-0.672v-25.344c0-0.352-0.32-0.672-0.672-0.672zM20 28h-18.656v-24h18.656v24zM4.672 25.344h8c0.352 0 0.672-0.32 0.672-0.672s-0.32-0.672-0.672-0.672h-8c-0.384 0-0.672 0.288-0.672 0.672s0.288 0.672 0.672 0.672zM4.672 21.344h12c0.352 0 0.672-0.32 0.672-0.672s-0.32-0.672-0.672-0.672h-12c-0.384 0-0.672 0.288-0.672 0.672s0.288 0.672 0.672 0.672zM4.672 17.344h12c0.352 0 0.672-0.32 0.672-0.672s-0.32-0.672-0.672-0.672h-12c-0.384 0-0.672 0.288-0.672 0.672s0.288 0.672 0.672 0.672z"></path> </svg> 