 <svg version="1.1" xmlns="http://www.w3.org/2000/svg" width="32" height="32" viewBox="0 0 32 32">  <path d="M0.672 8h6.656c0.384 0 0.672-0.288 0.672-0.672v-6.656c0-0.384-0.288-0.672-0.672-0.672h-6.656c-0.384 0-0.672 0.288-0.672 0.672v6.656c0 0.384 0.288 0.672 0.672 0.672zM1.344 1.344h5.312v5.312h-5.312v-5.312zM10.016 8h12c0.352 0 0.64-0.288 0.64-0.672v-6.656c0-0.384-0.288-0.672-0.64-0.672h-12c-0.384 0-0.672 0.288-0.672 0.672v6.656c0 0.384 0.288 0.672 0.672 0.672zM10.656 1.344h10.688v5.312h-10.688v-5.312zM31.328 0h-6.656c-0.384 0-0.672 0.288-0.672 0.672v6.656c0 0.384 0.288 0.672 0.672 0.672h6.656c0.384 0 0.672-0.288 0.672-0.672v-6.656c0-0.384-0.288-0.672-0.672-0.672zM30.656 6.656h-5.312v-5.312h5.312v5.312zM2.016 9.344c-0.384 0-0.672 0.288-0.672 0.64s0.288 0.672 0.672 0.672h4c0.352 0 0.64-0.288 0.64-0.672s-0.288-0.64-0.64-0.64h-4zM18.656 9.984c0-0.352-0.288-0.64-0.64-0.64h-4c-0.384 0-0.672 0.288-0.672 0.64s0.288 0.672 0.672 0.672h4c0.352 0 0.64-0.288 0.64-0.672zM30.016 10.656c0.352 0 0.64-0.288 0.64-0.672s-0.288-0.64-0.64-0.64h-4c-0.384 0-0.672 0.288-0.672 0.64s0.288 0.672 0.672 0.672h4zM15.328 20h6.688c0.352 0 0.64-0.288 0.64-0.672v-6.656c0-0.384-0.288-0.672-0.64-0.672h-6.688c-0.352 0-0.672 0.288-0.672 0.672v6.656c0 0.384 0.32 0.672 0.672 0.672zM16 13.344h5.344v5.312h-5.344v-5.312zM0.672 20h12c0.352 0 0.672-0.288 0.672-0.672v-6.656c0-0.384-0.32-0.672-0.672-0.672h-12c-0.384 0-0.672 0.288-0.672 0.672v6.656c0 0.384 0.288 0.672 0.672 0.672zM1.344 13.344h10.656v5.312h-10.656v-5.312zM31.328 12h-6.656c-0.384 0-0.672 0.288-0.672 0.672v6.656c0 0.384 0.288 0.672 0.672 0.672h6.656c0.384 0 0.672-0.288 0.672-0.672v-6.656c0-0.384-0.288-0.672-0.672-0.672zM30.656 18.656h-5.312v-5.312h5.312v5.312zM20.672 21.344h-4c-0.384 0-0.672 0.288-0.672 0.64s0.288 0.672 0.672 0.672h4c0.352 0 0.672-0.288 0.672-0.672s-0.32-0.64-0.672-0.64zM4.672 21.344c-0.384 0-0.672 0.288-0.672 0.64s0.288 0.672 0.672 0.672h4c0.352 0 0.672-0.288 0.672-0.672s-0.32-0.64-0.672-0.64h-4zM30.016 22.656c0.352 0 0.64-0.288 0.64-0.672s-0.288-0.64-0.64-0.64h-4c-0.384 0-0.672 0.288-0.672 0.64s0.288 0.672 0.672 0.672h4zM6.016 24h-5.344c-0.384 0-0.672 0.288-0.672 0.672v6.656c0 0.384 0.288 0.672 0.672 0.672h5.344c0.352 0 0.64-0.288 0.64-0.672v-6.656c0-0.384-0.288-0.672-0.64-0.672zM5.344 30.656h-4v-5.312h4v5.312zM19.328 24h-10.656c-0.384 0-0.672 0.288-0.672 0.672v6.656c0 0.384 0.288 0.672 0.672 0.672h10.656c0.384 0 0.672-0.288 0.672-0.672v-6.656c0-0.384-0.288-0.672-0.672-0.672zM18.656 30.656h-9.312v-5.312h9.312v5.312zM31.328 24h-9.312c-0.384 0-0.672 0.288-0.672 0.672v6.656c0 0.384 0.288 0.672 0.672 0.672h9.312c0.384 0 0.672-0.288 0.672-0.672v-6.656c0-0.384-0.288-0.672-0.672-0.672zM30.656 30.656h-8v-5.312h8v5.312z"></path> </svg> 