 <svg version="1.1" xmlns="http://www.w3.org/2000/svg" width="32" height="32" viewBox="0 0 32 32">  <path d="M15.328 24c0 0 0 0 0-0.032v-9.312h-4v1.056c0 0.384-0.288 0.672-0.672 0.672s-0.64-0.288-0.64-0.672v-1.728c0-0.352 0.288-0.64 0.64-0.64h10.688c0.352 0 0.672 0.288 0.672 0.64v1.728c0 0.384-0.32 0.672-0.672 0.672s-0.672-0.288-0.672-0.672v-1.056h-4v9.312c0 0.032 0 0.032 0 0.032h1.344c0.352 0 0.64 0.288 0.64 0.672s-0.288 0.672-0.64 0.672h-4c-0.384 0-0.672-0.32-0.672-0.672s0.288-0.672 0.672-0.672h1.312zM12.16 0.224c0.128-0.16 0.32-0.224 0.512-0.224h13.344c1.088 0 1.984 0.896 1.984 1.984v28.032c0 1.088-0.896 1.984-1.984 1.984h-20c-1.12 0-2.016-0.896-2.016-1.984v-21.344c0-0.192 0.096-0.384 0.224-0.512l7.936-7.936zM12 2.272l-5.728 5.728h5.056c0.384 0 0.672-0.288 0.672-0.672v-5.056zM26.016 1.344h-12.672v5.984c0 1.12-0.896 2.016-2.016 2.016h-5.984v20.672c0 0.352 0.288 0.64 0.672 0.64h20c0.352 0 0.64-0.288 0.64-0.64v-28.032c0-0.352-0.288-0.64-0.64-0.64z"></path> </svg> 