 <svg version="1.1" xmlns="http://www.w3.org/2000/svg" width="32" height="32" viewBox="0 0 32 32">  <path d="M9.344 2.656h-8c-0.384 0-0.672 0.32-0.672 0.672v8c0 0.384 0.288 0.672 0.672 0.672h8c0.352 0 0.672-0.288 0.672-0.672v-8c0-0.352-0.32-0.672-0.672-0.672zM8.672 10.656h-6.656v-6.656h6.656v6.656zM8 14.656c0.384 0 0.672-0.288 0.672-0.672s-0.288-0.64-0.672-0.64h-5.344c-0.352 0-0.64 0.288-0.64 0.64s0.288 0.672 0.64 0.672h5.344zM20 2.656h-8c-0.352 0-0.672 0.32-0.672 0.672v8c0 0.384 0.32 0.672 0.672 0.672h8c0.384 0 0.672-0.288 0.672-0.672v-8c0-0.352-0.288-0.672-0.672-0.672zM19.328 10.656h-6.656v-6.656h6.656v6.656zM18.656 14.656c0.384 0 0.672-0.288 0.672-0.672s-0.288-0.64-0.672-0.64h-5.312c-0.384 0-0.672 0.288-0.672 0.64s0.288 0.672 0.672 0.672h5.312zM30.656 2.656h-8c-0.352 0-0.64 0.32-0.64 0.672v8c0 0.384 0.288 0.672 0.64 0.672h8c0.384 0 0.672-0.288 0.672-0.672v-8c0-0.352-0.288-0.672-0.672-0.672zM30.016 10.656h-6.688v-6.656h6.688v6.656zM29.344 14.656c0.352 0 0.672-0.288 0.672-0.672s-0.32-0.64-0.672-0.64h-5.344c-0.352 0-0.672 0.288-0.672 0.64s0.32 0.672 0.672 0.672h5.344zM9.344 17.344h-8c-0.384 0-0.672 0.288-0.672 0.64v8c0 0.384 0.288 0.672 0.672 0.672h8c0.352 0 0.672-0.288 0.672-0.672v-8c0-0.352-0.32-0.64-0.672-0.64zM8.672 25.344h-6.656v-6.688h6.656v6.688zM8 28h-5.344c-0.352 0-0.64 0.288-0.64 0.672s0.288 0.672 0.64 0.672h5.344c0.384 0 0.672-0.32 0.672-0.672s-0.288-0.672-0.672-0.672zM20 17.344h-8c-0.352 0-0.672 0.288-0.672 0.64v8c0 0.384 0.32 0.672 0.672 0.672h8c0.384 0 0.672-0.288 0.672-0.672v-8c0-0.352-0.288-0.64-0.672-0.64zM19.328 25.344h-6.656v-6.688h6.656v6.688zM18.656 28h-5.312c-0.384 0-0.672 0.288-0.672 0.672s0.288 0.672 0.672 0.672h5.312c0.384 0 0.672-0.32 0.672-0.672s-0.288-0.672-0.672-0.672zM30.656 17.344h-8c-0.352 0-0.64 0.288-0.64 0.64v8c0 0.384 0.288 0.672 0.64 0.672h8c0.384 0 0.672-0.288 0.672-0.672v-8c0-0.352-0.288-0.64-0.672-0.64zM30.016 25.344h-6.688v-6.688h6.688v6.688zM29.344 28h-5.344c-0.352 0-0.672 0.288-0.672 0.672s0.32 0.672 0.672 0.672h5.344c0.352 0 0.672-0.32 0.672-0.672s-0.32-0.672-0.672-0.672z"></path> </svg> 