 <svg version="1.1" xmlns="http://www.w3.org/2000/svg" width="32" height="32" viewBox="0 0 32 32">  <path d="M26.016 7.328h-20c-0.384 0-0.672 0.288-0.672 0.672v16c0 0.352 0.288 0.672 0.672 0.672h20c0.352 0 0.64-0.32 0.64-0.672v-16c0-0.384-0.288-0.672-0.64-0.672zM25.344 23.328h-18.688v-14.656h18.688v14.656zM8.672 21.984h5.344c0.352 0 0.64-0.288 0.64-0.64s-0.288-0.672-0.64-0.672h-5.344c-0.384 0-0.672 0.288-0.672 0.672 0 0.352 0.288 0.64 0.672 0.64zM8.672 19.328h14.656c0.384 0 0.672-0.288 0.672-0.672s-0.288-0.672-0.672-0.672h-14.656c-0.384 0-0.672 0.32-0.672 0.672s0.288 0.672 0.672 0.672zM8.672 16.672h14.656c0.384 0 0.672-0.32 0.672-0.672s-0.288-0.672-0.672-0.672h-14.656c-0.384 0-0.672 0.288-0.672 0.672s0.288 0.672 0.672 0.672zM3.808 12.864c-0.256-0.256-0.672-0.256-0.928 0l-2.688 2.656c-0.256 0.256-0.256 0.704 0 0.96l2.688 2.656c0.128 0.128 0.288 0.192 0.448 0.192s0.352-0.064 0.48-0.192c0.256-0.256 0.256-0.672 0-0.928l-2.208-2.208 2.208-2.208c0.256-0.256 0.256-0.672 0-0.928zM31.808 15.52l-2.656-2.656c-0.256-0.256-0.704-0.256-0.96 0s-0.256 0.672 0 0.928l2.208 2.208-2.208 2.208c-0.256 0.256-0.256 0.672 0 0.928 0.128 0.128 0.32 0.192 0.48 0.192s0.352-0.064 0.48-0.192l2.656-2.656c0.256-0.256 0.256-0.704 0-0.96z"></path> </svg> 