 <svg version="1.1" xmlns="http://www.w3.org/2000/svg" width="32" height="32" viewBox="0 0 32 32">  <path d="M25.056 16.672h-5.056c-0.384 0-0.672-0.288-0.672-0.672s0.288-0.672 0.672-0.672h5.056l-0.928-0.8c-0.256-0.256-0.256-0.672 0-0.928 0.288-0.256 0.672-0.256 0.928 0l2.016 1.856c0.256 0.288 0.256 0.672 0 0.928l-2.016 2.144c-0.256 0.256-0.64 0.256-0.928 0-0.256-0.256-0.256-0.672 0-0.928l0.928-0.928zM16 7.328h13.344c1.056 0 1.984 0.928 1.984 2.016v13.312c0 1.088-0.928 2.016-1.984 2.016h-26.688c-1.056 0-1.984-0.928-1.984-2.016v-13.312c0-1.088 0.928-2.016 1.984-2.016h13.344zM6.944 15.328h5.056c0.416 0 0.672 0.256 0.672 0.672s-0.256 0.672-0.672 0.672h-5.056l0.8 0.928c0.256 0.256 0.256 0.672 0 0.928-0.288 0.256-0.672 0.256-0.928 0l-2.016-2.144c-0.256-0.256-0.256-0.64 0-0.928l2.016-1.856c0.256-0.256 0.64-0.256 0.928 0s0.256 0.672 0 0.928l-0.8 0.8zM15.328 8.672h-12.672c-0.384 0-0.64 0.256-0.64 0.672v13.312c0 0.416 0.256 0.672 0.64 0.672h12.672v-14.656zM16 7.328h0.672v17.344h-1.344v-17.344h0.672zM16.672 8.672v14.656h12.672c0.384 0 0.672-0.256 0.672-0.672v-13.312c0-0.416-0.288-0.672-0.672-0.672h-12.672z"></path> </svg> 