 <svg version="1.1" xmlns="http://www.w3.org/2000/svg" width="32" height="32" viewBox="0 0 32 32">  <path d="M13.92 18.656h-3.84l-0.8 2.24c-0.096 0.352-0.48 0.544-0.832 0.384-0.352-0.096-0.544-0.48-0.416-0.832l3.328-9.344c0.224-0.576 1.056-0.576 1.28 0l3.328 9.344c0.128 0.352-0.064 0.736-0.416 0.832s-0.736-0.032-0.832-0.384l-0.8-2.24zM13.44 17.344l-1.44-4.032-1.44 4.032h2.88zM12.16 0.224c0.128-0.16 0.32-0.224 0.512-0.224h13.344c1.088 0 1.984 0.896 1.984 1.984v28.032c0 1.088-0.896 1.984-1.984 1.984h-20c-1.12 0-2.016-0.896-2.016-1.984v-21.344c0-0.192 0.096-0.384 0.224-0.512l7.936-7.936zM12 2.272l-5.728 5.728h5.056c0.384 0 0.672-0.288 0.672-0.672v-5.056zM26.016 1.344h-12.672v5.984c0 1.12-0.896 2.016-2.016 2.016h-5.984v20.672c0 0.352 0.288 0.64 0.672 0.64h20c0.352 0 0.64-0.288 0.64-0.64v-28.032c0-0.352-0.288-0.64-0.64-0.64zM18.016 12c-0.384 0-0.672-0.288-0.672-0.672s0.288-0.672 0.672-0.672h5.312c0.384 0 0.672 0.288 0.672 0.672s-0.288 0.672-0.672 0.672h-5.312zM18.016 16c-0.384 0-0.672-0.288-0.672-0.672s0.288-0.672 0.672-0.672h5.312c0.384 0 0.672 0.288 0.672 0.672s-0.288 0.672-0.672 0.672h-5.312zM18.016 20c-0.384 0-0.672-0.288-0.672-0.672s0.288-0.672 0.672-0.672h5.312c0.384 0 0.672 0.288 0.672 0.672s-0.288 0.672-0.672 0.672h-5.312zM9.344 24.672c-0.384 0-0.672-0.288-0.672-0.672s0.288-0.672 0.672-0.672h14.656c0.384 0 0.672 0.288 0.672 0.672s-0.288 0.672-0.672 0.672h-14.656zM9.344 28.672c-0.384 0-0.672-0.288-0.672-0.672s0.288-0.672 0.672-0.672h14.656c0.384 0 0.672 0.288 0.672 0.672s-0.288 0.672-0.672 0.672h-14.656z"></path> </svg> 