 <svg version="1.1" xmlns="http://www.w3.org/2000/svg" width="32" height="32" viewBox="0 0 32 32">  <path d="M3.808 13.536c-0.256-0.256-0.672-0.256-0.928 0l-2.688 2.656c-0.256 0.256-0.256 0.672 0 0.96l2.688 2.656c0.128 0.128 0.288 0.192 0.448 0.192s0.352-0.064 0.48-0.192c0.256-0.256 0.256-0.704 0-0.96l-2.208-2.176 2.208-2.208c0.256-0.256 0.256-0.672 0-0.928zM31.808 16.192l-2.656-2.656c-0.256-0.256-0.704-0.256-0.96 0s-0.256 0.672 0 0.928l2.208 2.208-2.208 2.176c-0.256 0.288-0.256 0.704 0 0.96 0.128 0.128 0.32 0.192 0.48 0.192s0.352-0.064 0.48-0.192l2.656-2.656c0.256-0.288 0.256-0.704 0-0.96zM10.016 10.656h-4c-0.384 0-0.672 0.32-0.672 0.672v4c0 0.384 0.288 0.672 0.672 0.672h4c0.352 0 0.64-0.288 0.64-0.672v-4c0-0.352-0.288-0.672-0.64-0.672zM9.344 14.656h-2.688v-2.656h2.688v2.656zM18.016 10.656h-4c-0.384 0-0.672 0.32-0.672 0.672v4c0 0.384 0.288 0.672 0.672 0.672h4c0.352 0 0.64-0.288 0.64-0.672v-4c0-0.352-0.288-0.672-0.64-0.672zM17.344 14.656h-2.688v-2.656h2.688v2.656zM26.016 10.656h-4c-0.384 0-0.672 0.32-0.672 0.672v4c0 0.384 0.288 0.672 0.672 0.672h4c0.352 0 0.64-0.288 0.64-0.672v-4c0-0.352-0.288-0.672-0.64-0.672zM25.344 14.656h-2.688v-2.656h2.688v2.656zM10.016 17.344h-4c-0.384 0-0.672 0.288-0.672 0.64s0.288 0.672 0.672 0.672h4c0.352 0 0.64-0.288 0.64-0.672s-0.288-0.64-0.64-0.64zM18.016 17.344h-4c-0.384 0-0.672 0.288-0.672 0.64s0.288 0.672 0.672 0.672h4c0.352 0 0.64-0.288 0.64-0.672s-0.288-0.64-0.64-0.64zM26.016 17.344h-4c-0.384 0-0.672 0.288-0.672 0.64s0.288 0.672 0.672 0.672h4c0.352 0 0.64-0.288 0.64-0.672s-0.288-0.64-0.64-0.64zM8.672 20h-2.656c-0.384 0-0.672 0.288-0.672 0.672s0.288 0.672 0.672 0.672h2.656c0.352 0 0.672-0.32 0.672-0.672s-0.32-0.672-0.672-0.672zM16.672 20h-2.656c-0.384 0-0.672 0.288-0.672 0.672s0.288 0.672 0.672 0.672h2.656c0.352 0 0.672-0.32 0.672-0.672s-0.32-0.672-0.672-0.672zM24.672 20h-2.656c-0.384 0-0.672 0.288-0.672 0.672s0.288 0.672 0.672 0.672h2.656c0.352 0 0.672-0.32 0.672-0.672s-0.32-0.672-0.672-0.672z"></path> </svg> 