 <svg version="1.1" xmlns="http://www.w3.org/2000/svg" width="32" height="32" viewBox="0 0 32 32">  <path d="M20.672 28h-16.672v-18.656h7.328c0.384 0 0.672-0.32 0.672-0.672v-7.328h13.344v17.984c0 0.384 0.288 0.672 0.672 0.672s0.64-0.288 0.64-0.672v-18.656c0-0.384-0.288-0.672-0.64-0.672h-14.688c-0.096 0-0.16 0.032-0.256 0.064-0.032 0-0.032 0.032-0.064 0.032-0.064 0.032-0.096 0.064-0.16 0.096l-8 8c0 0.032-0.032 0.064-0.064 0.096-0.032 0.064-0.032 0.064-0.064 0.128s-0.064 0.16-0.064 0.256v20c0 0.352 0.32 0.672 0.672 0.672h17.344c0.352 0 0.672-0.32 0.672-0.672s-0.32-0.672-0.672-0.672zM4.96 8l5.696-5.728v5.728h-5.696zM29.344 28.32c0-1.504-1.632-2.016-2.688-2.208v-2.048c0.768 0.16 1.312 0.544 1.344 0.896s0.384 0.608 0.736 0.608c0.352-0.064 0.64-0.384 0.608-0.736-0.128-1.088-1.216-1.92-2.688-2.112v-0.736c0-0.352-0.288-0.64-0.64-0.64s-0.672 0.288-0.672 0.64v0.736c-1.536 0.192-2.688 1.12-2.688 2.272 0 1.536 1.632 2.016 2.688 2.24v2.016c-0.768-0.128-1.312-0.512-1.344-0.864-0.032-0.384-0.384-0.64-0.736-0.608s-0.64 0.352-0.576 0.736c0.096 1.056 1.184 1.92 2.656 2.112v0.704c0 0.384 0.288 0.672 0.672 0.672s0.64-0.288 0.64-0.672v-0.704c1.568-0.224 2.688-1.152 2.688-2.304zM24 24.992c0-0.352 0.544-0.768 1.344-0.928v1.792c-1.088-0.256-1.344-0.608-1.344-0.864zM26.656 29.28v-1.824c1.088 0.256 1.344 0.608 1.344 0.864 0 0.384-0.544 0.8-1.344 0.96zM8.672 12c-1.12 0-2.016 0.896-2.016 1.984s0.896 2.016 2.016 2.016 1.984-0.896 1.984-2.016-0.896-1.984-1.984-1.984zM8.672 14.656c-0.384 0-0.672-0.288-0.672-0.672s0.288-0.64 0.672-0.64 0.672 0.288 0.672 0.64-0.32 0.672-0.672 0.672zM8.672 17.344c-1.12 0-2.016 0.896-2.016 1.984s0.896 2.016 2.016 2.016 1.984-0.896 1.984-2.016-0.896-1.984-1.984-1.984zM8.672 20c-0.384 0-0.672-0.288-0.672-0.672s0.288-0.672 0.672-0.672 0.672 0.32 0.672 0.672-0.32 0.672-0.672 0.672zM8.672 22.656c-1.12 0-2.016 0.896-2.016 2.016s0.896 1.984 2.016 1.984 1.984-0.896 1.984-1.984-0.896-2.016-1.984-2.016zM8.672 25.344c-0.384 0-0.672-0.32-0.672-0.672s0.288-0.672 0.672-0.672 0.672 0.288 0.672 0.672-0.32 0.672-0.672 0.672zM14.016 13.344c-0.384 0-0.672 0.288-0.672 0.64s0.288 0.672 0.672 0.672h8c0.352 0 0.64-0.288 0.64-0.672s-0.288-0.64-0.64-0.64h-8zM22.016 18.656h-8c-0.384 0-0.672 0.32-0.672 0.672s0.288 0.672 0.672 0.672h8c0.352 0 0.64-0.288 0.64-0.672s-0.288-0.672-0.64-0.672zM20.672 24h-6.656c-0.384 0-0.672 0.288-0.672 0.672s0.288 0.672 0.672 0.672h6.656c0.352 0 0.672-0.32 0.672-0.672s-0.32-0.672-0.672-0.672z"></path> </svg> 