 <svg version="1.1" xmlns="http://www.w3.org/2000/svg" width="32" height="32" viewBox="0 0 32 32">  <path d="M30.656 5.984h-5.984v-1.984c0-0.384-0.288-0.672-0.672-0.672h-16c-0.352 0-0.672 0.288-0.672 0.672v1.984h-5.984c-0.384 0-0.672 0.32-0.672 0.672v18.688c0 0.352 0.288 0.64 0.672 0.64h5.984v2.016c0 0.384 0.32 0.672 0.672 0.672h16c0.384 0 0.672-0.288 0.672-0.672v-2.016h5.984c0.384 0 0.672-0.288 0.672-0.64v-18.688c0-0.352-0.288-0.672-0.672-0.672zM30.016 7.328v2.656h-5.344v-2.656h5.344zM8.672 4.672h14.656v4h-14.656v-4zM7.328 7.328v2.656h-5.312v-2.656h5.312zM2.016 24.672v-13.344h5.312v13.344h-5.312zM23.328 27.328h-14.656v-17.344h14.656v17.344zM24.672 24.672v-13.344h5.344v13.344h-5.344zM16.672 18.144v-2.72c0.736 0.16 1.28 0.64 1.344 1.184 0.032 0.352 0.352 0.608 0.704 0.608 0.384-0.032 0.64-0.384 0.608-0.736-0.096-1.248-1.216-2.208-2.656-2.432v-0.704c0-0.384-0.288-0.672-0.672-0.672s-0.672 0.288-0.672 0.672v0.704c-1.504 0.256-2.656 1.344-2.656 2.624 0 1.248 0.864 2.080 2.656 2.528v2.72c-0.736-0.192-1.28-0.64-1.344-1.184 0-0.352-0.384-0.64-0.704-0.608-0.352 0.032-0.64 0.352-0.608 0.736 0.096 1.216 1.216 2.176 2.656 2.4v0.736c0 0.352 0.32 0.672 0.672 0.672s0.672-0.32 0.672-0.672v-0.736c1.504-0.224 2.656-1.312 2.656-2.592 0-1.248-0.864-2.112-2.656-2.528zM14.016 16.672c0-0.576 0.544-1.056 1.312-1.248v2.4c-0.896-0.256-1.312-0.64-1.312-1.152zM16.672 21.92v-2.4c0.896 0.256 1.344 0.608 1.344 1.152s-0.576 1.056-1.344 1.248z"></path> </svg> 