 <svg version="1.1" xmlns="http://www.w3.org/2000/svg" width="55" height="32" viewBox="0 0 55 32">  <path d="M0 4.48c0-2.464 2.016-4.48 4.48-4.48h45.888c2.496 0 4.48 2.016 4.48 4.48v23.040c0 2.464-2.016 4.48-4.48 4.48h-45.888c-2.464 0-4.48-2.016-4.48-4.48v-23.040zM8.384 22.912h2.080v-5.44h3.744c2.816 0 4.416-1.984 4.416-4.32 0-2.368-1.568-4.352-4.416-4.352h-5.824v14.112zM16.512 13.152c0 1.472-1.088 2.464-2.56 2.464h-3.488v-4.96h3.488c1.472 0 2.56 0.992 2.56 2.496zM28.704 22.912h2.4l-3.52-5.664c1.76-0.224 3.424-1.568 3.424-4.096 0-2.624-1.792-4.352-4.416-4.352h-5.824v14.112h2.080v-5.44h2.56l3.296 5.44zM28.896 13.152c0 1.472-1.088 2.464-2.592 2.464h-3.456v-4.96h3.456c1.504 0 2.592 0.992 2.592 2.496zM32.992 15.872c0 4.192 2.816 7.296 6.944 7.296s6.976-3.104 6.976-7.296c0-4.192-2.848-7.296-6.976-7.296s-6.944 3.104-6.944 7.296zM44.768 15.872c0 3.072-1.92 5.408-4.832 5.408-2.944 0-4.832-2.336-4.832-5.408 0-3.104 1.888-5.408 4.832-5.408 2.912 0 4.832 2.304 4.832 5.408z"></path> </svg> 