 <svg version="1.1" xmlns="http://www.w3.org/2000/svg" width="32" height="32" viewBox="0 0 32 32">  <path d="M13.312 13.216h4.064l1.44-4.704h-6.912l1.408 4.704zM19.2 7.168c0.576 0 1.056 0.48 1.056 1.056 0 0.128 0 0.224-0.064 0.32l-1.632 5.248c-0.128 0.448-0.544 0.768-0.992 0.768h-4.448c-0.48 0-0.864-0.32-1.024-0.768l-1.728-5.728c0-0.032 0-0.032 0-0.032-0.128-0.352-0.288-0.704-0.512-1.056-0.16-0.192-0.32-0.288-0.544-0.288-0.352 0-0.672-0.288-0.672-0.672s0.32-0.672 0.672-0.672c0.672 0 1.248 0.32 1.632 0.896 0.224 0.288 0.384 0.608 0.512 0.96h7.744zM13.632 16.8c-0.512 0-0.928-0.416-0.928-0.928s0.416-0.928 0.928-0.928 0.928 0.416 0.928 0.928c0 0.512-0.416 0.928-0.928 0.928zM16.96 16.8c-0.512 0-0.928-0.416-0.928-0.928s0.416-0.928 0.928-0.928c0.512 0 0.928 0.416 0.928 0.928s-0.416 0.928-0.928 0.928zM1.344 1.344v20h28v-20h-28zM0.672 0h29.344c0.352 0 0.64 0.288 0.64 0.672v21.312c0 0.384-0.288 0.672-0.64 0.672h-29.344c-0.384 0-0.672-0.288-0.672-0.672v-21.312c0-0.384 0.288-0.672 0.672-0.672zM1.344 25.344v2.656h4v-2.656h-4zM0.672 24h5.344c0.352 0 0.64 0.288 0.64 0.672v4c0 0.384-0.288 0.672-0.64 0.672h-5.344c-0.384 0-0.672-0.288-0.672-0.672v-4c0-0.384 0.288-0.672 0.672-0.672zM9.344 25.344v2.656h4v-2.656h-4zM8.672 24h5.344c0.352 0 0.64 0.288 0.64 0.672v4c0 0.384-0.288 0.672-0.64 0.672h-5.344c-0.384 0-0.672-0.288-0.672-0.672v-4c0-0.384 0.288-0.672 0.672-0.672zM17.344 25.344v2.656h4v-2.656h-4zM16.672 24h5.344c0.352 0 0.64 0.288 0.64 0.672v4c0 0.384-0.288 0.672-0.64 0.672h-5.344c-0.384 0-0.672-0.288-0.672-0.672v-4c0-0.384 0.288-0.672 0.672-0.672zM25.344 25.344v2.656h4v-2.656h-4zM24.672 24h5.344c0.352 0 0.64 0.288 0.64 0.672v4c0 0.384-0.288 0.672-0.64 0.672h-5.344c-0.384 0-0.672-0.288-0.672-0.672v-4c0-0.384 0.288-0.672 0.672-0.672z"></path> </svg> 