 <svg version="1.1" xmlns="http://www.w3.org/2000/svg" width="32" height="32" viewBox="0 0 32 32">  <path d="M12.448 13.28l2.272-7.84c0.224-0.768 1.312-0.608 1.312 0.16v21.504c0 0.416-0.384 0.736-0.8 0.64l-10.976-2.4c-0.288-0.064-0.512-0.32-0.512-0.64v-10.72c0-0.384 0.288-0.672 0.672-0.672h8.032zM13.568 14.144c-0.064 0.288-0.352 0.48-0.64 0.48h-7.84v9.536l9.632 2.080v-15.968l-1.152 3.872zM14.464 6.368l-9.568 1.056-1.984 5.856h9.504l2.048-6.912zM12.928 14.624h-10.944c-0.448 0-0.768-0.448-0.608-0.864l2.432-7.168c0.064-0.256 0.288-0.448 0.544-0.448l10.976-1.184c0.448-0.064 0.832 0.384 0.704 0.832l-2.432 8.352c-0.096 0.288-0.384 0.48-0.672 0.48zM26.656 13.28c0.384 0 0.672 0.32 0.672 0.672v6.4c0 0.384-0.288 0.672-0.672 0.672s-0.672-0.288-0.672-0.672v-5.728h-8.192c-0.288 0-0.544-0.192-0.64-0.48l-1.12-3.872v15.968l4.16-0.896c0.352-0.064 0.704 0.16 0.768 0.512 0.096 0.352-0.128 0.704-0.48 0.768l-4.992 1.088c-0.416 0.096-0.8-0.224-0.8-0.64v-21.472c0-0.768 1.088-0.928 1.312-0.16l2.272 7.84h8.384zM17.792 14.624c-0.288 0-0.544-0.192-0.64-0.48l-2.432-8.352c-0.128-0.448 0.256-0.896 0.704-0.832l10.976 1.184c0.256 0 0.48 0.192 0.576 0.448l2.432 7.168c0.128 0.416-0.192 0.864-0.64 0.864h-10.976zM18.304 13.28h9.536l-2.016-5.856-9.536-1.056 2.016 6.912zM23.712 28h4.064l1.44-4.704h-6.912l1.408 4.704zM29.6 21.984c0.576 0 1.056 0.48 1.056 1.056 0 0.096 0 0.224-0.064 0.32l-1.632 5.248c-0.128 0.448-0.544 0.736-0.992 0.736h-4.448c-0.48 0-0.864-0.288-1.024-0.768l-1.728-5.728c0 0 0-0.032 0-0.032-0.128-0.352-0.288-0.704-0.512-1.024-0.16-0.224-0.32-0.32-0.544-0.32-0.352 0-0.672-0.288-0.672-0.672s0.32-0.64 0.672-0.64c0.672 0 1.248 0.288 1.632 0.864 0.224 0.32 0.384 0.64 0.512 0.96h7.744zM24.032 31.616c-0.512 0-0.928-0.416-0.928-0.96s0.416-0.928 0.928-0.928 0.928 0.416 0.928 0.928-0.416 0.96-0.928 0.96zM27.36 31.616c-0.512 0-0.928-0.416-0.928-0.96s0.416-0.928 0.928-0.928 0.928 0.416 0.928 0.928-0.416 0.96-0.928 0.96z"></path> </svg> 