 <svg version="1.1" xmlns="http://www.w3.org/2000/svg" width="32" height="32" viewBox="0 0 32 32">  <path d="M1.344 16h20v-2.016c0-1.088-0.896-1.984-2.016-1.984h-16c-1.088 0-1.984 0.896-1.984 1.984v2.016zM21.344 17.344h-20v11.328c0 1.088 0.896 1.984 1.984 1.984h16c1.12 0 2.016-0.896 2.016-1.984v-11.328zM22.656 28.672c0 1.824-1.472 3.328-3.328 3.328h-16c-1.824 0-3.328-1.504-3.328-3.328v-14.688c0-1.824 1.504-3.328 3.328-3.328h16c1.856 0 3.328 1.504 3.328 3.328v14.688zM4 13.984c0 0.384-0.288 0.672-0.672 0.672s-0.672-0.288-0.672-0.672 0.32-0.64 0.672-0.64 0.672 0.288 0.672 0.64M6.656 13.984c0 0.384-0.288 0.672-0.64 0.672s-0.672-0.288-0.672-0.672 0.288-0.64 0.672-0.64 0.64 0.288 0.64 0.64M9.344 13.984c0 0.384-0.288 0.672-0.672 0.672s-0.672-0.288-0.672-0.672 0.288-0.64 0.672-0.64c0.384 0 0.672 0.288 0.672 0.64M9.536 6.464c-0.128-0.128-0.192-0.288-0.192-0.48v-2.656c0-1.824 1.472-3.328 3.328-3.328h16c1.824 0 3.328 1.504 3.328 3.328v14.656c0 1.856-1.504 3.36-3.328 3.36h-2.656c-0.384 0-0.672-0.32-0.672-0.672s0.288-0.672 0.672-0.672h2.656c1.088 0 1.984-0.896 1.984-2.016v-11.328h-20.64c-0.192 0-0.352-0.064-0.48-0.192zM30.656 5.344v-2.016c0-1.088-0.896-1.984-1.984-1.984h-16c-1.12 0-2.016 0.896-2.016 1.984v2.016h20zM13.344 3.328c0 0.384-0.288 0.672-0.672 0.672s-0.672-0.288-0.672-0.672 0.288-0.672 0.672-0.672 0.672 0.288 0.672 0.672M16 3.328c0 0.384-0.288 0.672-0.672 0.672s-0.672-0.288-0.672-0.672 0.32-0.672 0.672-0.672 0.672 0.288 0.672 0.672M18.656 3.328c0 0.384-0.288 0.672-0.64 0.672s-0.672-0.288-0.672-0.672 0.288-0.672 0.672-0.672 0.64 0.288 0.64 0.672M4.192 11.808c-0.096-0.128-0.192-0.288-0.192-0.48v-2.656c0-1.856 1.504-3.328 3.328-3.328h16c1.856 0 3.328 1.472 3.328 3.328v14.656c0 1.856-1.472 3.328-3.328 3.328h-1.312c-0.384 0-0.672-0.288-0.672-0.672s0.288-0.64 0.672-0.64h1.312c1.12 0 2.016-0.896 2.016-2.016v-11.328h-20.672c-0.192 0-0.352-0.096-0.48-0.192zM25.344 10.656v-1.984c0-1.12-0.896-2.016-2.016-2.016h-16c-1.088 0-1.984 0.896-1.984 2.016v1.984h20zM8 8.672c0 0.352-0.288 0.672-0.672 0.672s-0.672-0.32-0.672-0.672c0-0.384 0.32-0.672 0.672-0.672s0.672 0.288 0.672 0.672M10.656 8.672c0 0.352-0.288 0.672-0.64 0.672s-0.672-0.32-0.672-0.672c0-0.384 0.288-0.672 0.672-0.672s0.64 0.288 0.64 0.672M13.344 8.672c0 0.352-0.288 0.672-0.672 0.672s-0.672-0.32-0.672-0.672c0-0.384 0.288-0.672 0.672-0.672s0.672 0.288 0.672 0.672M9.984 25.888h4.032l1.472-4.704h-6.912l1.408 4.704zM15.84 19.84c0.608 0 1.088 0.48 1.088 1.056 0 0.128-0.032 0.224-0.064 0.32l-1.632 5.248c-0.128 0.448-0.544 0.736-0.992 0.736h-4.448c-0.48 0-0.896-0.288-1.024-0.736l-1.728-5.76c0 0 0 0 0 0-0.128-0.384-0.288-0.704-0.512-1.056-0.16-0.224-0.32-0.288-0.544-0.288-0.384 0-0.672-0.32-0.672-0.672s0.288-0.672 0.672-0.672c0.672 0 1.248 0.288 1.632 0.864 0.224 0.32 0.384 0.64 0.512 0.96h7.712zM10.304 29.472c-0.544 0-0.928-0.416-0.928-0.928s0.384-0.928 0.928-0.928 0.928 0.384 0.928 0.928-0.416 0.928-0.928 0.928zM13.632 29.472c-0.512 0-0.928-0.416-0.928-0.928s0.416-0.928 0.928-0.928 0.928 0.384 0.928 0.928-0.416 0.928-0.928 0.928z"></path> </svg> 