 <svg version="1.1" xmlns="http://www.w3.org/2000/svg" width="32" height="32" viewBox="0 0 32 32">  <path d="M15.68 24c0.384 0 0.672 0.288 0.672 0.672s-0.288 0.672-0.672 0.672h-12.48c-1.728 0-3.2-1.184-3.2-2.752v-18.528c0-1.536 1.472-2.72 3.2-2.72h24.256c1.76 0 3.2 1.184 3.2 2.72v18.56c0 1.056-0.736 2.016-1.824 2.464-0.224 0.096-0.48 0.16-0.704 0.192-0.096 0-0.192 0.032-0.288 0.032-0.16 0.032-0.288 0.032-0.352 0.032-0.384 0-0.672-0.256-0.704-0.64 0-0.384 0.256-0.672 0.64-0.704 0.064 0 0.192 0 0.288 0s0.128 0 0.192 0c0.16-0.032 0.288-0.096 0.448-0.16 0.608-0.256 0.992-0.736 0.992-1.216v-18.56c0-0.736-0.8-1.408-1.888-1.408h-24.256c-1.056 0-1.856 0.672-1.856 1.408v18.56c0 0.736 0.8 1.376 1.856 1.376h12.48zM19.584 28h4.032l1.472-4.704h-6.912l1.408 4.704zM25.44 21.984c0.608 0 1.088 0.48 1.088 1.056 0 0.096-0.032 0.224-0.064 0.32l-1.632 5.248c-0.128 0.448-0.544 0.736-0.992 0.736h-4.448c-0.48 0-0.896-0.288-1.024-0.768l-1.728-5.728c0 0 0-0.032 0-0.032-0.128-0.352-0.288-0.704-0.512-1.024-0.16-0.224-0.32-0.32-0.544-0.32-0.384 0-0.672-0.288-0.672-0.672s0.288-0.64 0.672-0.64c0.672 0 1.248 0.288 1.632 0.864 0.224 0.32 0.384 0.64 0.512 0.96h7.712zM19.904 31.616c-0.544 0-0.928-0.416-0.928-0.96s0.384-0.928 0.928-0.928 0.928 0.416 0.928 0.928-0.416 0.96-0.928 0.96zM23.232 31.616c-0.512 0-0.928-0.416-0.928-0.96s0.416-0.928 0.928-0.928 0.928 0.416 0.928 0.928-0.416 0.96-0.928 0.96zM14.976 8.928c-0.192 0.256-0.192 0.256-0.48 0.32h-0.544l0.384 0.352c0.16 0.224 0.16 0.224 0.16 0.48l-0.16 0.864 0.736-0.416c0.256-0.128 0.256-0.128 0.544 0l0.704 0.416-0.16-0.864c0-0.288 0-0.288 0.16-0.48l0.384-0.352h-0.512c-0.32-0.064-0.32-0.064-0.48-0.32l-0.384-0.928-0.352 0.928zM14.848 6.464c0.256-0.32 0.256-0.32 0.672-0.288 0.192 0.128 0.192 0.128 0.288 0.288l0.736 1.76h1.472c0.384 0.096 0.384 0.096 0.512 0.512-0.032 0.224-0.032 0.224-0.16 0.384l-1.152 1.056 0.32 1.728c-0.032 0.416-0.032 0.416-0.416 0.608-0.16 0-0.16 0-0.352-0.064l-1.44-0.864-1.408 0.864c-0.416 0.096-0.416 0.096-0.704-0.192-0.096-0.16-0.096-0.16-0.096-0.352l0.32-1.728-1.12-1.056c-0.224-0.384-0.224-0.384-0.032-0.736 0.16-0.16 0.16-0.16 0.384-0.16h1.472l0.704-1.76zM22.976 8.928c-0.192 0.256-0.192 0.256-0.48 0.32h-0.544l0.384 0.352c0.16 0.224 0.16 0.224 0.16 0.48l-0.16 0.864 0.736-0.416c0.256-0.128 0.256-0.128 0.544 0l0.704 0.416-0.16-0.864c0-0.288 0-0.288 0.16-0.48l0.384-0.352h-0.512c-0.32-0.064-0.32-0.064-0.48-0.32l-0.384-0.928-0.352 0.928zM22.848 6.464c0.256-0.32 0.256-0.32 0.672-0.288 0.192 0.128 0.192 0.128 0.288 0.288l0.736 1.76h1.472c0.384 0.096 0.384 0.096 0.512 0.512-0.032 0.224-0.032 0.224-0.16 0.384l-1.152 1.056 0.32 1.728c-0.032 0.416-0.032 0.416-0.416 0.608-0.16 0-0.16 0-0.352-0.064l-1.44-0.864-1.408 0.864c-0.416 0.096-0.416 0.096-0.704-0.192-0.096-0.16-0.096-0.16-0.096-0.352l0.32-1.728-1.12-1.056c-0.224-0.384-0.224-0.384-0.032-0.736 0.16-0.16 0.16-0.16 0.384-0.16h1.472l0.704-1.76zM6.976 8.928c-0.192 0.256-0.192 0.256-0.48 0.32h-0.544l0.384 0.352c0.16 0.224 0.16 0.224 0.16 0.48l-0.16 0.864 0.736-0.416c0.256-0.128 0.256-0.128 0.544 0l0.704 0.416-0.16-0.864c0-0.288 0-0.288 0.16-0.48l0.384-0.352h-0.512c-0.32-0.064-0.32-0.064-0.48-0.32l-0.384-0.896-0.352 0.896zM6.848 6.464c0.256-0.32 0.256-0.32 0.672-0.288 0.192 0.128 0.192 0.128 0.288 0.288l0.736 1.76h1.472c0.384 0.096 0.384 0.096 0.512 0.512-0.032 0.224-0.032 0.224-0.16 0.384l-1.152 1.056 0.32 1.728c-0.032 0.416-0.032 0.416-0.416 0.608-0.16 0-0.16 0-0.352-0.064l-1.44-0.864-1.408 0.864c-0.416 0.096-0.416 0.096-0.704-0.192-0.096-0.16-0.096-0.16-0.096-0.352l0.32-1.728-1.12-1.056c-0.224-0.384-0.224-0.384-0.032-0.736 0.16-0.16 0.16-0.16 0.384-0.16h1.472l0.704-1.76z"></path> </svg> 