 <svg version="1.1" xmlns="http://www.w3.org/2000/svg" width="32" height="32" viewBox="0 0 32 32">  <path d="M23.712 28h4.064l1.44-4.704h-6.912l1.408 4.704zM29.6 21.984c0.576 0 1.056 0.48 1.056 1.056 0 0.096 0 0.224-0.064 0.32l-1.632 5.248c-0.128 0.448-0.544 0.736-0.992 0.736h-4.448c-0.48 0-0.864-0.288-1.024-0.768l-1.728-5.728c0 0 0-0.032 0-0.032-0.128-0.352-0.288-0.704-0.512-1.024-0.16-0.224-0.32-0.32-0.544-0.32-0.352 0-0.672-0.288-0.672-0.672s0.32-0.64 0.672-0.64c0.672 0 1.248 0.288 1.632 0.864 0.224 0.32 0.384 0.64 0.512 0.96h7.744zM24.032 31.616c-0.512 0-0.928-0.416-0.928-0.96s0.416-0.928 0.928-0.928 0.928 0.416 0.928 0.928-0.416 0.96-0.928 0.96zM27.36 31.616c-0.512 0-0.928-0.416-0.928-0.96s0.416-0.928 0.928-0.928 0.928 0.416 0.928 0.928-0.416 0.96-0.928 0.96zM15.264 18.24c-0.288 0.192-0.704 0.128-0.928-0.192-0.224-0.288-0.128-0.704 0.16-0.928 2.144-1.472 3.456-3.936 3.456-6.624 0-4.384-3.488-7.968-7.776-7.968s-7.776 3.584-7.776 7.968c0 3.232 1.856 6.080 4.704 7.328 0.32 0.16 0.48 0.544 0.32 0.896-0.128 0.32-0.544 0.48-0.864 0.32-3.328-1.472-5.504-4.8-5.504-8.544 0-5.12 4.064-9.312 9.12-9.312 5.024 0 9.12 4.192 9.12 9.312 0 3.136-1.536 6.016-4.032 7.744zM22.88 12.736c0.256-0.256 0.704-0.256 0.96 0s0.256 0.672 0 0.928l-7.904 8.096c-0.256 0.288-0.704 0.288-0.96 0l-3.744-3.808-5.856 5.984c-0.256 0.256-0.672 0.256-0.928 0-0.288-0.256-0.288-0.672-0.032-0.928l6.336-6.496c0.288-0.256 0.704-0.256 0.96 0l3.744 3.84 7.424-7.616zM26.016 9.824c0.352 0 0.64 0.32 0.64 0.672v5.408c0 0.608-0.704 0.896-1.12 0.48l-5.28-5.408c-0.416-0.416-0.128-1.152 0.48-1.152h5.28zM22.304 11.168l3.040 3.104v-3.104h-3.040zM7.392 12.288c-0.032-0.384 0.256-0.704 0.608-0.736 0.384-0.032 0.704 0.256 0.736 0.608 0.032 0.48 0.64 0.928 1.44 0.928 0.832 0 1.44-0.48 1.44-0.96 0-0.32-0.224-0.544-0.672-0.736-0.16-0.064-0.32-0.096-0.512-0.16-0.096-0.032-0.416-0.064-0.384-0.064s-0.288-0.064-0.448-0.096c-0.224-0.032-0.48-0.128-0.704-0.192-0.896-0.384-1.504-1.024-1.504-1.984 0-1.312 1.28-2.304 2.784-2.304 1.44 0 2.656 0.896 2.784 2.144 0 0.384-0.256 0.704-0.64 0.704s-0.672-0.224-0.704-0.608c-0.032-0.448-0.64-0.896-1.44-0.896-0.832 0-1.44 0.448-1.44 0.96 0 0.32 0.224 0.544 0.672 0.736 0.16 0.064 0.32 0.096 0.512 0.16 0.096 0.032 0.416 0.064 0.384 0.064s0.288 0.064 0.416 0.096c0.256 0.032 0.48 0.128 0.736 0.192 0.896 0.384 1.504 1.024 1.504 1.984 0 1.312-1.28 2.272-2.784 2.272-1.44 0-2.688-0.896-2.784-2.112zM9.504 6.176c0-0.352 0.288-0.672 0.672-0.672s0.672 0.32 0.672 0.672v8.64c0 0.384-0.288 0.672-0.672 0.672s-0.672-0.288-0.672-0.672v-8.64z"></path> </svg> 