 <svg version="1.1" xmlns="http://www.w3.org/2000/svg" width="32" height="32" viewBox="0 0 32 32">  <path d="M17.344 1.344v12h12v-12h-12zM16.672 0h13.344c0.352 0 0.64 0.288 0.64 0.672v13.312c0 0.384-0.288 0.672-0.64 0.672h-13.344c-0.384 0-0.672-0.288-0.672-0.672v-13.312c0-0.384 0.288-0.672 0.672-0.672zM1.344 1.344v12h12v-12h-12zM0.672 0h13.344c0.352 0 0.64 0.288 0.64 0.672v13.312c0 0.384-0.288 0.672-0.64 0.672h-13.344c-0.384 0-0.672-0.288-0.672-0.672v-13.312c0-0.384 0.288-0.672 0.672-0.672zM17.344 17.344v12h12v-12h-12zM16.672 16h13.344c0.352 0 0.64 0.288 0.64 0.672v13.344c0 0.352-0.288 0.64-0.64 0.64h-13.344c-0.384 0-0.672-0.288-0.672-0.64v-13.344c0-0.384 0.288-0.672 0.672-0.672zM1.344 17.344v12h12v-12h-12zM0.672 16h13.344c0.352 0 0.64 0.288 0.64 0.672v13.344c0 0.352-0.288 0.64-0.64 0.64h-13.344c-0.384 0-0.672-0.288-0.672-0.64v-13.344c0-0.384 0.288-0.672 0.672-0.672zM6.592 8.992h2.848l1.056-3.552h-4.928l1.024 3.552zM10.88 4.224c0.512 0 0.928 0.416 0.928 0.928 0 0.096-0.032 0.16-0.032 0.256l-1.216 4.096c-0.128 0.416-0.48 0.672-0.896 0.672h-3.264c-0.416 0-0.8-0.256-0.896-0.672l-1.312-4.48c0-0.032 0-0.032 0-0.032-0.096-0.288-0.192-0.544-0.384-0.8-0.096-0.16-0.192-0.192-0.288-0.192-0.352 0-0.608-0.288-0.608-0.608s0.256-0.608 0.608-0.608c0.544 0 0.992 0.256 1.28 0.736 0.16 0.224 0.288 0.48 0.384 0.704h5.696zM6.72 12.096c-0.384 0-0.672-0.352-0.672-0.736s0.32-0.736 0.672-0.736 0.704 0.32 0.704 0.736-0.288 0.736-0.704 0.736zM9.216 12.096c-0.384 0-0.672-0.352-0.672-0.736s0.32-0.736 0.672-0.736 0.704 0.32 0.704 0.736-0.32 0.736-0.704 0.736zM22.592 8.992h2.848l1.056-3.552h-4.928l1.024 3.552zM26.88 4.224c0.512 0 0.928 0.416 0.928 0.928 0 0.096-0.032 0.16-0.032 0.256l-1.216 4.096c-0.128 0.416-0.48 0.672-0.896 0.672h-3.264c-0.416 0-0.8-0.256-0.896-0.672l-1.312-4.48c0-0.032 0-0.032 0-0.032-0.096-0.288-0.192-0.544-0.384-0.8-0.096-0.16-0.192-0.192-0.288-0.192-0.352 0-0.608-0.288-0.608-0.608s0.256-0.608 0.608-0.608c0.544 0 0.992 0.256 1.28 0.736 0.16 0.224 0.288 0.48 0.384 0.704h5.696zM22.72 12.096c-0.384 0-0.672-0.352-0.672-0.736s0.32-0.736 0.672-0.736 0.704 0.32 0.704 0.736-0.288 0.736-0.704 0.736zM25.216 12.096c-0.384 0-0.672-0.352-0.672-0.736s0.32-0.736 0.672-0.736 0.704 0.32 0.704 0.736-0.32 0.736-0.704 0.736zM6.592 24.992h2.848l1.056-3.552h-4.928l1.024 3.552zM10.88 20.224c0.512 0 0.928 0.416 0.928 0.928 0 0.096-0.032 0.16-0.032 0.256l-1.216 4.096c-0.128 0.416-0.48 0.672-0.896 0.672h-3.264c-0.416 0-0.8-0.256-0.896-0.672l-1.312-4.48c0-0.032 0-0.032 0-0.032-0.096-0.288-0.192-0.544-0.384-0.8-0.096-0.16-0.192-0.192-0.288-0.192-0.352 0-0.608-0.288-0.608-0.608 0-0.352 0.256-0.608 0.608-0.608 0.544 0 0.992 0.256 1.28 0.736 0.16 0.224 0.288 0.48 0.384 0.704h5.696zM6.72 28.096c-0.384 0-0.672-0.32-0.672-0.736s0.32-0.736 0.672-0.736 0.704 0.32 0.704 0.736c0 0.416-0.288 0.736-0.704 0.736zM9.216 28.096c-0.384 0-0.672-0.32-0.672-0.736s0.32-0.736 0.672-0.736 0.704 0.32 0.704 0.736c0 0.416-0.32 0.736-0.704 0.736zM22.592 24.992h2.848l1.056-3.552h-4.928l1.024 3.552zM26.88 20.224c0.512 0 0.928 0.416 0.928 0.928 0 0.096-0.032 0.16-0.032 0.256l-1.216 4.096c-0.128 0.416-0.48 0.672-0.896 0.672h-3.264c-0.416 0-0.8-0.256-0.896-0.672l-1.312-4.48c0-0.032 0-0.032 0-0.032-0.096-0.288-0.192-0.544-0.384-0.8-0.096-0.16-0.192-0.192-0.288-0.192-0.352 0-0.608-0.288-0.608-0.608 0-0.352 0.256-0.608 0.608-0.608 0.544 0 0.992 0.256 1.28 0.736 0.16 0.224 0.288 0.48 0.384 0.704h5.696zM22.72 28.096c-0.384 0-0.672-0.32-0.672-0.736s0.32-0.736 0.672-0.736 0.704 0.32 0.704 0.736c0 0.416-0.288 0.736-0.704 0.736zM25.216 28.096c-0.384 0-0.672-0.32-0.672-0.736s0.32-0.736 0.672-0.736 0.704 0.32 0.704 0.736c0 0.416-0.32 0.736-0.704 0.736z"></path> </svg> 