 <svg version="1.1" xmlns="http://www.w3.org/2000/svg" width="32" height="32" viewBox="0 0 32 32">  <path d="M8.64 26.016h-0.672c-0.384 0-0.672-0.288-0.672-0.672v-1.44h-1.44c-0.384 0-0.672-0.288-0.672-0.64v-13.728c0-0.192 0.064-0.352 0.192-0.48l6.336-6.336c0.128-0.096 0.288-0.192 0.448-0.192h8.448c0.352 0 0.672 0.288 0.672 0.672v1.44h1.44c0.352 0 0.64 0.288 0.64 0.672v0.672h1.536c0.384 0 0.672 0.288 0.672 0.64v13.856c0 0.384-0.288 0.672-0.672 0.672-0.352 0-0.64-0.288-0.64-0.672v-13.184h-0.896v13.184c0 0.384-0.288 0.672-0.64 0.672-0.384 0-0.672-0.288-0.672-0.672v-14.496h-0.768v14.048c0 0.384-0.32 0.672-0.672 0.672-0.384 0-0.672-0.288-0.672-0.672v-16.16h-7.488l-5.92 5.92v12.768h11.2c0.352 0 0.672 0.32 0.672 0.672s-0.32 0.672-0.672 0.672h-9.088v0.768h9.856c0.384 0 0.672 0.288 0.672 0.672s-0.288 0.672-0.672 0.672h-8.544v0.864h9.376c0.384 0 0.672 0.32 0.672 0.672 0 0.384-0.288 0.672-0.672 0.672h-10.048c-0.352 0-0.64-0.288-0.64-0.672v-1.536zM22.24 28h4.064l1.44-4.704h-6.912l1.408 4.704zM28.128 21.984c0.576 0 1.056 0.48 1.056 1.056 0 0.096 0 0.224-0.064 0.32l-1.6 5.248c-0.16 0.448-0.544 0.736-1.024 0.736h-4.448c-0.448 0-0.864-0.288-1.024-0.768l-1.728-5.728c0 0 0-0.032 0-0.032-0.096-0.352-0.288-0.704-0.512-1.024-0.128-0.224-0.288-0.32-0.544-0.32-0.352 0-0.64-0.288-0.64-0.672s0.288-0.64 0.64-0.64c0.672 0 1.248 0.288 1.632 0.864 0.224 0.32 0.384 0.64 0.544 0.96h7.712zM22.56 31.616c-0.512 0-0.928-0.416-0.928-0.96s0.416-0.928 0.928-0.928 0.928 0.416 0.928 0.928-0.416 0.96-0.928 0.96zM25.888 31.616c-0.512 0-0.928-0.416-0.928-0.96s0.416-0.928 0.928-0.928 0.928 0.416 0.928 0.928-0.416 0.96-0.928 0.96zM11.52 8.864v-4.064l0.928-0.96h0.384v5.664c0 0.384-0.288 0.672-0.672 0.672h-5.632v-0.384l0.928-0.928h4.064z"></path> </svg> 