 <svg version="1.1" xmlns="http://www.w3.org/2000/svg" width="32" height="32" viewBox="0 0 32 32">  <path d="M23.584 28h4.032l1.472-4.704h-6.912l1.408 4.704zM29.44 21.984c0.608 0 1.088 0.48 1.088 1.056 0 0.096-0.032 0.224-0.064 0.32l-1.632 5.248c-0.128 0.448-0.544 0.736-0.992 0.736h-4.448c-0.48 0-0.896-0.288-1.024-0.768l-1.728-5.728c0 0 0-0.032 0-0.032-0.128-0.352-0.288-0.704-0.512-1.024-0.16-0.224-0.32-0.32-0.544-0.32-0.384 0-0.672-0.288-0.672-0.672s0.288-0.64 0.672-0.64c0.672 0 1.248 0.288 1.632 0.864 0.224 0.32 0.384 0.64 0.512 0.96h7.712zM23.904 31.616c-0.544 0-0.928-0.416-0.928-0.96s0.384-0.928 0.928-0.928 0.928 0.416 0.928 0.928-0.416 0.96-0.928 0.96zM27.232 31.616c-0.512 0-0.928-0.416-0.928-0.96s0.416-0.928 0.928-0.928 0.928 0.416 0.928 0.928-0.416 0.96-0.928 0.96zM10.72 8h15.296c1.12 0 1.984 0.896 1.984 1.984v10.496c0 0.352-0.288 0.64-0.64 0.64s-0.672-0.288-0.672-0.64v-10.496c0-0.352-0.288-0.64-0.672-0.64h-15.552c-0.384 0-0.704-0.224-0.864-0.608l-1.184-2.976c-0.128-0.256-0.352-0.416-0.64-0.416h-4.48c-0.256 0-0.512 0.16-0.608 0.448l-1.28 3.488c-0.032 0.16-0.064 0.288-0.064 0.448v14.976c0 0.352 0.288 0.64 0.672 0.64h17.76c0.384 0 0.672 0.32 0.672 0.672s-0.288 0.672-0.672 0.672h-17.76c-1.12 0-2.016-0.896-2.016-1.984v-14.976c0-0.288 0.064-0.608 0.16-0.896l1.28-3.52c0.256-0.8 1.024-1.312 1.856-1.312h4.48c0.832 0 1.568 0.48 1.856 1.248l1.088 2.752zM17.728 8.096l-0.832-2.336c-0.096-0.256-0.352-0.416-0.64-0.416h-4.64c-0.288 0-0.576 0.192-0.64 0.48l-0.384 1.376c-0.096 0.352-0.448 0.544-0.832 0.448-0.352-0.096-0.544-0.448-0.448-0.832l0.384-1.344c0.224-0.864 1.024-1.472 1.92-1.472h4.64c0.832 0 1.568 0.512 1.856 1.312l0.992 2.688c0.16 0.48-0.064 1.024-0.576 1.184-0.16 0.064-0.32 0.096-0.48 0.064-0.352-0.064-0.608-0.416-0.544-0.8 0.032-0.128 0.096-0.256 0.224-0.352zM18.976 7.168c-0.096 0.352-0.48 0.576-0.832 0.48s-0.544-0.48-0.448-0.832l0.352-1.376c0.256-0.864 1.024-1.44 1.92-1.44h4.64c0.832 0 1.6 0.512 1.888 1.344l1.408 4.032c0.128 0.352-0.064 0.736-0.416 0.864s-0.736-0.064-0.832-0.416l-1.44-4.064c-0.096-0.256-0.32-0.448-0.608-0.448h-4.608c-0.288 0-0.544 0.192-0.64 0.512l-0.384 1.344z"></path> </svg> 