 <svg version="1.1" xmlns="http://www.w3.org/2000/svg" width="32" height="32" viewBox="0 0 32 32">  <path d="M24.16 16.96c-1.824 0-3.264-1.088-3.392-2.496-0.032-0.384 0.256-0.704 0.608-0.704 0.384-0.032 0.704 0.224 0.736 0.608 0.064 0.672 0.992 1.248 2.048 1.248 1.12 0 2.048-0.608 2.048-1.312 0-0.672-0.64-1.088-2.048-1.344h-0.128c-2.208-0.416-3.264-1.28-3.264-2.656 0-1.472 1.536-2.688 3.392-2.688 1.824 0 3.296 1.088 3.392 2.496 0.032 0.352-0.224 0.672-0.608 0.704-0.352 0.064-0.704-0.224-0.736-0.608-0.032-0.704-0.96-1.248-2.048-1.248s-2.016 0.608-2.016 1.312c0 0.672 0.64 1.088 2.016 1.312l0.16 0.032c2.176 0.416 3.232 1.28 3.232 2.656 0 1.472-1.504 2.688-3.392 2.688zM24.16 18.272c-0.384 0-0.672-0.288-0.672-0.672v-10.656c0-0.384 0.288-0.672 0.672-0.672s0.672 0.288 0.672 0.672v10.656c0 0.384-0.288 0.672-0.672 0.672zM15.68 24c0.384 0 0.672 0.288 0.672 0.672s-0.288 0.672-0.672 0.672h-12.48c-1.728 0-3.2-1.184-3.2-2.752v-18.528c0-1.536 1.472-2.72 3.2-2.72h24.256c1.76 0 3.2 1.184 3.2 2.72v18.56c0 1.056-0.736 2.016-1.824 2.464-0.224 0.096-0.48 0.16-0.704 0.192-0.096 0-0.192 0.032-0.288 0.032-0.16 0.032-0.288 0.032-0.352 0.032-0.384 0-0.672-0.256-0.704-0.64 0-0.384 0.256-0.672 0.64-0.704 0.064 0 0.192 0 0.288 0s0.128 0 0.192 0c0.16-0.032 0.288-0.096 0.448-0.16 0.608-0.256 0.992-0.736 0.992-1.216v-18.56c0-0.736-0.8-1.408-1.888-1.408h-24.256c-1.056 0-1.856 0.672-1.856 1.408v18.56c0 0.736 0.8 1.376 1.856 1.376h12.48zM19.584 28h4.032l1.472-4.704h-6.912l1.408 4.704zM25.44 21.984c0.608 0 1.088 0.48 1.088 1.056 0 0.096-0.032 0.224-0.064 0.32l-1.632 5.248c-0.128 0.448-0.544 0.736-0.992 0.736h-4.448c-0.48 0-0.896-0.288-1.024-0.768l-1.728-5.728c0 0 0-0.032 0-0.032-0.128-0.352-0.288-0.704-0.512-1.024-0.16-0.224-0.32-0.32-0.544-0.32-0.384 0-0.672-0.288-0.672-0.672s0.288-0.64 0.672-0.64c0.672 0 1.248 0.288 1.632 0.864 0.224 0.32 0.384 0.64 0.512 0.96h7.712zM19.904 31.616c-0.544 0-0.928-0.416-0.928-0.96s0.384-0.928 0.928-0.928 0.928 0.416 0.928 0.928-0.416 0.96-0.928 0.96zM23.232 31.616c-0.512 0-0.928-0.416-0.928-0.96s0.416-0.928 0.928-0.928 0.928 0.416 0.928 0.928-0.416 0.96-0.928 0.96zM16.896 15.328c0.48 0 0.928-0.448 0.928-1.056v-3.424c0-0.576-0.416-1.056-0.928-1.056s-0.896 0.48-0.896 1.056v3.424c0 0.608 0.416 1.056 0.896 1.056zM16.896 16.672c-1.248 0-2.24-1.088-2.24-2.4v-3.424c0-1.312 0.992-2.368 2.24-2.368s2.24 1.056 2.24 2.368v3.424c0 1.312-0.96 2.4-2.24 2.4zM11.072 13.248c-0.192 0-0.384 0.192-0.384 0.48v1.152c0 0.256 0.192 0.48 0.384 0.48h1.056c0.192 0 0.384-0.224 0.384-0.48v-1.152c0-0.288-0.192-0.48-0.384-0.48h-1.056zM9.344 13.728v-1.728c0-1.92 1.472-3.52 3.296-3.52 0.352 0 0.64 0.288 0.64 0.672 0 0.352-0.288 0.672-0.64 0.672-1.056 0-1.952 0.928-1.952 2.112 0.128-0.032 0.256-0.032 0.384-0.032h1.056c0.96 0 1.728 0.832 1.728 1.824v1.152c0 0.96-0.768 1.792-1.728 1.792h-1.056c-0.96 0-1.728-0.832-1.728-1.792v-1.152zM6.112 11.84c0.48 0 0.896-0.48 0.896-1.056s-0.416-1.056-0.896-1.056c-0.512 0-0.896 0.288-0.896 0.48 0 0.384-0.32 0.672-0.672 0.672s-0.672-0.288-0.672-0.672c0-1.024 1.056-1.824 2.24-1.824 1.248 0 2.24 1.088 2.24 2.4 0 0.672-0.256 1.28-0.672 1.728 0.416 0.448 0.672 1.024 0.672 1.728 0 1.28-0.992 2.368-2.24 2.368-1.184 0-2.24-0.768-2.24-1.824 0-0.352 0.288-0.64 0.672-0.64s0.672 0.288 0.672 0.64c0 0.192 0.384 0.48 0.896 0.48 0.48 0 0.896-0.448 0.896-1.024 0-0.608-0.416-1.056-0.896-1.056h-0.512c-0.384 0-0.672-0.32-0.672-0.672s0.288-0.672 0.672-0.672h0.512z"></path> </svg> 