 <svg version="1.1" xmlns="http://www.w3.org/2000/svg" width="32" height="32" viewBox="0 0 32 32">  <path d="M23.712 21.056c-0.224 0.288-0.64 0.352-0.928 0.128-0.288-0.192-0.384-0.608-0.16-0.928 0.192-0.256 0.384-0.544 0.544-0.832 1.728-2.88 1.952-6.4 0.704-9.504-0.096-0.224-0.192-0.48-0.32-0.704-0.096-0.192-0.224-0.416-0.352-0.64-0.736-1.248-1.728-2.336-2.944-3.232-4.736-3.456-11.424-2.4-14.88 2.368s-2.4 11.456 2.368 14.912c2.112 1.536 4.672 2.208 7.232 1.984 0.16-0.032 0.288-0.032 0.416-0.064 0.16 0 0.352-0.032 0.512-0.064 0.384-0.064 0.768-0.16 1.152-0.256 0.32-0.128 0.704 0.096 0.8 0.448 0.128 0.352-0.096 0.704-0.448 0.832-0.416 0.096-0.832 0.224-1.28 0.288-0.192 0.032-0.384 0.064-0.576 0.096-0.128 0.032-0.288 0.032-0.448 0.064-2.88 0.256-5.76-0.512-8.16-2.24-5.344-3.904-6.528-11.392-2.656-16.768s11.392-6.56 16.768-2.656c1.344 0.992 2.464 2.208 3.296 3.616 0.128 0.256 0.256 0.48 0.384 0.736s0.256 0.512 0.352 0.8c1.44 3.456 1.152 7.424-0.768 10.688-0.192 0.32-0.384 0.608-0.608 0.928zM13.344 13.344v-4c0-0.384 0.288-0.672 0.672-0.672s0.64 0.288 0.64 0.672v4h4c0.384 0 0.672 0.288 0.672 0.64s-0.288 0.672-0.672 0.672h-4v4c0 0.384-0.288 0.672-0.64 0.672s-0.672-0.288-0.672-0.672v-4h-4c-0.384 0-0.672-0.288-0.672-0.672s0.288-0.64 0.672-0.64h4zM20.928 28h4.032l1.44-4.704h-6.88l1.408 4.704zM26.784 21.984c0.576 0 1.056 0.48 1.056 1.056 0 0.096 0 0.224-0.032 0.32l-1.632 5.248c-0.128 0.448-0.544 0.736-1.024 0.736h-4.416c-0.48 0-0.896-0.288-1.056-0.768l-1.696-5.728c0 0 0-0.032-0.032-0.032-0.096-0.352-0.256-0.704-0.512-1.024-0.128-0.224-0.288-0.32-0.512-0.32-0.384 0-0.672-0.288-0.672-0.672s0.288-0.64 0.672-0.64c0.672 0 1.248 0.288 1.632 0.864 0.192 0.32 0.384 0.64 0.512 0.96h7.712zM21.216 31.616c-0.512 0-0.928-0.416-0.928-0.96s0.416-0.928 0.928-0.928 0.96 0.416 0.96 0.928-0.448 0.96-0.96 0.96zM24.576 31.616c-0.544 0-0.96-0.416-0.96-0.96s0.416-0.928 0.96-0.928 0.928 0.416 0.928 0.928-0.448 0.96-0.928 0.96z"></path> </svg> 