 <svg version="1.1" xmlns="http://www.w3.org/2000/svg" width="32" height="32" viewBox="0 0 32 32">  <path d="M15.68 24c0.384 0 0.672 0.288 0.672 0.672s-0.288 0.672-0.672 0.672h-12.48c-1.728 0-3.2-1.184-3.2-2.752v-18.528c0-1.536 1.472-2.72 3.2-2.72h24.256c1.76 0 3.2 1.184 3.2 2.72v18.56c0 1.056-0.736 2.016-1.824 2.464-0.224 0.096-0.48 0.16-0.704 0.192-0.096 0-0.192 0.032-0.288 0.032-0.16 0.032-0.288 0.032-0.352 0.032-0.384 0-0.672-0.256-0.704-0.64 0-0.384 0.256-0.672 0.64-0.704 0.064 0 0.192 0 0.288 0s0.128 0 0.192 0c0.16-0.032 0.288-0.096 0.448-0.16 0.608-0.256 0.992-0.736 0.992-1.216v-18.56c0-0.736-0.8-1.408-1.888-1.408h-24.256c-1.056 0-1.856 0.672-1.856 1.408v18.56c0 0.736 0.8 1.376 1.856 1.376h12.48zM19.584 28h4.032l1.472-4.704h-6.912l1.408 4.704zM25.44 21.984c0.608 0 1.088 0.48 1.088 1.056 0 0.096-0.032 0.224-0.064 0.32l-1.632 5.248c-0.128 0.448-0.544 0.736-0.992 0.736h-4.448c-0.48 0-0.896-0.288-1.024-0.768l-1.728-5.728c0 0 0-0.032 0-0.032-0.128-0.352-0.288-0.704-0.512-1.024-0.16-0.224-0.32-0.32-0.544-0.32-0.384 0-0.672-0.288-0.672-0.672s0.288-0.64 0.672-0.64c0.672 0 1.248 0.288 1.632 0.864 0.224 0.32 0.384 0.64 0.512 0.96h7.712zM19.904 31.616c-0.544 0-0.928-0.416-0.928-0.96s0.384-0.928 0.928-0.928 0.928 0.416 0.928 0.928-0.416 0.96-0.928 0.96zM23.232 31.616c-0.512 0-0.928-0.416-0.928-0.96s0.416-0.928 0.928-0.928 0.928 0.416 0.928 0.928-0.416 0.96-0.928 0.96zM17.216 13.952l-0.128 0.384c-0.352 0.096-0.672 0.192-0.896 0.256-0.224 0.032-0.512 0.096-0.8 0.096-0.448 0-0.8-0.096-1.056-0.256s-0.384-0.384-0.384-0.64c0-0.096 0-0.192 0.032-0.288s0.032-0.224 0.096-0.352l0.48-1.248c0.032-0.128 0.064-0.224 0.096-0.32 0.032-0.128 0.032-0.224 0.032-0.32 0-0.16-0.032-0.256-0.128-0.32s-0.256-0.096-0.512-0.096c-0.128 0-0.256 0.032-0.352 0.032-0.16 0.032-0.256 0.064-0.352 0.096l0.128-0.384c0.32-0.096 0.608-0.192 0.896-0.256s0.544-0.096 0.8-0.096c0.448 0 0.832 0.096 1.056 0.256 0.256 0.16 0.384 0.384 0.384 0.608 0 0.064-0.032 0.16-0.032 0.288s-0.064 0.256-0.096 0.384l-0.48 1.216c-0.032 0.096-0.064 0.224-0.096 0.352-0.032 0.096-0.032 0.224-0.032 0.288 0 0.16 0.064 0.288 0.128 0.32 0.128 0.064 0.288 0.096 0.544 0.096 0.096 0 0.224 0 0.384-0.032 0.128-0.032 0.224-0.032 0.288-0.064zM17.344 8.768c0 0.224-0.128 0.416-0.352 0.544s-0.48 0.224-0.8 0.224c-0.288 0-0.576-0.064-0.8-0.224s-0.32-0.32-0.32-0.544 0.096-0.384 0.32-0.544 0.512-0.224 0.8-0.224 0.576 0.064 0.8 0.224c0.224 0.16 0.352 0.32 0.352 0.544zM15.328 17.984c-3.68 0-6.656-2.976-6.656-6.656s2.976-6.656 6.656-6.656 6.688 2.976 6.688 6.656-3.008 6.656-6.688 6.656zM15.328 16.672c2.944 0 5.344-2.4 5.344-5.344s-2.4-5.344-5.344-5.344-5.312 2.4-5.312 5.344 2.368 5.344 5.312 5.344z"></path> </svg> 