 <svg version="1.1" xmlns="http://www.w3.org/2000/svg" width="32" height="32" viewBox="0 0 32 32">  <path d="M4.672 0.672c-2.592 0-4.672 2.080-4.672 4.672s2.080 4.64 4.672 4.64 4.672-2.080 4.672-4.64-2.112-4.672-4.672-4.672zM4.672 8.672c-1.856 0-3.328-1.504-3.328-3.328s1.472-3.36 3.328-3.36 3.328 1.504 3.328 3.36-1.504 3.328-3.328 3.328zM4.672 11.328c-2.592 0-4.672 2.112-4.672 4.672s2.080 4.672 4.672 4.672 4.672-2.112 4.672-4.672-2.112-4.672-4.672-4.672zM4.672 19.328c-1.856 0-3.328-1.504-3.328-3.328s1.472-3.328 3.328-3.328 3.328 1.504 3.328 3.328-1.504 3.328-3.328 3.328zM4.672 21.984c-2.592 0-4.672 2.112-4.672 4.672s2.080 4.672 4.672 4.672 4.672-2.080 4.672-4.672-2.112-4.672-4.672-4.672zM4.672 30.016c-1.856 0-3.328-1.504-3.328-3.36s1.472-3.328 3.328-3.328 3.328 1.504 3.328 3.328-1.504 3.36-3.328 3.36zM12.672 5.984h18.656c0.384 0 0.672-0.288 0.672-0.64s-0.288-0.672-0.672-0.672h-18.656c-0.384 0-0.672 0.288-0.672 0.672s0.288 0.64 0.672 0.64zM31.328 15.328h-18.656c-0.384 0-0.672 0.288-0.672 0.672s0.288 0.672 0.672 0.672h18.656c0.384 0 0.672-0.32 0.672-0.672s-0.288-0.672-0.672-0.672zM31.328 25.984h-18.656c-0.384 0-0.672 0.32-0.672 0.672s0.288 0.672 0.672 0.672h18.656c0.384 0 0.672-0.288 0.672-0.672s-0.288-0.672-0.672-0.672zM4.672 13.984c-1.12 0-2.016 0.896-2.016 2.016s0.896 1.984 2.016 1.984 1.984-0.896 1.984-1.984-0.896-2.016-1.984-2.016zM4.672 16.672c-0.384 0-0.672-0.32-0.672-0.672s0.288-0.672 0.672-0.672 0.672 0.288 0.672 0.672-0.32 0.672-0.672 0.672z"></path> </svg> 