 <svg version="1.1" xmlns="http://www.w3.org/2000/svg" width="32" height="32" viewBox="0 0 32 32">  <path d="M10.4 12.928l2.656-0.384 2.4-4.8c0.288-0.544 0.96-0.544 1.216 0l2.4 4.8 2.528 0.384 2.272-4c0.256-0.544 0.928-0.384 1.184 0l1.6 4 4.16 0.8c0.512 0.128 0.64 0.8 0.256 1.216l-3.072 2.784 0.544 4.256c0 0.544-0.544 0.96-1.088 0.672l-3.584-2.112-2.272 1.056c0 0-0.128 0-0.128 0l0.384 2.144c0.16 0.512-0.512 0.928-0.928 0.64l-4.928-2.656-4.8 2.528c-0.544 0.288-1.056-0.128-0.928-0.672l0.384-2.112c-0.128 0-0.128 0-0.256 0l-2.272-1.088-3.584 2.144c-0.544 0.256-1.088-0.128-1.088-0.672l0.544-4.128-3.2-2.784c-0.384-0.416-0.256-1.088 0.256-1.216l4.16-0.8 1.728-3.872c0.256-0.512 0.928-0.512 1.184 0l2.272 3.872zM8.928 13.184l-1.312-2.4-1.344 2.944c-0.128 0.256-0.256 0.416-0.544 0.416l-3.072 0.64 2.4 2.144c0.16 0.128 0.288 0.416 0.288 0.544l-0.416 3.2 2.816-1.6c0.128-0.128 0.384-0.128 0.672 0l2.528 1.184 0.256-1.856-3.872-3.744c-0.384-0.384-0.128-1.056 0.416-1.184l1.184-0.288zM22.944 13.056l1.312 0.128c0.544 0.16 0.8 0.8 0.416 1.216l-3.872 3.744 0.256 1.856 2.4-1.056c0.16-0.16 0.416-0.16 0.672 0l2.816 1.6-0.288-3.072c0-0.288 0-0.416 0.288-0.544l2.4-2.144-3.2-0.64c-0.288 0-0.416-0.16-0.544-0.416l-1.344-2.944-1.312 2.272zM11.744 22.4l3.872-2.016c0.128-0.128 0.384-0.128 0.64 0l3.872 2.016-0.8-4.416c0-0.256 0-0.384 0.128-0.512l3.2-3.072-4.384-0.672c-0.256 0-0.416-0.128-0.544-0.384l-1.984-4-2.016 4c-0.128 0.128-0.256 0.256-0.512 0.384l-4.416 0.672 3.2 3.072c0.128 0.128 0.256 0.384 0.128 0.512l-0.384 4.416z"></path> </svg> 