 <svg version="1.1" xmlns="http://www.w3.org/2000/svg" width="32" height="32" viewBox="0 0 32 32">  <path d="M8.128 23.584c-1.856 0-3.456-1.6-3.456-3.456v-9.344c0-1.856 1.472-3.456 3.456-3.456h15.744c1.856 0 3.456 1.6 3.456 3.456v9.344c0 1.856-1.472 3.456-3.456 3.456h-9.056l-6.4 3.616c-0.544 0.256-1.216-0.256-0.96-0.8l1.344-2.816h-0.672zM14.272 22.4c0.128 0 0.256-0.128 0.256-0.128h9.344c1.184 0 2.144-0.928 2.144-2.144v-9.344c0-1.184-0.96-2.112-2.144-2.112h-15.744c-1.184 0-2.112 0.928-2.112 2.112v9.344c0 1.216 0.928 2.144 2.112 2.144h1.888c0.512 0 0.8 0.512 0.512 0.928l-0.928 1.856 4.672-2.656zM15.744 17.472c0.128-0.128 0.384-0.128 0.672 0l1.6 0.8-0.288-1.728c0-0.288 0-0.416 0.128-0.544l1.216-1.216-1.728-0.256c-0.288 0-0.416-0.128-0.544-0.384l-0.8-1.6-0.8 1.6c-0.128 0.128-0.256 0.256-0.544 0.384l-1.728 0.256 1.216 1.216c0.128 0.128 0.256 0.384 0.128 0.544l-0.256 1.728 1.728-0.8zM13.6 20.128c-0.544 0.256-1.056-0.128-0.928-0.672l0.384-2.656-1.984-1.856c-0.416-0.416-0.128-1.088 0.384-1.216l2.688-0.384 1.184-2.4c0.288-0.544 0.928-0.544 1.216 0l1.184 2.4 2.688 0.384c0.512 0.128 0.8 0.8 0.384 1.216l-1.984 1.856 0.384 2.656c0.128 0.544-0.544 0.928-0.928 0.672l-2.4-1.344-2.272 1.344zM28.256 13.184c-0.256-0.256-0.256-0.64 0-0.928 0.288-0.256 0.672-0.256 0.96 0l2.4 2.4c0.256 0.288 0.256 0.672 0 0.928l-2.4 2.4c-0.288 0.288-0.672 0.288-0.96 0-0.256-0.256-0.256-0.64 0-0.928l1.888-1.856-1.888-2.016zM3.872 13.184l-1.856 1.888 1.856 1.856c0.256 0.256 0.256 0.672 0 0.928-0.256 0.288-0.672 0.288-0.928 0l-2.4-2.4c-0.288-0.256-0.288-0.672 0-0.928l2.4-2.4c0.256-0.256 0.672-0.256 0.928 0s0.256 0.8 0 1.056z"></path> </svg> 