 <svg version="1.1" xmlns="http://www.w3.org/2000/svg" width="32" height="32" viewBox="0 0 32 32">  <path d="M7.328 17.344c0.384 0 0.672-0.32 0.672-0.672v-3.328h2.976l2.464 3.68c0.128 0.192 0.352 0.32 0.576 0.32 0.128 0 0.256-0.064 0.352-0.128 0.32-0.192 0.384-0.608 0.192-0.928l-2.112-3.168c1.28-0.448 2.208-1.664 2.208-3.136v-1.312c0-1.856-1.472-3.328-3.328-3.328h-4c-0.352 0-0.672 0.288-0.672 0.64v10.688c0 0.352 0.32 0.672 0.672 0.672zM8 6.656h3.328c1.12 0 2.016 0.896 2.016 2.016v1.312c0 1.12-0.896 2.016-2.016 2.016h-3.328v-5.344zM15.328 6.656h3.328v10.016c0 0.352 0.32 0.672 0.672 0.672s0.672-0.32 0.672-0.672v-10.016h3.328c0.384 0 0.672-0.288 0.672-0.672s-0.288-0.64-0.672-0.64h-8c-0.352 0-0.672 0.288-0.672 0.64s0.32 0.672 0.672 0.672zM26.016 17.344h5.312c0.384 0 0.672-0.32 0.672-0.672s-0.288-0.672-0.672-0.672h-4.672v-10.016c0-0.352-0.288-0.64-0.64-0.64s-0.672 0.288-0.672 0.64v10.688c0 0.352 0.288 0.672 0.672 0.672zM31.328 21.344h-29.056l2.88-2.88c0.256-0.256 0.256-0.672 0-0.928s-0.704-0.256-0.96 0l-4 4c0 0 0 0 0 0-0.064 0.064-0.096 0.128-0.128 0.192-0.096 0.192-0.096 0.352 0 0.512 0 0.064 0.032 0.096 0.064 0.128s0.032 0.064 0.064 0.096l4 4c0.128 0.128 0.32 0.192 0.48 0.192s0.352-0.064 0.48-0.192c0.256-0.256 0.256-0.672 0-0.928l-2.88-2.88h29.056c0.384 0 0.672-0.288 0.672-0.672s-0.288-0.64-0.672-0.64z"></path> </svg> 