 <svg version="1.1" xmlns="http://www.w3.org/2000/svg" width="32" height="32" viewBox="0 0 32 32">  <path d="M24.704 0c2.064 0.382 3.811 1.522 4.976 3.114l0.016 0.022c0.831 0.973 1.486 2.124 1.9 3.385l0.020 0.071c0.229 0.637 0.368 1.372 0.384 2.137l0 0.007v20.352c-0.036 1.616-1.354 2.912-2.975 2.912-0.012 0-0.023-0-0.034-0h-26.014c-0 0-0 0-0.001 0-1.621 0-2.939-1.296-2.975-2.909l-0-0.003v-26.080c-0-0.010-0-0.021-0-0.032 0-1.644 1.332-2.976 2.976-2.976 0 0 0 0 0 0h21.728zM24.224 1.888h-16.512c-0.919 0-1.664 0.745-1.664 1.664v0 8.992c-0 0.010-0 0.021-0 0.032 0 0.919 0.745 1.664 1.664 1.664 0 0 0 0 0 0h16.544c0.010 0 0.021 0 0.032 0 0.919 0 1.664-0.745 1.664-1.664 0-0.011-0-0.023-0-0.034l0 0.002v-8.992c0-0 0-0 0-0 0-0.919-0.745-1.664-1.664-1.664-0.011 0-0.022 0-0.034 0l0.002-0zM22.304 1.888h-4.576v7.392c0 0 0 0 0 0.001 0 0.389 0.315 0.704 0.704 0.704 0.011 0 0.022-0 0.034-0.001l-0.002 0h3.168c0.010 0 0.021 0.001 0.032 0.001 0.389 0 0.704-0.315 0.704-0.704 0-0 0-0.001 0-0.001v0z"></path> </svg> 