 <svg version="1.1" xmlns="http://www.w3.org/2000/svg" width="32" height="32" viewBox="0 0 32 32">  <path d="M21.856 4c-0.128 0-0.384 0-0.512 0v0h-14.688c-1.44 0-2.656 1.184-2.656 2.656v18.688c0 1.44 1.216 2.656 2.656 2.656h18.688c1.472 0 2.656-1.216 2.656-2.656v-14.688c0-3.456-2.656-6.272-6.144-6.656zM16 6.656v4.672c0 0.416 0.256 0.672 0.672 0.672h2.656c0.416 0 0.672-0.256 0.672-0.672v-4.672h1.344c0 0 0 0 0 0v6.688h-10.688v-6.688h5.344zM25.344 25.344h-18.688v-18.688h1.344v8c0 0.8 0.544 1.344 1.344 1.344h13.312c0.8 0 1.344-0.544 1.344-1.344v-6.912c0.8 0.8 1.344 1.728 1.344 2.912v14.688z"></path> </svg> 