 <svg version="1.1" xmlns="http://www.w3.org/2000/svg" width="32" height="32" viewBox="0 0 32 32">  <path d="M18.656 0h-5.312c-4.8 0-8.672 3.872-8.672 8.672v12c0 6.24 5.088 11.328 11.328 11.328s11.328-5.088 11.328-11.328v-12c0-4.8-3.872-8.672-8.672-8.672zM16 5.344c0.384 0 0.672 0.288 0.672 0.64v4c0 0.384-0.288 0.672-0.672 0.672s-0.672-0.288-0.672-0.672v-4c0-0.352 0.32-0.64 0.672-0.64zM26.016 20.672c0 5.504-4.512 9.984-10.016 9.984s-9.984-4.48-9.984-9.984v-12c0-4.064 3.264-7.328 7.328-7.328h1.984v2.784c-0.768 0.256-1.312 0.992-1.312 1.856v4c0 1.12 0.896 2.016 1.984 2.016s2.016-0.896 2.016-2.016v-4c0-0.864-0.576-1.6-1.344-1.856v-2.784h1.984c4.064 0 7.36 3.264 7.36 7.328v12z"></path> </svg> 