 <svg version="1.1" xmlns="http://www.w3.org/2000/svg" width="32" height="32" viewBox="0 0 32 32">  <path d="M31.808 30.88l-9.728-9.76c2.016-2.24 3.264-5.216 3.264-8.448 0-6.976-5.696-12.672-12.672-12.672s-12.672 5.696-12.672 12.672 5.696 12.672 12.672 12.672c3.264 0 6.208-1.248 8.448-3.264l9.728 9.728c0.16 0.128 0.32 0.192 0.48 0.192s0.352-0.064 0.48-0.192c0.256-0.256 0.256-0.672 0-0.928zM1.344 12.672c0-6.272 5.088-11.328 11.328-11.328s11.328 5.056 11.328 11.328-5.088 11.328-11.328 11.328-11.328-5.088-11.328-11.328z"></path> </svg> 