 <svg version="1.1" xmlns="http://www.w3.org/2000/svg" width="32" height="32" viewBox="0 0 32 32">  <path d="M30.016 5.984h-28c-1.12 0-2.016 0.896-2.016 2.016v16c0 1.088 0.896 1.984 2.016 1.984h28c1.088 0 1.984-0.896 1.984-1.984v-16c0-1.12-0.896-2.016-1.984-2.016zM30.656 24c0 0.352-0.288 0.672-0.64 0.672h-28c-0.384 0-0.672-0.32-0.672-0.672v-16c0-0.384 0.288-0.672 0.672-0.672h28c0.352 0 0.64 0.288 0.64 0.672v16zM26.848 14.208l-4.832 4.832-4.864-4.832c-0.288-0.288-0.704-0.288-0.96 0s-0.256 0.672 0 0.928l5.344 5.344c0.128 0.128 0.288 0.192 0.48 0.192s0.32-0.064 0.448-0.192l5.344-5.344c0.256-0.256 0.256-0.672 0-0.928-0.256-0.288-0.672-0.288-0.96 0z"></path> </svg> 