 <svg version="1.1" xmlns="http://www.w3.org/2000/svg" width="32" height="32" viewBox="0 0 32 32">  <path d="M21.184 30.944c-0.448 0-0.864-0.096-1.28-0.32-0.672-0.384-1.152-1.056-1.28-1.824-0.128-0.672-0.736-1.12-1.44-1.056-0.768 0.096-1.6 0.096-2.368 0-0.704-0.064-1.312 0.384-1.44 1.056-0.128 0.768-0.608 1.44-1.28 1.824-0.704 0.384-1.536 0.416-2.304 0.096-1.216-0.512-2.4-1.184-3.456-1.984-0.64-0.48-1.024-1.216-1.024-2.048-0.032-0.768 0.32-1.536 0.928-2.048 0.512-0.416 0.576-1.152 0.192-1.728-0.48-0.64-0.864-1.344-1.216-2.080-0.256-0.64-0.96-0.928-1.6-0.704-0.736 0.288-1.568 0.192-2.24-0.192-0.672-0.416-1.152-1.12-1.248-1.92-0.096-0.672-0.128-1.344-0.128-2.016s0.032-1.344 0.128-2.016c0.096-0.8 0.576-1.504 1.248-1.92 0.672-0.384 1.504-0.48 2.24-0.192 0.64 0.224 1.344-0.096 1.6-0.704 0.352-0.736 0.736-1.44 1.216-2.080 0.416-0.576 0.32-1.312-0.192-1.76-0.608-0.48-0.96-1.248-0.928-2.016 0-0.832 0.384-1.568 1.024-2.048 1.056-0.8 2.24-1.472 3.456-1.984 0.736-0.32 1.6-0.288 2.304 0.096 0.672 0.384 1.152 1.056 1.28 1.824 0.128 0.672 0.736 1.12 1.44 1.056 0.768-0.096 1.6-0.096 2.368 0 0.704 0.064 1.312-0.384 1.44-1.056 0.128-0.768 0.608-1.44 1.28-1.824 0.704-0.384 1.568-0.416 2.304-0.096 1.216 0.512 2.4 1.184 3.456 1.984 0.64 0.48 1.024 1.216 1.056 2.048 0 0.768-0.352 1.536-0.96 2.016-0.512 0.448-0.576 1.184-0.16 1.76 0.448 0.64 0.864 1.344 1.184 2.080 0.288 0.608 0.992 0.928 1.6 0.704 0.736-0.288 1.568-0.192 2.24 0.192 0.704 0.416 1.152 1.12 1.248 1.92 0.096 0.672 0.128 1.344 0.128 2.016s-0.032 1.344-0.128 2.016c-0.096 0.8-0.544 1.504-1.248 1.92-0.672 0.384-1.504 0.48-2.24 0.192v0c-0.608-0.224-1.344 0.064-1.6 0.704-0.352 0.736-0.736 1.44-1.216 2.080-0.384 0.576-0.32 1.312 0.192 1.728 0.608 0.512 0.96 1.28 0.928 2.048 0 0.832-0.384 1.568-1.024 2.048-1.056 0.8-2.24 1.472-3.456 1.984-0.32 0.16-0.672 0.224-1.024 0.224zM17.344 26.4c1.28 0 2.368 0.896 2.592 2.176 0.064 0.384 0.288 0.704 0.608 0.864 0.352 0.192 0.768 0.224 1.152 0.064 1.12-0.48 2.176-1.088 3.168-1.824 0.32-0.256 0.512-0.608 0.512-0.992s-0.16-0.768-0.448-0.992c-1.088-0.896-1.248-2.4-0.416-3.552 0.416-0.576 0.768-1.216 1.056-1.856 0.544-1.248 1.984-1.888 3.264-1.408v0c0.384 0.128 0.768 0.096 1.12-0.096 0.32-0.224 0.544-0.544 0.608-0.96 0.064-0.608 0.096-1.216 0.096-1.824s-0.032-1.216-0.096-1.824c-0.064-0.416-0.288-0.768-0.608-0.96-0.352-0.192-0.736-0.224-1.088-0.096-1.28 0.48-2.752-0.16-3.296-1.408-0.288-0.64-0.64-1.28-1.056-1.856-0.832-1.152-0.672-2.656 0.416-3.552 0.288-0.224 0.448-0.608 0.448-0.992s-0.192-0.736-0.512-0.992c-0.992-0.736-2.048-1.344-3.168-1.824-0.384-0.16-0.8-0.128-1.152 0.064-0.32 0.16-0.544 0.512-0.608 0.864-0.224 1.376-1.472 2.304-2.88 2.144-0.704-0.064-1.408-0.064-2.112 0-1.408 0.16-2.656-0.768-2.88-2.144-0.064-0.352-0.288-0.704-0.608-0.864-0.352-0.192-0.768-0.224-1.152-0.064-1.12 0.48-2.176 1.088-3.168 1.824-0.32 0.256-0.48 0.608-0.512 0.992 0 0.384 0.16 0.768 0.448 0.992 1.088 0.896 1.248 2.4 0.416 3.552-0.384 0.576-0.768 1.216-1.056 1.856-0.544 1.248-1.984 1.888-3.264 1.408-0.384-0.128-0.768-0.096-1.088 0.096-0.352 0.192-0.576 0.544-0.64 0.96-0.064 0.608-0.096 1.216-0.096 1.824s0.032 1.216 0.096 1.824c0.064 0.416 0.288 0.736 0.64 0.96 0.32 0.192 0.704 0.224 1.056 0.096 1.312-0.48 2.752 0.128 3.296 1.408 0.288 0.64 0.672 1.28 1.056 1.824 0.832 1.152 0.672 2.688-0.416 3.584-0.288 0.224-0.448 0.576-0.448 0.96 0.032 0.416 0.192 0.768 0.512 1.024 0.992 0.736 2.048 1.344 3.168 1.824 0.384 0.16 0.8 0.128 1.152-0.064 0.32-0.192 0.544-0.512 0.608-0.864 0.224-1.376 1.472-2.304 2.88-2.144 0.704 0.064 1.408 0.064 2.112 0 0.096 0 0.192-0.032 0.288-0.032zM16 22.656c-3.68 0-6.656-2.976-6.656-6.656s2.976-6.656 6.656-6.656 6.656 2.976 6.656 6.656-2.976 6.656-6.656 6.656zM16 10.656c-2.944 0-5.344 2.4-5.344 5.344s2.4 5.344 5.344 5.344 5.344-2.4 5.344-5.344-2.4-5.344-5.344-5.344z"></path> </svg> 