 <svg version="1.1" xmlns="http://www.w3.org/2000/svg" width="32" height="32" viewBox="0 0 32 32">  <path d="M26.656 21.344c-1.824 0-3.456 0.928-4.416 2.368l-11.904-5.952c0.192-0.544 0.32-1.152 0.32-1.76s-0.128-1.216-0.32-1.76l11.904-5.952c0.96 1.44 2.592 2.368 4.416 2.368 2.944 0 5.344-2.368 5.344-5.312s-2.4-5.344-5.344-5.344-5.312 2.4-5.312 5.344c0 0.608 0.128 1.184 0.32 1.76l-11.904 5.92c-0.96-1.408-2.592-2.368-4.416-2.368-2.944 0-5.344 2.4-5.344 5.344s2.4 5.344 5.344 5.344c1.824 0 3.456-0.96 4.416-2.4l11.904 5.952c-0.192 0.576-0.32 1.152-0.32 1.76 0 2.944 2.368 5.344 5.312 5.344s5.344-2.4 5.344-5.344-2.4-5.312-5.344-5.312zM26.656 1.344c2.208 0 4 1.792 4 4s-1.792 4-4 4c-1.536 0-2.88-0.928-3.552-2.208 0-0.032 0-0.032 0-0.032s0 0 0 0c-0.256-0.544-0.448-1.12-0.448-1.76 0-2.208 1.792-4 4-4zM5.344 20c-2.208 0-4-1.792-4-4s1.792-4 4-4c1.536 0 2.88 0.896 3.552 2.208 0 0 0 0 0 0s0 0 0 0c0.288 0.544 0.448 1.152 0.448 1.792s-0.16 1.216-0.448 1.76c0 0 0 0 0 0.032 0 0 0 0 0 0-0.672 1.312-2.016 2.208-3.552 2.208zM26.656 30.656c-2.208 0-4-1.792-4-4 0-0.64 0.192-1.216 0.448-1.76 0 0 0 0 0 0s0 0 0-0.032c0.672-1.28 2.016-2.208 3.552-2.208 2.208 0 4 1.792 4 4s-1.792 4-4 4z"></path> </svg> 