 <svg version="1.1" xmlns="http://www.w3.org/2000/svg" width="32" height="32" viewBox="0 0 32 32">  <path d="M29.344 6.528v18.656c0 0.416-0.288 0.672-0.672 0.672h-2.656c-0.416 0-0.672-0.256-0.672-0.672 0-0.384 0.256-0.64 0.672-0.64h1.984v-17.344h-1.984c-0.416 0-0.672-0.256-0.672-0.672 0-0.384 0.256-0.672 0.672-0.672h2.656c0.384 0 0.672 0.288 0.672 0.672zM6.016 7.2c0.384 0 0.64-0.128 0.64-0.672 0-0.384-0.256-0.672-0.64-0.672h-2.688c-0.384 0-0.672 0.288-0.672 0.672v18.656c0 0.416 0.288 0.672 0.672 0.672h2.688c0.384 0 0.64-0.256 0.64-0.672 0-0.384-0.256-0.64-0.64-0.64h-2.016v-17.344h2.016zM10.016 19.456c-0.8 0-1.344 0.544-1.344 1.344s0.544 1.344 1.344 1.344 1.312-0.544 1.312-1.344-0.512-1.344-1.312-1.344zM16 19.456c-0.8 0-1.344 0.544-1.344 1.344s0.544 1.344 1.344 1.344c0.8 0 1.344-0.544 1.344-1.344s-0.544-1.344-1.344-1.344zM22.016 19.456c-0.8 0-1.344 0.544-1.344 1.344s0.544 1.344 1.344 1.344 1.312-0.544 1.312-1.344-0.512-1.344-1.312-1.344z"></path> </svg> 