 <svg version="1.1" xmlns="http://www.w3.org/2000/svg" width="32" height="32" viewBox="0 0 32 32">  <path d="M30.656 8h-29.312v20.544c0 1.184 0.896 2.112 1.984 2.112h25.344c1.088 0 1.984-0.928 1.984-2.112v-20.544zM30.656 6.656v-1.856c0-1.184-0.896-2.144-1.984-2.144h-25.344c-1.088 0-1.984 0.96-1.984 2.144v1.856h29.312zM32 28.544c0 1.888-1.472 3.456-3.328 3.456h-25.344c-1.856 0-3.328-1.568-3.328-3.456v-23.744c0-1.92 1.472-3.456 3.328-3.456h25.344c1.856 0 3.328 1.536 3.328 3.456v23.744zM4 4.672c0 0.352-0.288 0.672-0.672 0.672s-0.672-0.32-0.672-0.672 0.32-0.672 0.672-0.672 0.672 0.288 0.672 0.672M6.656 4.672c0 0.352-0.288 0.672-0.64 0.672s-0.672-0.32-0.672-0.672 0.288-0.672 0.672-0.672 0.64 0.288 0.64 0.672M9.344 4.672c0 0.352-0.288 0.672-0.672 0.672s-0.672-0.32-0.672-0.672 0.288-0.672 0.672-0.672c0.384 0 0.672 0.288 0.672 0.672M5.728 17.408h0.352c0.192 0 0.384 0.192 0.384 0.416v3.296c0 0.224 0.192 0.384 0.416 0.384h0.96c0.224 0 0.416 0.192 0.416 0.416v0.32c0 0.224-0.16 0.384-0.416 0.384 0 0 0 0 0 0h-2.080c-0.224 0-0.416-0.16-0.416-0.384v-4.416c0-0.224 0.16-0.416 0.384-0.416zM13.184 20c0-0.512-0.16-0.928-0.448-1.248-0.32-0.288-0.736-0.448-1.248-0.448s-0.896 0.16-1.216 0.448c-0.32 0.32-0.48 0.736-0.48 1.248s0.16 0.928 0.48 1.248c0.32 0.288 0.704 0.448 1.216 0.448s0.928-0.16 1.248-0.448c0.32-0.32 0.448-0.736 0.448-1.248zM9.504 21.92c-0.544-0.512-0.832-1.152-0.832-1.92s0.288-1.408 0.832-1.92 1.216-0.736 2.016-0.736 1.472 0.256 2.016 0.736c0.544 0.512 0.8 1.152 0.8 1.92s-0.256 1.408-0.8 1.92c-0.544 0.48-1.216 0.736-2.016 0.736s-1.472-0.256-2.016-0.736zM14.912 20c0-0.768 0.288-1.408 0.832-1.92 0.544-0.48 1.216-0.736 2.016-0.736 0.576 0 1.12 0.128 1.6 0.416 0.448 0.288 0.8 0.736 0.896 1.12 0.032 0.256-0.256 0.32-0.704 0.32-0.128 0-0.256-0.096-0.352-0.224-0.256-0.448-0.864-0.704-1.472-0.704-0.512 0-0.896 0.16-1.216 0.48-0.32 0.288-0.48 0.704-0.48 1.248 0 0.512 0.16 0.928 0.48 1.216 0.32 0.32 0.704 0.48 1.152 0.48s0.8-0.128 1.088-0.32c0.288-0.192 0.384-0.384 0.448-0.64h-1.44c-0.192 0-0.384-0.16-0.384-0.384 0 0 0-0.032 0-0.032v-0.224c0.032-0.192 0.192-0.384 0.416-0.384l2.208 0.032c0.224 0 0.384 0.16 0.384 0.416v0.32c-0.096 0.576-0.32 1.088-0.832 1.504-0.512 0.448-1.12 0.64-1.888 0.64s-1.408-0.224-1.952-0.736c-0.544-0.48-0.8-1.12-0.8-1.888zM25.536 20c0-0.512-0.16-0.928-0.48-1.248-0.32-0.288-0.736-0.448-1.216-0.448-0.512 0-0.928 0.16-1.248 0.448-0.32 0.32-0.448 0.736-0.448 1.248s0.16 0.928 0.448 1.248c0.32 0.288 0.736 0.448 1.248 0.448 0.48 0 0.896-0.16 1.216-0.448 0.32-0.32 0.48-0.736 0.48-1.248zM21.824 21.92c-0.544-0.512-0.8-1.152-0.8-1.92s0.256-1.408 0.832-1.92 1.184-0.736 1.984-0.736c0.8 0 1.472 0.256 2.016 0.736 0.544 0.512 0.832 1.152 0.832 1.92s-0.288 1.408-0.832 1.92c-0.544 0.48-1.216 0.736-2.016 0.736s-1.472-0.256-2.016-0.736zM27.328 25.344h-22.656c-0.384 0-0.672-0.32-0.672-0.672s0.288-0.672 0.672-0.672h22.656c0.384 0 0.672 0.288 0.672 0.672s-0.288 0.672-0.672 0.672zM27.328 16h-22.656c-0.384 0-0.672-0.288-0.672-0.672s0.288-0.672 0.672-0.672h22.656c0.384 0 0.672 0.288 0.672 0.672s-0.288 0.672-0.672 0.672z"></path> </svg> 