 <svg version="1.1" xmlns="http://www.w3.org/2000/svg" width="32" height="32" viewBox="0 0 32 32">  <path d="M30.656 8h-29.312v20.544c0 1.184 0.896 2.112 1.984 2.112h25.344c1.088 0 1.984-0.928 1.984-2.112v-20.544zM30.656 6.656v-1.856c0-1.184-0.896-2.144-1.984-2.144h-25.344c-1.088 0-1.984 0.96-1.984 2.144v1.856h29.312zM32 28.544c0 1.888-1.472 3.456-3.328 3.456h-25.344c-1.856 0-3.328-1.568-3.328-3.456v-23.744c0-1.92 1.472-3.456 3.328-3.456h25.344c1.856 0 3.328 1.536 3.328 3.456v23.744zM4 4.672c0 0.352-0.288 0.672-0.672 0.672s-0.672-0.32-0.672-0.672 0.32-0.672 0.672-0.672 0.672 0.288 0.672 0.672M6.656 4.672c0 0.352-0.288 0.672-0.64 0.672s-0.672-0.32-0.672-0.672 0.288-0.672 0.672-0.672 0.64 0.288 0.64 0.672M9.344 4.672c0 0.352-0.288 0.672-0.672 0.672s-0.672-0.32-0.672-0.672 0.288-0.672 0.672-0.672c0.384 0 0.672 0.288 0.672 0.672M21.344 16.384c-0.384 0-0.672-0.288-0.672-0.672v-1.056h-9.344v1.056c0 0.384-0.288 0.672-0.672 0.672s-0.64-0.288-0.64-0.672v-1.728c0-0.352 0.288-0.64 0.64-0.64h10.688c0.352 0 0.672 0.288 0.672 0.64v1.728c0 0.352-0.32 0.672-0.672 0.672zM16 24.64c-0.384 0-0.672-0.288-0.672-0.672v-9.824c0-0.384 0.288-0.672 0.672-0.672s0.672 0.288 0.672 0.672v9.824c0 0.384-0.288 0.672-0.672 0.672zM18.016 25.344h-4c-0.384 0-0.672-0.32-0.672-0.672s0.288-0.672 0.672-0.672h4c0.352 0 0.64 0.288 0.64 0.672s-0.288 0.672-0.64 0.672z"></path> </svg> 