 <svg version="1.1" xmlns="http://www.w3.org/2000/svg" width="32" height="32" viewBox="0 0 32 32">  <path d="M30.656 8h-29.312v20.544c0 1.184 0.896 2.112 1.984 2.112h25.344c1.088 0 1.984-0.928 1.984-2.112v-20.544zM30.656 6.656v-1.856c0-1.184-0.896-2.144-1.984-2.144h-25.344c-1.088 0-1.984 0.96-1.984 2.144v1.856h29.312zM32 28.544c0 1.888-1.472 3.456-3.328 3.456h-25.344c-1.856 0-3.328-1.568-3.328-3.456v-23.744c0-1.92 1.472-3.456 3.328-3.456h25.344c1.856 0 3.328 1.536 3.328 3.456v23.744zM4 4.672c0 0.352-0.288 0.672-0.672 0.672s-0.672-0.32-0.672-0.672 0.32-0.672 0.672-0.672 0.672 0.288 0.672 0.672zM6.656 4.672c0 0.352-0.288 0.672-0.64 0.672s-0.672-0.32-0.672-0.672 0.288-0.672 0.672-0.672 0.64 0.288 0.64 0.672zM9.344 4.672c0 0.352-0.288 0.672-0.672 0.672s-0.672-0.32-0.672-0.672 0.288-0.672 0.672-0.672c0.384 0 0.672 0.288 0.672 0.672zM13.856 20.384c0 0.032-0.032 0.064-0.064 0.096l-4.672 4.64c-0.256 0.288-0.672 0.288-0.928 0s-0.256-0.672 0-0.928l4.672-4.672c0.032-0.032 0.032-0.032 0.064-0.064-0.608-0.768-0.928-1.76-0.928-2.816 0-2.56 2.080-4.64 4.64-4.64s4.672 2.080 4.672 4.64-2.080 4.672-4.672 4.672c-1.024 0.032-1.984-0.32-2.784-0.928zM20 16.672c0-1.856-1.504-3.328-3.328-3.328s-3.328 1.472-3.328 3.328 1.472 3.328 3.328 3.328 3.328-1.504 3.328-3.328z"></path> </svg> 