 <svg version="1.1" xmlns="http://www.w3.org/2000/svg" width="32" height="32" viewBox="0 0 32 32">  <path d="M25.344 8.672h-18.688c-0.352 0-0.64 0.288-0.64 0.672v13.312c0 0.384 0.288 0.672 0.64 0.672h18.688c0.352 0 0.672-0.288 0.672-0.672v-13.312c0-0.384-0.32-0.672-0.672-0.672zM24.672 21.984h-17.344v-12h17.344v12zM4.48 12.864c-0.256-0.256-0.704-0.256-0.96 0l-2.656 2.656c-0.256 0.256-0.256 0.704 0 0.96l2.656 2.656c0.128 0.128 0.32 0.192 0.48 0.192s0.352-0.064 0.48-0.192c0.256-0.256 0.256-0.672 0-0.928l-2.208-2.208 2.208-2.208c0.256-0.256 0.256-0.672 0-0.928zM31.136 15.52l-2.656-2.656c-0.256-0.256-0.704-0.256-0.96 0s-0.256 0.672 0 0.928l2.208 2.208-2.208 2.208c-0.256 0.256-0.256 0.672 0 0.928 0.128 0.128 0.32 0.192 0.48 0.192s0.352-0.064 0.48-0.192l2.656-2.656c0.256-0.256 0.256-0.704 0-0.96zM14.368 19.264c0.096 0.032 0.192 0.064 0.288 0.064 0.128 0 0.256-0.032 0.384-0.096l4-2.688c0.192-0.128 0.288-0.32 0.288-0.544s-0.096-0.448-0.288-0.544l-4-2.688c-0.224-0.128-0.48-0.128-0.672-0.032-0.224 0.128-0.352 0.352-0.352 0.608v5.312c0 0.256 0.128 0.48 0.352 0.608zM15.328 14.592l2.144 1.408-2.144 1.408v-2.816z"></path> </svg> 