 <svg version="1.1" xmlns="http://www.w3.org/2000/svg" width="32" height="32" viewBox="0 0 32 32">  <path d="M4 17.984c0.16 0 0.352-0.064 0.48-0.192 0.256-0.256 0.256-0.672 0-0.928l-2.208-2.208 2.208-2.176c0.256-0.256 0.256-0.704 0-0.96s-0.704-0.256-0.96 0l-2.656 2.688c-0.256 0.256-0.256 0.672 0 0.928l2.656 2.656c0.128 0.128 0.32 0.192 0.48 0.192zM31.136 14.208l-2.656-2.688c-0.256-0.256-0.704-0.256-0.96 0s-0.256 0.704 0 0.96l2.208 2.176-2.208 2.208c-0.256 0.256-0.256 0.672 0 0.928 0.128 0.128 0.32 0.192 0.48 0.192s0.352-0.064 0.48-0.192l2.656-2.656c0.256-0.256 0.256-0.672 0-0.928zM28 19.328h-1.984v-11.328c0-1.12-0.896-2.016-2.016-2.016h-16c-1.088 0-1.984 0.896-1.984 2.016v11.328h-2.016c-0.352 0-0.672 0.288-0.672 0.672v1.344c0 1.088 0.896 1.984 2.016 1.984h21.312c1.12 0 2.016-0.896 2.016-1.984v-1.344c0-0.384-0.288-0.672-0.672-0.672zM7.328 8c0-0.384 0.32-0.672 0.672-0.672h16c0.384 0 0.672 0.288 0.672 0.672v11.328h-17.344v-11.328zM27.328 21.344c0 0.352-0.288 0.64-0.672 0.64h-21.312c-0.384 0-0.672-0.288-0.672-0.64v-0.672h22.656v0.672z"></path> </svg> 