 <svg version="1.1" xmlns="http://www.w3.org/2000/svg" width="32" height="32" viewBox="0 0 32 32">  <path d="M30.656 4.672h-29.312c-0.384 0-0.672 0.288-0.672 0.672v21.312c0 0.384 0.288 0.672 0.672 0.672h29.312c0.384 0 0.672-0.288 0.672-0.672v-21.312c0-0.384-0.288-0.672-0.672-0.672zM30.016 25.984h-28v-20h28v20zM6.208 19.136c0.128 0.128 0.288 0.192 0.448 0.192s0.352-0.064 0.48-0.192c0.256-0.256 0.256-0.672 0-0.928l-2.176-2.208 2.176-2.208c0.256-0.256 0.256-0.672 0-0.928s-0.672-0.256-0.928 0l-2.688 2.656c-0.256 0.256-0.256 0.704 0 0.96l2.688 2.656zM24.864 19.136c0.128 0.128 0.288 0.192 0.48 0.192s0.32-0.064 0.448-0.192l2.688-2.656c0.256-0.256 0.256-0.704 0-0.96l-2.688-2.656c-0.256-0.256-0.672-0.256-0.928 0s-0.256 0.672 0 0.928l2.208 2.208-2.208 2.208c-0.256 0.256-0.256 0.672 0 0.928zM10.144 21.696c0 0.032 0.032 0.064 0.064 0.096 0 0.032 0.032 0.032 0.064 0.064s0.096 0.064 0.128 0.096c0.096 0.032 0.192 0.032 0.256 0.032h2.688c0.352 0 0.672-0.288 0.672-0.64s-0.32-0.672-0.672-0.672h-1.056l2.176-2.208c0.256-0.256 0.256-0.672 0-0.928s-0.672-0.256-0.928 0l-2.208 2.176v-1.056c0-0.352-0.288-0.672-0.672-0.672s-0.64 0.32-0.64 0.672v2.688c0 0.064 0 0.16 0.032 0.256 0.032 0.032 0.064 0.064 0.096 0.096zM10.016 10.656v2.688c0 0.352 0.288 0.64 0.64 0.64s0.672-0.288 0.672-0.64v-1.056l2.208 2.176c0.128 0.128 0.288 0.192 0.48 0.192s0.32-0.064 0.448-0.192c0.256-0.256 0.256-0.672 0-0.928l-2.176-2.208h1.056c0.352 0 0.672-0.288 0.672-0.672s-0.32-0.672-0.672-0.672h-2.688c-0.032 0-0.064 0.032-0.096 0.032-0.064 0-0.096 0-0.16 0.032s-0.128 0.096-0.192 0.16v0c-0.032 0-0.032 0-0.032 0-0.032 0.064-0.096 0.128-0.128 0.192-0.032 0.096-0.032 0.192-0.032 0.256zM18.016 14.656c0.16 0 0.32-0.064 0.448-0.192l2.208-2.176v1.056c0 0.352 0.288 0.64 0.672 0.64 0.352 0 0.672-0.288 0.672-0.64v-2.688c0-0.032-0.032-0.096-0.032-0.128-0.032-0.032-0.032-0.096-0.032-0.128-0.064-0.16-0.192-0.288-0.352-0.352-0.064 0-0.096 0-0.128-0.032-0.032 0-0.096-0.032-0.128-0.032h-2.688c-0.352 0-0.64 0.32-0.64 0.672s0.288 0.672 0.64 0.672h1.056l-2.176 2.208c-0.256 0.256-0.256 0.672 0 0.928 0.128 0.128 0.288 0.192 0.48 0.192zM19.712 20.672h-1.056c-0.352 0-0.64 0.288-0.64 0.672 0 0.352 0.288 0.64 0.64 0.64h2.688c0.064 0 0.16 0 0.256-0.032 0.064-0.032 0.128-0.096 0.192-0.128 0 0 0 0 0-0.032v0c0.064-0.064 0.128-0.128 0.16-0.192s0.032-0.096 0.032-0.16c0-0.032 0.032-0.064 0.032-0.096v-2.688c0-0.352-0.32-0.672-0.672-0.672s-0.672 0.32-0.672 0.672v1.056l-2.208-2.176c-0.256-0.256-0.672-0.256-0.928 0s-0.256 0.672 0 0.928l2.176 2.208z"></path> </svg> 