 <svg version="1.1" xmlns="http://www.w3.org/2000/svg" width="32" height="32" viewBox="0 0 32 32">  <path d="M31.072 10.144c-0.16-0.128-0.352-0.16-0.576-0.128l-4.48 1.12v-1.792c0-0.384-0.32-0.672-0.672-0.672h-18.688c-0.352 0-0.64 0.288-0.64 0.672v1.792l-4.512-1.12c-0.192-0.032-0.416 0-0.576 0.128s-0.256 0.32-0.256 0.512v10.688c0 0.192 0.096 0.384 0.256 0.512 0.128 0.096 0.256 0.128 0.416 0.128 0.032 0 0.096 0 0.16 0l4.512-1.12v1.792c0 0.384 0.288 0.672 0.64 0.672h18.688c0.352 0 0.672-0.288 0.672-0.672v-1.792l4.48 1.12c0.064 0 0.128 0 0.16 0 0.16 0 0.32-0.032 0.416-0.128 0.16-0.128 0.256-0.32 0.256-0.512v-10.688c0-0.192-0.096-0.384-0.256-0.512zM2.016 20.48v-8.96l4 0.992v6.976l-4 0.992zM24.672 21.984h-17.344v-12h17.344v12zM30.016 20.48l-4-0.992v-6.976l4-0.992v8.96z"></path> </svg> 