 <svg version="1.1" xmlns="http://www.w3.org/2000/svg" width="32" height="32" viewBox="0 0 32 32">  <path d="M25.344 7.328h-18.688c-0.352 0-0.64 0.288-0.64 0.672v13.344c0 0.352 0.288 0.64 0.64 0.64h18.688c0.352 0 0.672-0.288 0.672-0.64v-13.344c0-0.384-0.32-0.672-0.672-0.672zM24.672 20.672h-17.344v-12h17.344v12zM3.712 8.736l-2.688 1.344c-0.32 0.16-0.448 0.544-0.288 0.896 0.16 0.32 0.576 0.448 0.896 0.288l1.696-0.864v8.512l-1.696-0.832c-0.32-0.16-0.736-0.032-0.896 0.288s-0.032 0.736 0.288 0.896l2.688 1.344c0.096 0.032 0.192 0.064 0.288 0.064 0.128 0 0.256-0.032 0.352-0.096 0.192-0.128 0.32-0.352 0.32-0.576v-10.656c0-0.256-0.128-0.448-0.32-0.576s-0.448-0.128-0.64-0.032zM30.368 18.080l-1.696 0.832v-8.512l1.696 0.864c0.32 0.16 0.736 0.032 0.896-0.288 0.16-0.352 0.032-0.736-0.288-0.896l-2.688-1.344c-0.192-0.096-0.448-0.096-0.64 0.032s-0.32 0.32-0.32 0.576v10.656c0 0.224 0.128 0.448 0.32 0.576 0.096 0.064 0.224 0.096 0.352 0.096 0.096 0 0.192-0.032 0.288-0.064l2.688-1.344c0.32-0.16 0.448-0.576 0.288-0.896s-0.576-0.448-0.896-0.288z"></path> </svg> 