 <svg version="1.1" xmlns="http://www.w3.org/2000/svg" width="32" height="32" viewBox="0 0 32 32">  <path d="M30.656 5.984h-29.312c-0.384 0-0.672 0.32-0.672 0.672v18.688c0 0.352 0.288 0.64 0.672 0.64h29.312c0.384 0 0.672-0.288 0.672-0.64v-18.688c0-0.352-0.288-0.672-0.672-0.672zM30.016 24.672h-28v-17.344h28v17.344zM18.208 27.52l-2.208 2.208-2.208-2.208c-0.256-0.256-0.672-0.256-0.928 0s-0.256 0.704 0 0.96l2.656 2.656c0.128 0.128 0.32 0.192 0.48 0.192s0.352-0.064 0.48-0.192l2.656-2.656c0.256-0.256 0.256-0.704 0-0.96s-0.672-0.256-0.928 0zM13.792 4.48l2.208-2.208 2.208 2.208c0.128 0.128 0.288 0.192 0.448 0.192s0.352-0.064 0.48-0.192c0.256-0.256 0.256-0.704 0-0.96l-2.656-2.656c-0.256-0.256-0.704-0.256-0.96 0l-2.656 2.656c-0.256 0.256-0.256 0.704 0 0.96s0.672 0.256 0.928 0z"></path> </svg> 