 <svg version="1.1" xmlns="http://www.w3.org/2000/svg" width="32" height="32" viewBox="0 0 32 32">  <path d="M29.632 1.728l-3.36-0.288c-1.504-0.128-3.040-0.128-4.544 0l-3.36 0.288c-1.344 0.128-2.368 1.216-2.368 2.56v6.080c0 1.344 1.024 2.464 2.368 2.56l3.36 0.32c0.768 0.064 1.504 0.096 2.272 0.096s1.504-0.032 2.272-0.096l3.36-0.32c1.344-0.096 2.368-1.216 2.368-2.56v-6.080c0-1.344-1.024-2.432-2.368-2.56zM30.656 10.368c0 0.64-0.48 1.184-1.12 1.248l-3.392 0.288c-1.408 0.128-2.88 0.128-4.288 0l-3.392-0.288c-0.64-0.064-1.12-0.608-1.12-1.248v-6.080c0-0.64 0.48-1.184 1.12-1.248l3.392-0.288c0.704-0.064 1.44-0.096 2.144-0.096s1.44 0.032 2.144 0.096l3.392 0.288c0.64 0.064 1.12 0.608 1.12 1.248v6.080zM22.368 4.096c-0.192-0.128-0.48-0.128-0.672-0.032-0.224 0.128-0.352 0.352-0.352 0.608v5.312c0 0.256 0.128 0.48 0.352 0.608 0.096 0.032 0.192 0.064 0.32 0.064s0.256-0.032 0.352-0.096l4-2.688c0.192-0.096 0.288-0.32 0.288-0.544s-0.096-0.416-0.288-0.544l-4-2.688zM22.656 8.768v-2.848l2.144 1.408-2.144 1.44zM14.208 18.624c0.032-0.064 0.064-0.16 0.064-0.256 0.096-0.256-0.032-0.544-0.256-0.704s-0.512-0.16-0.736-0.032c-0.16 0.096-0.736 0.352-1.184 0.48-1.216-0.96-2.656-1.024-4.096-0.224-1.088 0.64-1.44 1.76-1.472 2.656-2.208-0.32-3.584-1.504-4.384-2.496-0.16-0.16-0.352-0.256-0.576-0.224-0.224 0-0.416 0.128-0.512 0.32-0.48 0.768-0.608 1.632-0.384 2.496 0.032 0.16 0.064 0.288 0.128 0.416 0 0.032-0.032 0.032-0.032 0.032-0.224 0.128-0.384 0.352-0.384 0.608 0 1.024 0.448 1.824 1.024 2.368 0 0-0.032 0.032-0.032 0.032-0.16 0.192-0.224 0.48-0.096 0.736 0.352 0.768 0.928 1.344 1.664 1.728-0.704 0.224-1.472 0.32-2.208 0.224-0.32-0.032-0.608 0.16-0.704 0.48-0.096 0.288 0.032 0.64 0.32 0.768 1.536 0.864 3.136 1.312 4.672 1.28 1.6 0 3.136-0.448 4.512-1.376 2.4-1.6 3.904-4.416 3.776-6.976 0.384-0.288 0.896-0.768 1.248-1.312 0.16-0.256 0.128-0.608-0.064-0.832-0.096-0.096-0.192-0.16-0.288-0.192zM8.8 26.848c-1.024 0.672-2.944 1.536-5.44 0.96 0.672-0.224 1.28-0.576 1.792-0.992 0.192-0.192 0.256-0.48 0.16-0.736s-0.32-0.416-0.608-0.448c-0.544 0-1.024-0.16-1.408-0.416 0.192-0.064 0.352-0.16 0.512-0.288 0.224-0.16 0.288-0.448 0.224-0.704s-0.32-0.448-0.576-0.48c-0.224 0-0.96-0.32-1.408-0.992 0.16 0 0.352 0 0.512-0.032 0.256-0.064 0.48-0.256 0.512-0.544 0.064-0.288-0.064-0.544-0.32-0.672-0.224-0.16-0.64-0.576-0.8-1.184-0.032-0.192-0.064-0.384-0.064-0.576 1.152 1.056 2.848 2.080 5.312 2.208 0.192 0.032 0.416-0.096 0.544-0.256s0.192-0.384 0.128-0.576c-0.096-0.352-0.064-1.568 0.8-2.048 1.056-0.608 1.952-0.512 2.784 0.256 0.096 0.096 0.224 0.128 0.352 0.16-0.032 0.096-0.032 0.192 0 0.288 0.032 0.192 0.16 0.352 0.288 0.448-0.096 0.128-0.16 0.32-0.128 0.48 0.256 2.208-1.056 4.704-3.168 6.144zM12.672 1.344h-10.656c-1.12 0-2.016 0.896-2.016 1.984v10.656c0 1.12 0.896 2.016 2.016 2.016h10.656c1.088 0 1.984-0.896 1.984-2.016v-10.656c0-1.088-0.896-1.984-1.984-1.984zM13.344 13.984c0 0.384-0.32 0.672-0.672 0.672h-4.672v-5.312h1.344c0.352 0 0.672-0.32 0.672-0.672s-0.32-0.672-0.672-0.672h-1.344c0-0.736 0.608-1.344 1.344-1.344h0.672c0.352 0 0.64-0.288 0.64-0.672s-0.288-0.64-0.64-0.64h-0.672c-1.472 0-2.688 1.184-2.688 2.656h-0.64c-0.384 0-0.672 0.288-0.672 0.672s0.288 0.672 0.672 0.672h0.64v5.312h-4.64c-0.384 0-0.672-0.288-0.672-0.672v-10.656c0-0.352 0.288-0.672 0.672-0.672h10.656c0.352 0 0.672 0.32 0.672 0.672v10.656zM27.328 14.656h-6.656c-2.592 0-4.672 2.112-4.672 4.672v6.656c0 2.592 2.080 4.672 4.672 4.672h6.656c2.592 0 4.672-2.080 4.672-4.672v-6.656c0-2.56-2.080-4.672-4.672-4.672zM30.656 25.984c0 1.856-1.472 3.36-3.328 3.36h-6.656c-1.856 0-3.328-1.504-3.328-3.36v-6.656c0-1.824 1.472-3.328 3.328-3.328h6.656c1.856 0 3.328 1.504 3.328 3.328v6.656zM24 18.656c-2.208 0-4 1.792-4 4s1.792 4 4 4 4-1.792 4-4-1.792-4-4-4zM24 25.344c-1.472 0-2.656-1.216-2.656-2.688s1.184-2.656 2.656-2.656 2.656 1.184 2.656 2.656-1.184 2.688-2.656 2.688z"></path> </svg> 