 <svg version="1.1" xmlns="http://www.w3.org/2000/svg" width="32" height="32" viewBox="0 0 32 32">  <path d="M1.344 5.984h29.312c0.384 0 0.672-0.288 0.672-0.64s-0.288-0.672-0.672-0.672h-29.312c-0.384 0-0.672 0.288-0.672 0.672s0.288 0.64 0.672 0.64zM20 13.984c0.256 0 0.48-0.128 0.608-0.352s0.064-0.512-0.064-0.704l-4-5.344c-0.256-0.32-0.832-0.32-1.088 0l-4 5.344c-0.128 0.192-0.16 0.48-0.064 0.704 0.128 0.224 0.352 0.352 0.608 0.352h3.328v4h-3.328c-0.256 0-0.48 0.16-0.608 0.384-0.096 0.224-0.064 0.48 0.064 0.704l4 5.312c0.128 0.192 0.352 0.288 0.544 0.288s0.416-0.096 0.544-0.288l4-5.312c0.128-0.224 0.16-0.48 0.064-0.704-0.128-0.224-0.352-0.384-0.608-0.384h-3.328v-4h3.328zM16 22.88l-2.656-3.552h5.312l-2.656 3.552zM16 9.12l2.656 3.552h-5.312l2.656-3.552zM30.656 25.984h-29.312c-0.384 0-0.672 0.32-0.672 0.672s0.288 0.672 0.672 0.672h29.312c0.384 0 0.672-0.288 0.672-0.672s-0.288-0.672-0.672-0.672z"></path> </svg> 