 <svg version="1.1" xmlns="http://www.w3.org/2000/svg" width="32" height="32" viewBox="0 0 32 32">  <path d="M16 22.688c1.568 0.032 3.008-0.48 4.352-1.568 1.888-1.536 2.624-4.032 1.952-7.328-0.128-0.736 0.416-1.408 1.152-1.504s1.28 0.448 1.504 1.152c1.056 3.52-0.256 7.584-2.944 9.76-1.824 1.472-3.84 2.176-6.016 2.144v3.36c0 0.192-0.064 0.32-0.16 0.448-0.128 0.128-0.256 0.224-0.416 0.224s-0.288-0.096-0.416-0.224l-4.16-4.672c-0.128-0.128-0.16-0.288-0.16-0.448s0.032-0.352 0.16-0.48l4.16-4.672c0.128-0.128 0.256-0.192 0.416-0.192s0.288 0.064 0.416 0.192c0.096 0.16 0.16 0.32 0.16 0.48v3.328zM16 9.344c-1.568-0.032-3.008 0.48-4.352 1.568-1.888 1.536-2.624 4.032-1.952 7.328 0.16 0.704-0.416 1.408-1.152 1.504s-1.28-0.448-1.504-1.152c-1.056-3.552 0.256-7.584 2.944-9.76 1.824-1.472 3.84-2.208 6.016-2.176v-3.328c0-0.192 0.064-0.32 0.16-0.448s0.256-0.224 0.416-0.224 0.32 0.064 0.416 0.224l4.16 4.64c0.128 0.16 0.16 0.32 0.16 0.48s-0.032 0.32-0.16 0.48l-4.16 4.64c-0.096 0.16-0.256 0.224-0.416 0.224s-0.288-0.064-0.416-0.224-0.16-0.256-0.16-0.448v-3.328z"></path> </svg> 