 <svg version="1.1" xmlns="http://www.w3.org/2000/svg" width="32" height="32" viewBox="0 0 32 32">  <path d="M30.016 5.984h-28c-1.12 0-2.016 0.896-2.016 2.016v16c0 1.088 0.896 1.984 2.016 1.984h28c1.088 0 1.984-0.896 1.984-1.984v-16c0-1.12-0.896-2.016-1.984-2.016zM30.656 24c0 0.352-0.288 0.672-0.64 0.672h-28c-0.384 0-0.672-0.32-0.672-0.672v-16c0-0.384 0.288-0.672 0.672-0.672h28c0.352 0 0.64 0.288 0.64 0.672v16zM15.936 17.92c-0.832 0-1.664-0.128-2.432-0.384-0.512-0.16-1.088-0.032-1.376 0.288l-1.44 1.088c-1.664-0.896-2.72-1.952-3.616-3.584l1.056-1.376c0.352-0.384 0.512-0.928 0.352-1.44-0.288-0.768-0.416-1.6-0.416-2.432 0-0.768-0.608-1.408-1.408-1.408h-2.592c-0.768 0-1.408 0.64-1.408 1.408 0 7.296 5.952 13.248 13.28 13.248 0.768 0 1.408-0.64 1.408-1.408v-2.592c0-0.768-0.64-1.408-1.408-1.408zM15.936 21.984c-6.592 0-11.936-5.344-11.872-12l2.688 0.096c0 0.96 0.16 1.92 0.448 2.848l0.64-0.224-0.736 0.352-1.344 1.792c-0.16 0.224-0.16 0.48-0.064 0.704 1.152 2.24 2.496 3.584 4.736 4.736 0.224 0.128 0.512 0.096 0.704-0.064l1.792-1.344c0.032 0 0.128-0.064 0.16-0.064 0.896 0.288 1.856 0.448 2.912 0.512l-0.064 2.656z"></path> </svg> 