 <svg version="1.1" xmlns="http://www.w3.org/2000/svg" width="32" height="32" viewBox="0 0 32 32">  <path d="M0.8 12.8c-0.256 0.384-0.256 0.672 0 1.056l2.656 2.688c0.416 0.256 0.672 0.256 1.088 0 0.256-0.288 0.256-0.672 0-1.088l-2.272-2.112 2.272-2.144c0.256-0.256 0.256-0.672 0-1.056-0.288-0.288-0.672-0.288-1.088 0l-2.656 2.656M31.2 13.856c0.256-0.256 0.256-0.672 0-1.056l-2.656-2.656c-0.288-0.288-0.672-0.288-1.088 0-0.256 0.384-0.256 0.64 0 1.056l2.144 2.144-2.144 2.112c-0.256 0.416-0.256 0.672 0 1.088 0.416 0.256 0.672 0.256 1.088 0l2.656-2.688M23.872 8.128c-0.544-0.544-1.216-0.8-2.016-0.8h-11.712c-0.8 0-1.472 0.256-2.016 0.8-0.512 0.672-0.8 1.344-0.8 2.016v7.2c0 0.8 0.288 1.44 0.928 2.112 0.544 0.544 1.216 0.8 2.016 0.8h1.056l-1.728 3.328c-0.128 0.288-0.128 0.544 0.128 0.8 0.288 0.288 0.544 0.288 0.8 0l5.6-4.128h5.6c0.8 0 1.472-0.256 2.016-0.8 0.512-0.512 0.8-1.312 0.8-2.112v-7.2c0.128-0.672-0.128-1.344-0.672-2.016M22.944 9.056c0.256 0.288 0.384 0.672 0.384 1.088v7.2c0 0.384-0.128 0.8-0.384 1.056-0.288 0.256-0.672 0.544-1.088 0.544h-5.856l-0.384 0.128-3.488 2.656 0.8-1.728c0.128-0.256 0.128-0.416 0-0.672s-0.256-0.256-0.512-0.256h-2.272c-0.416 0-0.8-0.128-1.088-0.544-0.256-0.256-0.512-0.672-0.512-1.056v-7.328c0-0.416 0.128-0.8 0.512-1.088 0.288-0.256 0.672-0.384 1.088-0.384h11.712c0.416 0 0.672 0.128 1.088 0.384z"></path> </svg> 