 <svg version="1.1" xmlns="http://www.w3.org/2000/svg" width="32" height="32" viewBox="0 0 32 32">  <path d="M4.96 32c-0.015 0.002-0.033 0.003-0.051 0.003-0.103 0-0.197-0.037-0.27-0.1l0.001 0c-0.159-0.097-0.264-0.269-0.264-0.467 0-0.074 0.015-0.145 0.042-0.209l-0.001 0.004 2.976-8.064h-2.656c-2.608-0.018-4.718-2.128-4.736-4.734v-13.698c0.018-2.608 2.128-4.718 4.734-4.736h22.626c2.608 0.018 4.718 2.128 4.736 4.734v13.794c0 0 0 0 0 0 0 2.622-2.116 4.75-4.734 4.768h-11.138l-10.912 8.704h-0.352zM4.736 1.088c-1.994 0.036-3.598 1.652-3.616 3.646v13.794c0.018 1.996 1.622 3.612 3.613 3.648l0.003 0h3.552c0.17 0.012 0.318 0.097 0.415 0.223l0.001 0.001c0.084 0.128 0.133 0.284 0.133 0.451 0 0.033-0.002 0.065-0.006 0.096l0-0.004-2.656 6.976 9.504-7.616c0.076-0.079 0.182-0.128 0.301-0.128 0.007 0 0.014 0 0.020 0l-0.001-0h11.36c2.007-0.018 3.63-1.641 3.648-3.646v-13.89c-0.018-2.007-1.641-3.63-3.646-3.648h-0.002l-22.624 0.096z"></path> </svg> 