 <svg version="1.1" xmlns="http://www.w3.org/2000/svg" width="32" height="32" viewBox="0 0 32 32">  <path d="M30.016 2.656h-28c-1.12 0-2.016 0.896-2.016 2.016v22.656c0 1.12 0.896 2.016 2.016 2.016h28c1.088 0 1.984-0.896 1.984-2.016v-22.656c0-1.12-0.896-2.016-1.984-2.016zM1.344 27.328v-22.656c0-0.384 0.288-0.672 0.672-0.672h28c0.352 0 0.64 0.288 0.64 0.672v19.712l-3.584 3.616h-25.056c-0.384 0-0.672-0.288-0.672-0.672zM30.016 28h-1.056l1.696-1.728v1.056c0 0.384-0.288 0.672-0.64 0.672zM7.968 7.104c-0.192-0.512-1.056-0.512-1.248 0l-4 10.656c-0.128 0.352 0.032 0.736 0.384 0.864s0.736-0.032 0.864-0.384l1.344-3.584c0 0 0 0 0.032 0h4c0 0 0 0 0.032 0l1.344 3.584c0.096 0.256 0.352 0.416 0.608 0.416 0.096 0 0.16 0 0.256-0.032 0.32-0.128 0.512-0.512 0.384-0.864l-4-10.656zM5.792 13.344l1.536-4.128 1.536 4.128h-3.072zM28 15.328c0-0.352-0.288-0.672-0.672-0.672s-0.672 0.32-0.672 0.672c0 1.12-0.896 2.016-1.984 2.016s-2.016-0.896-2.016-2.016v-2.656c0-1.12 0.896-2.016 2.016-2.016s1.984 0.896 1.984 2.016c0 0.352 0.32 0.672 0.672 0.672s0.672-0.32 0.672-0.672c0-1.856-1.504-3.328-3.328-3.328s-3.328 1.472-3.328 3.328v2.656c0 1.856 1.472 3.328 3.328 3.328s3.328-1.472 3.328-3.328zM16.672 9.344c-0.768 0-1.44 0.256-2.016 0.672v-2.688c0-0.352-0.288-0.672-0.64-0.672s-0.672 0.32-0.672 0.672v10.656c0 0.384 0.288 0.672 0.672 0.672s0.64-0.288 0.64-0.672v0c0.576 0.416 1.248 0.672 2.016 0.672 1.824 0 3.328-1.472 3.328-3.328v-2.656c0-1.856-1.504-3.328-3.328-3.328zM18.656 15.328c0 1.12-0.896 2.016-1.984 2.016s-2.016-0.896-2.016-2.016v-2.656c0-1.12 0.896-2.016 2.016-2.016s1.984 0.896 1.984 2.016v2.656z"></path> </svg> 