 <svg version="1.1" xmlns="http://www.w3.org/2000/svg" width="32" height="32" viewBox="0 0 32 32">  <path d="M30.016 5.984h-28c-1.12 0-2.016 0.896-2.016 2.016v16c0 1.088 0.896 1.984 2.016 1.984h28c1.088 0 1.984-0.896 1.984-1.984v-16c0-1.12-0.896-2.016-1.984-2.016zM30.656 24c0 0.352-0.288 0.672-0.64 0.672h-28c-0.384 0-0.672-0.32-0.672-0.672v-16c0-0.384 0.288-0.672 0.672-0.672h28c0.352 0 0.64 0.288 0.64 0.672v16zM7.328 9.984c0.384 0 0.672-0.288 0.672-0.64s-0.288-0.672-0.672-0.672h-2.656c-0.384 0-0.672 0.288-0.672 0.672s0.288 0.64 0.672 0.64h0.672v12h-0.672c-0.384 0-0.672 0.32-0.672 0.672s0.288 0.672 0.672 0.672h2.656c0.384 0 0.672-0.288 0.672-0.672s-0.288-0.672-0.672-0.672h-0.672v-12h0.672z"></path> </svg> 