 <svg version="1.1" xmlns="http://www.w3.org/2000/svg" width="32" height="32" viewBox="0 0 32 32">  <path d="M15.328 5.984h-14.656c-0.384 0-0.672 0.32-0.672 0.672v18.688c0 0.352 0.288 0.64 0.672 0.64h14.656c0.384 0 0.672-0.288 0.672-0.64v-18.688c0-0.352-0.288-0.672-0.672-0.672zM14.656 24.672h-13.312v-17.344h13.312v17.344zM31.328 5.984h-2.656c-0.384 0-0.672 0.32-0.672 0.672v2.688c0 0.352 0.288 0.64 0.672 0.64h2.656c0.384 0 0.672-0.288 0.672-0.64v-2.688c0-0.352-0.288-0.672-0.672-0.672zM30.656 8.672h-1.312v-1.344h1.312v1.344zM31.328 11.328h-2.656c-0.384 0-0.672 0.288-0.672 0.672v2.656c0 0.384 0.288 0.672 0.672 0.672h2.656c0.384 0 0.672-0.288 0.672-0.672v-2.656c0-0.384-0.288-0.672-0.672-0.672zM30.656 13.984h-1.312v-1.312h1.312v1.312zM31.328 16.672h-2.656c-0.384 0-0.672 0.288-0.672 0.672v2.656c0 0.352 0.288 0.672 0.672 0.672h2.656c0.384 0 0.672-0.32 0.672-0.672v-2.656c0-0.384-0.288-0.672-0.672-0.672zM30.656 19.328h-1.312v-1.344h1.312v1.344zM31.328 21.984h-2.656c-0.384 0-0.672 0.32-0.672 0.672v2.688c0 0.352 0.288 0.64 0.672 0.64h2.656c0.384 0 0.672-0.288 0.672-0.64v-2.688c0-0.352-0.288-0.672-0.672-0.672zM30.656 24.672h-1.312v-1.344h1.312v1.344zM26.016 5.984h-2.688c-0.352 0-0.672 0.32-0.672 0.672v2.688c0 0.352 0.32 0.64 0.672 0.64h2.688c0.352 0 0.64-0.288 0.64-0.64v-2.688c0-0.352-0.288-0.672-0.64-0.672zM25.344 8.672h-1.344v-1.344h1.344v1.344zM26.016 11.328h-2.688c-0.352 0-0.672 0.288-0.672 0.672v2.656c0 0.384 0.32 0.672 0.672 0.672h2.688c0.352 0 0.64-0.288 0.64-0.672v-2.656c0-0.384-0.288-0.672-0.64-0.672zM25.344 13.984h-1.344v-1.312h1.344v1.312zM26.016 16.672h-2.688c-0.352 0-0.672 0.288-0.672 0.672v2.656c0 0.352 0.32 0.672 0.672 0.672h2.688c0.352 0 0.64-0.32 0.64-0.672v-2.656c0-0.384-0.288-0.672-0.64-0.672zM25.344 19.328h-1.344v-1.344h1.344v1.344zM26.016 21.984h-2.688c-0.352 0-0.672 0.32-0.672 0.672v2.688c0 0.352 0.32 0.64 0.672 0.64h2.688c0.352 0 0.64-0.288 0.64-0.64v-2.688c0-0.352-0.288-0.672-0.64-0.672zM25.344 24.672h-1.344v-1.344h1.344v1.344zM20.672 5.984h-2.656c-0.384 0-0.672 0.32-0.672 0.672v2.688c0 0.352 0.288 0.64 0.672 0.64h2.656c0.352 0 0.672-0.288 0.672-0.64v-2.688c0-0.352-0.32-0.672-0.672-0.672zM20 8.672h-1.344v-1.344h1.344v1.344zM20.672 11.328h-2.656c-0.384 0-0.672 0.288-0.672 0.672v2.656c0 0.384 0.288 0.672 0.672 0.672h2.656c0.352 0 0.672-0.288 0.672-0.672v-2.656c0-0.384-0.32-0.672-0.672-0.672zM20 13.984h-1.344v-1.312h1.344v1.312zM20.672 16.672h-2.656c-0.384 0-0.672 0.288-0.672 0.672v2.656c0 0.352 0.288 0.672 0.672 0.672h2.656c0.352 0 0.672-0.32 0.672-0.672v-2.656c0-0.384-0.32-0.672-0.672-0.672zM20 19.328h-1.344v-1.344h1.344v1.344zM20.672 21.984h-2.656c-0.384 0-0.672 0.32-0.672 0.672v2.688c0 0.352 0.288 0.64 0.672 0.64h2.656c0.352 0 0.672-0.288 0.672-0.64v-2.688c0-0.352-0.32-0.672-0.672-0.672zM20 24.672h-1.344v-1.344h1.344v1.344z"></path> </svg> 