 <svg version="1.1" xmlns="http://www.w3.org/2000/svg" width="32" height="32" viewBox="0 0 32 32">  <path d="M25.344 5.984h-18.688c-0.352 0-0.64 0.32-0.64 0.672v13.344c0 0.352 0.288 0.672 0.64 0.672h18.688c0.352 0 0.672-0.32 0.672-0.672v-13.344c0-0.352-0.32-0.672-0.672-0.672zM24.672 19.328h-17.344v-12h17.344v12zM4.48 11.52c-0.256-0.256-0.704-0.256-0.96 0l-2.656 2.688c-0.256 0.256-0.256 0.672 0 0.928l2.656 2.656c0.128 0.128 0.32 0.192 0.48 0.192s0.352-0.064 0.48-0.192c0.256-0.256 0.256-0.672 0-0.928l-2.208-2.208 2.208-2.176c0.256-0.256 0.256-0.704 0-0.96zM31.136 14.208l-2.656-2.688c-0.256-0.256-0.704-0.256-0.96 0s-0.256 0.704 0 0.96l2.208 2.176-2.208 2.208c-0.256 0.256-0.256 0.672 0 0.928 0.128 0.128 0.32 0.192 0.48 0.192s0.352-0.064 0.48-0.192l2.656-2.656c0.256-0.256 0.256-0.672 0-0.928zM9.344 21.984h-2.688c-0.352 0-0.64 0.32-0.64 0.672v2.688c0 0.352 0.288 0.64 0.64 0.64h2.688c0.352 0 0.672-0.288 0.672-0.64v-2.688c0-0.352-0.32-0.672-0.672-0.672zM8.672 24.672h-1.344v-1.344h1.344v1.344zM14.656 21.984h-2.656c-0.352 0-0.672 0.32-0.672 0.672v2.688c0 0.352 0.32 0.64 0.672 0.64h2.656c0.384 0 0.672-0.288 0.672-0.64v-2.688c0-0.352-0.288-0.672-0.672-0.672zM14.016 24.672h-1.344v-1.344h1.344v1.344zM20 21.984h-2.656c-0.384 0-0.672 0.32-0.672 0.672v2.688c0 0.352 0.288 0.64 0.672 0.64h2.656c0.384 0 0.672-0.288 0.672-0.64v-2.688c0-0.352-0.288-0.672-0.672-0.672zM19.328 24.672h-1.312v-1.344h1.312v1.344zM25.344 21.984h-2.688c-0.352 0-0.64 0.32-0.64 0.672v2.688c0 0.352 0.288 0.64 0.64 0.64h2.688c0.352 0 0.672-0.288 0.672-0.64v-2.688c0-0.352-0.32-0.672-0.672-0.672zM24.672 24.672h-1.344v-1.344h1.344v1.344z"></path> </svg> 