 <svg version="1.1" xmlns="http://www.w3.org/2000/svg" width="32" height="32" viewBox="0 0 32 32">  <path d="M21.344 12.672h8c1.088 0 1.984-0.896 1.984-2.016v-8c0-1.088-0.896-1.984-1.984-1.984h-8c-1.12 0-2.016 0.896-2.016 1.984v1.056l-1.728 1.76c-0.256-0.32-0.576-0.544-0.928-0.672v-3.456c0-0.384-0.288-0.672-0.672-0.672s-0.672 0.288-0.672 0.672v3.456c-0.768 0.256-1.312 0.992-1.312 1.856s0.544 1.6 1.312 1.888v5.568c-0.352 0.128-0.672 0.384-0.928 0.672l-1.728-1.728v-1.056c0-1.088-0.896-2.016-2.016-2.016h-8c-1.088 0-1.984 0.928-1.984 2.016v8c0 1.088 0.896 1.984 1.984 1.984h8c1.12 0 2.016-0.896 2.016-1.984v-1.056l1.728-1.76c0.256 0.32 0.576 0.576 0.928 0.704v5.568c-0.768 0.288-1.312 1.024-1.312 1.888s0.544 1.6 1.312 1.856v3.456c0 0.384 0.32 0.672 0.672 0.672s0.672-0.288 0.672-0.672v-3.456c0.352-0.128 0.672-0.352 0.928-0.672l1.728 1.76v1.056c0 1.088 0.896 1.984 2.016 1.984h8c1.088 0 1.984-0.896 1.984-1.984v-8c0-1.12-0.896-2.016-1.984-2.016h-8c-1.12 0-2.016 0.896-2.016 2.016v1.056l-1.728 1.728c-0.256-0.32-0.576-0.544-0.928-0.672v-5.568c0.768-0.288 1.344-1.024 1.344-1.888s-0.576-1.6-1.344-1.888v-5.568c0.352-0.128 0.672-0.384 0.928-0.672l1.728 1.728v1.056c0 1.12 0.896 2.016 2.016 2.016zM16 5.984c0.384 0 0.672 0.32 0.672 0.672v0c0 0.384-0.288 0.672-0.672 0.672s-0.672-0.288-0.672-0.672 0.32-0.672 0.672-0.672zM11.52 18.208c-0.128 0.096-0.192 0.288-0.192 0.448v1.344c0 0.352-0.288 0.672-0.672 0.672h-8c-0.352 0-0.64-0.32-0.64-0.672v-8c0-0.384 0.288-0.672 0.64-0.672h8c0.384 0 0.672 0.288 0.672 0.672v1.344c0 0.16 0.064 0.32 0.192 0.448l2.208 2.208-2.208 2.208zM16 24.672c0.384 0 0.672 0.288 0.672 0.672v0c0 0.352-0.288 0.64-0.672 0.64s-0.672-0.288-0.672-0.64 0.32-0.672 0.672-0.672zM20.48 23.136c0.128-0.128 0.192-0.288 0.192-0.48v-1.312c0-0.384 0.288-0.672 0.672-0.672h8c0.352 0 0.672 0.288 0.672 0.672v8c0 0.352-0.32 0.672-0.672 0.672h-8c-0.384 0-0.672-0.32-0.672-0.672v-1.344c0-0.16-0.064-0.352-0.192-0.48l-2.208-2.176 2.208-2.208zM16 16.672c-0.352 0-0.672-0.32-0.672-0.672v0c0-0.384 0.32-0.672 0.672-0.672s0.672 0.288 0.672 0.672-0.288 0.672-0.672 0.672zM18.272 6.656l2.208-2.176c0.128-0.128 0.192-0.288 0.192-0.48v-1.344c0-0.352 0.288-0.672 0.672-0.672h8c0.352 0 0.672 0.32 0.672 0.672v8c0 0.384-0.32 0.672-0.672 0.672h-8c-0.384 0-0.672-0.288-0.672-0.672v-1.312c0-0.192-0.064-0.352-0.192-0.48l-2.208-2.208z"></path> </svg> 