 <svg version="1.1" xmlns="http://www.w3.org/2000/svg" width="32" height="32" viewBox="0 0 32 32">  <path d="M7.328 0.672h-5.312c-1.12 0-2.016 0.896-2.016 1.984v5.344c0 1.088 0.896 1.984 2.016 1.984h5.312c1.12 0 2.016-0.896 2.016-1.984v-5.344c0-1.088-0.896-1.984-2.016-1.984zM8 8c0 0.352-0.288 0.672-0.672 0.672h-5.312c-0.384 0-0.672-0.32-0.672-0.672v-5.344c0-0.352 0.288-0.672 0.672-0.672h5.312c0.384 0 0.672 0.32 0.672 0.672v5.344zM6.016 4.672h-0.672v-0.672c0-0.384-0.32-0.672-0.672-0.672s-0.672 0.288-0.672 0.672v0.672h-0.672c-0.352 0-0.672 0.288-0.672 0.672s0.32 0.64 0.672 0.64h0.672v0.672c0 0.384 0.288 0.672 0.672 0.672s0.672-0.288 0.672-0.672v-0.672h0.672c0.352 0 0.64-0.288 0.64-0.64s-0.288-0.672-0.64-0.672zM7.328 11.328h-5.312c-1.12 0-2.016 0.896-2.016 2.016v5.312c0 1.12 0.896 2.016 2.016 2.016h5.312c1.12 0 2.016-0.896 2.016-2.016v-5.312c0-1.12-0.896-2.016-2.016-2.016zM8 18.656c0 0.384-0.288 0.672-0.672 0.672h-5.312c-0.384 0-0.672-0.288-0.672-0.672v-5.312c0-0.384 0.288-0.672 0.672-0.672h5.312c0.384 0 0.672 0.288 0.672 0.672v5.312zM6.016 15.328h-0.672v-0.672c0-0.352-0.32-0.672-0.672-0.672s-0.672 0.32-0.672 0.672v0.672h-0.672c-0.352 0-0.672 0.288-0.672 0.672s0.32 0.672 0.672 0.672h0.672v0.672c0 0.352 0.288 0.64 0.672 0.64s0.672-0.288 0.672-0.64v-0.672h0.672c0.352 0 0.64-0.32 0.64-0.672s-0.288-0.672-0.64-0.672zM7.328 21.984h-5.312c-1.12 0-2.016 0.896-2.016 2.016v5.344c0 1.088 0.896 1.984 2.016 1.984h5.312c1.12 0 2.016-0.896 2.016-1.984v-5.344c0-1.12-0.896-2.016-2.016-2.016zM8 29.344c0 0.352-0.288 0.672-0.672 0.672h-5.312c-0.384 0-0.672-0.32-0.672-0.672v-5.344c0-0.384 0.288-0.672 0.672-0.672h5.312c0.384 0 0.672 0.288 0.672 0.672v5.344zM6.016 25.984h-0.672v-0.64c0-0.384-0.32-0.672-0.672-0.672s-0.672 0.288-0.672 0.672v0.64h-0.672c-0.352 0-0.672 0.32-0.672 0.672s0.32 0.672 0.672 0.672h0.672v0.672c0 0.384 0.288 0.672 0.672 0.672s0.672-0.288 0.672-0.672v-0.672h0.672c0.352 0 0.64-0.288 0.64-0.672s-0.288-0.672-0.64-0.672zM12.672 5.984h18.656c0.384 0 0.672-0.288 0.672-0.64s-0.288-0.672-0.672-0.672h-18.656c-0.384 0-0.672 0.288-0.672 0.672s0.288 0.64 0.672 0.64zM31.328 15.328h-18.656c-0.384 0-0.672 0.288-0.672 0.672s0.288 0.672 0.672 0.672h18.656c0.384 0 0.672-0.32 0.672-0.672s-0.288-0.672-0.672-0.672zM31.328 25.984h-18.656c-0.384 0-0.672 0.32-0.672 0.672s0.288 0.672 0.672 0.672h18.656c0.384 0 0.672-0.288 0.672-0.672s-0.288-0.672-0.672-0.672z"></path> </svg> 