 <svg version="1.1" xmlns="http://www.w3.org/2000/svg" width="32" height="32" viewBox="0 0 32 32">  <path d="M7.872 29.728c-0.256 0-0.544 0-0.8 0 0 0 0 0 0 0l-2.528-0.384 2.784-2.944-0.928-1.056-2.944 2.912-0.384-2.528c-0.128-0.544-0.128-1.056 0-1.6 0.128-0.928 0.672-1.856 1.344-2.528 0 0 0 0 0 0s0 0 0 0 0 0 0 0v0c0 0 0 0 0 0s0 0 0 0 0 0 0 0v0 0c0.8-0.8 1.728-1.216 2.656-1.344 0.544-0.256 0.928-0.256 1.472-0.128v0l4.384-4.384-2.912-3.072-2.016 2.112-0.672-0.64-0.512 0.512c0.384 0.544 0.384 1.344-0.16 1.888l-0.928 0.8c-0.512 0.512-1.472 0.512-1.984 0l-2.944-2.944c-0.256-0.256-0.384-0.672-0.384-0.928s0.128-0.672 0.384-0.928l0.928-0.96c0.288-0.256 0.672-0.384 0.928-0.384 0 0 0 0 0 0 0.416 0 0.672 0.128 0.96 0.384l0.128 0.16 0.512-0.544-0.928-1.056 2.688-2.688c0 0 0 0 0 0s0.128-0.128 0.128-0.128c0 0 0 0 0 0 1.728-1.6 3.2-2.656 4.512-3.328 1.6-0.928 3.2-1.344 4.672-1.344 0 0 0 0 0 0 0.288 0 0.544 0 0.8 0 0.288 0 0.544 0 0.8 0.128l2.4 0.544-4.384 4.416 2.912 2.912 2.816-2.656c-0.128-0.544-0.128-0.928 0-1.472 0.128-0.928 0.544-1.856 1.344-2.656 0 0 0 0 0 0v0 0c0 0 0 0 0 0s0 0 0 0v0c0 0 0 0 0 0s0 0 0 0c0.64-0.672 1.44-1.088 2.4-1.344 0.512-0.128 1.184-0.128 1.856 0l2.528 0.416-2.944 2.784 0.96 1.056 2.912-2.784 0.416 2.528c0 0 0 0 0 0 0.128 0.544 0.128 1.056 0 1.6-0.128 0.928-0.544 1.728-1.216 2.4 0 0 0 0-0.128 0.128 0 0 0 0 0 0s0 0 0 0 0 0 0 0c-1.184 1.216-2.784 1.6-4.384 1.344l-2.688 2.656 9.088 9.088c1.056 1.056 1.056 2.784 0 3.872l-0.96 0.928c-0.512 0.512-1.184 0.8-1.984 0.8 0 0 0 0 0 0-0.8 0-1.472-0.288-2.016-0.8l-9.056-9.088-4.256 4.288c0.128 0.64 0.128 1.312 0 1.984-0.128 0.928-0.672 1.728-1.344 2.4v0c0 0 0 0 0 0s0 0 0 0v0 0c0 0 0 0 0 0s0 0 0 0 0 0 0 0c-0.672 0.672-1.6 1.088-2.528 1.344-0.256 0.256-0.544 0.256-0.8 0.256zM7.456 28.416c0.288 0 0.544 0 0.8 0 0.672-0.16 1.472-0.416 2.016-0.96v0c0 0 0 0 0 0s0 0 0 0 0 0 0 0c0.384-0.384 0.672-0.928 0.928-1.472 0.128-0.512 0.128-1.184 0-1.728v0c0-0.128 0-0.128 0-0.256l-0.128-0.416c-0.128-0.384-0.416-0.64-0.544-0.928 0-0.128-0.128-0.128-0.128-0.128s0 0 0 0c-0.128-0.128-0.256-0.256-0.384-0.256-1.344-1.088-3.36-0.928-4.544 0.256 0 0 0 0 0 0s0 0 0 0 0 0 0 0 0 0 0 0 0 0 0 0 0 0 0 0 0 0 0 0 0 0 0 0 0 0 0 0 0 0 0 0v0c-0.544 0.544-0.8 1.216-0.928 2.016 0 0.384 0 0.64 0 1.056l0.8-1.216c0.256-0.256 0.672-0.384 1.056-0.384 0 0 0 0 0 0 0.416 0 0.672 0.128 0.928 0.384l0.928 0.96c0.288 0.256 0.416 0.512 0.416 0.928s-0.128 0.672-0.416 0.928l-1.056 1.056c0.128 0.16 0.128 0.16 0.256 0.16zM17.728 18.656l9.088 9.088c0.512 0.512 1.44 0.512 1.984 0l0.928-0.96c0.544-0.512 0.544-1.44 0-1.984l-9.056-9.056-2.944 2.912zM11.616 21.856c0.128 0.288 0.256 0.416 0.384 0.672v0l11.072-11.072c-0.416-0.256-0.672-0.512-1.056-0.8-0.416-0.384-0.672-0.8-0.96-1.312l-11.2 11.2c0.288 0.128 0.416 0.256 0.672 0.384 0.288 0.128 0.416 0.256 0.544 0.544 0 0 0 0 0 0s0 0 0 0v0c0.256 0.128 0.384 0.256 0.544 0.384zM2.816 12.384l-1.088 0.96 2.944 3.040 1.056-0.928-0.384-0.384-2.528-2.688zM10.944 11.744l2.912 2.912 2.944-2.912-2.944-2.944-2.912 2.944zM5.344 10.144l2.656 2.656 8.672-8.672c-0.256 0-0.544-0.128-0.928-0.128-0.128 0-0.288 0-0.416 0-1.056 0-2.528 0.256-4.256 1.184-1.344 0.672-2.656 1.76-4 3.072 0 0-0.128 0.128-0.128 0.128s0 0 0 0l-1.6 1.76zM22.944 9.728c1.312 1.344 3.584 1.344 4.928 0v0c0 0 0 0 0 0s0 0 0 0 0 0 0 0 0 0 0 0 0 0 0 0c0.544-0.544 0.8-1.184 0.928-1.856 0-0.288 0-0.672 0-0.928 0 0 0-0.16 0-0.16v0l-1.056 1.088c-0.544 0.512-1.472 0.512-1.888 0l-0.928-1.216c-0.256-0.256-0.384-0.672-0.384-0.928 0-0.384 0.128-0.672 0.384-0.928l1.088-1.056c-0.416 0-0.8 0-1.216 0-0.672 0.128-1.344 0.384-1.728 0.928 0 0 0 0 0 0s0 0 0 0 0 0 0 0 0 0 0 0c-1.472 1.472-1.472 3.712-0.128 5.056v0 0z"></path> </svg> 