 <svg version="1.1" xmlns="http://www.w3.org/2000/svg" width="26" height="32" viewBox="0 0 26 32">  <path d="M6.784 2.176h-6.112c-0.371 0-0.672 0.301-0.672 0.672v0 0 1.664c0.018 0.357 0.311 0.64 0.671 0.64 0 0 0.001 0 0.001 0h24.416c0.371 0 0.672-0.301 0.672-0.672v0-1.632c0-0.371-0.301-0.672-0.672-0.672v0h-6.112l-0.416-1.664c-0.074-0.296-0.338-0.512-0.653-0.512-0.007 0-0.014 0-0.020 0l0.001-0h-10.048c-0.006-0-0.013-0-0.019-0-0.314 0-0.578 0.216-0.652 0.508l-0.001 0.005zM2.048 7.872h21.696c0.371 0 0.672 0.301 0.672 0.672v0 19.392c0 2.244-1.82 4.064-4.064 4.064v0h-14.912c-0.010 0-0.021 0-0.032 0-2.244 0-4.064-1.82-4.064-4.064 0-0 0-0 0-0v0-19.424c0.017-0.357 0.311-0.641 0.671-0.641 0.011 0 0.023 0 0.034 0.001l-0.002-0z"></path> </svg> 