 <svg version="1.1" xmlns="http://www.w3.org/2000/svg" width="32" height="32" viewBox="0 0 32 32">  <path d="M2.016 15.328c-0.416 0-0.672-0.256-0.672-0.672v-13.312c0-0.416 0.256-0.672 0.672-0.672h28c0.384 0 0.64 0.256 0.64 0.672v13.312c0 0.416-0.256 0.672-0.64 0.672h-28zM29.344 13.984v-12h-26.688v12h26.688zM2.016 19.328h28c0.384 0 0.64-0.256 0.64-0.672s-0.256-0.672-0.64-0.672h-28c-0.416 0-0.672 0.288-0.672 0.672s0.256 0.672 0.672 0.672zM2.016 23.328h14.656c0.384 0 0.672-0.256 0.672-0.672s-0.288-0.672-0.672-0.672h-14.656c-0.416 0-0.672 0.288-0.672 0.672s0.256 0.672 0.672 0.672zM2.016 27.328h14.656c0.384 0 0.672-0.256 0.672-0.672s-0.288-0.672-0.672-0.672h-14.656c-0.416 0-0.672 0.288-0.672 0.672s0.256 0.672 0.672 0.672zM2.016 31.328h14.656c0.384 0 0.672-0.256 0.672-0.672s-0.288-0.64-0.672-0.64h-14.656c-0.416 0-0.672 0.256-0.672 0.64s0.256 0.672 0.672 0.672zM20.672 22.4c0.8 1.056 2.272 2.144 4.256 2.272-0.128-0.544 0-1.728 0.8-2.272 0.928-0.544 1.888-0.544 2.816 0.256 0.384 0 1.184-0.384 1.312-0.512-0.128 0.384-0.512 1.056-0.928 1.184 0.288 0 0.928-0.128 1.216-0.256-0.288 0.512-0.8 0.928-1.088 1.056 0.416 3.744-3.84 8.8-9.184 5.6 1.184 0.128 2.4-0.256 3.072-0.928-0.928 0-1.728-0.544-2.144-1.472 0.416 0.128 0.928 0.128 1.216-0.128-0.416 0-1.76-0.8-1.76-2.272 0.288 0.256 0.672 0.416 1.088 0.256-0.544-0.256-1.344-1.44-0.672-2.784v0z"></path> </svg> 