 <svg version="1.1" xmlns="http://www.w3.org/2000/svg" width="32" height="32" viewBox="0 0 32 32">  <path d="M22.272 22.4c-0.256-0.256-0.672-0.256-0.928 0l-2.528 2.656c-0.288 0.288-0.288 0.672 0 0.928l2.528 2.688c0.128 0.128 0.256 0.128 0.384 0.128s0.288 0 0.416-0.128c0.256-0.256 0.256-0.672 0-0.928l-2.016-2.144 2.016-2.144c0.384-0.384 0.384-0.8 0.128-1.056zM28.416 22.4c0.256-0.256 0.64-0.256 0.928 0l2.528 2.656c0.256 0.288 0.256 0.672 0 0.928l-2.528 2.688c-0.128 0.128-0.288 0.128-0.416 0.128s-0.256 0-0.384-0.128c-0.288-0.256-0.288-0.672 0-0.928l1.984-2.144-1.984-2.144c-0.416-0.384-0.416-0.8-0.128-1.056zM26.144 20.128l-2.144 8.8c-0.128 0.416 0.128 0.672 0.544 0.8 0.384 0.128 0.672-0.128 0.8-0.512l2.112-8.96c0.16-0.384-0.128-0.672-0.512-0.8s-0.8 0.288-0.8 0.672zM8.672 13.984c0.384 0.288 0.256 0.96-0.128 1.088-0.128 0-0.416 0-0.672 0 0.384 0.672 0.928 1.184 1.472 1.312 0.512 0 0.672 0.672 0.384 1.088-0.128 0.128-0.384 0.256-0.672 0.384 0.416 0.416 0.96 0.544 1.6 0.672 0.544 0 0.8 0.672 0.416 1.056-0.544 0.544-1.216 0.96-2.016 1.216 4.672 1.344 9.088-2.816 8.544-7.456 0-0.288 0.128-0.416 0.256-0.544-0.512-0.416-0.64-0.8-0.512-1.056-0.128 0-0.288-0.16-0.416-0.16-0.8-0.8-1.728-0.928-2.656-0.256-0.672 0.416-0.928 1.6-0.8 2.272 0.128 0.384-0.256 0.8-0.672 0.672-1.984-0.128-3.744-0.928-4.928-2.272-0.128 0.8 0.256 1.728 0.8 1.984zM7.072 10.4c0.128-0.256 0.672-0.416 0.928 0 1.056 1.472 2.4 2.4 4.256 2.656 0-1.056 0.544-2.272 1.472-2.784 1.344-0.8 2.688-0.8 3.872 0.256 0.416-0.128 0.928-0.384 1.056-0.544 0.416-0.384 1.088 0.16 0.96 0.672 0 0.128-0.16 0.288-0.16 0.416 0.416 0 0.672 0.512 0.416 0.928-0.256 0.384-0.672 0.928-1.216 1.344 0.416 6.112-6.112 11.328-12.384 7.456-0.544-0.416-0.256-1.216 0.384-1.056 0.8 0.128 1.6 0 2.272-0.416-0.8-0.384-1.472-1.056-1.728-1.856-0.128-0.288 0-0.544 0.256-0.672-0.64-0.672-1.056-1.472-1.056-2.528 0-0.288 0.128-0.544 0.416-0.544-0.288-1.056-0.288-2.272 0.256-3.328zM15.328 27.616h-12.512c-0.8 0-1.6-0.832-1.6-1.888v-20.256c0-1.088 0.64-1.888 1.6-1.888h20.928c0.8 0 1.6 0.8 1.6 1.888v10.784c0 0.416 0.256 0.672 0.672 0.672s0.64-0.256 0.64-0.672v-10.784c0-1.728-1.184-3.2-2.912-3.2h-20.928c-1.6 0-2.816 1.472-2.816 3.2v20.256c0 1.728 1.216 3.2 2.944 3.2h12.384c0.416 0 0.672-0.256 0.672-0.672s-0.256-0.64-0.672-0.64z"></path> </svg> 