 <svg version="1.1" xmlns="http://www.w3.org/2000/svg" width="32" height="32" viewBox="0 0 32 32">  <path d="M26.656 16c0-5.888-4.768-10.656-10.656-10.656s-10.656 4.768-10.656 10.656 4.768 10.656 10.656 10.656 10.656-4.768 10.656-10.656zM29.344 16c0 7.36-5.984 13.344-13.344 13.344s-13.344-5.984-13.344-13.344 5.984-13.344 13.344-13.344 13.344 5.984 13.344 13.344zM17.344 13.344h3.328c0.192 0 0.32-0.064 0.448-0.192s0.224-0.256 0.224-0.416-0.064-0.288-0.224-0.416l-4.64-4.128c-0.16-0.128-0.32-0.192-0.48-0.192s-0.32 0.064-0.48 0.192l-4.64 4.128c-0.16 0.128-0.224 0.256-0.224 0.416s0.064 0.288 0.224 0.416 0.288 0.192 0.448 0.192h3.328v9.376c0 0.512 0.608 1.28 1.344 1.28s1.344-0.736 1.344-1.28v-9.376z"></path> </svg> 