 <svg version="1.1" xmlns="http://www.w3.org/2000/svg" width="32" height="32" viewBox="0 0 32 32">  <path d="M30.016 7.328h-28c-1.12 0-2.016 0.896-2.016 2.016v13.312c0 1.12 0.896 2.016 2.016 2.016h28c1.088 0 1.984-0.896 1.984-2.016v-13.312c0-1.12-0.896-2.016-1.984-2.016zM30.656 22.656c0 0.384-0.288 0.672-0.64 0.672h-28c-0.384 0-0.672-0.288-0.672-0.672v-13.312c0-0.384 0.288-0.672 0.672-0.672h28c0.352 0 0.64 0.288 0.64 0.672v13.312zM10.176 12.672c-0.384-0.064-0.736 0.128-0.832 0.512l-0.832 3.392-1.216-2.848c-0.224-0.48-1.024-0.48-1.248 0l-1.216 2.848-0.864-3.392c-0.064-0.384-0.448-0.576-0.8-0.512-0.352 0.096-0.576 0.48-0.48 0.832l1.344 5.312c0.064 0.288 0.288 0.48 0.576 0.512 0.32 0.032 0.576-0.128 0.672-0.416l1.376-3.232 1.408 3.232c0.096 0.256 0.352 0.416 0.608 0.416 0 0 0.032 0 0.064 0 0.256-0.032 0.512-0.224 0.576-0.512l1.344-5.312c0.096-0.352-0.128-0.736-0.48-0.832zM19.488 12.672c-0.352-0.064-0.704 0.128-0.8 0.512l-0.864 3.392-1.216-2.848c-0.192-0.48-1.024-0.48-1.216 0l-1.216 2.848-0.864-3.392c-0.096-0.384-0.448-0.576-0.8-0.512-0.352 0.096-0.576 0.48-0.48 0.832l1.312 5.312c0.096 0.288 0.32 0.48 0.608 0.512s0.544-0.128 0.672-0.416l1.376-3.232 1.376 3.232c0.128 0.256 0.352 0.416 0.64 0.416 0 0 0.032 0 0.032 0 0.288-0.032 0.544-0.224 0.608-0.512l1.312-5.312c0.096-0.352-0.128-0.736-0.48-0.832zM28.832 12.672c-0.352-0.064-0.736 0.128-0.8 0.512l-0.864 3.392-1.216-2.848c-0.224-0.48-1.024-0.48-1.216 0l-1.248 2.848-0.832-3.392c-0.096-0.384-0.448-0.576-0.8-0.512-0.384 0.096-0.576 0.48-0.512 0.832l1.344 5.312c0.064 0.288 0.32 0.48 0.608 0.512s0.544-0.128 0.64-0.416l1.408-3.232 1.376 3.232c0.096 0.256 0.352 0.416 0.608 0.416 0.032 0 0.032 0 0.064 0 0.288-0.032 0.512-0.224 0.576-0.512l1.344-5.312c0.096-0.352-0.128-0.736-0.48-0.832z"></path> </svg> 