 <svg version="1.1" xmlns="http://www.w3.org/2000/svg" width="32" height="32" viewBox="0 0 32 32">  <path d="M12.064 8.128c-0.224 0.224-0.16 0.416 0.192 0.416h2.432v4.192c0 0.352 0.256 0.608 0.576 0.608h2.432c0.352 0 0.608-0.256 0.608-0.608v-4.192h2.432c0.32 0 0.384-0.192 0.16-0.416l-3.968-3.968c-0.256-0.224-0.64-0.224-0.864 0l-4 3.968zM12.064 23.872c-0.224-0.224-0.16-0.416 0.192-0.416h2.432v-4.224c0-0.32 0.256-0.576 0.576-0.576h2.432c0.352 0 0.608 0.256 0.608 0.576v4.224h2.4c0.352 0 0.416 0.192 0.192 0.416l-3.968 3.968c-0.256 0.224-0.64 0.224-0.864 0l-4-3.968zM25.568 17.792c0.32 0 0.608-0.256 0.608-0.576v-2.432c0-0.32-0.288-0.576-0.608-0.576h-18.144c-0.352 0-0.608 0.256-0.608 0.576v2.432c0 0.32 0.256 0.576 0.608 0.576h18.144z"></path> </svg> 