 <svg version="1.1" xmlns="http://www.w3.org/2000/svg" width="32" height="32" viewBox="0 0 32 32">  <path d="M11.008 14.816c-0.224 0.288-0.128 0.512 0.224 0.512h2.624v12c0 0.384 0.32 0.672 0.672 0.672h2.624c0.352 0 0.64-0.288 0.64-0.672v-12h2.624c0.384 0 0.48-0.224 0.224-0.512l-4.352-4.992c-0.256-0.256-0.64-0.256-0.896 0l-4.384 4.992zM5.984 4c-0.352 0-0.64 0.288-0.64 0.672v2.656c0 0.384 0.288 0.672 0.64 0.672h19.712c0.352 0 0.64-0.288 0.64-0.672v-2.656c0-0.384-0.288-0.672-0.64-0.672h-19.712z"></path> </svg> 