 <svg version="1.1" xmlns="http://www.w3.org/2000/svg" width="32" height="32" viewBox="0 0 32 32">  <path d="M20.64 17.152c0.256-0.256 0.16-0.48-0.224-0.48h-2.624v-12c0-0.384-0.288-0.672-0.64-0.672h-2.624c-0.384 0-0.672 0.288-0.672 0.672v12h-2.624c-0.352 0-0.448 0.224-0.224 0.48l4.384 5.024c0.256 0.256 0.64 0.256 0.896 0l4.352-5.024zM25.696 28c0.352 0 0.64-0.288 0.64-0.672v-2.656c0-0.384-0.288-0.672-0.64-0.672h-19.712c-0.352 0-0.64 0.288-0.64 0.672v2.656c0 0.384 0.288 0.672 0.64 0.672h19.712z"></path> </svg> 