 <svg version="1.1" xmlns="http://www.w3.org/2000/svg" width="32" height="32" viewBox="0 0 32 32">  <path d="M10.976 23.040c-0.256 0.224-0.16 0.384 0.192 0.384h2.688v3.84c0 0.32 0.288 0.544 0.64 0.544h2.688c0.352 0 0.64-0.256 0.64-0.544v-3.84h2.656c0.384 0 0.448-0.16 0.192-0.384l-4.352-3.616c-0.288-0.192-0.704-0.192-0.96 0l-4.384 3.616zM10.976 8.96c-0.256-0.224-0.16-0.384 0.192-0.384h2.688v-3.84c0-0.32 0.288-0.544 0.64-0.544h2.688c0.352 0 0.64 0.256 0.64 0.544v3.84h2.656c0.384 0 0.448 0.16 0.192 0.384l-4.352 3.584c-0.288 0.224-0.704 0.224-0.96 0l-4.384-3.584zM25.504 17.952c0.352 0 0.672-0.288 0.672-0.64v-2.624c0-0.352-0.32-0.672-0.672-0.672h-20c-0.384 0-0.672 0.32-0.672 0.672v2.624c0 0.352 0.32 0.64 0.672 0.64h20z"></path> </svg> 