 <svg version="1.1" xmlns="http://www.w3.org/2000/svg" width="32" height="32" viewBox="0 0 32 32">  <path d="M5.76 10.848v17.888h21.632v-17.888l-10.72-6.912-10.912 6.912zM3.36 8.832l12.48-7.936c0.512-0.32 1.184-0.32 1.696 0l12.256 7.904c0.448 0.288 0.704 0.736 0.704 1.248v20.16c0 0.832-0.704 1.472-1.568 1.472h-24.704c-0.864 0-1.568-0.64-1.568-1.472v-20.128c0-0.512 0.256-0.96 0.704-1.248zM16.832 15.264c1.216-1.664 2.624-2.272 4.288-1.728 2.464 0.768 2.144 3.872 1.216 5.216-0.896 1.248-2.72 3.040-5.504 5.408v0c-2.752-2.368-4.576-4.16-5.472-5.408-0.96-1.344-1.248-4.448 1.216-5.216 1.632-0.544 3.072 0.032 4.256 1.728v0z"></path> </svg> 