 <svg version="1.1" xmlns="http://www.w3.org/2000/svg" width="32" height="32" viewBox="0 0 32 32">  <path d="M28.672 6.656h-25.344c-1.824 0-3.328 1.504-3.328 3.328v9.344c0 1.856 1.504 3.328 3.328 3.328h12.896l4.096 2.56c0.096 0.096 0.224 0.128 0.352 0.128 0.16 0 0.352-0.096 0.48-0.224 0.224-0.224 0.256-0.576 0.064-0.832l-1.088-1.632h8.544c1.824 0 3.328-1.472 3.328-3.328v-9.344c0-1.824-1.504-3.328-3.328-3.328zM30.656 19.328c0 1.12-0.896 2.016-1.984 2.016h-9.792c-0.224 0-0.448 0.128-0.576 0.352s-0.096 0.48 0.032 0.672l0.064 0.096-1.632-1.024c-0.128-0.064-0.256-0.096-0.352-0.096h-13.088c-1.088 0-1.984-0.896-1.984-2.016v-9.344c0-1.088 0.896-1.984 1.984-1.984h25.344c1.088 0 1.984 0.896 1.984 1.984v9.344zM13.472 8.928c-1.504 1.92-1.952 6.336-2.080 8.736-0.736-1.376-1.312-3.68-1.632-4.992-0.352-1.568-0.48-2.016-1.088-2.016-0.544 0-0.608 0-2.72 4.608-0.32 0.672-0.704 1.504-1.024 2.176-0.192-1.312-0.384-3.168-0.576-4.544-0.128-1.152-0.256-2.208-0.352-2.976-0.064-0.384-0.384-0.64-0.768-0.576-0.352 0.032-0.608 0.384-0.544 0.736 0.096 0.768 0.224 1.824 0.352 2.976 0.832 6.944 0.864 6.944 1.632 6.944 0.544 0 0.576 0 2.496-4.192 0.416-0.896 0.928-1.984 1.312-2.816 0.736 3.072 1.6 6.144 3.232 6.944 0.096 0.032 0.192 0.064 0.288 0.064 0.128 0 0.256-0.032 0.352-0.096 0.192-0.128 0.32-0.352 0.32-0.576 0-2.784 0.512-7.84 1.856-9.6 0.224-0.288 0.16-0.704-0.128-0.928s-0.704-0.16-0.928 0.128zM18.784 10.656c-1.728 0-3.488 2.016-4 4.544-0.288 1.6-0.032 3.072 0.704 3.936 0.448 0.576 1.056 0.864 1.728 0.864 1.76 0 3.488-1.984 4-4.544 0.288-1.568 0.032-3.040-0.704-3.936-0.448-0.544-1.056-0.864-1.728-0.864zM19.904 15.2c-0.416 2.048-1.728 3.456-2.688 3.456-0.288 0-0.512-0.096-0.704-0.352-0.48-0.576-0.64-1.664-0.416-2.848 0.416-2.048 1.728-3.456 2.688-3.456 0.288 0 0.512 0.128 0.704 0.352 0.48 0.576 0.64 1.664 0.416 2.848zM26.784 10.656c-1.728 0-3.488 2.016-4 4.544-0.288 1.6-0.032 3.072 0.704 3.936 0.448 0.576 1.056 0.864 1.728 0.864 1.76 0 3.488-1.984 4-4.544 0.288-1.568 0.032-3.040-0.704-3.936-0.448-0.544-1.056-0.864-1.728-0.864zM27.904 15.2c-0.416 2.048-1.728 3.456-2.688 3.456-0.288 0-0.512-0.096-0.704-0.352-0.48-0.576-0.64-1.664-0.416-2.848 0.416-2.048 1.728-3.456 2.688-3.456 0.288 0 0.512 0.128 0.704 0.352 0.48 0.576 0.64 1.664 0.416 2.848z"></path> </svg> 