 <svg version="1.1" xmlns="http://www.w3.org/2000/svg" width="32" height="32" viewBox="0 0 32 32">  <path d="M28.032 5.472c-0.128-0.16-0.256-0.288-0.384-0.416-2.944-3.104-7.072-5.056-11.648-5.056-8.832 0-16 7.168-16 16s7.168 16 16 16 16-7.168 16-16c0-4.032-1.504-7.712-3.968-10.528zM27.424 6.976c0.288 0.544 0.768 2.24-0.416 6.464-0.448-1.152-1.12-2.304-1.696-3.328-0.64-1.088-1.312-2.208-1.312-2.784 0-1.984 0.864-1.984 1.344-1.984 0.288 0 0.704 0.064 1.12 0.384 0.192 0.224 0.384 0.448 0.576 0.64 0.128 0.192 0.256 0.384 0.384 0.608zM16 1.344c3.2 0 6.144 1.024 8.544 2.752-0.896 0.256-1.888 1.024-1.888 3.232 0 0.928 0.704 2.112 1.504 3.456 1.056 1.792 2.368 4.032 1.856 5.696 0 0.064 0 0.128 0 0.192-0.768 2.368-1.696 5.312-2.496 7.744l-4.768-14.912c0.288-0.064 0.544-0.128 0.8-0.192 0.352-0.128 0.544-0.512 0.416-0.864s-0.48-0.544-0.832-0.416c-0.928 0.32-2.56 0.288-3.52 0.288h-0.576c-0.928 0-2.56 0.032-3.488-0.288-0.352-0.096-0.736 0.064-0.864 0.416-0.096 0.352 0.096 0.736 0.448 0.864 0.448 0.128 1.024 0.224 1.568 0.288l2.56 7.168-2.528 7.232-4.64-14.496c0.256-0.064 0.544-0.128 0.8-0.192 0.32-0.128 0.512-0.512 0.416-0.864-0.128-0.352-0.512-0.544-0.864-0.416-0.928 0.32-2.528 0.32-3.488 0.288h-0.288c-0.48 0-0.832-0.032-1.088-0.096 2.592-4.128 7.168-6.88 12.416-6.88zM21.248 29.664l-4.576-12.96c0-0.192-0.064-0.352-0.192-0.48l-2.304-6.56c0.32 0 0.608 0 0.896 0h0.544c0.096 0 0.224 0 0.352 0 0.448 0 0.928 0 1.44-0.032l5.28 16.576c0.032 0.096 0.128 0.16 0.192 0.256-0.512 1.6-0.832 2.656-0.832 2.656l0.256 0.096c-0.32 0.16-0.672 0.32-1.056 0.448zM10.56 29.6l-7.104-20.032c0.352 0.064 0.704 0.096 1.216 0.096h0.256c0.128 0 0.256 0 0.384 0 0.416 0 0.928 0 1.408-0.032l5.28 16.448-1.248 3.584c-0.064 0-0.128-0.032-0.192-0.064zM1.344 16c0-1.92 0.384-3.776 1.056-5.44l6.464 18.24c-4.48-2.496-7.52-7.296-7.52-12.8zM12 30.112l3.968-11.36 4.032 11.36c-1.28 0.352-2.624 0.544-4 0.544s-2.72-0.192-4-0.544zM23.648 28.512c0.864-2.72 3.2-10.112 4.32-13.632 0.672-2.144 1.056-4 1.12-5.504 0.992 2.016 1.568 4.256 1.568 6.624 0 5.28-2.816 9.92-7.008 12.512z"></path> </svg> 