 <svg version="1.1" xmlns="http://www.w3.org/2000/svg" width="32" height="32" viewBox="0 0 32 32">  <path d="M16 27.808c-1.568 0-3.136-0.064-4.672-0.192l-7.072-0.64c-2.432-0.192-4.256-2.208-4.256-4.64v-12.672c0-2.432 1.824-4.448 4.256-4.64l7.072-0.608c3.104-0.288 6.24-0.288 9.344 0l7.072 0.608c2.432 0.192 4.256 2.208 4.256 4.64v12.672c0 2.432-1.824 4.448-4.256 4.64l-7.072 0.64c-1.536 0.128-3.104 0.192-4.672 0.192zM16 5.536c-1.536 0-3.040 0.064-4.576 0.192l-7.040 0.608c-1.728 0.16-3.040 1.6-3.040 3.328v12.672c0 1.728 1.312 3.168 3.040 3.328l7.040 0.608c3.040 0.256 6.112 0.256 9.152 0l7.040-0.608c1.728-0.16 3.040-1.6 3.040-3.328v-12.672c0-1.728-1.312-3.168-3.040-3.328l-7.040-0.608c-1.536-0.128-3.040-0.192-4.576-0.192zM12.672 22.656c-0.128 0-0.224 0-0.32-0.064-0.224-0.128-0.352-0.352-0.352-0.576v-12c0-0.256 0.128-0.48 0.352-0.608 0.224-0.096 0.48-0.096 0.672 0.032l9.344 6.016c0.192 0.096 0.288 0.32 0.288 0.544s-0.096 0.448-0.288 0.576l-9.344 5.984c-0.096 0.064-0.224 0.096-0.352 0.096zM13.344 11.232v9.536l7.424-4.768-7.424-4.768z"></path> </svg> 