 <svg version="1.1" xmlns="http://www.w3.org/2000/svg" width="32" height="32" viewBox="0 0 32 32">  <path d="M20.672 18.656h-1.056l-0.416-0.384c1.344-1.472 2.144-3.488 2.144-5.6 0-4.8-3.872-8.672-8.672-8.672s-8.672 3.872-8.672 8.672c0 4.8 3.872 8.672 8.672 8.672 2.144 0 4.128-0.8 5.6-2.144l0.384 0.384v1.088l6.688 6.656 1.984-1.984-6.656-6.688zM12.672 18.656c-3.328 0-6.016-2.656-6.016-5.984s2.688-6.016 6.016-6.016 5.984 2.688 5.984 6.016-2.656 5.984-5.984 5.984zM13.344 12h2.656v1.344h-2.656v2.656h-1.344v-2.656h-2.656v-1.344h2.656v-2.656h1.344v2.656z"></path> </svg> 